<?xml version="1.0" encoding="utf-8" standalone="no"?>
<!DOCTYPE svg PUBLIC "-//W3C//DTD SVG 1.1//EN"
  "http://www.w3.org/Graphics/SVG/1.1/DTD/svg11.dtd">
<svg xmlns:xlink="http://www.w3.org/1999/xlink" width="460.8pt" height="345.6pt" viewBox="0 0 460.8 345.6" xmlns="http://www.w3.org/2000/svg" version="1.1">
 <metadata>
  <rdf:RDF xmlns:dc="http://purl.org/dc/elements/1.1/" xmlns:cc="http://creativecommons.org/ns#" xmlns:rdf="http://www.w3.org/1999/02/22-rdf-syntax-ns#">
   <cc:Work>
    <dc:type rdf:resource="http://purl.org/dc/dcmitype/StillImage"/>
    <dc:date>2022-12-31T16:17:59.614590</dc:date>
    <dc:format>image/svg+xml</dc:format>
    <dc:creator>
     <cc:Agent>
      <dc:title>Matplotlib v3.6.2, https://matplotlib.org/</dc:title>
     </cc:Agent>
    </dc:creator>
   </cc:Work>
  </rdf:RDF>
 </metadata>
 <defs>
  <style type="text/css">*{stroke-linejoin: round; stroke-linecap: butt}</style>
 </defs>
 <g id="figure_1">
  <g id="patch_1">
   <path d="M 0 345.6 
L 460.8 345.6 
L 460.8 0 
L 0 0 
z
" style="fill: #ffffff"/>
  </g>
  <g id="axes_1">
   <g id="LineCollection_1">
    <path d="M 273.73853 209.647303 
L 253.789693 190.060607 
" clip-path="url(#pde3c2f4ff4)" style="fill: none; stroke: #000000"/>
    <path d="M 273.73853 209.647303 
L 288.908075 240.989382 
" clip-path="url(#pde3c2f4ff4)" style="fill: none; stroke: #000000"/>
    <path d="M 273.73853 209.647303 
L 271.574403 149.483412 
" clip-path="url(#pde3c2f4ff4)" style="fill: none; stroke: #000000"/>
    <path d="M 273.73853 209.647303 
L 295.571215 222.723347 
" clip-path="url(#pde3c2f4ff4)" style="fill: none; stroke: #000000"/>
    <path d="M 273.73853 209.647303 
L 327.697228 207.30697 
" clip-path="url(#pde3c2f4ff4)" style="fill: none; stroke: #000000"/>
    <path d="M 273.73853 209.647303 
L 202.137469 243.535103 
" clip-path="url(#pde3c2f4ff4)" style="fill: none; stroke: #000000"/>
    <path d="M 273.73853 209.647303 
L 268.714783 198.263702 
" clip-path="url(#pde3c2f4ff4)" style="fill: none; stroke: #000000"/>
    <path d="M 273.73853 209.647303 
L 266.350541 226.860243 
" clip-path="url(#pde3c2f4ff4)" style="fill: none; stroke: #000000"/>
    <path d="M 273.73853 209.647303 
L 257.706984 220.119096 
" clip-path="url(#pde3c2f4ff4)" style="fill: none; stroke: #000000"/>
    <path d="M 273.73853 209.647303 
L 294.350665 215.874449 
" clip-path="url(#pde3c2f4ff4)" style="fill: none; stroke: #000000"/>
    <path d="M 273.73853 209.647303 
L 250.934664 212.315437 
" clip-path="url(#pde3c2f4ff4)" style="fill: none; stroke: #000000"/>
    <path d="M 273.73853 209.647303 
L 284.584316 187.915914 
" clip-path="url(#pde3c2f4ff4)" style="fill: none; stroke: #000000"/>
    <path d="M 273.73853 209.647303 
L 276.200135 223.068791 
" clip-path="url(#pde3c2f4ff4)" style="fill: none; stroke: #000000"/>
    <path d="M 273.73853 209.647303 
L 313.211827 233.70156 
" clip-path="url(#pde3c2f4ff4)" style="fill: none; stroke: #000000"/>
    <path d="M 273.73853 209.647303 
L 227.378053 237.643972 
" clip-path="url(#pde3c2f4ff4)" style="fill: none; stroke: #000000"/>
    <path d="M 273.73853 209.647303 
L 284.886072 227.07998 
" clip-path="url(#pde3c2f4ff4)" style="fill: none; stroke: #000000"/>
    <path d="M 273.73853 209.647303 
L 294.226026 203.272206 
" clip-path="url(#pde3c2f4ff4)" style="fill: none; stroke: #000000"/>
    <path d="M 273.73853 209.647303 
L 327.451934 181.887537 
" clip-path="url(#pde3c2f4ff4)" style="fill: none; stroke: #000000"/>
    <path d="M 273.73853 209.647303 
L 254.467027 203.943138 
" clip-path="url(#pde3c2f4ff4)" style="fill: none; stroke: #000000"/>
    <path d="M 253.789693 190.060607 
L 295.602811 193.488122 
" clip-path="url(#pde3c2f4ff4)" style="fill: none; stroke: #000000"/>
    <path d="M 253.789693 190.060607 
L 210.917975 178.783102 
" clip-path="url(#pde3c2f4ff4)" style="fill: none; stroke: #000000"/>
    <path d="M 288.908075 240.989382 
L 300.600238 266.083998 
" clip-path="url(#pde3c2f4ff4)" style="fill: none; stroke: #000000"/>
    <path d="M 271.574403 149.483412 
L 289.527151 115.696244 
" clip-path="url(#pde3c2f4ff4)" style="fill: none; stroke: #000000"/>
    <path d="M 271.574403 149.483412 
L 194.120318 110.491885 
" clip-path="url(#pde3c2f4ff4)" style="fill: none; stroke: #000000"/>
    <path d="M 271.574403 149.483412 
L 345.893561 162.922162 
" clip-path="url(#pde3c2f4ff4)" style="fill: none; stroke: #000000"/>
    <path d="M 271.574403 149.483412 
L 292.504654 131.181132 
" clip-path="url(#pde3c2f4ff4)" style="fill: none; stroke: #000000"/>
    <path d="M 289.527151 115.696244 
L 305.889144 85.664291 
" clip-path="url(#pde3c2f4ff4)" style="fill: none; stroke: #000000"/>
    <path d="M 327.697228 207.30697 
L 358.663748 212.006407 
" clip-path="url(#pde3c2f4ff4)" style="fill: none; stroke: #000000"/>
    <path d="M 327.697228 207.30697 
L 357.865968 202.794151 
" clip-path="url(#pde3c2f4ff4)" style="fill: none; stroke: #000000"/>
    <path d="M 305.889144 85.664291 
L 319.833196 72.448692 
" clip-path="url(#pde3c2f4ff4)" style="fill: none; stroke: #000000"/>
    <path d="M 305.889144 85.664291 
L 312.738598 62.536916 
" clip-path="url(#pde3c2f4ff4)" style="fill: none; stroke: #000000"/>
    <path d="M 194.120318 110.491885 
L 137.739635 75.396092 
" clip-path="url(#pde3c2f4ff4)" style="fill: none; stroke: #000000"/>
    <path d="M 194.120318 110.491885 
L 176.104597 123.421274 
" clip-path="url(#pde3c2f4ff4)" style="fill: none; stroke: #000000"/>
    <path d="M 194.120318 110.491885 
L 180.694096 106.546675 
" clip-path="url(#pde3c2f4ff4)" style="fill: none; stroke: #000000"/>
    <path d="M 194.120318 110.491885 
L 197.09365 95.125127 
" clip-path="url(#pde3c2f4ff4)" style="fill: none; stroke: #000000"/>
    <path d="M 194.120318 110.491885 
L 147.245919 119.348859 
" clip-path="url(#pde3c2f4ff4)" style="fill: none; stroke: #000000"/>
    <path d="M 194.120318 110.491885 
L 169.845034 105.288152 
" clip-path="url(#pde3c2f4ff4)" style="fill: none; stroke: #000000"/>
    <path d="M 194.120318 110.491885 
L 197.158888 85.28959 
" clip-path="url(#pde3c2f4ff4)" style="fill: none; stroke: #000000"/>
    <path d="M 194.120318 110.491885 
L 209.872286 98.62733 
" clip-path="url(#pde3c2f4ff4)" style="fill: none; stroke: #000000"/>
    <path d="M 194.120318 110.491885 
L 181.255042 96.907558 
" clip-path="url(#pde3c2f4ff4)" style="fill: none; stroke: #000000"/>
    <path d="M 137.739635 75.396092 
L 133.043028 59.989616 
" clip-path="url(#pde3c2f4ff4)" style="fill: none; stroke: #000000"/>
    <path d="M 137.739635 75.396092 
L 102.382218 66.507394 
" clip-path="url(#pde3c2f4ff4)" style="fill: none; stroke: #000000"/>
    <path d="M 137.739635 75.396092 
L 94.786073 44.60231 
" clip-path="url(#pde3c2f4ff4)" style="fill: none; stroke: #000000"/>
    <path d="M 202.137469 243.535103 
L 178.808417 274.689502 
" clip-path="url(#pde3c2f4ff4)" style="fill: none; stroke: #000000"/>
    <path d="M 202.137469 243.535103 
L 193.320104 255.15657 
" clip-path="url(#pde3c2f4ff4)" style="fill: none; stroke: #000000"/>
    <path d="M 202.137469 243.535103 
L 138.534571 234.875887 
" clip-path="url(#pde3c2f4ff4)" style="fill: none; stroke: #000000"/>
    <path d="M 202.137469 243.535103 
L 205.569983 269.37876 
" clip-path="url(#pde3c2f4ff4)" style="fill: none; stroke: #000000"/>
    <path d="M 202.137469 243.535103 
L 183.230178 264.495301 
" clip-path="url(#pde3c2f4ff4)" style="fill: none; stroke: #000000"/>
    <path d="M 176.104597 123.421274 
L 165.462739 138.109972 
" clip-path="url(#pde3c2f4ff4)" style="fill: none; stroke: #000000"/>
    <path d="M 295.602811 193.488122 
L 315.586549 205.038727 
" clip-path="url(#pde3c2f4ff4)" style="fill: none; stroke: #000000"/>
    <path d="M 295.602811 193.488122 
L 315.232849 186.006544 
" clip-path="url(#pde3c2f4ff4)" style="fill: none; stroke: #000000"/>
    <path d="M 295.602811 193.488122 
L 318.569387 197.855664 
" clip-path="url(#pde3c2f4ff4)" style="fill: none; stroke: #000000"/>
    <path d="M 345.893561 162.922162 
L 397.49533 178.548908 
" clip-path="url(#pde3c2f4ff4)" style="fill: none; stroke: #000000"/>
    <path d="M 345.893561 162.922162 
L 377.663986 159.718454 
" clip-path="url(#pde3c2f4ff4)" style="fill: none; stroke: #000000"/>
    <path d="M 345.893561 162.922162 
L 376.485146 167.87537 
" clip-path="url(#pde3c2f4ff4)" style="fill: none; stroke: #000000"/>
    <path d="M 178.808417 274.689502 
L 156.748011 301.489496 
" clip-path="url(#pde3c2f4ff4)" style="fill: none; stroke: #000000"/>
    <path d="M 292.504654 131.181132 
L 310.377966 118.089453 
" clip-path="url(#pde3c2f4ff4)" style="fill: none; stroke: #000000"/>
    <path d="M 210.917975 178.783102 
L 175.040873 171.638419 
" clip-path="url(#pde3c2f4ff4)" style="fill: none; stroke: #000000"/>
    <path d="M 210.917975 178.783102 
L 194.107691 171.230082 
" clip-path="url(#pde3c2f4ff4)" style="fill: none; stroke: #000000"/>
    <path d="M 397.49533 178.548908 
L 426.026749 189.393305 
" clip-path="url(#pde3c2f4ff4)" style="fill: none; stroke: #000000"/>
    <path d="M 397.49533 178.548908 
L 429.717456 181.672433 
" clip-path="url(#pde3c2f4ff4)" style="fill: none; stroke: #000000"/>
    <path d="M 147.245919 119.348859 
L 118.576963 118.647893 
" clip-path="url(#pde3c2f4ff4)" style="fill: none; stroke: #000000"/>
    <path d="M 147.245919 119.348859 
L 120.122309 126.179007 
" clip-path="url(#pde3c2f4ff4)" style="fill: none; stroke: #000000"/>
    <path d="M 138.534571 234.875887 
L 112.546664 230.200781 
" clip-path="url(#pde3c2f4ff4)" style="fill: none; stroke: #000000"/>
    <path d="M 138.534571 234.875887 
L 113.71243 240.377202 
" clip-path="url(#pde3c2f4ff4)" style="fill: none; stroke: #000000"/>
    <path d="M 138.534571 234.875887 
L 105.539192 236.344448 
" clip-path="url(#pde3c2f4ff4)" style="fill: none; stroke: #000000"/>
    <path d="M 138.534571 234.875887 
L 115.246267 246.83737 
" clip-path="url(#pde3c2f4ff4)" style="fill: none; stroke: #000000"/>
    <path d="M 138.534571 234.875887 
L 117.603377 216.767633 
" clip-path="url(#pde3c2f4ff4)" style="fill: none; stroke: #000000"/>
    <path d="M 102.382218 66.507394 
L 83.822308 56.969427 
" clip-path="url(#pde3c2f4ff4)" style="fill: none; stroke: #000000"/>
    <path d="M 102.382218 66.507394 
L 77.2694 65.091675 
" clip-path="url(#pde3c2f4ff4)" style="fill: none; stroke: #000000"/>
    <path d="M 94.786073 44.60231 
L 74.064622 34.024984 
" clip-path="url(#pde3c2f4ff4)" style="fill: none; stroke: #000000"/>
    <path d="M 94.786073 44.60231 
L 100.071914 28.279834 
" clip-path="url(#pde3c2f4ff4)" style="fill: none; stroke: #000000"/>
    <path d="M 94.786073 44.60231 
L 54.002171 40.934387 
" clip-path="url(#pde3c2f4ff4)" style="fill: none; stroke: #000000"/>
    <path d="M 94.786073 44.60231 
L 89.522933 25.762533 
" clip-path="url(#pde3c2f4ff4)" style="fill: none; stroke: #000000"/>
    <path d="M 94.786073 44.60231 
L 79.176207 27.784177 
" clip-path="url(#pde3c2f4ff4)" style="fill: none; stroke: #000000"/>
    <path d="M 300.600238 266.083998 
L 308.585649 283.982251 
" clip-path="url(#pde3c2f4ff4)" style="fill: none; stroke: #000000"/>
    <path d="M 284.584316 187.915914 
L 295.572171 172.593425 
" clip-path="url(#pde3c2f4ff4)" style="fill: none; stroke: #000000"/>
    <path d="M 156.748011 301.489496 
L 137.986868 315.373299 
" clip-path="url(#pde3c2f4ff4)" style="fill: none; stroke: #000000"/>
    <path d="M 156.748011 301.489496 
L 150.138271 319.837467 
" clip-path="url(#pde3c2f4ff4)" style="fill: none; stroke: #000000"/>
    <path d="M 312.738598 62.536916 
L 319.604261 45.998774 
" clip-path="url(#pde3c2f4ff4)" style="fill: none; stroke: #000000"/>
    <path d="M 313.211827 233.70156 
L 340.351112 245.064621 
" clip-path="url(#pde3c2f4ff4)" style="fill: none; stroke: #000000"/>
    <path d="M 313.211827 233.70156 
L 331.610878 250.463144 
" clip-path="url(#pde3c2f4ff4)" style="fill: none; stroke: #000000"/>
    <path d="M 205.569983 269.37876 
L 207.810313 288.802311 
" clip-path="url(#pde3c2f4ff4)" style="fill: none; stroke: #000000"/>
    <path d="M 175.040873 171.638419 
L 148.188757 166.071608 
" clip-path="url(#pde3c2f4ff4)" style="fill: none; stroke: #000000"/>
    <path d="M 227.378053 237.643972 
L 235.277935 254.306372 
" clip-path="url(#pde3c2f4ff4)" style="fill: none; stroke: #000000"/>
    <path d="M 227.378053 237.643972 
L 176.488624 253.254221 
" clip-path="url(#pde3c2f4ff4)" style="fill: none; stroke: #000000"/>
    <path d="M 227.378053 237.643972 
L 222.973901 252.672355 
" clip-path="url(#pde3c2f4ff4)" style="fill: none; stroke: #000000"/>
    <path d="M 197.158888 85.28959 
L 199.684044 67.314334 
" clip-path="url(#pde3c2f4ff4)" style="fill: none; stroke: #000000"/>
    <path d="M 183.230178 264.495301 
L 168.413971 280.909686 
" clip-path="url(#pde3c2f4ff4)" style="fill: none; stroke: #000000"/>
    <path d="M 54.002171 40.934387 
L 33.05201 49.260451 
" clip-path="url(#pde3c2f4ff4)" style="fill: none; stroke: #000000"/>
    <path d="M 54.002171 40.934387 
L 31.082544 29.993644 
" clip-path="url(#pde3c2f4ff4)" style="fill: none; stroke: #000000"/>
    <path d="M 176.488624 253.254221 
L 136.951734 265.076577 
" clip-path="url(#pde3c2f4ff4)" style="fill: none; stroke: #000000"/>
    <path d="M 176.488624 253.254221 
L 155.608478 264.457202 
" clip-path="url(#pde3c2f4ff4)" style="fill: none; stroke: #000000"/>
    <path d="M 136.951734 265.076577 
L 108.94864 274.503123 
" clip-path="url(#pde3c2f4ff4)" style="fill: none; stroke: #000000"/>
    <path d="M 117.603377 216.767633 
L 112.882358 198.93892 
" clip-path="url(#pde3c2f4ff4)" style="fill: none; stroke: #000000"/>
    <path d="M 327.451934 181.887537 
L 354.944829 174.411917 
" clip-path="url(#pde3c2f4ff4)" style="fill: none; stroke: #000000"/>
    <path d="M 327.451934 181.887537 
L 339.751139 162.872093 
" clip-path="url(#pde3c2f4ff4)" style="fill: none; stroke: #000000"/>
    <path d="M 327.451934 181.887537 
L 365.151091 164.399436 
" clip-path="url(#pde3c2f4ff4)" style="fill: none; stroke: #000000"/>
    <path d="M 365.151091 164.399436 
L 394.590757 153.257975 
" clip-path="url(#pde3c2f4ff4)" style="fill: none; stroke: #000000"/>
   </g>
   <g id="PathCollection_1">
    <path d="M 273.73853 221.584639 
C 276.904348 221.584639 279.94093 220.326846 282.179501 218.088274 
C 284.418073 215.849703 285.675866 212.813122 285.675866 209.647303 
C 285.675866 206.481484 284.418073 203.444903 282.179501 201.206331 
C 279.94093 198.96776 276.904348 197.709967 273.73853 197.709967 
C 270.572711 197.709967 267.53613 198.96776 265.297558 201.206331 
C 263.058987 203.444903 261.801193 206.481484 261.801193 209.647303 
C 261.801193 212.813122 263.058987 215.849703 265.297558 218.088274 
C 267.53613 220.326846 270.572711 221.584639 273.73853 221.584639 
z
" clip-path="url(#pde3c2f4ff4)" style="fill: #add8e6; stroke: #add8e6"/>
    <path d="M 253.789693 194.804023 
C 255.047662 194.804023 256.254277 194.304227 257.143795 193.414709 
C 258.033313 192.52519 258.53311 191.318575 258.53311 190.060607 
C 258.53311 188.802638 258.033313 187.596023 257.143795 186.706505 
C 256.254277 185.816986 255.047662 185.31719 253.789693 185.31719 
C 252.531724 185.31719 251.325109 185.816986 250.435591 186.706505 
C 249.546073 187.596023 249.046277 188.802638 249.046277 190.060607 
C 249.046277 191.318575 249.546073 192.52519 250.435591 193.414709 
C 251.325109 194.304227 252.531724 194.804023 253.789693 194.804023 
z
" clip-path="url(#pde3c2f4ff4)" style="fill: #add8e6; stroke: #add8e6"/>
    <path d="M 288.908075 244.862366 
C 289.935202 244.862366 290.920399 244.454284 291.646688 243.727995 
C 292.372976 243.001706 292.781058 242.016509 292.781058 240.989382 
C 292.781058 239.962255 292.372976 238.977058 291.646688 238.250769 
C 290.920399 237.524481 289.935202 237.116399 288.908075 237.116399 
C 287.880948 237.116399 286.895751 237.524481 286.169462 238.250769 
C 285.443174 238.977058 285.035092 239.962255 285.035092 240.989382 
C 285.035092 242.016509 285.443174 243.001706 286.169462 243.727995 
C 286.895751 244.454284 287.880948 244.862366 288.908075 244.862366 
z
" clip-path="url(#pde3c2f4ff4)" style="fill: #add8e6; stroke: #add8e6"/>
    <path d="M 271.574403 155.607137 
C 273.198433 155.607137 274.756167 154.961902 275.90453 153.813539 
C 277.052893 152.665176 277.698127 151.107443 277.698127 149.483412 
C 277.698127 147.859382 277.052893 146.301648 275.90453 145.153285 
C 274.756167 144.004922 273.198433 143.359688 271.574403 143.359688 
C 269.950372 143.359688 268.392639 144.004922 267.244276 145.153285 
C 266.095913 146.301648 265.450678 147.859382 265.450678 149.483412 
C 265.450678 151.107443 266.095913 152.665176 267.244276 153.813539 
C 268.392639 154.961902 269.950372 155.607137 271.574403 155.607137 
z
" clip-path="url(#pde3c2f4ff4)" style="fill: #add8e6; stroke: #add8e6"/>
    <path d="M 295.571215 225.461959 
C 296.297503 225.461959 296.994143 225.173402 297.507706 224.659838 
C 298.02127 224.146275 298.309828 223.449635 298.309828 222.723347 
C 298.309828 221.997058 298.02127 221.300419 297.507706 220.786855 
C 296.994143 220.273291 296.297503 219.984734 295.571215 219.984734 
C 294.844926 219.984734 294.148287 220.273291 293.634723 220.786855 
C 293.12116 221.300419 292.832602 221.997058 292.832602 222.723347 
C 292.832602 223.449635 293.12116 224.146275 293.634723 224.659838 
C 294.148287 225.173402 294.844926 225.461959 295.571215 225.461959 
z
" clip-path="url(#pde3c2f4ff4)" style="fill: #add8e6; stroke: #add8e6"/>
    <path d="M 289.527151 119.569228 
C 290.554278 119.569228 291.539475 119.161146 292.265764 118.434857 
C 292.992052 117.708569 293.400134 116.723372 293.400134 115.696244 
C 293.400134 114.669117 292.992052 113.68392 292.265764 112.957632 
C 291.539475 112.231343 290.554278 111.823261 289.527151 111.823261 
C 288.500024 111.823261 287.514827 112.231343 286.788538 112.957632 
C 286.06225 113.68392 285.654168 114.669117 285.654168 115.696244 
C 285.654168 116.723372 286.06225 117.708569 286.788538 118.434857 
C 287.514827 119.161146 288.500024 119.569228 289.527151 119.569228 
z
" clip-path="url(#pde3c2f4ff4)" style="fill: #add8e6; stroke: #add8e6"/>
    <path d="M 327.697228 212.050387 
C 328.955196 212.050387 330.161811 211.55059 331.05133 210.661072 
C 331.940848 209.771554 332.440644 208.564939 332.440644 207.30697 
C 332.440644 206.049001 331.940848 204.842387 331.05133 203.952868 
C 330.161811 203.06335 328.955196 202.563554 327.697228 202.563554 
C 326.439259 202.563554 325.232644 203.06335 324.343126 203.952868 
C 323.453608 204.842387 322.953811 206.049001 322.953811 207.30697 
C 322.953811 208.564939 323.453608 209.771554 324.343126 210.661072 
C 325.232644 211.55059 326.439259 212.050387 327.697228 212.050387 
z
" clip-path="url(#pde3c2f4ff4)" style="fill: #add8e6; stroke: #add8e6"/>
    <path d="M 358.663748 214.745019 
C 359.390036 214.745019 360.086676 214.456462 360.600239 213.942898 
C 361.113803 213.429335 361.40236 212.732695 361.40236 212.006407 
C 361.40236 211.280118 361.113803 210.583479 360.600239 210.069915 
C 360.086676 209.556351 359.390036 209.267794 358.663748 209.267794 
C 357.937459 209.267794 357.24082 209.556351 356.727256 210.069915 
C 356.213692 210.583479 355.925135 211.280118 355.925135 212.006407 
C 355.925135 212.732695 356.213692 213.429335 356.727256 213.942898 
C 357.24082 214.456462 357.937459 214.745019 358.663748 214.745019 
z
" clip-path="url(#pde3c2f4ff4)" style="fill: #add8e6; stroke: #add8e6"/>
    <path d="M 357.865968 205.532763 
C 358.592257 205.532763 359.288896 205.244206 359.80246 204.730642 
C 360.316023 204.217079 360.604581 203.520439 360.604581 202.794151 
C 360.604581 202.067862 360.316023 201.371223 359.80246 200.857659 
C 359.288896 200.344095 358.592257 200.055538 357.865968 200.055538 
C 357.139679 200.055538 356.44304 200.344095 355.929476 200.857659 
C 355.415913 201.371223 355.127355 202.067862 355.127355 202.794151 
C 355.127355 203.520439 355.415913 204.217079 355.929476 204.730642 
C 356.44304 205.244206 357.139679 205.532763 357.865968 205.532763 
z
" clip-path="url(#pde3c2f4ff4)" style="fill: #add8e6; stroke: #add8e6"/>
    <path d="M 305.889144 90.407707 
C 307.147113 90.407707 308.353728 89.907911 309.243246 89.018393 
C 310.132765 88.128875 310.632561 86.92226 310.632561 85.664291 
C 310.632561 84.406322 310.132765 83.199707 309.243246 82.310189 
C 308.353728 81.420671 307.147113 80.920874 305.889144 80.920874 
C 304.631176 80.920874 303.424561 81.420671 302.535042 82.310189 
C 301.645524 83.199707 301.145728 84.406322 301.145728 85.664291 
C 301.145728 86.92226 301.645524 88.128875 302.535042 89.018393 
C 303.424561 89.907911 304.631176 90.407707 305.889144 90.407707 
z
" clip-path="url(#pde3c2f4ff4)" style="fill: #add8e6; stroke: #add8e6"/>
    <path d="M 194.120318 119.152139 
C 196.417044 119.152139 198.620012 118.23964 200.244042 116.615609 
C 201.868073 114.991579 202.780572 112.788611 202.780572 110.491885 
C 202.780572 108.195159 201.868073 105.992191 200.244042 104.368161 
C 198.620012 102.74413 196.417044 101.831631 194.120318 101.831631 
C 191.823592 101.831631 189.620624 102.74413 187.996594 104.368161 
C 186.372563 105.992191 185.460064 108.195159 185.460064 110.491885 
C 185.460064 112.788611 186.372563 114.991579 187.996594 116.615609 
C 189.620624 118.23964 191.823592 119.152139 194.120318 119.152139 
z
" clip-path="url(#pde3c2f4ff4)" style="fill: #add8e6; stroke: #add8e6"/>
    <path d="M 137.739635 80.873318 
C 139.192213 80.873318 140.585491 80.296203 141.612619 79.269076 
C 142.639746 78.241949 143.216861 76.84867 143.216861 75.396092 
C 143.216861 73.943515 142.639746 72.550236 141.612619 71.523109 
C 140.585491 70.495982 139.192213 69.918867 137.739635 69.918867 
C 136.287058 69.918867 134.893779 70.495982 133.866652 71.523109 
C 132.839525 72.550236 132.26241 73.943515 132.26241 75.396092 
C 132.26241 76.84867 132.839525 78.241949 133.866652 79.269076 
C 134.893779 80.296203 136.287058 80.873318 137.739635 80.873318 
z
" clip-path="url(#pde3c2f4ff4)" style="fill: #add8e6; stroke: #add8e6"/>
    <path d="M 202.137469 250.243307 
C 203.916505 250.243307 205.622917 249.536488 206.880885 248.278519 
C 208.138854 247.020551 208.845673 245.314139 208.845673 243.535103 
C 208.845673 241.756066 208.138854 240.049655 206.880885 238.791686 
C 205.622917 237.533718 203.916505 236.826899 202.137469 236.826899 
C 200.358433 236.826899 198.652021 237.533718 197.394053 238.791686 
C 196.136084 240.049655 195.429265 241.756066 195.429265 243.535103 
C 195.429265 245.314139 196.136084 247.020551 197.394053 248.278519 
C 198.652021 249.536488 200.358433 250.243307 202.137469 250.243307 
z
" clip-path="url(#pde3c2f4ff4)" style="fill: #add8e6; stroke: #add8e6"/>
    <path d="M 176.104597 127.294258 
C 177.131724 127.294258 178.116921 126.886176 178.84321 126.159887 
C 179.569498 125.433598 179.97758 124.448401 179.97758 123.421274 
C 179.97758 122.394147 179.569498 121.40895 178.84321 120.682661 
C 178.116921 119.956373 177.131724 119.548291 176.104597 119.548291 
C 175.07747 119.548291 174.092273 119.956373 173.365984 120.682661 
C 172.639695 121.40895 172.231613 122.394147 172.231613 123.421274 
C 172.231613 124.448401 172.639695 125.433598 173.365984 126.159887 
C 174.092273 126.886176 175.07747 127.294258 176.104597 127.294258 
z
" clip-path="url(#pde3c2f4ff4)" style="fill: #add8e6; stroke: #add8e6"/>
    <path d="M 295.602811 198.965347 
C 297.055388 198.965347 298.448667 198.388232 299.475794 197.361105 
C 300.502922 196.333978 301.080037 194.940699 301.080037 193.488122 
C 301.080037 192.035544 300.502922 190.642265 299.475794 189.615138 
C 298.448667 188.588011 297.055388 188.010896 295.602811 188.010896 
C 294.150234 188.010896 292.756955 188.588011 291.729828 189.615138 
C 290.702701 190.642265 290.125586 192.035544 290.125586 193.488122 
C 290.125586 194.940699 290.702701 196.333978 291.729828 197.361105 
C 292.756955 198.388232 294.150234 198.965347 295.602811 198.965347 
z
" clip-path="url(#pde3c2f4ff4)" style="fill: #add8e6; stroke: #add8e6"/>
    <path d="M 345.893561 168.399388 
C 347.346139 168.399388 348.739417 167.822272 349.766545 166.795145 
C 350.793672 165.768018 351.370787 164.374739 351.370787 162.922162 
C 351.370787 161.469585 350.793672 160.076306 349.766545 159.049179 
C 348.739417 158.022051 347.346139 157.444936 345.893561 157.444936 
C 344.440984 157.444936 343.047705 158.022051 342.020578 159.049179 
C 340.993451 160.076306 340.416336 161.469585 340.416336 162.922162 
C 340.416336 164.374739 340.993451 165.768018 342.020578 166.795145 
C 343.047705 167.822272 344.440984 168.399388 345.893561 168.399388 
z
" clip-path="url(#pde3c2f4ff4)" style="fill: #add8e6; stroke: #add8e6"/>
    <path d="M 133.043028 62.728229 
C 133.769316 62.728229 134.465956 62.439672 134.979519 61.926108 
C 135.493083 61.412544 135.78164 60.715905 135.78164 59.989616 
C 135.78164 59.263328 135.493083 58.566688 134.979519 58.053125 
C 134.465956 57.539561 133.769316 57.251003 133.043028 57.251003 
C 132.316739 57.251003 131.6201 57.539561 131.106536 58.053125 
C 130.592972 58.566688 130.304415 59.263328 130.304415 59.989616 
C 130.304415 60.715905 130.592972 61.412544 131.106536 61.926108 
C 131.6201 62.439672 132.316739 62.728229 133.043028 62.728229 
z
" clip-path="url(#pde3c2f4ff4)" style="fill: #add8e6; stroke: #add8e6"/>
    <path d="M 268.714783 201.002315 
C 269.441071 201.002315 270.137711 200.713758 270.651274 200.200194 
C 271.164838 199.68663 271.453396 198.989991 271.453396 198.263702 
C 271.453396 197.537414 271.164838 196.840774 270.651274 196.327211 
C 270.137711 195.813647 269.441071 195.52509 268.714783 195.52509 
C 267.988494 195.52509 267.291855 195.813647 266.778291 196.327211 
C 266.264728 196.840774 265.97617 197.537414 265.97617 198.263702 
C 265.97617 198.989991 266.264728 199.68663 266.778291 200.200194 
C 267.291855 200.713758 267.988494 201.002315 268.714783 201.002315 
z
" clip-path="url(#pde3c2f4ff4)" style="fill: #add8e6; stroke: #add8e6"/>
    <path d="M 315.586549 207.77734 
C 316.312837 207.77734 317.009477 207.488782 317.52304 206.975219 
C 318.036604 206.461655 318.325162 205.765016 318.325162 205.038727 
C 318.325162 204.312438 318.036604 203.615799 317.52304 203.102235 
C 317.009477 202.588672 316.312837 202.300114 315.586549 202.300114 
C 314.86026 202.300114 314.163621 202.588672 313.650057 203.102235 
C 313.136493 203.615799 312.847936 204.312438 312.847936 205.038727 
C 312.847936 205.765016 313.136493 206.461655 313.650057 206.975219 
C 314.163621 207.488782 314.86026 207.77734 315.586549 207.77734 
z
" clip-path="url(#pde3c2f4ff4)" style="fill: #add8e6; stroke: #add8e6"/>
    <path d="M 165.462739 140.848585 
C 166.189027 140.848585 166.885667 140.560027 167.39923 140.046464 
C 167.912794 139.5329 168.201352 138.83626 168.201352 138.109972 
C 168.201352 137.383683 167.912794 136.687044 167.39923 136.17348 
C 166.885667 135.659917 166.189027 135.371359 165.462739 135.371359 
C 164.73645 135.371359 164.039811 135.659917 163.526247 136.17348 
C 163.012683 136.687044 162.724126 137.383683 162.724126 138.109972 
C 162.724126 138.83626 163.012683 139.5329 163.526247 140.046464 
C 164.039811 140.560027 164.73645 140.848585 165.462739 140.848585 
z
" clip-path="url(#pde3c2f4ff4)" style="fill: #add8e6; stroke: #add8e6"/>
    <path d="M 266.350541 229.598855 
C 267.076829 229.598855 267.773469 229.310298 268.287032 228.796734 
C 268.800596 228.283171 269.089153 227.586531 269.089153 226.860243 
C 269.089153 226.133954 268.800596 225.437314 268.287032 224.923751 
C 267.773469 224.410187 267.076829 224.12163 266.350541 224.12163 
C 265.624252 224.12163 264.927613 224.410187 264.414049 224.923751 
C 263.900485 225.437314 263.611928 226.133954 263.611928 226.860243 
C 263.611928 227.586531 263.900485 228.283171 264.414049 228.796734 
C 264.927613 229.310298 265.624252 229.598855 266.350541 229.598855 
z
" clip-path="url(#pde3c2f4ff4)" style="fill: #add8e6; stroke: #add8e6"/>
    <path d="M 178.808417 278.562485 
C 179.835544 278.562485 180.820741 278.154403 181.547029 277.428115 
C 182.273318 276.701826 182.6814 275.716629 182.6814 274.689502 
C 182.6814 273.662375 182.273318 272.677178 181.547029 271.950889 
C 180.820741 271.224601 179.835544 270.816519 178.808417 270.816519 
C 177.781289 270.816519 176.796092 271.224601 176.069804 271.950889 
C 175.343515 272.677178 174.935433 273.662375 174.935433 274.689502 
C 174.935433 275.716629 175.343515 276.701826 176.069804 277.428115 
C 176.796092 278.154403 177.781289 278.562485 178.808417 278.562485 
z
" clip-path="url(#pde3c2f4ff4)" style="fill: #add8e6; stroke: #add8e6"/>
    <path d="M 315.232849 188.745156 
C 315.959137 188.745156 316.655777 188.456599 317.169341 187.943035 
C 317.682904 187.429472 317.971462 186.732832 317.971462 186.006544 
C 317.971462 185.280255 317.682904 184.583616 317.169341 184.070052 
C 316.655777 183.556488 315.959137 183.267931 315.232849 183.267931 
C 314.50656 183.267931 313.809921 183.556488 313.296357 184.070052 
C 312.782794 184.583616 312.494236 185.280255 312.494236 186.006544 
C 312.494236 186.732832 312.782794 187.429472 313.296357 187.943035 
C 313.809921 188.456599 314.50656 188.745156 315.232849 188.745156 
z
" clip-path="url(#pde3c2f4ff4)" style="fill: #add8e6; stroke: #add8e6"/>
    <path d="M 292.504654 135.054116 
C 293.531782 135.054116 294.516979 134.646034 295.243267 133.919745 
C 295.969556 133.193457 296.377638 132.20826 296.377638 131.181132 
C 296.377638 130.154005 295.969556 129.168808 295.243267 128.44252 
C 294.516979 127.716231 293.531782 127.308149 292.504654 127.308149 
C 291.477527 127.308149 290.49233 127.716231 289.766042 128.44252 
C 289.039753 129.168808 288.631671 130.154005 288.631671 131.181132 
C 288.631671 132.20826 289.039753 133.193457 289.766042 133.919745 
C 290.49233 134.646034 291.477527 135.054116 292.504654 135.054116 
z
" clip-path="url(#pde3c2f4ff4)" style="fill: #add8e6; stroke: #add8e6"/>
    <path d="M 257.706984 222.857709 
C 258.433273 222.857709 259.129912 222.569152 259.643476 222.055588 
C 260.157039 221.542024 260.445597 220.845385 260.445597 220.119096 
C 260.445597 219.392808 260.157039 218.696168 259.643476 218.182605 
C 259.129912 217.669041 258.433273 217.380484 257.706984 217.380484 
C 256.980695 217.380484 256.284056 217.669041 255.770492 218.182605 
C 255.256929 218.696168 254.968371 219.392808 254.968371 220.119096 
C 254.968371 220.845385 255.256929 221.542024 255.770492 222.055588 
C 256.284056 222.569152 256.980695 222.857709 257.706984 222.857709 
z
" clip-path="url(#pde3c2f4ff4)" style="fill: #add8e6; stroke: #add8e6"/>
    <path d="M 319.833196 75.187304 
C 320.559484 75.187304 321.256124 74.898747 321.769687 74.385183 
C 322.283251 73.87162 322.571808 73.17498 322.571808 72.448692 
C 322.571808 71.722403 322.283251 71.025764 321.769687 70.5122 
C 321.256124 69.998636 320.559484 69.710079 319.833196 69.710079 
C 319.106907 69.710079 318.410267 69.998636 317.896704 70.5122 
C 317.38314 71.025764 317.094583 71.722403 317.094583 72.448692 
C 317.094583 73.17498 317.38314 73.87162 317.896704 74.385183 
C 318.410267 74.898747 319.106907 75.187304 319.833196 75.187304 
z
" clip-path="url(#pde3c2f4ff4)" style="fill: #add8e6; stroke: #add8e6"/>
    <path d="M 294.350665 218.613062 
C 295.076954 218.613062 295.773593 218.324505 296.287157 217.810941 
C 296.80072 217.297377 297.089278 216.600738 297.089278 215.874449 
C 297.089278 215.148161 296.80072 214.451521 296.287157 213.937958 
C 295.773593 213.424394 295.076954 213.135837 294.350665 213.135837 
C 293.624376 213.135837 292.927737 213.424394 292.414173 213.937958 
C 291.90061 214.451521 291.612052 215.148161 291.612052 215.874449 
C 291.612052 216.600738 291.90061 217.297377 292.414173 217.810941 
C 292.927737 218.324505 293.624376 218.613062 294.350665 218.613062 
z
" clip-path="url(#pde3c2f4ff4)" style="fill: #add8e6; stroke: #add8e6"/>
    <path d="M 210.917975 183.526519 
C 212.175944 183.526519 213.382559 183.026722 214.272077 182.137204 
C 215.161595 181.247686 215.661392 180.041071 215.661392 178.783102 
C 215.661392 177.525133 215.161595 176.318518 214.272077 175.429 
C 213.382559 174.539482 212.175944 174.039686 210.917975 174.039686 
C 209.660006 174.039686 208.453392 174.539482 207.563873 175.429 
C 206.674355 176.318518 206.174559 177.525133 206.174559 178.783102 
C 206.174559 180.041071 206.674355 181.247686 207.563873 182.137204 
C 208.453392 183.026722 209.660006 183.526519 210.917975 183.526519 
z
" clip-path="url(#pde3c2f4ff4)" style="fill: #add8e6; stroke: #add8e6"/>
    <path d="M 193.320104 257.895183 
C 194.046393 257.895183 194.743032 257.606626 195.256596 257.093062 
C 195.770159 256.579499 196.058717 255.882859 196.058717 255.15657 
C 196.058717 254.430282 195.770159 253.733642 195.256596 253.220079 
C 194.743032 252.706515 194.046393 252.417958 193.320104 252.417958 
C 192.593815 252.417958 191.897176 252.706515 191.383612 253.220079 
C 190.870049 253.733642 190.581491 254.430282 190.581491 255.15657 
C 190.581491 255.882859 190.870049 256.579499 191.383612 257.093062 
C 191.897176 257.606626 192.593815 257.895183 193.320104 257.895183 
z
" clip-path="url(#pde3c2f4ff4)" style="fill: #add8e6; stroke: #add8e6"/>
    <path d="M 397.49533 183.292324 
C 398.753299 183.292324 399.959914 182.792528 400.849432 181.90301 
C 401.73895 181.013491 402.238747 179.806877 402.238747 178.548908 
C 402.238747 177.290939 401.73895 176.084324 400.849432 175.194806 
C 399.959914 174.305288 398.753299 173.805491 397.49533 173.805491 
C 396.237361 173.805491 395.030746 174.305288 394.141228 175.194806 
C 393.25171 176.084324 392.751914 177.290939 392.751914 178.548908 
C 392.751914 179.806877 393.25171 181.013491 394.141228 181.90301 
C 395.030746 182.792528 396.237361 183.292324 397.49533 183.292324 
z
" clip-path="url(#pde3c2f4ff4)" style="fill: #add8e6; stroke: #add8e6"/>
    <path d="M 180.694096 109.285288 
C 181.420385 109.285288 182.117024 108.99673 182.630588 108.483167 
C 183.144151 107.969603 183.432709 107.272964 183.432709 106.546675 
C 183.432709 105.820386 183.144151 105.123747 182.630588 104.610183 
C 182.117024 104.09662 181.420385 103.808062 180.694096 103.808062 
C 179.967807 103.808062 179.271168 104.09662 178.757604 104.610183 
C 178.244041 105.123747 177.955483 105.820386 177.955483 106.546675 
C 177.955483 107.272964 178.244041 107.969603 178.757604 108.483167 
C 179.271168 108.99673 179.967807 109.285288 180.694096 109.285288 
z
" clip-path="url(#pde3c2f4ff4)" style="fill: #add8e6; stroke: #add8e6"/>
    <path d="M 197.09365 97.86374 
C 197.819939 97.86374 198.516578 97.575182 199.030142 97.061618 
C 199.543705 96.548055 199.832263 95.851415 199.832263 95.125127 
C 199.832263 94.398838 199.543705 93.702199 199.030142 93.188635 
C 198.516578 92.675071 197.819939 92.386514 197.09365 92.386514 
C 196.367361 92.386514 195.670722 92.675071 195.157158 93.188635 
C 194.643595 93.702199 194.355037 94.398838 194.355037 95.125127 
C 194.355037 95.851415 194.643595 96.548055 195.157158 97.061618 
C 195.670722 97.575182 196.367361 97.86374 197.09365 97.86374 
z
" clip-path="url(#pde3c2f4ff4)" style="fill: #add8e6; stroke: #add8e6"/>
    <path d="M 147.245919 124.092275 
C 148.503887 124.092275 149.710502 123.592479 150.600021 122.702961 
C 151.489539 121.813443 151.989335 120.606828 151.989335 119.348859 
C 151.989335 118.09089 151.489539 116.884275 150.600021 115.994757 
C 149.710502 115.105239 148.503887 114.605442 147.245919 114.605442 
C 145.98795 114.605442 144.781335 115.105239 143.891817 115.994757 
C 143.002298 116.884275 142.502502 118.09089 142.502502 119.348859 
C 142.502502 120.606828 143.002298 121.813443 143.891817 122.702961 
C 144.781335 123.592479 145.98795 124.092275 147.245919 124.092275 
z
" clip-path="url(#pde3c2f4ff4)" style="fill: #add8e6; stroke: #add8e6"/>
    <path d="M 138.534571 241.584091 
C 140.313608 241.584091 142.020019 240.877272 143.277988 239.619303 
C 144.535957 238.361335 145.242775 236.654923 145.242775 234.875887 
C 145.242775 233.09685 144.535957 231.390439 143.277988 230.13247 
C 142.020019 228.874502 140.313608 228.167683 138.534571 228.167683 
C 136.755535 228.167683 135.049124 228.874502 133.791155 230.13247 
C 132.533186 231.390439 131.826367 233.09685 131.826367 234.875887 
C 131.826367 236.654923 132.533186 238.361335 133.791155 239.619303 
C 135.049124 240.877272 136.755535 241.584091 138.534571 241.584091 
z
" clip-path="url(#pde3c2f4ff4)" style="fill: #add8e6; stroke: #add8e6"/>
    <path d="M 102.382218 71.250811 
C 103.640187 71.250811 104.846802 70.751014 105.73632 69.861496 
C 106.625838 68.971978 107.125634 67.765363 107.125634 66.507394 
C 107.125634 65.249425 106.625838 64.04281 105.73632 63.153292 
C 104.846802 62.263774 103.640187 61.763978 102.382218 61.763978 
C 101.124249 61.763978 99.917634 62.263774 99.028116 63.153292 
C 98.138598 64.04281 97.638801 65.249425 97.638801 66.507394 
C 97.638801 67.765363 98.138598 68.971978 99.028116 69.861496 
C 99.917634 70.751014 101.124249 71.250811 102.382218 71.250811 
z
" clip-path="url(#pde3c2f4ff4)" style="fill: #add8e6; stroke: #add8e6"/>
    <path d="M 250.934664 215.05405 
C 251.660953 215.05405 252.357592 214.765492 252.871156 214.251929 
C 253.38472 213.738365 253.673277 213.041725 253.673277 212.315437 
C 253.673277 211.589148 253.38472 210.892509 252.871156 210.378945 
C 252.357592 209.865382 251.660953 209.576824 250.934664 209.576824 
C 250.208376 209.576824 249.511736 209.865382 248.998173 210.378945 
C 248.484609 210.892509 248.196052 211.589148 248.196052 212.315437 
C 248.196052 213.041725 248.484609 213.738365 248.998173 214.251929 
C 249.511736 214.765492 250.208376 215.05405 250.934664 215.05405 
z
" clip-path="url(#pde3c2f4ff4)" style="fill: #add8e6; stroke: #add8e6"/>
    <path d="M 94.786073 51.310514 
C 96.56511 51.310514 98.271521 50.603696 99.52949 49.345727 
C 100.787459 48.087758 101.494277 46.381347 101.494277 44.60231 
C 101.494277 42.823274 100.787459 41.116863 99.52949 39.858894 
C 98.271521 38.600925 96.56511 37.894106 94.786073 37.894106 
C 93.007037 37.894106 91.300626 38.600925 90.042657 39.858894 
C 88.784688 41.116863 88.077869 42.823274 88.077869 44.60231 
C 88.077869 46.381347 88.784688 48.087758 90.042657 49.345727 
C 91.300626 50.603696 93.007037 51.310514 94.786073 51.310514 
z
" clip-path="url(#pde3c2f4ff4)" style="fill: #add8e6; stroke: #add8e6"/>
    <path d="M 377.663986 162.457066 
C 378.390274 162.457066 379.086914 162.168509 379.600477 161.654945 
C 380.114041 161.141382 380.402599 160.444742 380.402599 159.718454 
C 380.402599 158.992165 380.114041 158.295525 379.600477 157.781962 
C 379.086914 157.268398 378.390274 156.979841 377.663986 156.979841 
C 376.937697 156.979841 376.241058 157.268398 375.727494 157.781962 
C 375.213931 158.295525 374.925373 158.992165 374.925373 159.718454 
C 374.925373 160.444742 375.213931 161.141382 375.727494 161.654945 
C 376.241058 162.168509 376.937697 162.457066 377.663986 162.457066 
z
" clip-path="url(#pde3c2f4ff4)" style="fill: #add8e6; stroke: #add8e6"/>
    <path d="M 300.600238 269.956982 
C 301.627366 269.956982 302.612563 269.5489 303.338851 268.822611 
C 304.06514 268.096323 304.473222 267.111126 304.473222 266.083998 
C 304.473222 265.056871 304.06514 264.071674 303.338851 263.345386 
C 302.612563 262.619097 301.627366 262.211015 300.600238 262.211015 
C 299.573111 262.211015 298.587914 262.619097 297.861626 263.345386 
C 297.135337 264.071674 296.727255 265.056871 296.727255 266.083998 
C 296.727255 267.111126 297.135337 268.096323 297.861626 268.822611 
C 298.587914 269.5489 299.573111 269.956982 300.600238 269.956982 
z
" clip-path="url(#pde3c2f4ff4)" style="fill: #add8e6; stroke: #add8e6"/>
    <path d="M 284.584316 191.788897 
C 285.611443 191.788897 286.59664 191.380815 287.322928 190.654527 
C 288.049217 189.928238 288.457299 188.943041 288.457299 187.915914 
C 288.457299 186.888787 288.049217 185.90359 287.322928 185.177301 
C 286.59664 184.451013 285.611443 184.042931 284.584316 184.042931 
C 283.557189 184.042931 282.571992 184.451013 281.845703 185.177301 
C 281.119414 185.90359 280.711332 186.888787 280.711332 187.915914 
C 280.711332 188.943041 281.119414 189.928238 281.845703 190.654527 
C 282.571992 191.380815 283.557189 191.788897 284.584316 191.788897 
z
" clip-path="url(#pde3c2f4ff4)" style="fill: #add8e6; stroke: #add8e6"/>
    <path d="M 156.748011 306.232913 
C 158.00598 306.232913 159.212595 305.733117 160.102113 304.843598 
C 160.991631 303.95408 161.491427 302.747465 161.491427 301.489496 
C 161.491427 300.231528 160.991631 299.024913 160.102113 298.135394 
C 159.212595 297.245876 158.00598 296.74608 156.748011 296.74608 
C 155.490042 296.74608 154.283427 297.245876 153.393909 298.135394 
C 152.504391 299.024913 152.004594 300.231528 152.004594 301.489496 
C 152.004594 302.747465 152.504391 303.95408 153.393909 304.843598 
C 154.283427 305.733117 155.490042 306.232913 156.748011 306.232913 
z
" clip-path="url(#pde3c2f4ff4)" style="fill: #add8e6; stroke: #add8e6"/>
    <path d="M 276.200135 225.807404 
C 276.926424 225.807404 277.623063 225.518846 278.136627 225.005282 
C 278.65019 224.491719 278.938748 223.795079 278.938748 223.068791 
C 278.938748 222.342502 278.65019 221.645863 278.136627 221.132299 
C 277.623063 220.618736 276.926424 220.330178 276.200135 220.330178 
C 275.473847 220.330178 274.777207 220.618736 274.263643 221.132299 
C 273.75008 221.645863 273.461522 222.342502 273.461522 223.068791 
C 273.461522 223.795079 273.75008 224.491719 274.263643 225.005282 
C 274.777207 225.518846 275.473847 225.807404 276.200135 225.807404 
z
" clip-path="url(#pde3c2f4ff4)" style="fill: #add8e6; stroke: #add8e6"/>
    <path d="M 312.738598 66.409899 
C 313.765725 66.409899 314.750922 66.001817 315.477211 65.275529 
C 316.2035 64.54924 316.611582 63.564043 316.611582 62.536916 
C 316.611582 61.509789 316.2035 60.524592 315.477211 59.798303 
C 314.750922 59.072015 313.765725 58.663933 312.738598 58.663933 
C 311.711471 58.663933 310.726274 59.072015 309.999985 59.798303 
C 309.273697 60.524592 308.865615 61.509789 308.865615 62.536916 
C 308.865615 63.564043 309.273697 64.54924 309.999985 65.275529 
C 310.726274 66.001817 311.711471 66.409899 312.738598 66.409899 
z
" clip-path="url(#pde3c2f4ff4)" style="fill: #add8e6; stroke: #add8e6"/>
    <path d="M 112.546664 232.939393 
C 113.272952 232.939393 113.969592 232.650836 114.483155 232.137272 
C 114.996719 231.623709 115.285276 230.927069 115.285276 230.200781 
C 115.285276 229.474492 114.996719 228.777853 114.483155 228.264289 
C 113.969592 227.750725 113.272952 227.462168 112.546664 227.462168 
C 111.820375 227.462168 111.123736 227.750725 110.610172 228.264289 
C 110.096608 228.777853 109.808051 229.474492 109.808051 230.200781 
C 109.808051 230.927069 110.096608 231.623709 110.610172 232.137272 
C 111.123736 232.650836 111.820375 232.939393 112.546664 232.939393 
z
" clip-path="url(#pde3c2f4ff4)" style="fill: #add8e6; stroke: #add8e6"/>
    <path d="M 113.71243 243.115815 
C 114.438718 243.115815 115.135358 242.827258 115.648922 242.313694 
C 116.162485 241.800131 116.451043 241.103491 116.451043 240.377202 
C 116.451043 239.650914 116.162485 238.954274 115.648922 238.440711 
C 115.135358 237.927147 114.438718 237.63859 113.71243 237.63859 
C 112.986141 237.63859 112.289502 237.927147 111.775938 238.440711 
C 111.262375 238.954274 110.973817 239.650914 110.973817 240.377202 
C 110.973817 241.103491 111.262375 241.800131 111.775938 242.313694 
C 112.289502 242.827258 112.986141 243.115815 113.71243 243.115815 
z
" clip-path="url(#pde3c2f4ff4)" style="fill: #add8e6; stroke: #add8e6"/>
    <path d="M 313.211827 238.444976 
C 314.469796 238.444976 315.676411 237.94518 316.565929 237.055662 
C 317.455448 236.166143 317.955244 234.959528 317.955244 233.70156 
C 317.955244 232.443591 317.455448 231.236976 316.565929 230.347458 
C 315.676411 229.457939 314.469796 228.958143 313.211827 228.958143 
C 311.953859 228.958143 310.747244 229.457939 309.857725 230.347458 
C 308.968207 231.236976 308.468411 232.443591 308.468411 233.70156 
C 308.468411 234.959528 308.968207 236.166143 309.857725 237.055662 
C 310.747244 237.94518 311.953859 238.444976 313.211827 238.444976 
z
" clip-path="url(#pde3c2f4ff4)" style="fill: #add8e6; stroke: #add8e6"/>
    <path d="M 105.539192 239.083061 
C 106.265481 239.083061 106.96212 238.794504 107.475684 238.28094 
C 107.989248 237.767377 108.277805 237.070737 108.277805 236.344448 
C 108.277805 235.61816 107.989248 234.92152 107.475684 234.407957 
C 106.96212 233.894393 106.265481 233.605836 105.539192 233.605836 
C 104.812904 233.605836 104.116264 233.894393 103.602701 234.407957 
C 103.089137 234.92152 102.80058 235.61816 102.80058 236.344448 
C 102.80058 237.070737 103.089137 237.767377 103.602701 238.28094 
C 104.116264 238.794504 104.812904 239.083061 105.539192 239.083061 
z
" clip-path="url(#pde3c2f4ff4)" style="fill: #add8e6; stroke: #add8e6"/>
    <path d="M 115.246267 249.575982 
C 115.972556 249.575982 116.669195 249.287425 117.182759 248.773861 
C 117.696322 248.260298 117.98488 247.563658 117.98488 246.83737 
C 117.98488 246.111081 117.696322 245.414441 117.182759 244.900878 
C 116.669195 244.387314 115.972556 244.098757 115.246267 244.098757 
C 114.519978 244.098757 113.823339 244.387314 113.309775 244.900878 
C 112.796212 245.414441 112.507654 246.111081 112.507654 246.83737 
C 112.507654 247.563658 112.796212 248.260298 113.309775 248.773861 
C 113.823339 249.287425 114.519978 249.575982 115.246267 249.575982 
z
" clip-path="url(#pde3c2f4ff4)" style="fill: #add8e6; stroke: #add8e6"/>
    <path d="M 74.064622 36.763597 
C 74.790911 36.763597 75.48755 36.475039 76.001114 35.961476 
C 76.514677 35.447912 76.803235 34.751273 76.803235 34.024984 
C 76.803235 33.298695 76.514677 32.602056 76.001114 32.088492 
C 75.48755 31.574929 74.790911 31.286371 74.064622 31.286371 
C 73.338333 31.286371 72.641694 31.574929 72.12813 32.088492 
C 71.614567 32.602056 71.326009 33.298695 71.326009 34.024984 
C 71.326009 34.751273 71.614567 35.447912 72.12813 35.961476 
C 72.641694 36.475039 73.338333 36.763597 74.064622 36.763597 
z
" clip-path="url(#pde3c2f4ff4)" style="fill: #add8e6; stroke: #add8e6"/>
    <path d="M 205.569983 273.251743 
C 206.59711 273.251743 207.582307 272.843661 208.308595 272.117373 
C 209.034884 271.391084 209.442966 270.405887 209.442966 269.37876 
C 209.442966 268.351633 209.034884 267.366436 208.308595 266.640147 
C 207.582307 265.913859 206.59711 265.505777 205.569983 265.505777 
C 204.542855 265.505777 203.557658 265.913859 202.83137 266.640147 
C 202.105081 267.366436 201.696999 268.351633 201.696999 269.37876 
C 201.696999 270.405887 202.105081 271.391084 202.83137 272.117373 
C 203.557658 272.843661 204.542855 273.251743 205.569983 273.251743 
z
" clip-path="url(#pde3c2f4ff4)" style="fill: #add8e6; stroke: #add8e6"/>
    <path d="M 426.026749 192.131918 
C 426.753038 192.131918 427.449677 191.84336 427.963241 191.329797 
C 428.476804 190.816233 428.765362 190.119594 428.765362 189.393305 
C 428.765362 188.667017 428.476804 187.970377 427.963241 187.456814 
C 427.449677 186.94325 426.753038 186.654692 426.026749 186.654692 
C 425.30046 186.654692 424.603821 186.94325 424.090257 187.456814 
C 423.576694 187.970377 423.288136 188.667017 423.288136 189.393305 
C 423.288136 190.119594 423.576694 190.816233 424.090257 191.329797 
C 424.603821 191.84336 425.30046 192.131918 426.026749 192.131918 
z
" clip-path="url(#pde3c2f4ff4)" style="fill: #add8e6; stroke: #add8e6"/>
    <path d="M 175.040873 175.511402 
C 176.068 175.511402 177.053197 175.10332 177.779485 174.377032 
C 178.505774 173.650743 178.913856 172.665546 178.913856 171.638419 
C 178.913856 170.611292 178.505774 169.626095 177.779485 168.899806 
C 177.053197 168.173517 176.068 167.765435 175.040873 167.765435 
C 174.013745 167.765435 173.028548 168.173517 172.30226 168.899806 
C 171.575971 169.626095 171.167889 170.611292 171.167889 171.638419 
C 171.167889 172.665546 171.575971 173.650743 172.30226 174.377032 
C 173.028548 175.10332 174.013745 175.511402 175.040873 175.511402 
z
" clip-path="url(#pde3c2f4ff4)" style="fill: #add8e6; stroke: #add8e6"/>
    <path d="M 100.071914 31.018447 
C 100.798203 31.018447 101.494842 30.729889 102.008406 30.216326 
C 102.52197 29.702762 102.810527 29.006123 102.810527 28.279834 
C 102.810527 27.553546 102.52197 26.856906 102.008406 26.343342 
C 101.494842 25.829779 100.798203 25.541221 100.071914 25.541221 
C 99.345626 25.541221 98.648986 25.829779 98.135423 26.343342 
C 97.621859 26.856906 97.333301 27.553546 97.333301 28.279834 
C 97.333301 29.006123 97.621859 29.702762 98.135423 30.216326 
C 98.648986 30.729889 99.345626 31.018447 100.071914 31.018447 
z
" clip-path="url(#pde3c2f4ff4)" style="fill: #add8e6; stroke: #add8e6"/>
    <path d="M 83.822308 59.70804 
C 84.548597 59.70804 85.245236 59.419483 85.7588 58.905919 
C 86.272364 58.392356 86.560921 57.695716 86.560921 56.969427 
C 86.560921 56.243139 86.272364 55.546499 85.7588 55.032936 
C 85.245236 54.519372 84.548597 54.230815 83.822308 54.230815 
C 83.09602 54.230815 82.39938 54.519372 81.885817 55.032936 
C 81.372253 55.546499 81.083696 56.243139 81.083696 56.969427 
C 81.083696 57.695716 81.372253 58.392356 81.885817 58.905919 
C 82.39938 59.419483 83.09602 59.70804 83.822308 59.70804 
z
" clip-path="url(#pde3c2f4ff4)" style="fill: #add8e6; stroke: #add8e6"/>
    <path d="M 207.810313 291.540923 
C 208.536601 291.540923 209.233241 291.252366 209.746804 290.738802 
C 210.260368 290.225239 210.548926 289.528599 210.548926 288.802311 
C 210.548926 288.076022 210.260368 287.379383 209.746804 286.865819 
C 209.233241 286.352255 208.536601 286.063698 207.810313 286.063698 
C 207.084024 286.063698 206.387385 286.352255 205.873821 286.865819 
C 205.360257 287.379383 205.0717 288.076022 205.0717 288.802311 
C 205.0717 289.528599 205.360257 290.225239 205.873821 290.738802 
C 206.387385 291.252366 207.084024 291.540923 207.810313 291.540923 
z
" clip-path="url(#pde3c2f4ff4)" style="fill: #add8e6; stroke: #add8e6"/>
    <path d="M 227.378053 243.121197 
C 228.83063 243.121197 230.223909 242.544082 231.251037 241.516955 
C 232.278164 240.489828 232.855279 239.096549 232.855279 237.643972 
C 232.855279 236.191394 232.278164 234.798115 231.251037 233.770988 
C 230.223909 232.743861 228.83063 232.166746 227.378053 232.166746 
C 225.925476 232.166746 224.532197 232.743861 223.50507 233.770988 
C 222.477943 234.798115 221.900828 236.191394 221.900828 237.643972 
C 221.900828 239.096549 222.477943 240.489828 223.50507 241.516955 
C 224.532197 242.544082 225.925476 243.121197 227.378053 243.121197 
z
" clip-path="url(#pde3c2f4ff4)" style="fill: #add8e6; stroke: #add8e6"/>
    <path d="M 148.188757 168.81022 
C 148.915046 168.81022 149.611685 168.521663 150.125249 168.008099 
C 150.638812 167.494536 150.92737 166.797896 150.92737 166.071608 
C 150.92737 165.345319 150.638812 164.64868 150.125249 164.135116 
C 149.611685 163.621552 148.915046 163.332995 148.188757 163.332995 
C 147.462468 163.332995 146.765829 163.621552 146.252265 164.135116 
C 145.738702 164.64868 145.450144 165.345319 145.450144 166.071608 
C 145.450144 166.797896 145.738702 167.494536 146.252265 168.008099 
C 146.765829 168.521663 147.462468 168.81022 148.188757 168.81022 
z
" clip-path="url(#pde3c2f4ff4)" style="fill: #add8e6; stroke: #add8e6"/>
    <path d="M 308.585649 286.720863 
C 309.311937 286.720863 310.008577 286.432306 310.52214 285.918742 
C 311.035704 285.405179 311.324261 284.708539 311.324261 283.982251 
C 311.324261 283.255962 311.035704 282.559322 310.52214 282.045759 
C 310.008577 281.532195 309.311937 281.243638 308.585649 281.243638 
C 307.85936 281.243638 307.162721 281.532195 306.649157 282.045759 
C 306.135593 282.559322 305.847036 283.255962 305.847036 283.982251 
C 305.847036 284.708539 306.135593 285.405179 306.649157 285.918742 
C 307.162721 286.432306 307.85936 286.720863 308.585649 286.720863 
z
" clip-path="url(#pde3c2f4ff4)" style="fill: #add8e6; stroke: #add8e6"/>
    <path d="M 310.377966 120.828066 
C 311.104255 120.828066 311.800894 120.539509 312.314458 120.025945 
C 312.828021 119.512381 313.116579 118.815742 313.116579 118.089453 
C 313.116579 117.363165 312.828021 116.666525 312.314458 116.152962 
C 311.800894 115.639398 311.104255 115.350841 310.377966 115.350841 
C 309.651678 115.350841 308.955038 115.639398 308.441474 116.152962 
C 307.927911 116.666525 307.639353 117.363165 307.639353 118.089453 
C 307.639353 118.815742 307.927911 119.512381 308.441474 120.025945 
C 308.955038 120.539509 309.651678 120.828066 310.377966 120.828066 
z
" clip-path="url(#pde3c2f4ff4)" style="fill: #add8e6; stroke: #add8e6"/>
    <path d="M 284.886072 229.818593 
C 285.612361 229.818593 286.309 229.530035 286.822564 229.016472 
C 287.336127 228.502908 287.624685 227.806269 287.624685 227.07998 
C 287.624685 226.353692 287.336127 225.657052 286.822564 225.143489 
C 286.309 224.629925 285.612361 224.341367 284.886072 224.341367 
C 284.159784 224.341367 283.463144 224.629925 282.94958 225.143489 
C 282.436017 225.657052 282.147459 226.353692 282.147459 227.07998 
C 282.147459 227.806269 282.436017 228.502908 282.94958 229.016472 
C 283.463144 229.530035 284.159784 229.818593 284.886072 229.818593 
z
" clip-path="url(#pde3c2f4ff4)" style="fill: #add8e6; stroke: #add8e6"/>
    <path d="M 235.277935 257.044985 
C 236.004224 257.044985 236.700863 256.756428 237.214427 256.242864 
C 237.72799 255.7293 238.016548 255.032661 238.016548 254.306372 
C 238.016548 253.580084 237.72799 252.883444 237.214427 252.369881 
C 236.700863 251.856317 236.004224 251.56776 235.277935 251.56776 
C 234.551647 251.56776 233.855007 251.856317 233.341444 252.369881 
C 232.82788 252.883444 232.539322 253.580084 232.539322 254.306372 
C 232.539322 255.032661 232.82788 255.7293 233.341444 256.242864 
C 233.855007 256.756428 234.551647 257.044985 235.277935 257.044985 
z
" clip-path="url(#pde3c2f4ff4)" style="fill: #add8e6; stroke: #add8e6"/>
    <path d="M 429.717456 184.411046 
C 430.443744 184.411046 431.140384 184.122489 431.653947 183.608925 
C 432.167511 183.095361 432.456068 182.398722 432.456068 181.672433 
C 432.456068 180.946145 432.167511 180.249505 431.653947 179.735942 
C 431.140384 179.222378 430.443744 178.933821 429.717456 178.933821 
C 428.991167 178.933821 428.294528 179.222378 427.780964 179.735942 
C 427.2674 180.249505 426.978843 180.946145 426.978843 181.672433 
C 426.978843 182.398722 427.2674 183.095361 427.780964 183.608925 
C 428.294528 184.122489 428.991167 184.411046 429.717456 184.411046 
z
" clip-path="url(#pde3c2f4ff4)" style="fill: #add8e6; stroke: #add8e6"/>
    <path d="M 169.845034 108.026765 
C 170.571322 108.026765 171.267962 107.738208 171.781525 107.224644 
C 172.295089 106.711081 172.583646 106.014441 172.583646 105.288152 
C 172.583646 104.561864 172.295089 103.865224 171.781525 103.351661 
C 171.267962 102.838097 170.571322 102.54954 169.845034 102.54954 
C 169.118745 102.54954 168.422106 102.838097 167.908542 103.351661 
C 167.394978 103.865224 167.106421 104.561864 167.106421 105.288152 
C 167.106421 106.014441 167.394978 106.711081 167.908542 107.224644 
C 168.422106 107.738208 169.118745 108.026765 169.845034 108.026765 
z
" clip-path="url(#pde3c2f4ff4)" style="fill: #add8e6; stroke: #add8e6"/>
    <path d="M 197.158888 89.162573 
C 198.186015 89.162573 199.171212 88.754491 199.897501 88.028203 
C 200.623789 87.301914 201.031871 86.316717 201.031871 85.28959 
C 201.031871 84.262463 200.623789 83.277266 199.897501 82.550977 
C 199.171212 81.824688 198.186015 81.416606 197.158888 81.416606 
C 196.131761 81.416606 195.146564 81.824688 194.420275 82.550977 
C 193.693987 83.277266 193.285905 84.262463 193.285905 85.28959 
C 193.285905 86.316717 193.693987 87.301914 194.420275 88.028203 
C 195.146564 88.754491 196.131761 89.162573 197.158888 89.162573 
z
" clip-path="url(#pde3c2f4ff4)" style="fill: #add8e6; stroke: #add8e6"/>
    <path d="M 183.230178 268.368284 
C 184.257305 268.368284 185.242502 267.960202 185.968791 267.233914 
C 186.695079 266.507625 187.103161 265.522428 187.103161 264.495301 
C 187.103161 263.468174 186.695079 262.482977 185.968791 261.756688 
C 185.242502 261.030399 184.257305 260.622317 183.230178 260.622317 
C 182.203051 260.622317 181.217854 261.030399 180.491565 261.756688 
C 179.765276 262.482977 179.357195 263.468174 179.357195 264.495301 
C 179.357195 265.522428 179.765276 266.507625 180.491565 267.233914 
C 181.217854 267.960202 182.203051 268.368284 183.230178 268.368284 
z
" clip-path="url(#pde3c2f4ff4)" style="fill: #add8e6; stroke: #add8e6"/>
    <path d="M 54.002171 45.677803 
C 55.26014 45.677803 56.466755 45.178007 57.356273 44.288489 
C 58.245791 43.39897 58.745588 42.192355 58.745588 40.934387 
C 58.745588 39.676418 58.245791 38.469803 57.356273 37.580285 
C 56.466755 36.690766 55.26014 36.19097 54.002171 36.19097 
C 52.744202 36.19097 51.537587 36.690766 50.648069 37.580285 
C 49.758551 38.469803 49.258755 39.676418 49.258755 40.934387 
C 49.258755 42.192355 49.758551 43.39897 50.648069 44.288489 
C 51.537587 45.178007 52.744202 45.677803 54.002171 45.677803 
z
" clip-path="url(#pde3c2f4ff4)" style="fill: #add8e6; stroke: #add8e6"/>
    <path d="M 176.488624 257.997637 
C 177.746593 257.997637 178.953208 257.497841 179.842726 256.608323 
C 180.732245 255.718804 181.232041 254.512189 181.232041 253.254221 
C 181.232041 251.996252 180.732245 250.789637 179.842726 249.900119 
C 178.953208 249.0106 177.746593 248.510804 176.488624 248.510804 
C 175.230656 248.510804 174.024041 249.0106 173.134523 249.900119 
C 172.245004 250.789637 171.745208 251.996252 171.745208 253.254221 
C 171.745208 254.512189 172.245004 255.718804 173.134523 256.608323 
C 174.024041 257.497841 175.230656 257.997637 176.488624 257.997637 
z
" clip-path="url(#pde3c2f4ff4)" style="fill: #add8e6; stroke: #add8e6"/>
    <path d="M 118.576963 121.386506 
C 119.303252 121.386506 119.999891 121.097948 120.513455 120.584385 
C 121.027018 120.070821 121.315576 119.374181 121.315576 118.647893 
C 121.315576 117.921604 121.027018 117.224965 120.513455 116.711401 
C 119.999891 116.197838 119.303252 115.90928 118.576963 115.90928 
C 117.850674 115.90928 117.154035 116.197838 116.640471 116.711401 
C 116.126908 117.224965 115.83835 117.921604 115.83835 118.647893 
C 115.83835 119.374181 116.126908 120.070821 116.640471 120.584385 
C 117.154035 121.097948 117.850674 121.386506 118.576963 121.386506 
z
" clip-path="url(#pde3c2f4ff4)" style="fill: #add8e6; stroke: #add8e6"/>
    <path d="M 199.684044 70.052947 
C 200.410332 70.052947 201.106972 69.764389 201.620535 69.250826 
C 202.134099 68.737262 202.422656 68.040623 202.422656 67.314334 
C 202.422656 66.588046 202.134099 65.891406 201.620535 65.377842 
C 201.106972 64.864279 200.410332 64.575721 199.684044 64.575721 
C 198.957755 64.575721 198.261116 64.864279 197.747552 65.377842 
C 197.233988 65.891406 196.945431 66.588046 196.945431 67.314334 
C 196.945431 68.040623 197.233988 68.737262 197.747552 69.250826 
C 198.261116 69.764389 198.957755 70.052947 199.684044 70.052947 
z
" clip-path="url(#pde3c2f4ff4)" style="fill: #add8e6; stroke: #add8e6"/>
    <path d="M 89.522933 28.501145 
C 90.249222 28.501145 90.945861 28.212588 91.459425 27.699024 
C 91.972988 27.185461 92.261546 26.488821 92.261546 25.762533 
C 92.261546 25.036244 91.972988 24.339605 91.459425 23.826041 
C 90.945861 23.312477 90.249222 23.02392 89.522933 23.02392 
C 88.796644 23.02392 88.100005 23.312477 87.586441 23.826041 
C 87.072878 24.339605 86.78432 25.036244 86.78432 25.762533 
C 86.78432 26.488821 87.072878 27.185461 87.586441 27.699024 
C 88.100005 28.212588 88.796644 28.501145 89.522933 28.501145 
z
" clip-path="url(#pde3c2f4ff4)" style="fill: #add8e6; stroke: #add8e6"/>
    <path d="M 168.413971 283.648299 
C 169.140259 283.648299 169.836899 283.359742 170.350463 282.846178 
C 170.864026 282.332615 171.152584 281.635975 171.152584 280.909686 
C 171.152584 280.183398 170.864026 279.486758 170.350463 278.973195 
C 169.836899 278.459631 169.140259 278.171074 168.413971 278.171074 
C 167.687682 278.171074 166.991043 278.459631 166.477479 278.973195 
C 165.963916 279.486758 165.675358 280.183398 165.675358 280.909686 
C 165.675358 281.635975 165.963916 282.332615 166.477479 282.846178 
C 166.991043 283.359742 167.687682 283.648299 168.413971 283.648299 
z
" clip-path="url(#pde3c2f4ff4)" style="fill: #add8e6; stroke: #add8e6"/>
    <path d="M 79.176207 30.522789 
C 79.902496 30.522789 80.599135 30.234232 81.112699 29.720668 
C 81.626262 29.207105 81.91482 28.510465 81.91482 27.784177 
C 81.91482 27.057888 81.626262 26.361249 81.112699 25.847685 
C 80.599135 25.334121 79.902496 25.045564 79.176207 25.045564 
C 78.449918 25.045564 77.753279 25.334121 77.239715 25.847685 
C 76.726152 26.361249 76.437594 27.057888 76.437594 27.784177 
C 76.437594 28.510465 76.726152 29.207105 77.239715 29.720668 
C 77.753279 30.234232 78.449918 30.522789 79.176207 30.522789 
z
" clip-path="url(#pde3c2f4ff4)" style="fill: #add8e6; stroke: #add8e6"/>
    <path d="M 136.951734 268.94956 
C 137.978861 268.94956 138.964058 268.541478 139.690346 267.81519 
C 140.416635 267.088901 140.824717 266.103704 140.824717 265.076577 
C 140.824717 264.04945 140.416635 263.064253 139.690346 262.337964 
C 138.964058 261.611675 137.978861 261.203593 136.951734 261.203593 
C 135.924607 261.203593 134.93941 261.611675 134.213121 262.337964 
C 133.486832 263.064253 133.07875 264.04945 133.07875 265.076577 
C 133.07875 266.103704 133.486832 267.088901 134.213121 267.81519 
C 134.93941 268.541478 135.924607 268.94956 136.951734 268.94956 
z
" clip-path="url(#pde3c2f4ff4)" style="fill: #add8e6; stroke: #add8e6"/>
    <path d="M 117.603377 220.640616 
C 118.630504 220.640616 119.615701 220.232535 120.341989 219.506246 
C 121.068278 218.779957 121.47636 217.79476 121.47636 216.767633 
C 121.47636 215.740506 121.068278 214.755309 120.341989 214.02902 
C 119.615701 213.302732 118.630504 212.89465 117.603377 212.89465 
C 116.576249 212.89465 115.591052 213.302732 114.864764 214.02902 
C 114.138475 214.755309 113.730393 215.740506 113.730393 216.767633 
C 113.730393 217.79476 114.138475 218.779957 114.864764 219.506246 
C 115.591052 220.232535 116.576249 220.640616 117.603377 220.640616 
z
" clip-path="url(#pde3c2f4ff4)" style="fill: #add8e6; stroke: #add8e6"/>
    <path d="M 294.226026 206.010819 
C 294.952315 206.010819 295.648954 205.722262 296.162518 205.208698 
C 296.676082 204.695134 296.964639 203.998495 296.964639 203.272206 
C 296.964639 202.545918 296.676082 201.849278 296.162518 201.335715 
C 295.648954 200.822151 294.952315 200.533594 294.226026 200.533594 
C 293.499738 200.533594 292.803098 200.822151 292.289535 201.335715 
C 291.775971 201.849278 291.487414 202.545918 291.487414 203.272206 
C 291.487414 203.998495 291.775971 204.695134 292.289535 205.208698 
C 292.803098 205.722262 293.499738 206.010819 294.226026 206.010819 
z
" clip-path="url(#pde3c2f4ff4)" style="fill: #add8e6; stroke: #add8e6"/>
    <path d="M 222.973901 255.410968 
C 223.70019 255.410968 224.39683 255.12241 224.910393 254.608847 
C 225.423957 254.095283 225.712514 253.398644 225.712514 252.672355 
C 225.712514 251.946066 225.423957 251.249427 224.910393 250.735863 
C 224.39683 250.2223 223.70019 249.933742 222.973901 249.933742 
C 222.247613 249.933742 221.550973 250.2223 221.03741 250.735863 
C 220.523846 251.249427 220.235289 251.946066 220.235289 252.672355 
C 220.235289 253.398644 220.523846 254.095283 221.03741 254.608847 
C 221.550973 255.12241 222.247613 255.410968 222.973901 255.410968 
z
" clip-path="url(#pde3c2f4ff4)" style="fill: #add8e6; stroke: #add8e6"/>
    <path d="M 340.351112 247.803234 
C 341.077401 247.803234 341.77404 247.514676 342.287604 247.001113 
C 342.801167 246.487549 343.089725 245.79091 343.089725 245.064621 
C 343.089725 244.338333 342.801167 243.641693 342.287604 243.128129 
C 341.77404 242.614566 341.077401 242.326008 340.351112 242.326008 
C 339.624823 242.326008 338.928184 242.614566 338.41462 243.128129 
C 337.901057 243.641693 337.612499 244.338333 337.612499 245.064621 
C 337.612499 245.79091 337.901057 246.487549 338.41462 247.001113 
C 338.928184 247.514676 339.624823 247.803234 340.351112 247.803234 
z
" clip-path="url(#pde3c2f4ff4)" style="fill: #add8e6; stroke: #add8e6"/>
    <path d="M 112.882358 201.677532 
C 113.608647 201.677532 114.305286 201.388975 114.81885 200.875411 
C 115.332414 200.361848 115.620971 199.665208 115.620971 198.93892 
C 115.620971 198.212631 115.332414 197.515991 114.81885 197.002428 
C 114.305286 196.488864 113.608647 196.200307 112.882358 196.200307 
C 112.15607 196.200307 111.45943 196.488864 110.945867 197.002428 
C 110.432303 197.515991 110.143745 198.212631 110.143745 198.93892 
C 110.143745 199.665208 110.432303 200.361848 110.945867 200.875411 
C 111.45943 201.388975 112.15607 201.677532 112.882358 201.677532 
z
" clip-path="url(#pde3c2f4ff4)" style="fill: #add8e6; stroke: #add8e6"/>
    <path d="M 155.608478 267.195815 
C 156.334767 267.195815 157.031407 266.907257 157.54497 266.393693 
C 158.058534 265.88013 158.347091 265.18349 158.347091 264.457202 
C 158.347091 263.730913 158.058534 263.034274 157.54497 262.52071 
C 157.031407 262.007146 156.334767 261.718589 155.608478 261.718589 
C 154.88219 261.718589 154.18555 262.007146 153.671987 262.52071 
C 153.158423 263.034274 152.869866 263.730913 152.869866 264.457202 
C 152.869866 265.18349 153.158423 265.88013 153.671987 266.393693 
C 154.18555 266.907257 154.88219 267.195815 155.608478 267.195815 
z
" clip-path="url(#pde3c2f4ff4)" style="fill: #add8e6; stroke: #add8e6"/>
    <path d="M 327.451934 187.364763 
C 328.904511 187.364763 330.29779 186.787648 331.324917 185.76052 
C 332.352044 184.733393 332.929159 183.340114 332.929159 181.887537 
C 332.929159 180.43496 332.352044 179.041681 331.324917 178.014554 
C 330.29779 176.987427 328.904511 176.410312 327.451934 176.410312 
C 325.999356 176.410312 324.606077 176.987427 323.57895 178.014554 
C 322.551823 179.041681 321.974708 180.43496 321.974708 181.887537 
C 321.974708 183.340114 322.551823 184.733393 323.57895 185.76052 
C 324.606077 186.787648 325.999356 187.364763 327.451934 187.364763 
z
" clip-path="url(#pde3c2f4ff4)" style="fill: #add8e6; stroke: #add8e6"/>
    <path d="M 209.872286 101.365943 
C 210.598575 101.365943 211.295214 101.077386 211.808778 100.563822 
C 212.322341 100.050258 212.610899 99.353619 212.610899 98.62733 
C 212.610899 97.901042 212.322341 97.204402 211.808778 96.690839 
C 211.295214 96.177275 210.598575 95.888718 209.872286 95.888718 
C 209.145997 95.888718 208.449358 96.177275 207.935794 96.690839 
C 207.422231 97.204402 207.133673 97.901042 207.133673 98.62733 
C 207.133673 99.353619 207.422231 100.050258 207.935794 100.563822 
C 208.449358 101.077386 209.145997 101.365943 209.872286 101.365943 
z
" clip-path="url(#pde3c2f4ff4)" style="fill: #add8e6; stroke: #add8e6"/>
    <path d="M 376.485146 170.613982 
C 377.211435 170.613982 377.908074 170.325425 378.421638 169.811861 
C 378.935202 169.298298 379.223759 168.601658 379.223759 167.87537 
C 379.223759 167.149081 378.935202 166.452441 378.421638 165.938878 
C 377.908074 165.425314 377.211435 165.136757 376.485146 165.136757 
C 375.758858 165.136757 375.062218 165.425314 374.548655 165.938878 
C 374.035091 166.452441 373.746534 167.149081 373.746534 167.87537 
C 373.746534 168.601658 374.035091 169.298298 374.548655 169.811861 
C 375.062218 170.325425 375.758858 170.613982 376.485146 170.613982 
z
" clip-path="url(#pde3c2f4ff4)" style="fill: #add8e6; stroke: #add8e6"/>
    <path d="M 319.604261 48.737387 
C 320.33055 48.737387 321.027189 48.448829 321.540753 47.935266 
C 322.054316 47.421702 322.342874 46.725063 322.342874 45.998774 
C 322.342874 45.272485 322.054316 44.575846 321.540753 44.062282 
C 321.027189 43.548719 320.33055 43.260161 319.604261 43.260161 
C 318.877973 43.260161 318.181333 43.548719 317.667769 44.062282 
C 317.154206 44.575846 316.865648 45.272485 316.865648 45.998774 
C 316.865648 46.725063 317.154206 47.421702 317.667769 47.935266 
C 318.181333 48.448829 318.877973 48.737387 319.604261 48.737387 
z
" clip-path="url(#pde3c2f4ff4)" style="fill: #add8e6; stroke: #add8e6"/>
    <path d="M 318.569387 200.594277 
C 319.295676 200.594277 319.992315 200.305719 320.505879 199.792156 
C 321.019443 199.278592 321.308 198.581952 321.308 197.855664 
C 321.308 197.129375 321.019443 196.432736 320.505879 195.919172 
C 319.992315 195.405609 319.295676 195.117051 318.569387 195.117051 
C 317.843099 195.117051 317.146459 195.405609 316.632896 195.919172 
C 316.119332 196.432736 315.830774 197.129375 315.830774 197.855664 
C 315.830774 198.581952 316.119332 199.278592 316.632896 199.792156 
C 317.146459 200.305719 317.843099 200.594277 318.569387 200.594277 
z
" clip-path="url(#pde3c2f4ff4)" style="fill: #add8e6; stroke: #add8e6"/>
    <path d="M 354.944829 177.15053 
C 355.671117 177.15053 356.367757 176.861972 356.88132 176.348409 
C 357.394884 175.834845 357.683441 175.138206 357.683441 174.411917 
C 357.683441 173.685628 357.394884 172.988989 356.88132 172.475425 
C 356.367757 171.961862 355.671117 171.673304 354.944829 171.673304 
C 354.21854 171.673304 353.521901 171.961862 353.008337 172.475425 
C 352.494773 172.988989 352.206216 173.685628 352.206216 174.411917 
C 352.206216 175.138206 352.494773 175.834845 353.008337 176.348409 
C 353.521901 176.861972 354.21854 177.15053 354.944829 177.15053 
z
" clip-path="url(#pde3c2f4ff4)" style="fill: #add8e6; stroke: #add8e6"/>
    <path d="M 254.467027 206.681751 
C 255.193315 206.681751 255.889955 206.393193 256.403519 205.87963 
C 256.917082 205.366066 257.20564 204.669427 257.20564 203.943138 
C 257.20564 203.216849 256.917082 202.52021 256.403519 202.006646 
C 255.889955 201.493083 255.193315 201.204525 254.467027 201.204525 
C 253.740738 201.204525 253.044099 201.493083 252.530535 202.006646 
C 252.016972 202.52021 251.728414 203.216849 251.728414 203.943138 
C 251.728414 204.669427 252.016972 205.366066 252.530535 205.87963 
C 253.044099 206.393193 253.740738 206.681751 254.467027 206.681751 
z
" clip-path="url(#pde3c2f4ff4)" style="fill: #add8e6; stroke: #add8e6"/>
    <path d="M 181.255042 99.646171 
C 181.98133 99.646171 182.67797 99.357613 183.191533 98.84405 
C 183.705097 98.330486 183.993655 97.633847 183.993655 96.907558 
C 183.993655 96.181269 183.705097 95.48463 183.191533 94.971066 
C 182.67797 94.457503 181.98133 94.168945 181.255042 94.168945 
C 180.528753 94.168945 179.832114 94.457503 179.31855 94.971066 
C 178.804987 95.48463 178.516429 96.181269 178.516429 96.907558 
C 178.516429 97.633847 178.804987 98.330486 179.31855 98.84405 
C 179.832114 99.357613 180.528753 99.646171 181.255042 99.646171 
z
" clip-path="url(#pde3c2f4ff4)" style="fill: #add8e6; stroke: #add8e6"/>
    <path d="M 137.986868 318.111912 
C 138.713157 318.111912 139.409796 317.823355 139.92336 317.309791 
C 140.436923 316.796227 140.725481 316.099588 140.725481 315.373299 
C 140.725481 314.647011 140.436923 313.950371 139.92336 313.436808 
C 139.409796 312.923244 138.713157 312.634687 137.986868 312.634687 
C 137.260579 312.634687 136.56394 312.923244 136.050376 313.436808 
C 135.536813 313.950371 135.248255 314.647011 135.248255 315.373299 
C 135.248255 316.099588 135.536813 316.796227 136.050376 317.309791 
C 136.56394 317.823355 137.260579 318.111912 137.986868 318.111912 
z
" clip-path="url(#pde3c2f4ff4)" style="fill: #add8e6; stroke: #add8e6"/>
    <path d="M 295.572171 175.332038 
C 296.29846 175.332038 296.995099 175.04348 297.508663 174.529917 
C 298.022227 174.016353 298.310784 173.319714 298.310784 172.593425 
C 298.310784 171.867136 298.022227 171.170497 297.508663 170.656933 
C 296.995099 170.14337 296.29846 169.854812 295.572171 169.854812 
C 294.845883 169.854812 294.149243 170.14337 293.63568 170.656933 
C 293.122116 171.170497 292.833558 171.867136 292.833558 172.593425 
C 292.833558 173.319714 293.122116 174.016353 293.63568 174.529917 
C 294.149243 175.04348 294.845883 175.332038 295.572171 175.332038 
z
" clip-path="url(#pde3c2f4ff4)" style="fill: #add8e6; stroke: #add8e6"/>
    <path d="M 33.05201 51.999063 
C 33.778299 51.999063 34.474939 51.710506 34.988502 51.196942 
C 35.502066 50.683379 35.790623 49.986739 35.790623 49.260451 
C 35.790623 48.534162 35.502066 47.837522 34.988502 47.323959 
C 34.474939 46.810395 33.778299 46.521838 33.05201 46.521838 
C 32.325722 46.521838 31.629082 46.810395 31.115519 47.323959 
C 30.601955 47.837522 30.313398 48.534162 30.313398 49.260451 
C 30.313398 49.986739 30.601955 50.683379 31.115519 51.196942 
C 31.629082 51.710506 32.325722 51.999063 33.05201 51.999063 
z
" clip-path="url(#pde3c2f4ff4)" style="fill: #add8e6; stroke: #add8e6"/>
    <path d="M 108.94864 277.241736 
C 109.674928 277.241736 110.371568 276.953178 110.885131 276.439615 
C 111.398695 275.926051 111.687252 275.229412 111.687252 274.503123 
C 111.687252 273.776834 111.398695 273.080195 110.885131 272.566631 
C 110.371568 272.053068 109.674928 271.76451 108.94864 271.76451 
C 108.222351 271.76451 107.525711 272.053068 107.012148 272.566631 
C 106.498584 273.080195 106.210027 273.776834 106.210027 274.503123 
C 106.210027 275.229412 106.498584 275.926051 107.012148 276.439615 
C 107.525711 276.953178 108.222351 277.241736 108.94864 277.241736 
z
" clip-path="url(#pde3c2f4ff4)" style="fill: #add8e6; stroke: #add8e6"/>
    <path d="M 120.122309 128.91762 
C 120.848598 128.91762 121.545237 128.629062 122.058801 128.115499 
C 122.572365 127.601935 122.860922 126.905296 122.860922 126.179007 
C 122.860922 125.452718 122.572365 124.756079 122.058801 124.242515 
C 121.545237 123.728952 120.848598 123.440394 120.122309 123.440394 
C 119.396021 123.440394 118.699381 123.728952 118.185818 124.242515 
C 117.672254 124.756079 117.383697 125.452718 117.383697 126.179007 
C 117.383697 126.905296 117.672254 127.601935 118.185818 128.115499 
C 118.699381 128.629062 119.396021 128.91762 120.122309 128.91762 
z
" clip-path="url(#pde3c2f4ff4)" style="fill: #add8e6; stroke: #add8e6"/>
    <path d="M 31.082544 32.732257 
C 31.808833 32.732257 32.505472 32.443699 33.019036 31.930136 
C 33.5326 31.416572 33.821157 30.719933 33.821157 29.993644 
C 33.821157 29.267355 33.5326 28.570716 33.019036 28.057152 
C 32.505472 27.543589 31.808833 27.255031 31.082544 27.255031 
C 30.356256 27.255031 29.659616 27.543589 29.146053 28.057152 
C 28.632489 28.570716 28.343932 29.267355 28.343932 29.993644 
C 28.343932 30.719933 28.632489 31.416572 29.146053 31.930136 
C 29.659616 32.443699 30.356256 32.732257 31.082544 32.732257 
z
" clip-path="url(#pde3c2f4ff4)" style="fill: #add8e6; stroke: #add8e6"/>
    <path d="M 339.751139 165.610706 
C 340.477427 165.610706 341.174067 165.322148 341.68763 164.808585 
C 342.201194 164.295021 342.489751 163.598381 342.489751 162.872093 
C 342.489751 162.145804 342.201194 161.449165 341.68763 160.935601 
C 341.174067 160.422038 340.477427 160.13348 339.751139 160.13348 
C 339.02485 160.13348 338.32821 160.422038 337.814647 160.935601 
C 337.301083 161.449165 337.012526 162.145804 337.012526 162.872093 
C 337.012526 163.598381 337.301083 164.295021 337.814647 164.808585 
C 338.32821 165.322148 339.02485 165.610706 339.751139 165.610706 
z
" clip-path="url(#pde3c2f4ff4)" style="fill: #add8e6; stroke: #add8e6"/>
    <path d="M 365.151091 168.272419 
C 366.178218 168.272419 367.163415 167.864337 367.889704 167.138049 
C 368.615993 166.41176 369.024075 165.426563 369.024075 164.399436 
C 369.024075 163.372309 368.615993 162.387112 367.889704 161.660823 
C 367.163415 160.934534 366.178218 160.526452 365.151091 160.526452 
C 364.123964 160.526452 363.138767 160.934534 362.412478 161.660823 
C 361.68619 162.387112 361.278108 163.372309 361.278108 164.399436 
C 361.278108 165.426563 361.68619 166.41176 362.412478 167.138049 
C 363.138767 167.864337 364.123964 168.272419 365.151091 168.272419 
z
" clip-path="url(#pde3c2f4ff4)" style="fill: #add8e6; stroke: #add8e6"/>
    <path d="M 331.610878 253.201756 
C 332.337166 253.201756 333.033806 252.913199 333.54737 252.399635 
C 334.060933 251.886072 334.349491 251.189432 334.349491 250.463144 
C 334.349491 249.736855 334.060933 249.040216 333.54737 248.526652 
C 333.033806 248.013088 332.337166 247.724531 331.610878 247.724531 
C 330.884589 247.724531 330.18795 248.013088 329.674386 248.526652 
C 329.160823 249.040216 328.872265 249.736855 328.872265 250.463144 
C 328.872265 251.189432 329.160823 251.886072 329.674386 252.399635 
C 330.18795 252.913199 330.884589 253.201756 331.610878 253.201756 
z
" clip-path="url(#pde3c2f4ff4)" style="fill: #add8e6; stroke: #add8e6"/>
    <path d="M 77.2694 67.830287 
C 77.995688 67.830287 78.692328 67.54173 79.205891 67.028166 
C 79.719455 66.514603 80.008013 65.817963 80.008013 65.091675 
C 80.008013 64.365386 79.719455 63.668746 79.205891 63.155183 
C 78.692328 62.641619 77.995688 62.353062 77.2694 62.353062 
C 76.543111 62.353062 75.846472 62.641619 75.332908 63.155183 
C 74.819344 63.668746 74.530787 64.365386 74.530787 65.091675 
C 74.530787 65.817963 74.819344 66.514603 75.332908 67.028166 
C 75.846472 67.54173 76.543111 67.830287 77.2694 67.830287 
z
" clip-path="url(#pde3c2f4ff4)" style="fill: #add8e6; stroke: #add8e6"/>
    <path d="M 150.138271 322.57608 
C 150.86456 322.57608 151.561199 322.287523 152.074763 321.773959 
C 152.588327 321.260395 152.876884 320.563756 152.876884 319.837467 
C 152.876884 319.111179 152.588327 318.414539 152.074763 317.900976 
C 151.561199 317.387412 150.86456 317.098855 150.138271 317.098855 
C 149.411983 317.098855 148.715343 317.387412 148.20178 317.900976 
C 147.688216 318.414539 147.399658 319.111179 147.399658 319.837467 
C 147.399658 320.563756 147.688216 321.260395 148.20178 321.773959 
C 148.715343 322.287523 149.411983 322.57608 150.138271 322.57608 
z
" clip-path="url(#pde3c2f4ff4)" style="fill: #add8e6; stroke: #add8e6"/>
    <path d="M 394.590757 155.996588 
C 395.317046 155.996588 396.013686 155.70803 396.527249 155.194467 
C 397.040813 154.680903 397.32937 153.984264 397.32937 153.257975 
C 397.32937 152.531686 397.040813 151.835047 396.527249 151.321483 
C 396.013686 150.80792 395.317046 150.519362 394.590757 150.519362 
C 393.864469 150.519362 393.167829 150.80792 392.654266 151.321483 
C 392.140702 151.835047 391.852145 152.531686 391.852145 153.257975 
C 391.852145 153.984264 392.140702 154.680903 392.654266 155.194467 
C 393.167829 155.70803 393.864469 155.996588 394.590757 155.996588 
z
" clip-path="url(#pde3c2f4ff4)" style="fill: #add8e6; stroke: #add8e6"/>
    <path d="M 194.107691 173.968695 
C 194.83398 173.968695 195.530619 173.680137 196.044183 173.166574 
C 196.557746 172.65301 196.846304 171.956371 196.846304 171.230082 
C 196.846304 170.503793 196.557746 169.807154 196.044183 169.29359 
C 195.530619 168.780027 194.83398 168.491469 194.107691 168.491469 
C 193.381403 168.491469 192.684763 168.780027 192.171199 169.29359 
C 191.657636 169.807154 191.369078 170.503793 191.369078 171.230082 
C 191.369078 171.956371 191.657636 172.65301 192.171199 173.166574 
C 192.684763 173.680137 193.381403 173.968695 194.107691 173.968695 
z
" clip-path="url(#pde3c2f4ff4)" style="fill: #add8e6; stroke: #add8e6"/>
   </g>
  </g>
 </g>
 <defs>
  <clipPath id="pde3c2f4ff4">
   <rect x="10.8" y="10.8" width="439.2" height="324"/>
  </clipPath>
 </defs>
</svg>
