<?xml version="1.0" encoding="utf-8" standalone="no"?>
<!DOCTYPE svg PUBLIC "-//W3C//DTD SVG 1.1//EN"
  "http://www.w3.org/Graphics/SVG/1.1/DTD/svg11.dtd">
<svg xmlns:xlink="http://www.w3.org/1999/xlink" width="460.8pt" height="345.6pt" viewBox="0 0 460.8 345.6" xmlns="http://www.w3.org/2000/svg" version="1.1">
 <metadata>
  <rdf:RDF xmlns:dc="http://purl.org/dc/elements/1.1/" xmlns:cc="http://creativecommons.org/ns#" xmlns:rdf="http://www.w3.org/1999/02/22-rdf-syntax-ns#">
   <cc:Work>
    <dc:type rdf:resource="http://purl.org/dc/dcmitype/StillImage"/>
    <dc:date>2022-12-31T16:15:43.862006</dc:date>
    <dc:format>image/svg+xml</dc:format>
    <dc:creator>
     <cc:Agent>
      <dc:title>Matplotlib v3.6.2, https://matplotlib.org/</dc:title>
     </cc:Agent>
    </dc:creator>
   </cc:Work>
  </rdf:RDF>
 </metadata>
 <defs>
  <style type="text/css">*{stroke-linejoin: round; stroke-linecap: butt}</style>
 </defs>
 <g id="figure_1">
  <g id="patch_1">
   <path d="M 0 345.6 
L 460.8 345.6 
L 460.8 0 
L 0 0 
z
" style="fill: #ffffff"/>
  </g>
  <g id="axes_1">
   <g id="LineCollection_1">
    <path d="M 227.826967 135.122622 
L 184.727788 87.367154 
" clip-path="url(#pc3cbb6472f)" style="fill: none; stroke: #000000"/>
    <path d="M 227.826967 135.122622 
L 251.872754 98.084714 
" clip-path="url(#pc3cbb6472f)" style="fill: none; stroke: #000000"/>
    <path d="M 227.826967 135.122622 
L 208.082882 195.292442 
" clip-path="url(#pc3cbb6472f)" style="fill: none; stroke: #000000"/>
    <path d="M 227.826967 135.122622 
L 219.912206 118.077442 
" clip-path="url(#pc3cbb6472f)" style="fill: none; stroke: #000000"/>
    <path d="M 227.826967 135.122622 
L 181.777625 157.227233 
" clip-path="url(#pc3cbb6472f)" style="fill: none; stroke: #000000"/>
    <path d="M 227.826967 135.122622 
L 314.338541 165.522016 
" clip-path="url(#pc3cbb6472f)" style="fill: none; stroke: #000000"/>
    <path d="M 227.826967 135.122622 
L 190.944618 123.789088 
" clip-path="url(#pc3cbb6472f)" style="fill: none; stroke: #000000"/>
    <path d="M 227.826967 135.122622 
L 254.020761 139.987919 
" clip-path="url(#pc3cbb6472f)" style="fill: none; stroke: #000000"/>
    <path d="M 227.826967 135.122622 
L 245.2292 114.314653 
" clip-path="url(#pc3cbb6472f)" style="fill: none; stroke: #000000"/>
    <path d="M 227.826967 135.122622 
L 217.73475 150.737259 
" clip-path="url(#pc3cbb6472f)" style="fill: none; stroke: #000000"/>
    <path d="M 227.826967 135.122622 
L 195.405628 135.968958 
" clip-path="url(#pc3cbb6472f)" style="fill: none; stroke: #000000"/>
    <path d="M 227.826967 135.122622 
L 202.523405 113.733075 
" clip-path="url(#pc3cbb6472f)" style="fill: none; stroke: #000000"/>
    <path d="M 227.826967 135.122622 
L 224.90256 106.479642 
" clip-path="url(#pc3cbb6472f)" style="fill: none; stroke: #000000"/>
    <path d="M 227.826967 135.122622 
L 259.137584 123.802292 
" clip-path="url(#pc3cbb6472f)" style="fill: none; stroke: #000000"/>
    <path d="M 184.727788 87.367154 
L 148.687209 51.08963 
" clip-path="url(#pc3cbb6472f)" style="fill: none; stroke: #000000"/>
    <path d="M 184.727788 87.367154 
L 171.415137 64.351108 
" clip-path="url(#pc3cbb6472f)" style="fill: none; stroke: #000000"/>
    <path d="M 251.872754 98.084714 
L 268.631154 72.507838 
" clip-path="url(#pc3cbb6472f)" style="fill: none; stroke: #000000"/>
    <path d="M 208.082882 195.292442 
L 266.864209 168.599373 
" clip-path="url(#pc3cbb6472f)" style="fill: none; stroke: #000000"/>
    <path d="M 208.082882 195.292442 
L 133.170106 235.884262 
" clip-path="url(#pc3cbb6472f)" style="fill: none; stroke: #000000"/>
    <path d="M 208.082882 195.292442 
L 229.891732 234.885513 
" clip-path="url(#pc3cbb6472f)" style="fill: none; stroke: #000000"/>
    <path d="M 208.082882 195.292442 
L 203.500113 214.904216 
" clip-path="url(#pc3cbb6472f)" style="fill: none; stroke: #000000"/>
    <path d="M 266.864209 168.599373 
L 319.676141 137.542322 
" clip-path="url(#pc3cbb6472f)" style="fill: none; stroke: #000000"/>
    <path d="M 181.777625 157.227233 
L 165.003511 176.597127 
" clip-path="url(#pc3cbb6472f)" style="fill: none; stroke: #000000"/>
    <path d="M 181.777625 157.227233 
L 149.491933 169.25807 
" clip-path="url(#pc3cbb6472f)" style="fill: none; stroke: #000000"/>
    <path d="M 319.676141 137.542322 
L 356.724787 124.539186 
" clip-path="url(#pc3cbb6472f)" style="fill: none; stroke: #000000"/>
    <path d="M 319.676141 137.542322 
L 345.017309 114.014615 
" clip-path="url(#pc3cbb6472f)" style="fill: none; stroke: #000000"/>
    <path d="M 133.170106 235.884262 
L 94.689136 278.317544 
" clip-path="url(#pc3cbb6472f)" style="fill: none; stroke: #000000"/>
    <path d="M 133.170106 235.884262 
L 85.08986 224.114688 
" clip-path="url(#pc3cbb6472f)" style="fill: none; stroke: #000000"/>
    <path d="M 133.170106 235.884262 
L 133.214723 258.09489 
" clip-path="url(#pc3cbb6472f)" style="fill: none; stroke: #000000"/>
    <path d="M 133.170106 235.884262 
L 109.916105 251.704026 
" clip-path="url(#pc3cbb6472f)" style="fill: none; stroke: #000000"/>
    <path d="M 133.170106 235.884262 
L 102.396701 238.206311 
" clip-path="url(#pc3cbb6472f)" style="fill: none; stroke: #000000"/>
    <path d="M 94.689136 278.317544 
L 100.446058 301.509732 
" clip-path="url(#pc3cbb6472f)" style="fill: none; stroke: #000000"/>
    <path d="M 94.689136 278.317544 
L 78.978174 297.544361 
" clip-path="url(#pc3cbb6472f)" style="fill: none; stroke: #000000"/>
    <path d="M 94.689136 278.317544 
L 56.621571 302.05086 
" clip-path="url(#pc3cbb6472f)" style="fill: none; stroke: #000000"/>
    <path d="M 314.338541 165.522016 
L 314.807815 195.815454 
" clip-path="url(#pc3cbb6472f)" style="fill: none; stroke: #000000"/>
    <path d="M 314.338541 165.522016 
L 348.434842 160.968965 
" clip-path="url(#pc3cbb6472f)" style="fill: none; stroke: #000000"/>
    <path d="M 314.338541 165.522016 
L 389.292625 181.807981 
" clip-path="url(#pc3cbb6472f)" style="fill: none; stroke: #000000"/>
    <path d="M 314.338541 165.522016 
L 342.806393 177.695257 
" clip-path="url(#pc3cbb6472f)" style="fill: none; stroke: #000000"/>
    <path d="M 85.08986 224.114688 
L 49.524419 215.184817 
" clip-path="url(#pc3cbb6472f)" style="fill: none; stroke: #000000"/>
    <path d="M 148.687209 51.08963 
L 137.773204 25.762533 
" clip-path="url(#pc3cbb6472f)" style="fill: none; stroke: #000000"/>
    <path d="M 148.687209 51.08963 
L 119.463814 34.1959 
" clip-path="url(#pc3cbb6472f)" style="fill: none; stroke: #000000"/>
    <path d="M 229.891732 234.885513 
L 232.008973 260.909486 
" clip-path="url(#pc3cbb6472f)" style="fill: none; stroke: #000000"/>
    <path d="M 229.891732 234.885513 
L 251.07668 256.985537 
" clip-path="url(#pc3cbb6472f)" style="fill: none; stroke: #000000"/>
    <path d="M 314.807815 195.815454 
L 298.653111 217.50198 
" clip-path="url(#pc3cbb6472f)" style="fill: none; stroke: #000000"/>
    <path d="M 389.292625 181.807981 
L 411.325303 203.018378 
" clip-path="url(#pc3cbb6472f)" style="fill: none; stroke: #000000"/>
    <path d="M 389.292625 181.807981 
L 425.060682 171.555052 
" clip-path="url(#pc3cbb6472f)" style="fill: none; stroke: #000000"/>
    <path d="M 389.292625 181.807981 
L 429.717456 183.626209 
" clip-path="url(#pc3cbb6472f)" style="fill: none; stroke: #000000"/>
    <path d="M 389.292625 181.807981 
L 424.923216 195.065074 
" clip-path="url(#pc3cbb6472f)" style="fill: none; stroke: #000000"/>
    <path d="M 56.621571 302.05086 
L 31.082544 319.837467 
" clip-path="url(#pc3cbb6472f)" style="fill: none; stroke: #000000"/>
   </g>
   <g id="PathCollection_1">
    <path d="M 227.826967 145.369573 
C 230.54449 145.369573 233.151076 144.289889 235.072655 142.36831 
C 236.994234 140.446731 238.073917 137.840145 238.073917 135.122622 
C 238.073917 132.405099 236.994234 129.798513 235.072655 127.876934 
C 233.151076 125.955355 230.54449 124.875671 227.826967 124.875671 
C 225.109443 124.875671 222.502857 125.955355 220.581278 127.876934 
C 218.659699 129.798513 217.580016 132.405099 217.580016 135.122622 
C 217.580016 137.840145 218.659699 140.446731 220.581278 142.36831 
C 222.502857 144.289889 225.109443 145.369573 227.826967 145.369573 
z
" clip-path="url(#pc3cbb6472f)" style="fill: #add8e6; stroke: #add8e6"/>
    <path d="M 184.727788 92.110571 
C 185.985757 92.110571 187.192372 91.610775 188.08189 90.721256 
C 188.971408 89.831738 189.471204 88.625123 189.471204 87.367154 
C 189.471204 86.109186 188.971408 84.902571 188.08189 84.013052 
C 187.192372 83.123534 185.985757 82.623738 184.727788 82.623738 
C 183.469819 82.623738 182.263204 83.123534 181.373686 84.013052 
C 180.484168 84.902571 179.984371 86.109186 179.984371 87.367154 
C 179.984371 88.625123 180.484168 89.831738 181.373686 90.721256 
C 182.263204 91.610775 183.469819 92.110571 184.727788 92.110571 
z
" clip-path="url(#pc3cbb6472f)" style="fill: #add8e6; stroke: #add8e6"/>
    <path d="M 251.872754 101.957697 
C 252.899881 101.957697 253.885078 101.549615 254.611367 100.823326 
C 255.337655 100.097038 255.745737 99.111841 255.745737 98.084714 
C 255.745737 97.057586 255.337655 96.072389 254.611367 95.346101 
C 253.885078 94.619812 252.899881 94.21173 251.872754 94.21173 
C 250.845627 94.21173 249.86043 94.619812 249.134141 95.346101 
C 248.407853 96.072389 247.999771 97.057586 247.999771 98.084714 
C 247.999771 99.111841 248.407853 100.097038 249.134141 100.823326 
C 249.86043 101.549615 250.845627 101.957697 251.872754 101.957697 
z
" clip-path="url(#pc3cbb6472f)" style="fill: #add8e6; stroke: #add8e6"/>
    <path d="M 208.082882 201.416167 
C 209.706912 201.416167 211.264646 200.770932 212.413009 199.622569 
C 213.561372 198.474206 214.206606 196.916473 214.206606 195.292442 
C 214.206606 193.668412 213.561372 192.110678 212.413009 190.962315 
C 211.264646 189.813952 209.706912 189.168718 208.082882 189.168718 
C 206.458851 189.168718 204.901118 189.813952 203.752755 190.962315 
C 202.604392 192.110678 201.959157 193.668412 201.959157 195.292442 
C 201.959157 196.916473 202.604392 198.474206 203.752755 199.622569 
C 204.901118 200.770932 206.458851 201.416167 208.082882 201.416167 
z
" clip-path="url(#pc3cbb6472f)" style="fill: #add8e6; stroke: #add8e6"/>
    <path d="M 219.912206 120.816055 
C 220.638494 120.816055 221.335134 120.527498 221.848697 120.013934 
C 222.362261 119.50037 222.650819 118.803731 222.650819 118.077442 
C 222.650819 117.351154 222.362261 116.654514 221.848697 116.140951 
C 221.335134 115.627387 220.638494 115.33883 219.912206 115.33883 
C 219.185917 115.33883 218.489278 115.627387 217.975714 116.140951 
C 217.462151 116.654514 217.173593 117.351154 217.173593 118.077442 
C 217.173593 118.803731 217.462151 119.50037 217.975714 120.013934 
C 218.489278 120.527498 219.185917 120.816055 219.912206 120.816055 
z
" clip-path="url(#pc3cbb6472f)" style="fill: #add8e6; stroke: #add8e6"/>
    <path d="M 266.864209 172.472357 
C 267.891336 172.472357 268.876533 172.064275 269.602822 171.337986 
C 270.32911 170.611698 270.737192 169.626501 270.737192 168.599373 
C 270.737192 167.572246 270.32911 166.587049 269.602822 165.860761 
C 268.876533 165.134472 267.891336 164.72639 266.864209 164.72639 
C 265.837082 164.72639 264.851885 165.134472 264.125596 165.860761 
C 263.399308 166.587049 262.991226 167.572246 262.991226 168.599373 
C 262.991226 169.626501 263.399308 170.611698 264.125596 171.337986 
C 264.851885 172.064275 265.837082 172.472357 266.864209 172.472357 
z
" clip-path="url(#pc3cbb6472f)" style="fill: #add8e6; stroke: #add8e6"/>
    <path d="M 181.777625 161.970649 
C 183.035594 161.970649 184.242209 161.470853 185.131727 160.581335 
C 186.021245 159.691817 186.521042 158.485202 186.521042 157.227233 
C 186.521042 155.969264 186.021245 154.762649 185.131727 153.873131 
C 184.242209 152.983613 183.035594 152.483816 181.777625 152.483816 
C 180.519656 152.483816 179.313041 152.983613 178.423523 153.873131 
C 177.534005 154.762649 177.034209 155.969264 177.034209 157.227233 
C 177.034209 158.485202 177.534005 159.691817 178.423523 160.581335 
C 179.313041 161.470853 180.519656 161.970649 181.777625 161.970649 
z
" clip-path="url(#pc3cbb6472f)" style="fill: #add8e6; stroke: #add8e6"/>
    <path d="M 165.003511 179.33574 
C 165.7298 179.33574 166.426439 179.047182 166.940003 178.533618 
C 167.453566 178.020055 167.742124 177.323415 167.742124 176.597127 
C 167.742124 175.870838 167.453566 175.174199 166.940003 174.660635 
C 166.426439 174.147072 165.7298 173.858514 165.003511 173.858514 
C 164.277223 173.858514 163.580583 174.147072 163.06702 174.660635 
C 162.553456 175.174199 162.264898 175.870838 162.264898 176.597127 
C 162.264898 177.323415 162.553456 178.020055 163.06702 178.533618 
C 163.580583 179.047182 164.277223 179.33574 165.003511 179.33574 
z
" clip-path="url(#pc3cbb6472f)" style="fill: #add8e6; stroke: #add8e6"/>
    <path d="M 149.491933 171.996683 
C 150.218221 171.996683 150.914861 171.708125 151.428424 171.194562 
C 151.941988 170.680998 152.230545 169.984358 152.230545 169.25807 
C 152.230545 168.531781 151.941988 167.835142 151.428424 167.321578 
C 150.914861 166.808015 150.218221 166.519457 149.491933 166.519457 
C 148.765644 166.519457 148.069005 166.808015 147.555441 167.321578 
C 147.041877 167.835142 146.75332 168.531781 146.75332 169.25807 
C 146.75332 169.984358 147.041877 170.680998 147.555441 171.194562 
C 148.069005 171.708125 148.765644 171.996683 149.491933 171.996683 
z
" clip-path="url(#pc3cbb6472f)" style="fill: #add8e6; stroke: #add8e6"/>
    <path d="M 319.676141 142.285738 
C 320.93411 142.285738 322.140725 141.785942 323.030243 140.896424 
C 323.919761 140.006906 324.419557 138.800291 324.419557 137.542322 
C 324.419557 136.284353 323.919761 135.077738 323.030243 134.18822 
C 322.140725 133.298702 320.93411 132.798905 319.676141 132.798905 
C 318.418172 132.798905 317.211557 133.298702 316.322039 134.18822 
C 315.432521 135.077738 314.932724 136.284353 314.932724 137.542322 
C 314.932724 138.800291 315.432521 140.006906 316.322039 140.896424 
C 317.211557 141.785942 318.418172 142.285738 319.676141 142.285738 
z
" clip-path="url(#pc3cbb6472f)" style="fill: #add8e6; stroke: #add8e6"/>
    <path d="M 133.170106 242.592466 
C 134.949143 242.592466 136.655554 241.885647 137.913523 240.627678 
C 139.171491 239.36971 139.87831 237.663298 139.87831 235.884262 
C 139.87831 234.105225 139.171491 232.398814 137.913523 231.140845 
C 136.655554 229.882877 134.949143 229.176058 133.170106 229.176058 
C 131.39107 229.176058 129.684658 229.882877 128.42669 231.140845 
C 127.168721 232.398814 126.461902 234.105225 126.461902 235.884262 
C 126.461902 237.663298 127.168721 239.36971 128.42669 240.627678 
C 129.684658 241.885647 131.39107 242.592466 133.170106 242.592466 
z
" clip-path="url(#pc3cbb6472f)" style="fill: #add8e6; stroke: #add8e6"/>
    <path d="M 94.689136 283.79477 
C 96.141713 283.79477 97.534992 283.217655 98.56212 282.190528 
C 99.589247 281.1634 100.166362 279.770121 100.166362 278.317544 
C 100.166362 276.864967 99.589247 275.471688 98.56212 274.444561 
C 97.534992 273.417434 96.141713 272.840319 94.689136 272.840319 
C 93.236559 272.840319 91.84328 273.417434 90.816153 274.444561 
C 89.789026 275.471688 89.211911 276.864967 89.211911 278.317544 
C 89.211911 279.770121 89.789026 281.1634 90.816153 282.190528 
C 91.84328 283.217655 93.236559 283.79477 94.689136 283.79477 
z
" clip-path="url(#pc3cbb6472f)" style="fill: #add8e6; stroke: #add8e6"/>
    <path d="M 314.338541 171.645741 
C 315.962571 171.645741 317.520305 171.000506 318.668668 169.852143 
C 319.817031 168.70378 320.462265 167.146047 320.462265 165.522016 
C 320.462265 163.897985 319.817031 162.340252 318.668668 161.191889 
C 317.520305 160.043526 315.962571 159.398292 314.338541 159.398292 
C 312.71451 159.398292 311.156777 160.043526 310.008414 161.191889 
C 308.86005 162.340252 308.214816 163.897985 308.214816 165.522016 
C 308.214816 167.146047 308.86005 168.70378 310.008414 169.852143 
C 311.156777 171.000506 312.71451 171.645741 314.338541 171.645741 
z
" clip-path="url(#pc3cbb6472f)" style="fill: #add8e6; stroke: #add8e6"/>
    <path d="M 85.08986 227.987671 
C 86.116987 227.987671 87.102184 227.579589 87.828472 226.853301 
C 88.554761 226.127012 88.962843 225.141815 88.962843 224.114688 
C 88.962843 223.087561 88.554761 222.102364 87.828472 221.376075 
C 87.102184 220.649786 86.116987 220.241704 85.08986 220.241704 
C 84.062732 220.241704 83.077535 220.649786 82.351247 221.376075 
C 81.624958 222.102364 81.216876 223.087561 81.216876 224.114688 
C 81.216876 225.141815 81.624958 226.127012 82.351247 226.853301 
C 83.077535 227.579589 84.062732 227.987671 85.08986 227.987671 
z
" clip-path="url(#pc3cbb6472f)" style="fill: #add8e6; stroke: #add8e6"/>
    <path d="M 148.687209 55.833047 
C 149.945178 55.833047 151.151793 55.33325 152.041311 54.443732 
C 152.930829 53.554214 153.430626 52.347599 153.430626 51.08963 
C 153.430626 49.831661 152.930829 48.625046 152.041311 47.735528 
C 151.151793 46.84601 149.945178 46.346214 148.687209 46.346214 
C 147.42924 46.346214 146.222625 46.84601 145.333107 47.735528 
C 144.443589 48.625046 143.943793 49.831661 143.943793 51.08963 
C 143.943793 52.347599 144.443589 53.554214 145.333107 54.443732 
C 146.222625 55.33325 147.42924 55.833047 148.687209 55.833047 
z
" clip-path="url(#pc3cbb6472f)" style="fill: #add8e6; stroke: #add8e6"/>
    <path d="M 229.891732 239.62893 
C 231.149701 239.62893 232.356316 239.129133 233.245834 238.239615 
C 234.135352 237.350097 234.635148 236.143482 234.635148 234.885513 
C 234.635148 233.627545 234.135352 232.42093 233.245834 231.531411 
C 232.356316 230.641893 231.149701 230.142097 229.891732 230.142097 
C 228.633763 230.142097 227.427148 230.641893 226.53763 231.531411 
C 225.648112 232.42093 225.148315 233.627545 225.148315 234.885513 
C 225.148315 236.143482 225.648112 237.350097 226.53763 238.239615 
C 227.427148 239.129133 228.633763 239.62893 229.891732 239.62893 
z
" clip-path="url(#pc3cbb6472f)" style="fill: #add8e6; stroke: #add8e6"/>
    <path d="M 100.446058 304.248345 
C 101.172347 304.248345 101.868986 303.959788 102.38255 303.446224 
C 102.896113 302.93266 103.184671 302.236021 103.184671 301.509732 
C 103.184671 300.783444 102.896113 300.086804 102.38255 299.573241 
C 101.868986 299.059677 101.172347 298.771119 100.446058 298.771119 
C 99.71977 298.771119 99.02313 299.059677 98.509567 299.573241 
C 97.996003 300.086804 97.707445 300.783444 97.707445 301.509732 
C 97.707445 302.236021 97.996003 302.93266 98.509567 303.446224 
C 99.02313 303.959788 99.71977 304.248345 100.446058 304.248345 
z
" clip-path="url(#pc3cbb6472f)" style="fill: #add8e6; stroke: #add8e6"/>
    <path d="M 190.944618 126.527701 
C 191.670907 126.527701 192.367546 126.239143 192.88111 125.72558 
C 193.394674 125.212016 193.683231 124.515376 193.683231 123.789088 
C 193.683231 123.062799 193.394674 122.36616 192.88111 121.852596 
C 192.367546 121.339033 191.670907 121.050475 190.944618 121.050475 
C 190.21833 121.050475 189.52169 121.339033 189.008127 121.852596 
C 188.494563 122.36616 188.206006 123.062799 188.206006 123.789088 
C 188.206006 124.515376 188.494563 125.212016 189.008127 125.72558 
C 189.52169 126.239143 190.21833 126.527701 190.944618 126.527701 
z
" clip-path="url(#pc3cbb6472f)" style="fill: #add8e6; stroke: #add8e6"/>
    <path d="M 137.773204 28.501145 
C 138.499492 28.501145 139.196132 28.212588 139.709695 27.699024 
C 140.223259 27.185461 140.511816 26.488821 140.511816 25.762533 
C 140.511816 25.036244 140.223259 24.339605 139.709695 23.826041 
C 139.196132 23.312477 138.499492 23.02392 137.773204 23.02392 
C 137.046915 23.02392 136.350276 23.312477 135.836712 23.826041 
C 135.323148 24.339605 135.034591 25.036244 135.034591 25.762533 
C 135.034591 26.488821 135.323148 27.185461 135.836712 27.699024 
C 136.350276 28.212588 137.046915 28.501145 137.773204 28.501145 
z
" clip-path="url(#pc3cbb6472f)" style="fill: #add8e6; stroke: #add8e6"/>
    <path d="M 49.524419 217.923429 
C 50.250708 217.923429 50.947347 217.634872 51.460911 217.121308 
C 51.974474 216.607745 52.263032 215.911105 52.263032 215.184817 
C 52.263032 214.458528 51.974474 213.761888 51.460911 213.248325 
C 50.947347 212.734761 50.250708 212.446204 49.524419 212.446204 
C 48.79813 212.446204 48.101491 212.734761 47.587927 213.248325 
C 47.074364 213.761888 46.785806 214.458528 46.785806 215.184817 
C 46.785806 215.911105 47.074364 216.607745 47.587927 217.121308 
C 48.101491 217.634872 48.79813 217.923429 49.524419 217.923429 
z
" clip-path="url(#pc3cbb6472f)" style="fill: #add8e6; stroke: #add8e6"/>
    <path d="M 254.020761 142.726532 
C 254.747049 142.726532 255.443689 142.437974 255.957252 141.92441 
C 256.470816 141.410847 256.759374 140.714207 256.759374 139.987919 
C 256.759374 139.26163 256.470816 138.564991 255.957252 138.051427 
C 255.443689 137.537864 254.747049 137.249306 254.020761 137.249306 
C 253.294472 137.249306 252.597833 137.537864 252.084269 138.051427 
C 251.570706 138.564991 251.282148 139.26163 251.282148 139.987919 
C 251.282148 140.714207 251.570706 141.410847 252.084269 141.92441 
C 252.597833 142.437974 253.294472 142.726532 254.020761 142.726532 
z
" clip-path="url(#pc3cbb6472f)" style="fill: #add8e6; stroke: #add8e6"/>
    <path d="M 314.807815 199.688438 
C 315.834942 199.688438 316.820139 199.280356 317.546428 198.554067 
C 318.272717 197.827778 318.680799 196.842582 318.680799 195.815454 
C 318.680799 194.788327 318.272717 193.80313 317.546428 193.076842 
C 316.820139 192.350553 315.834942 191.942471 314.807815 191.942471 
C 313.780688 191.942471 312.795491 192.350553 312.069202 193.076842 
C 311.342914 193.80313 310.934832 194.788327 310.934832 195.815454 
C 310.934832 196.842582 311.342914 197.827778 312.069202 198.554067 
C 312.795491 199.280356 313.780688 199.688438 314.807815 199.688438 
z
" clip-path="url(#pc3cbb6472f)" style="fill: #add8e6; stroke: #add8e6"/>
    <path d="M 119.463814 36.934513 
C 120.190102 36.934513 120.886742 36.645955 121.400305 36.132392 
C 121.913869 35.618828 122.202426 34.922188 122.202426 34.1959 
C 122.202426 33.469611 121.913869 32.772972 121.400305 32.259408 
C 120.886742 31.745845 120.190102 31.457287 119.463814 31.457287 
C 118.737525 31.457287 118.040885 31.745845 117.527322 32.259408 
C 117.013758 32.772972 116.725201 33.469611 116.725201 34.1959 
C 116.725201 34.922188 117.013758 35.618828 117.527322 36.132392 
C 118.040885 36.645955 118.737525 36.934513 119.463814 36.934513 
z
" clip-path="url(#pc3cbb6472f)" style="fill: #add8e6; stroke: #add8e6"/>
    <path d="M 203.500113 217.642828 
C 204.226402 217.642828 204.923041 217.354271 205.436605 216.840707 
C 205.950168 216.327144 206.238726 215.630504 206.238726 214.904216 
C 206.238726 214.177927 205.950168 213.481287 205.436605 212.967724 
C 204.923041 212.45416 204.226402 212.165603 203.500113 212.165603 
C 202.773824 212.165603 202.077185 212.45416 201.563621 212.967724 
C 201.050058 213.481287 200.7615 214.177927 200.7615 214.904216 
C 200.7615 215.630504 201.050058 216.327144 201.563621 216.840707 
C 202.077185 217.354271 202.773824 217.642828 203.500113 217.642828 
z
" clip-path="url(#pc3cbb6472f)" style="fill: #add8e6; stroke: #add8e6"/>
    <path d="M 245.2292 117.053265 
C 245.955489 117.053265 246.652128 116.764708 247.165692 116.251144 
C 247.679256 115.737581 247.967813 115.040941 247.967813 114.314653 
C 247.967813 113.588364 247.679256 112.891724 247.165692 112.378161 
C 246.652128 111.864597 245.955489 111.57604 245.2292 111.57604 
C 244.502912 111.57604 243.806272 111.864597 243.292709 112.378161 
C 242.779145 112.891724 242.490588 113.588364 242.490588 114.314653 
C 242.490588 115.040941 242.779145 115.737581 243.292709 116.251144 
C 243.806272 116.764708 244.502912 117.053265 245.2292 117.053265 
z
" clip-path="url(#pc3cbb6472f)" style="fill: #add8e6; stroke: #add8e6"/>
    <path d="M 356.724787 127.277799 
C 357.451076 127.277799 358.147715 126.989242 358.661279 126.475678 
C 359.174843 125.962115 359.4634 125.265475 359.4634 124.539186 
C 359.4634 123.812898 359.174843 123.116258 358.661279 122.602695 
C 358.147715 122.089131 357.451076 121.800574 356.724787 121.800574 
C 355.998499 121.800574 355.301859 122.089131 354.788296 122.602695 
C 354.274732 123.116258 353.986174 123.812898 353.986174 124.539186 
C 353.986174 125.265475 354.274732 125.962115 354.788296 126.475678 
C 355.301859 126.989242 355.998499 127.277799 356.724787 127.277799 
z
" clip-path="url(#pc3cbb6472f)" style="fill: #add8e6; stroke: #add8e6"/>
    <path d="M 217.73475 153.475872 
C 218.461039 153.475872 219.157678 153.187314 219.671242 152.67375 
C 220.184806 152.160187 220.473363 151.463547 220.473363 150.737259 
C 220.473363 150.01097 220.184806 149.314331 219.671242 148.800767 
C 219.157678 148.287204 218.461039 147.998646 217.73475 147.998646 
C 217.008462 147.998646 216.311822 148.287204 215.798259 148.800767 
C 215.284695 149.314331 214.996137 150.01097 214.996137 150.737259 
C 214.996137 151.463547 215.284695 152.160187 215.798259 152.67375 
C 216.311822 153.187314 217.008462 153.475872 217.73475 153.475872 
z
" clip-path="url(#pc3cbb6472f)" style="fill: #add8e6; stroke: #add8e6"/>
    <path d="M 171.415137 67.089721 
C 172.141425 67.089721 172.838065 66.801164 173.351628 66.2876 
C 173.865192 65.774036 174.153749 65.077397 174.153749 64.351108 
C 174.153749 63.62482 173.865192 62.92818 173.351628 62.414617 
C 172.838065 61.901053 172.141425 61.612495 171.415137 61.612495 
C 170.688848 61.612495 169.992209 61.901053 169.478645 62.414617 
C 168.965081 62.92818 168.676524 63.62482 168.676524 64.351108 
C 168.676524 65.077397 168.965081 65.774036 169.478645 66.2876 
C 169.992209 66.801164 170.688848 67.089721 171.415137 67.089721 
z
" clip-path="url(#pc3cbb6472f)" style="fill: #add8e6; stroke: #add8e6"/>
    <path d="M 348.434842 163.707578 
C 349.161131 163.707578 349.85777 163.41902 350.371334 162.905457 
C 350.884898 162.391893 351.173455 161.695254 351.173455 160.968965 
C 351.173455 160.242677 350.884898 159.546037 350.371334 159.032473 
C 349.85777 158.51891 349.161131 158.230352 348.434842 158.230352 
C 347.708554 158.230352 347.011914 158.51891 346.498351 159.032473 
C 345.984787 159.546037 345.69623 160.242677 345.69623 160.968965 
C 345.69623 161.695254 345.984787 162.391893 346.498351 162.905457 
C 347.011914 163.41902 347.708554 163.707578 348.434842 163.707578 
z
" clip-path="url(#pc3cbb6472f)" style="fill: #add8e6; stroke: #add8e6"/>
    <path d="M 232.008973 263.648098 
C 232.735261 263.648098 233.431901 263.359541 233.945464 262.845977 
C 234.459028 262.332414 234.747585 261.635774 234.747585 260.909486 
C 234.747585 260.183197 234.459028 259.486558 233.945464 258.972994 
C 233.431901 258.45943 232.735261 258.170873 232.008973 258.170873 
C 231.282684 258.170873 230.586045 258.45943 230.072481 258.972994 
C 229.558917 259.486558 229.27036 260.183197 229.27036 260.909486 
C 229.27036 261.635774 229.558917 262.332414 230.072481 262.845977 
C 230.586045 263.359541 231.282684 263.648098 232.008973 263.648098 
z
" clip-path="url(#pc3cbb6472f)" style="fill: #add8e6; stroke: #add8e6"/>
    <path d="M 133.214723 260.833503 
C 133.941012 260.833503 134.637651 260.544945 135.151215 260.031382 
C 135.664778 259.517818 135.953336 258.821179 135.953336 258.09489 
C 135.953336 257.368602 135.664778 256.671962 135.151215 256.158398 
C 134.637651 255.644835 133.941012 255.356277 133.214723 255.356277 
C 132.488434 255.356277 131.791795 255.644835 131.278231 256.158398 
C 130.764668 256.671962 130.47611 257.368602 130.47611 258.09489 
C 130.47611 258.821179 130.764668 259.517818 131.278231 260.031382 
C 131.791795 260.544945 132.488434 260.833503 133.214723 260.833503 
z
" clip-path="url(#pc3cbb6472f)" style="fill: #add8e6; stroke: #add8e6"/>
    <path d="M 109.916105 254.442639 
C 110.642394 254.442639 111.339033 254.154081 111.852597 253.640517 
C 112.366161 253.126954 112.654718 252.430314 112.654718 251.704026 
C 112.654718 250.977737 112.366161 250.281098 111.852597 249.767534 
C 111.339033 249.253971 110.642394 248.965413 109.916105 248.965413 
C 109.189817 248.965413 108.493177 249.253971 107.979614 249.767534 
C 107.46605 250.281098 107.177493 250.977737 107.177493 251.704026 
C 107.177493 252.430314 107.46605 253.126954 107.979614 253.640517 
C 108.493177 254.154081 109.189817 254.442639 109.916105 254.442639 
z
" clip-path="url(#pc3cbb6472f)" style="fill: #add8e6; stroke: #add8e6"/>
    <path d="M 102.396701 240.944924 
C 103.122989 240.944924 103.819629 240.656366 104.333192 240.142802 
C 104.846756 239.629239 105.135314 238.932599 105.135314 238.206311 
C 105.135314 237.480022 104.846756 236.783383 104.333192 236.269819 
C 103.819629 235.756256 103.122989 235.467698 102.396701 235.467698 
C 101.670412 235.467698 100.973773 235.756256 100.460209 236.269819 
C 99.946645 236.783383 99.658088 237.480022 99.658088 238.206311 
C 99.658088 238.932599 99.946645 239.629239 100.460209 240.142802 
C 100.973773 240.656366 101.670412 240.944924 102.396701 240.944924 
z
" clip-path="url(#pc3cbb6472f)" style="fill: #add8e6; stroke: #add8e6"/>
    <path d="M 389.292625 187.931706 
C 390.916655 187.931706 392.474389 187.286472 393.622752 186.138108 
C 394.771115 184.989745 395.416349 183.432012 395.416349 181.807981 
C 395.416349 180.183951 394.771115 178.626218 393.622752 177.477854 
C 392.474389 176.329491 390.916655 175.684257 389.292625 175.684257 
C 387.668594 175.684257 386.110861 176.329491 384.962498 177.477854 
C 383.814135 178.626218 383.1689 180.183951 383.1689 181.807981 
C 383.1689 183.432012 383.814135 184.989745 384.962498 186.138108 
C 386.110861 187.286472 387.668594 187.931706 389.292625 187.931706 
z
" clip-path="url(#pc3cbb6472f)" style="fill: #add8e6; stroke: #add8e6"/>
    <path d="M 78.978174 300.282973 
C 79.704462 300.282973 80.401102 299.994416 80.914665 299.480852 
C 81.428229 298.967289 81.716786 298.270649 81.716786 297.544361 
C 81.716786 296.818072 81.428229 296.121433 80.914665 295.607869 
C 80.401102 295.094305 79.704462 294.805748 78.978174 294.805748 
C 78.251885 294.805748 77.555245 295.094305 77.041682 295.607869 
C 76.528118 296.121433 76.239561 296.818072 76.239561 297.544361 
C 76.239561 298.270649 76.528118 298.967289 77.041682 299.480852 
C 77.555245 299.994416 78.251885 300.282973 78.978174 300.282973 
z
" clip-path="url(#pc3cbb6472f)" style="fill: #add8e6; stroke: #add8e6"/>
    <path d="M 195.405628 138.707571 
C 196.131916 138.707571 196.828556 138.419013 197.342119 137.90545 
C 197.855683 137.391886 198.14424 136.695247 198.14424 135.968958 
C 198.14424 135.242669 197.855683 134.54603 197.342119 134.032466 
C 196.828556 133.518903 196.131916 133.230345 195.405628 133.230345 
C 194.679339 133.230345 193.9827 133.518903 193.469136 134.032466 
C 192.955572 134.54603 192.667015 135.242669 192.667015 135.968958 
C 192.667015 136.695247 192.955572 137.391886 193.469136 137.90545 
C 193.9827 138.419013 194.679339 138.707571 195.405628 138.707571 
z
" clip-path="url(#pc3cbb6472f)" style="fill: #add8e6; stroke: #add8e6"/>
    <path d="M 56.621571 305.923843 
C 57.648698 305.923843 58.633895 305.515761 59.360183 304.789472 
C 60.086472 304.063184 60.494554 303.077987 60.494554 302.05086 
C 60.494554 301.023732 60.086472 300.038536 59.360183 299.312247 
C 58.633895 298.585958 57.648698 298.177876 56.621571 298.177876 
C 55.594443 298.177876 54.609246 298.585958 53.882958 299.312247 
C 53.156669 300.038536 52.748587 301.023732 52.748587 302.05086 
C 52.748587 303.077987 53.156669 304.063184 53.882958 304.789472 
C 54.609246 305.515761 55.594443 305.923843 56.621571 305.923843 
z
" clip-path="url(#pc3cbb6472f)" style="fill: #add8e6; stroke: #add8e6"/>
    <path d="M 251.07668 259.72415 
C 251.802969 259.72415 252.499608 259.435592 253.013172 258.922029 
C 253.526735 258.408465 253.815293 257.711826 253.815293 256.985537 
C 253.815293 256.259248 253.526735 255.562609 253.013172 255.049045 
C 252.499608 254.535482 251.802969 254.246924 251.07668 254.246924 
C 250.350392 254.246924 249.653752 254.535482 249.140189 255.049045 
C 248.626625 255.562609 248.338067 256.259248 248.338067 256.985537 
C 248.338067 257.711826 248.626625 258.408465 249.140189 258.922029 
C 249.653752 259.435592 250.350392 259.72415 251.07668 259.72415 
z
" clip-path="url(#pc3cbb6472f)" style="fill: #add8e6; stroke: #add8e6"/>
    <path d="M 268.631154 75.24645 
C 269.357443 75.24645 270.054082 74.957893 270.567646 74.444329 
C 271.081209 73.930766 271.369767 73.234126 271.369767 72.507838 
C 271.369767 71.781549 271.081209 71.08491 270.567646 70.571346 
C 270.054082 70.057782 269.357443 69.769225 268.631154 69.769225 
C 267.904865 69.769225 267.208226 70.057782 266.694662 70.571346 
C 266.181099 71.08491 265.892541 71.781549 265.892541 72.507838 
C 265.892541 73.234126 266.181099 73.930766 266.694662 74.444329 
C 267.208226 74.957893 267.904865 75.24645 268.631154 75.24645 
z
" clip-path="url(#pc3cbb6472f)" style="fill: #add8e6; stroke: #add8e6"/>
    <path d="M 202.523405 116.471688 
C 203.249694 116.471688 203.946333 116.183131 204.459897 115.669567 
C 204.97346 115.156003 205.262018 114.459364 205.262018 113.733075 
C 205.262018 113.006787 204.97346 112.310147 204.459897 111.796584 
C 203.946333 111.28302 203.249694 110.994463 202.523405 110.994463 
C 201.797116 110.994463 201.100477 111.28302 200.586913 111.796584 
C 200.07335 112.310147 199.784792 113.006787 199.784792 113.733075 
C 199.784792 114.459364 200.07335 115.156003 200.586913 115.669567 
C 201.100477 116.183131 201.797116 116.471688 202.523405 116.471688 
z
" clip-path="url(#pc3cbb6472f)" style="fill: #add8e6; stroke: #add8e6"/>
    <path d="M 298.653111 220.240592 
C 299.3794 220.240592 300.076039 219.952035 300.589603 219.438471 
C 301.103167 218.924908 301.391724 218.228268 301.391724 217.50198 
C 301.391724 216.775691 301.103167 216.079051 300.589603 215.565488 
C 300.076039 215.051924 299.3794 214.763367 298.653111 214.763367 
C 297.926823 214.763367 297.230183 215.051924 296.71662 215.565488 
C 296.203056 216.079051 295.914499 216.775691 295.914499 217.50198 
C 295.914499 218.228268 296.203056 218.924908 296.71662 219.438471 
C 297.230183 219.952035 297.926823 220.240592 298.653111 220.240592 
z
" clip-path="url(#pc3cbb6472f)" style="fill: #add8e6; stroke: #add8e6"/>
    <path d="M 224.90256 109.218254 
C 225.628849 109.218254 226.325488 108.929697 226.839052 108.416133 
C 227.352615 107.90257 227.641173 107.20593 227.641173 106.479642 
C 227.641173 105.753353 227.352615 105.056713 226.839052 104.54315 
C 226.325488 104.029586 225.628849 103.741029 224.90256 103.741029 
C 224.176272 103.741029 223.479632 104.029586 222.966069 104.54315 
C 222.452505 105.056713 222.163947 105.753353 222.163947 106.479642 
C 222.163947 107.20593 222.452505 107.90257 222.966069 108.416133 
C 223.479632 108.929697 224.176272 109.218254 224.90256 109.218254 
z
" clip-path="url(#pc3cbb6472f)" style="fill: #add8e6; stroke: #add8e6"/>
    <path d="M 345.017309 116.753227 
C 345.743598 116.753227 346.440237 116.46467 346.953801 115.951106 
C 347.467364 115.437543 347.755922 114.740903 347.755922 114.014615 
C 347.755922 113.288326 347.467364 112.591687 346.953801 112.078123 
C 346.440237 111.564559 345.743598 111.276002 345.017309 111.276002 
C 344.29102 111.276002 343.594381 111.564559 343.080817 112.078123 
C 342.567254 112.591687 342.278696 113.288326 342.278696 114.014615 
C 342.278696 114.740903 342.567254 115.437543 343.080817 115.951106 
C 343.594381 116.46467 344.29102 116.753227 345.017309 116.753227 
z
" clip-path="url(#pc3cbb6472f)" style="fill: #add8e6; stroke: #add8e6"/>
    <path d="M 411.325303 205.756991 
C 412.051592 205.756991 412.748231 205.468434 413.261795 204.95487 
C 413.775358 204.441306 414.063916 203.744667 414.063916 203.018378 
C 414.063916 202.29209 413.775358 201.59545 413.261795 201.081887 
C 412.748231 200.568323 412.051592 200.279766 411.325303 200.279766 
C 410.599014 200.279766 409.902375 200.568323 409.388811 201.081887 
C 408.875248 201.59545 408.58669 202.29209 408.58669 203.018378 
C 408.58669 203.744667 408.875248 204.441306 409.388811 204.95487 
C 409.902375 205.468434 410.599014 205.756991 411.325303 205.756991 
z
" clip-path="url(#pc3cbb6472f)" style="fill: #add8e6; stroke: #add8e6"/>
    <path d="M 425.060682 174.293665 
C 425.78697 174.293665 426.48361 174.005107 426.997174 173.491543 
C 427.510737 172.97798 427.799295 172.28134 427.799295 171.555052 
C 427.799295 170.828763 427.510737 170.132124 426.997174 169.61856 
C 426.48361 169.104997 425.78697 168.816439 425.060682 168.816439 
C 424.334393 168.816439 423.637754 169.104997 423.12419 169.61856 
C 422.610627 170.132124 422.322069 170.828763 422.322069 171.555052 
C 422.322069 172.28134 422.610627 172.97798 423.12419 173.491543 
C 423.637754 174.005107 424.334393 174.293665 425.060682 174.293665 
z
" clip-path="url(#pc3cbb6472f)" style="fill: #add8e6; stroke: #add8e6"/>
    <path d="M 259.137584 126.540905 
C 259.863873 126.540905 260.560512 126.252347 261.074076 125.738783 
C 261.587639 125.22522 261.876197 124.52858 261.876197 123.802292 
C 261.876197 123.076003 261.587639 122.379364 261.074076 121.8658 
C 260.560512 121.352236 259.863873 121.063679 259.137584 121.063679 
C 258.411296 121.063679 257.714656 121.352236 257.201092 121.8658 
C 256.687529 122.379364 256.398971 123.076003 256.398971 123.802292 
C 256.398971 124.52858 256.687529 125.22522 257.201092 125.738783 
C 257.714656 126.252347 258.411296 126.540905 259.137584 126.540905 
z
" clip-path="url(#pc3cbb6472f)" style="fill: #add8e6; stroke: #add8e6"/>
    <path d="M 429.717456 186.364822 
C 430.443744 186.364822 431.140384 186.076264 431.653947 185.562701 
C 432.167511 185.049137 432.456068 184.352498 432.456068 183.626209 
C 432.456068 182.89992 432.167511 182.203281 431.653947 181.689717 
C 431.140384 181.176154 430.443744 180.887596 429.717456 180.887596 
C 428.991167 180.887596 428.294528 181.176154 427.780964 181.689717 
C 427.2674 182.203281 426.978843 182.89992 426.978843 183.626209 
C 426.978843 184.352498 427.2674 185.049137 427.780964 185.562701 
C 428.294528 186.076264 428.991167 186.364822 429.717456 186.364822 
z
" clip-path="url(#pc3cbb6472f)" style="fill: #add8e6; stroke: #add8e6"/>
    <path d="M 424.923216 197.803686 
C 425.649504 197.803686 426.346144 197.515129 426.859707 197.001565 
C 427.373271 196.488002 427.661828 195.791362 427.661828 195.065074 
C 427.661828 194.338785 427.373271 193.642145 426.859707 193.128582 
C 426.346144 192.615018 425.649504 192.326461 424.923216 192.326461 
C 424.196927 192.326461 423.500288 192.615018 422.986724 193.128582 
C 422.47316 193.642145 422.184603 194.338785 422.184603 195.065074 
C 422.184603 195.791362 422.47316 196.488002 422.986724 197.001565 
C 423.500288 197.515129 424.196927 197.803686 424.923216 197.803686 
z
" clip-path="url(#pc3cbb6472f)" style="fill: #add8e6; stroke: #add8e6"/>
    <path d="M 31.082544 322.57608 
C 31.808833 322.57608 32.505472 322.287523 33.019036 321.773959 
C 33.5326 321.260395 33.821157 320.563756 33.821157 319.837467 
C 33.821157 319.111179 33.5326 318.414539 33.019036 317.900976 
C 32.505472 317.387412 31.808833 317.098855 31.082544 317.098855 
C 30.356256 317.098855 29.659616 317.387412 29.146053 317.900976 
C 28.632489 318.414539 28.343932 319.111179 28.343932 319.837467 
C 28.343932 320.563756 28.632489 321.260395 29.146053 321.773959 
C 29.659616 322.287523 30.356256 322.57608 31.082544 322.57608 
z
" clip-path="url(#pc3cbb6472f)" style="fill: #add8e6; stroke: #add8e6"/>
    <path d="M 342.806393 180.43387 
C 343.532681 180.43387 344.229321 180.145312 344.742884 179.631749 
C 345.256448 179.118185 345.545005 178.421546 345.545005 177.695257 
C 345.545005 176.968968 345.256448 176.272329 344.742884 175.758765 
C 344.229321 175.245202 343.532681 174.956644 342.806393 174.956644 
C 342.080104 174.956644 341.383464 175.245202 340.869901 175.758765 
C 340.356337 176.272329 340.06778 176.968968 340.06778 177.695257 
C 340.06778 178.421546 340.356337 179.118185 340.869901 179.631749 
C 341.383464 180.145312 342.080104 180.43387 342.806393 180.43387 
z
" clip-path="url(#pc3cbb6472f)" style="fill: #add8e6; stroke: #add8e6"/>
   </g>
  </g>
 </g>
 <defs>
  <clipPath id="pc3cbb6472f">
   <rect x="10.8" y="10.8" width="439.2" height="324"/>
  </clipPath>
 </defs>
</svg>
