<?xml version="1.0" encoding="utf-8" standalone="no"?>
<!DOCTYPE svg PUBLIC "-//W3C//DTD SVG 1.1//EN"
  "http://www.w3.org/Graphics/SVG/1.1/DTD/svg11.dtd">
<svg xmlns:xlink="http://www.w3.org/1999/xlink" width="460.8pt" height="345.6pt" viewBox="0 0 460.8 345.6" xmlns="http://www.w3.org/2000/svg" version="1.1">
 <metadata>
  <rdf:RDF xmlns:dc="http://purl.org/dc/elements/1.1/" xmlns:cc="http://creativecommons.org/ns#" xmlns:rdf="http://www.w3.org/1999/02/22-rdf-syntax-ns#">
   <cc:Work>
    <dc:type rdf:resource="http://purl.org/dc/dcmitype/StillImage"/>
    <dc:date>2022-12-31T16:15:46.525105</dc:date>
    <dc:format>image/svg+xml</dc:format>
    <dc:creator>
     <cc:Agent>
      <dc:title>Matplotlib v3.6.2, https://matplotlib.org/</dc:title>
     </cc:Agent>
    </dc:creator>
   </cc:Work>
  </rdf:RDF>
 </metadata>
 <defs>
  <style type="text/css">*{stroke-linejoin: round; stroke-linecap: butt}</style>
 </defs>
 <g id="figure_1">
  <g id="patch_1">
   <path d="M 0 345.6 
L 460.8 345.6 
L 460.8 0 
L 0 0 
z
" style="fill: #ffffff"/>
  </g>
  <g id="axes_1">
   <g id="LineCollection_1">
    <path d="M 194.049839 229.134246 
L 128.715709 231.906 
" clip-path="url(#p4a15d76896)" style="fill: none; stroke: #000000"/>
    <path d="M 194.049839 229.134246 
L 226.746462 270.749302 
" clip-path="url(#p4a15d76896)" style="fill: none; stroke: #000000"/>
    <path d="M 194.049839 229.134246 
L 221.337855 156.816533 
" clip-path="url(#p4a15d76896)" style="fill: none; stroke: #000000"/>
    <path d="M 194.049839 229.134246 
L 213.773729 230.204642 
" clip-path="url(#p4a15d76896)" style="fill: none; stroke: #000000"/>
    <path d="M 194.049839 229.134246 
L 236.36033 248.646741 
" clip-path="url(#p4a15d76896)" style="fill: none; stroke: #000000"/>
    <path d="M 194.049839 229.134246 
L 219.546657 174.13468 
" clip-path="url(#p4a15d76896)" style="fill: none; stroke: #000000"/>
    <path d="M 194.049839 229.134246 
L 203.365488 259.478381 
" clip-path="url(#p4a15d76896)" style="fill: none; stroke: #000000"/>
    <path d="M 194.049839 229.134246 
L 187.144875 250.566224 
" clip-path="url(#p4a15d76896)" style="fill: none; stroke: #000000"/>
    <path d="M 194.049839 229.134246 
L 170.492346 254.065777 
" clip-path="url(#p4a15d76896)" style="fill: none; stroke: #000000"/>
    <path d="M 194.049839 229.134246 
L 174.76046 237.144932 
" clip-path="url(#p4a15d76896)" style="fill: none; stroke: #000000"/>
    <path d="M 194.049839 229.134246 
L 208.318384 246.994479 
" clip-path="url(#p4a15d76896)" style="fill: none; stroke: #000000"/>
    <path d="M 194.049839 229.134246 
L 165.530496 225.402006 
" clip-path="url(#p4a15d76896)" style="fill: none; stroke: #000000"/>
    <path d="M 194.049839 229.134246 
L 163.530656 242.72298 
" clip-path="url(#p4a15d76896)" style="fill: none; stroke: #000000"/>
    <path d="M 194.049839 229.134246 
L 179.547878 262.418816 
" clip-path="url(#p4a15d76896)" style="fill: none; stroke: #000000"/>
    <path d="M 194.049839 229.134246 
L 192.0409 264.66895 
" clip-path="url(#p4a15d76896)" style="fill: none; stroke: #000000"/>
    <path d="M 194.049839 229.134246 
L 177.587427 214.739445 
" clip-path="url(#p4a15d76896)" style="fill: none; stroke: #000000"/>
    <path d="M 128.715709 231.906 
L 91.026223 208.859027 
" clip-path="url(#p4a15d76896)" style="fill: none; stroke: #000000"/>
    <path d="M 128.715709 231.906 
L 88.355801 253.732599 
" clip-path="url(#p4a15d76896)" style="fill: none; stroke: #000000"/>
    <path d="M 226.746462 270.749302 
L 257.120194 301.009045 
" clip-path="url(#p4a15d76896)" style="fill: none; stroke: #000000"/>
    <path d="M 221.337855 156.816533 
L 209.867634 102.927793 
" clip-path="url(#p4a15d76896)" style="fill: none; stroke: #000000"/>
    <path d="M 221.337855 156.816533 
L 303.83505 155.617491 
" clip-path="url(#p4a15d76896)" style="fill: none; stroke: #000000"/>
    <path d="M 221.337855 156.816533 
L 164.996666 139.416167 
" clip-path="url(#p4a15d76896)" style="fill: none; stroke: #000000"/>
    <path d="M 221.337855 156.816533 
L 201.912819 124.22244 
" clip-path="url(#p4a15d76896)" style="fill: none; stroke: #000000"/>
    <path d="M 209.867634 102.927793 
L 199.405992 55.467865 
" clip-path="url(#p4a15d76896)" style="fill: none; stroke: #000000"/>
    <path d="M 236.36033 248.646741 
L 263.912166 250.080211 
" clip-path="url(#p4a15d76896)" style="fill: none; stroke: #000000"/>
    <path d="M 236.36033 248.646741 
L 259.240577 266.871573 
" clip-path="url(#p4a15d76896)" style="fill: none; stroke: #000000"/>
    <path d="M 199.405992 55.467865 
L 200.845096 25.762533 
" clip-path="url(#p4a15d76896)" style="fill: none; stroke: #000000"/>
    <path d="M 199.405992 55.467865 
L 185.940648 28.964723 
" clip-path="url(#p4a15d76896)" style="fill: none; stroke: #000000"/>
    <path d="M 303.83505 155.617491 
L 363.710014 177.473595 
" clip-path="url(#p4a15d76896)" style="fill: none; stroke: #000000"/>
    <path d="M 303.83505 155.617491 
L 336.316094 129.78952 
" clip-path="url(#p4a15d76896)" style="fill: none; stroke: #000000"/>
    <path d="M 303.83505 155.617491 
L 326.492223 164.994024 
" clip-path="url(#p4a15d76896)" style="fill: none; stroke: #000000"/>
    <path d="M 303.83505 155.617491 
L 328.479089 149.155724 
" clip-path="url(#p4a15d76896)" style="fill: none; stroke: #000000"/>
    <path d="M 303.83505 155.617491 
L 316.720163 135.023818 
" clip-path="url(#p4a15d76896)" style="fill: none; stroke: #000000"/>
    <path d="M 363.710014 177.473595 
L 387.211787 180.491064 
" clip-path="url(#p4a15d76896)" style="fill: none; stroke: #000000"/>
    <path d="M 363.710014 177.473595 
L 402.168249 170.968525 
" clip-path="url(#p4a15d76896)" style="fill: none; stroke: #000000"/>
    <path d="M 363.710014 177.473595 
L 396.043192 208.41284 
" clip-path="url(#p4a15d76896)" style="fill: none; stroke: #000000"/>
    <path d="M 219.546657 174.13468 
L 196.51092 152.470078 
" clip-path="url(#p4a15d76896)" style="fill: none; stroke: #000000"/>
    <path d="M 219.546657 174.13468 
L 202.89961 175.460142 
" clip-path="url(#p4a15d76896)" style="fill: none; stroke: #000000"/>
    <path d="M 219.546657 174.13468 
L 244.302876 122.694478 
" clip-path="url(#p4a15d76896)" style="fill: none; stroke: #000000"/>
    <path d="M 219.546657 174.13468 
L 249.442943 181.014651 
" clip-path="url(#p4a15d76896)" style="fill: none; stroke: #000000"/>
    <path d="M 336.316094 129.78952 
L 359.153737 111.078456 
" clip-path="url(#p4a15d76896)" style="fill: none; stroke: #000000"/>
    <path d="M 91.026223 208.859027 
L 65.39504 198.727918 
" clip-path="url(#p4a15d76896)" style="fill: none; stroke: #000000"/>
    <path d="M 91.026223 208.859027 
L 74.30602 186.540624 
" clip-path="url(#p4a15d76896)" style="fill: none; stroke: #000000"/>
    <path d="M 164.996666 139.416167 
L 122.330953 131.300836 
" clip-path="url(#p4a15d76896)" style="fill: none; stroke: #000000"/>
    <path d="M 164.996666 139.416167 
L 142.119 121.36712 
" clip-path="url(#p4a15d76896)" style="fill: none; stroke: #000000"/>
    <path d="M 196.51092 152.470078 
L 179.426002 134.316387 
" clip-path="url(#p4a15d76896)" style="fill: none; stroke: #000000"/>
    <path d="M 201.912819 124.22244 
L 185.392657 98.766638 
" clip-path="url(#p4a15d76896)" style="fill: none; stroke: #000000"/>
    <path d="M 88.355801 253.732599 
L 55.227332 270.759568 
" clip-path="url(#p4a15d76896)" style="fill: none; stroke: #000000"/>
    <path d="M 122.330953 131.300836 
L 90.947317 127.131057 
" clip-path="url(#p4a15d76896)" style="fill: none; stroke: #000000"/>
    <path d="M 244.302876 122.694478 
L 251.402482 93.158722 
" clip-path="url(#p4a15d76896)" style="fill: none; stroke: #000000"/>
    <path d="M 244.302876 122.694478 
L 262.877804 97.46405 
" clip-path="url(#p4a15d76896)" style="fill: none; stroke: #000000"/>
    <path d="M 244.302876 122.694478 
L 239.652811 96.313132 
" clip-path="url(#p4a15d76896)" style="fill: none; stroke: #000000"/>
    <path d="M 244.302876 122.694478 
L 266.637381 109.964829 
" clip-path="url(#p4a15d76896)" style="fill: none; stroke: #000000"/>
    <path d="M 402.168249 170.968525 
L 429.717456 167.696287 
" clip-path="url(#p4a15d76896)" style="fill: none; stroke: #000000"/>
    <path d="M 396.043192 208.41284 
L 413.020397 230.523741 
" clip-path="url(#p4a15d76896)" style="fill: none; stroke: #000000"/>
    <path d="M 396.043192 208.41284 
L 422.480686 218.323189 
" clip-path="url(#p4a15d76896)" style="fill: none; stroke: #000000"/>
    <path d="M 257.120194 301.009045 
L 281.463074 319.837467 
" clip-path="url(#p4a15d76896)" style="fill: none; stroke: #000000"/>
    <path d="M 249.442943 181.014651 
L 272.37042 188.012563 
" clip-path="url(#p4a15d76896)" style="fill: none; stroke: #000000"/>
    <path d="M 55.227332 270.759568 
L 31.082544 282.287497 
" clip-path="url(#p4a15d76896)" style="fill: none; stroke: #000000"/>
   </g>
   <g id="PathCollection_1">
    <path d="M 194.049839 240.088697 
C 196.954994 240.088697 199.741552 238.934467 201.795806 236.880213 
C 203.85006 234.825958 205.004291 232.0394 205.004291 229.134246 
C 205.004291 226.229092 203.85006 223.442534 201.795806 221.388279 
C 199.741552 219.334025 196.954994 218.179795 194.049839 218.179795 
C 191.144685 218.179795 188.358127 219.334025 186.303873 221.388279 
C 184.249618 223.442534 183.095388 226.229092 183.095388 229.134246 
C 183.095388 232.0394 184.249618 234.825958 186.303873 236.880213 
C 188.358127 238.934467 191.144685 240.088697 194.049839 240.088697 
z
" clip-path="url(#p4a15d76896)" style="fill: #add8e6; stroke: #add8e6"/>
    <path d="M 128.715709 236.649416 
C 129.973678 236.649416 131.180293 236.14962 132.069811 235.260102 
C 132.959329 234.370584 133.459125 233.163969 133.459125 231.906 
C 133.459125 230.648031 132.959329 229.441416 132.069811 228.551898 
C 131.180293 227.66238 129.973678 227.162583 128.715709 227.162583 
C 127.45774 227.162583 126.251125 227.66238 125.361607 228.551898 
C 124.472089 229.441416 123.972292 230.648031 123.972292 231.906 
C 123.972292 233.163969 124.472089 234.370584 125.361607 235.260102 
C 126.251125 236.14962 127.45774 236.649416 128.715709 236.649416 
z
" clip-path="url(#p4a15d76896)" style="fill: #add8e6; stroke: #add8e6"/>
    <path d="M 226.746462 274.622285 
C 227.773589 274.622285 228.758786 274.214203 229.485074 273.487915 
C 230.211363 272.761626 230.619445 271.776429 230.619445 270.749302 
C 230.619445 269.722175 230.211363 268.736978 229.485074 268.010689 
C 228.758786 267.2844 227.773589 266.876318 226.746462 266.876318 
C 225.719334 266.876318 224.734137 267.2844 224.007849 268.010689 
C 223.28156 268.736978 222.873478 269.722175 222.873478 270.749302 
C 222.873478 271.776429 223.28156 272.761626 224.007849 273.487915 
C 224.734137 274.214203 225.719334 274.622285 226.746462 274.622285 
z
" clip-path="url(#p4a15d76896)" style="fill: #add8e6; stroke: #add8e6"/>
    <path d="M 221.337855 162.940257 
C 222.961885 162.940257 224.519619 162.295023 225.667982 161.14666 
C 226.816345 159.998297 227.461579 158.440564 227.461579 156.816533 
C 227.461579 155.192502 226.816345 153.634769 225.667982 152.486406 
C 224.519619 151.338043 222.961885 150.692808 221.337855 150.692808 
C 219.713824 150.692808 218.156091 151.338043 217.007728 152.486406 
C 215.859365 153.634769 215.21413 155.192502 215.21413 156.816533 
C 215.21413 158.440564 215.859365 159.998297 217.007728 161.14666 
C 218.156091 162.295023 219.713824 162.940257 221.337855 162.940257 
z
" clip-path="url(#p4a15d76896)" style="fill: #add8e6; stroke: #add8e6"/>
    <path d="M 213.773729 232.943254 
C 214.500018 232.943254 215.196657 232.654697 215.710221 232.141133 
C 216.223784 231.62757 216.512342 230.93093 216.512342 230.204642 
C 216.512342 229.478353 216.223784 228.781714 215.710221 228.26815 
C 215.196657 227.754586 214.500018 227.466029 213.773729 227.466029 
C 213.04744 227.466029 212.350801 227.754586 211.837237 228.26815 
C 211.323674 228.781714 211.035116 229.478353 211.035116 230.204642 
C 211.035116 230.93093 211.323674 231.62757 211.837237 232.141133 
C 212.350801 232.654697 213.04744 232.943254 213.773729 232.943254 
z
" clip-path="url(#p4a15d76896)" style="fill: #add8e6; stroke: #add8e6"/>
    <path d="M 209.867634 106.800776 
C 210.894761 106.800776 211.879958 106.392694 212.606246 105.666406 
C 213.332535 104.940117 213.740617 103.95492 213.740617 102.927793 
C 213.740617 101.900666 213.332535 100.915469 212.606246 100.18918 
C 211.879958 99.462892 210.894761 99.05481 209.867634 99.05481 
C 208.840506 99.05481 207.855309 99.462892 207.129021 100.18918 
C 206.402732 100.915469 205.99465 101.900666 205.99465 102.927793 
C 205.99465 103.95492 206.402732 104.940117 207.129021 105.666406 
C 207.855309 106.392694 208.840506 106.800776 209.867634 106.800776 
z
" clip-path="url(#p4a15d76896)" style="fill: #add8e6; stroke: #add8e6"/>
    <path d="M 236.36033 253.390157 
C 237.618299 253.390157 238.824914 252.890361 239.714432 252.000843 
C 240.60395 251.111325 241.103747 249.90471 241.103747 248.646741 
C 241.103747 247.388772 240.60395 246.182157 239.714432 245.292639 
C 238.824914 244.403121 237.618299 243.903324 236.36033 243.903324 
C 235.102361 243.903324 233.895746 244.403121 233.006228 245.292639 
C 232.11671 246.182157 231.616914 247.388772 231.616914 248.646741 
C 231.616914 249.90471 232.11671 251.111325 233.006228 252.000843 
C 233.895746 252.890361 235.102361 253.390157 236.36033 253.390157 
z
" clip-path="url(#p4a15d76896)" style="fill: #add8e6; stroke: #add8e6"/>
    <path d="M 263.912166 252.818824 
C 264.638455 252.818824 265.335094 252.530266 265.848658 252.016703 
C 266.362222 251.503139 266.650779 250.8065 266.650779 250.080211 
C 266.650779 249.353922 266.362222 248.657283 265.848658 248.143719 
C 265.335094 247.630156 264.638455 247.341598 263.912166 247.341598 
C 263.185878 247.341598 262.489238 247.630156 261.975675 248.143719 
C 261.462111 248.657283 261.173554 249.353922 261.173554 250.080211 
C 261.173554 250.8065 261.462111 251.503139 261.975675 252.016703 
C 262.489238 252.530266 263.185878 252.818824 263.912166 252.818824 
z
" clip-path="url(#p4a15d76896)" style="fill: #add8e6; stroke: #add8e6"/>
    <path d="M 259.240577 269.610186 
C 259.966865 269.610186 260.663505 269.321628 261.177068 268.808065 
C 261.690632 268.294501 261.97919 267.597862 261.97919 266.871573 
C 261.97919 266.145285 261.690632 265.448645 261.177068 264.935081 
C 260.663505 264.421518 259.966865 264.13296 259.240577 264.13296 
C 258.514288 264.13296 257.817649 264.421518 257.304085 264.935081 
C 256.790521 265.448645 256.501964 266.145285 256.501964 266.871573 
C 256.501964 267.597862 256.790521 268.294501 257.304085 268.808065 
C 257.817649 269.321628 258.514288 269.610186 259.240577 269.610186 
z
" clip-path="url(#p4a15d76896)" style="fill: #add8e6; stroke: #add8e6"/>
    <path d="M 199.405992 60.211282 
C 200.663961 60.211282 201.870576 59.711485 202.760094 58.821967 
C 203.649613 57.932449 204.149409 56.725834 204.149409 55.467865 
C 204.149409 54.209897 203.649613 53.003282 202.760094 52.113763 
C 201.870576 51.224245 200.663961 50.724449 199.405992 50.724449 
C 198.148024 50.724449 196.941409 51.224245 196.05189 52.113763 
C 195.162372 53.003282 194.662576 54.209897 194.662576 55.467865 
C 194.662576 56.725834 195.162372 57.932449 196.05189 58.821967 
C 196.941409 59.711485 198.148024 60.211282 199.405992 60.211282 
z
" clip-path="url(#p4a15d76896)" style="fill: #add8e6; stroke: #add8e6"/>
    <path d="M 303.83505 162.325695 
C 305.614087 162.325695 307.320498 161.618876 308.578467 160.360908 
C 309.836436 159.102939 310.543254 157.396528 310.543254 155.617491 
C 310.543254 153.838455 309.836436 152.132043 308.578467 150.874075 
C 307.320498 149.616106 305.614087 148.909287 303.83505 148.909287 
C 302.056014 148.909287 300.349603 149.616106 299.091634 150.874075 
C 297.833665 152.132043 297.126847 153.838455 297.126847 155.617491 
C 297.126847 157.396528 297.833665 159.102939 299.091634 160.360908 
C 300.349603 161.618876 302.056014 162.325695 303.83505 162.325695 
z
" clip-path="url(#p4a15d76896)" style="fill: #add8e6; stroke: #add8e6"/>
    <path d="M 363.710014 182.95082 
C 365.162591 182.95082 366.55587 182.373705 367.582997 181.346578 
C 368.610124 180.319451 369.187239 178.926172 369.187239 177.473595 
C 369.187239 176.021017 368.610124 174.627738 367.582997 173.600611 
C 366.55587 172.573484 365.162591 171.996369 363.710014 171.996369 
C 362.257436 171.996369 360.864157 172.573484 359.83703 173.600611 
C 358.809903 174.627738 358.232788 176.021017 358.232788 177.473595 
C 358.232788 178.926172 358.809903 180.319451 359.83703 181.346578 
C 360.864157 182.373705 362.257436 182.95082 363.710014 182.95082 
z
" clip-path="url(#p4a15d76896)" style="fill: #add8e6; stroke: #add8e6"/>
    <path d="M 219.546657 180.258405 
C 221.170688 180.258405 222.728421 179.613171 223.876784 178.464807 
C 225.025147 177.316444 225.670381 175.758711 225.670381 174.13468 
C 225.670381 172.51065 225.025147 170.952917 223.876784 169.804553 
C 222.728421 168.65619 221.170688 168.010956 219.546657 168.010956 
C 217.922626 168.010956 216.364893 168.65619 215.21653 169.804553 
C 214.068167 170.952917 213.422933 172.51065 213.422933 174.13468 
C 213.422933 175.758711 214.068167 177.316444 215.21653 178.464807 
C 216.364893 179.613171 217.922626 180.258405 219.546657 180.258405 
z
" clip-path="url(#p4a15d76896)" style="fill: #add8e6; stroke: #add8e6"/>
    <path d="M 336.316094 133.662503 
C 337.343222 133.662503 338.328419 133.254422 339.054707 132.528133 
C 339.780996 131.801844 340.189078 130.816647 340.189078 129.78952 
C 340.189078 128.762393 339.780996 127.777196 339.054707 127.050907 
C 338.328419 126.324619 337.343222 125.916537 336.316094 125.916537 
C 335.288967 125.916537 334.30377 126.324619 333.577482 127.050907 
C 332.851193 127.777196 332.443111 128.762393 332.443111 129.78952 
C 332.443111 130.816647 332.851193 131.801844 333.577482 132.528133 
C 334.30377 133.254422 335.288967 133.662503 336.316094 133.662503 
z
" clip-path="url(#p4a15d76896)" style="fill: #add8e6; stroke: #add8e6"/>
    <path d="M 91.026223 213.602444 
C 92.284192 213.602444 93.490807 213.102647 94.380325 212.213129 
C 95.269843 211.323611 95.76964 210.116996 95.76964 208.859027 
C 95.76964 207.601058 95.269843 206.394444 94.380325 205.504925 
C 93.490807 204.615407 92.284192 204.115611 91.026223 204.115611 
C 89.768254 204.115611 88.561639 204.615407 87.672121 205.504925 
C 86.782603 206.394444 86.282807 207.601058 86.282807 208.859027 
C 86.282807 210.116996 86.782603 211.323611 87.672121 212.213129 
C 88.561639 213.102647 89.768254 213.602444 91.026223 213.602444 
z
" clip-path="url(#p4a15d76896)" style="fill: #add8e6; stroke: #add8e6"/>
    <path d="M 164.996666 144.159583 
C 166.254634 144.159583 167.461249 143.659787 168.350767 142.770269 
C 169.240286 141.880751 169.740082 140.674136 169.740082 139.416167 
C 169.740082 138.158198 169.240286 136.951583 168.350767 136.062065 
C 167.461249 135.172547 166.254634 134.67275 164.996666 134.67275 
C 163.738697 134.67275 162.532082 135.172547 161.642564 136.062065 
C 160.753045 136.951583 160.253249 138.158198 160.253249 139.416167 
C 160.253249 140.674136 160.753045 141.880751 161.642564 142.770269 
C 162.532082 143.659787 163.738697 144.159583 164.996666 144.159583 
z
" clip-path="url(#p4a15d76896)" style="fill: #add8e6; stroke: #add8e6"/>
    <path d="M 387.211787 183.229677 
C 387.938076 183.229677 388.634716 182.941119 389.148279 182.427556 
C 389.661843 181.913992 389.9504 181.217352 389.9504 180.491064 
C 389.9504 179.764775 389.661843 179.068136 389.148279 178.554572 
C 388.634716 178.041009 387.938076 177.752451 387.211787 177.752451 
C 386.485499 177.752451 385.788859 178.041009 385.275296 178.554572 
C 384.761732 179.068136 384.473175 179.764775 384.473175 180.491064 
C 384.473175 181.217352 384.761732 181.913992 385.275296 182.427556 
C 385.788859 182.941119 386.485499 183.229677 387.211787 183.229677 
z
" clip-path="url(#p4a15d76896)" style="fill: #add8e6; stroke: #add8e6"/>
    <path d="M 203.365488 262.216994 
C 204.091777 262.216994 204.788416 261.928436 205.30198 261.414873 
C 205.815543 260.901309 206.104101 260.20467 206.104101 259.478381 
C 206.104101 258.752092 205.815543 258.055453 205.30198 257.541889 
C 204.788416 257.028326 204.091777 256.739768 203.365488 256.739768 
C 202.639199 256.739768 201.94256 257.028326 201.428996 257.541889 
C 200.915433 258.055453 200.626875 258.752092 200.626875 259.478381 
C 200.626875 260.20467 200.915433 260.901309 201.428996 261.414873 
C 201.94256 261.928436 202.639199 262.216994 203.365488 262.216994 
z
" clip-path="url(#p4a15d76896)" style="fill: #add8e6; stroke: #add8e6"/>
    <path d="M 65.39504 201.466531 
C 66.121328 201.466531 66.817968 201.177973 67.331531 200.66441 
C 67.845095 200.150846 68.133652 199.454206 68.133652 198.727918 
C 68.133652 198.001629 67.845095 197.30499 67.331531 196.791426 
C 66.817968 196.277863 66.121328 195.989305 65.39504 195.989305 
C 64.668751 195.989305 63.972112 196.277863 63.458548 196.791426 
C 62.944984 197.30499 62.656427 198.001629 62.656427 198.727918 
C 62.656427 199.454206 62.944984 200.150846 63.458548 200.66441 
C 63.972112 201.177973 64.668751 201.466531 65.39504 201.466531 
z
" clip-path="url(#p4a15d76896)" style="fill: #add8e6; stroke: #add8e6"/>
    <path d="M 359.153737 113.817068 
C 359.880025 113.817068 360.576665 113.528511 361.090228 113.014947 
C 361.603792 112.501384 361.892349 111.804744 361.892349 111.078456 
C 361.892349 110.352167 361.603792 109.655528 361.090228 109.141964 
C 360.576665 108.6284 359.880025 108.339843 359.153737 108.339843 
C 358.427448 108.339843 357.730809 108.6284 357.217245 109.141964 
C 356.703681 109.655528 356.415124 110.352167 356.415124 111.078456 
C 356.415124 111.804744 356.703681 112.501384 357.217245 113.014947 
C 357.730809 113.528511 358.427448 113.817068 359.153737 113.817068 
z
" clip-path="url(#p4a15d76896)" style="fill: #add8e6; stroke: #add8e6"/>
    <path d="M 187.144875 253.304837 
C 187.871164 253.304837 188.567803 253.016279 189.081367 252.502716 
C 189.594931 251.989152 189.883488 251.292513 189.883488 250.566224 
C 189.883488 249.839935 189.594931 249.143296 189.081367 248.629732 
C 188.567803 248.116169 187.871164 247.827611 187.144875 247.827611 
C 186.418587 247.827611 185.721947 248.116169 185.208384 248.629732 
C 184.69482 249.143296 184.406262 249.839935 184.406262 250.566224 
C 184.406262 251.292513 184.69482 251.989152 185.208384 252.502716 
C 185.721947 253.016279 186.418587 253.304837 187.144875 253.304837 
z
" clip-path="url(#p4a15d76896)" style="fill: #add8e6; stroke: #add8e6"/>
    <path d="M 196.51092 156.343061 
C 197.538047 156.343061 198.523244 155.934979 199.249533 155.208691 
C 199.975822 154.482402 200.383904 153.497205 200.383904 152.470078 
C 200.383904 151.442951 199.975822 150.457754 199.249533 149.731465 
C 198.523244 149.005177 197.538047 148.597095 196.51092 148.597095 
C 195.483793 148.597095 194.498596 149.005177 193.772308 149.731465 
C 193.046019 150.457754 192.637937 151.442951 192.637937 152.470078 
C 192.637937 153.497205 193.046019 154.482402 193.772308 155.208691 
C 194.498596 155.934979 195.483793 156.343061 196.51092 156.343061 
z
" clip-path="url(#p4a15d76896)" style="fill: #add8e6; stroke: #add8e6"/>
    <path d="M 74.30602 189.279237 
C 75.032309 189.279237 75.728948 188.990679 76.242512 188.477116 
C 76.756076 187.963552 77.044633 187.266913 77.044633 186.540624 
C 77.044633 185.814335 76.756076 185.117696 76.242512 184.604132 
C 75.728948 184.090569 75.032309 183.802011 74.30602 183.802011 
C 73.579732 183.802011 72.883092 184.090569 72.369529 184.604132 
C 71.855965 185.117696 71.567408 185.814335 71.567408 186.540624 
C 71.567408 187.266913 71.855965 187.963552 72.369529 188.477116 
C 72.883092 188.990679 73.579732 189.279237 74.30602 189.279237 
z
" clip-path="url(#p4a15d76896)" style="fill: #add8e6; stroke: #add8e6"/>
    <path d="M 201.912819 128.095423 
C 202.939946 128.095423 203.925143 127.687341 204.651431 126.961053 
C 205.37772 126.234764 205.785802 125.249567 205.785802 124.22244 
C 205.785802 123.195313 205.37772 122.210116 204.651431 121.483827 
C 203.925143 120.757539 202.939946 120.349457 201.912819 120.349457 
C 200.885691 120.349457 199.900494 120.757539 199.174206 121.483827 
C 198.447917 122.210116 198.039835 123.195313 198.039835 124.22244 
C 198.039835 125.249567 198.447917 126.234764 199.174206 126.961053 
C 199.900494 127.687341 200.885691 128.095423 201.912819 128.095423 
z
" clip-path="url(#p4a15d76896)" style="fill: #add8e6; stroke: #add8e6"/>
    <path d="M 170.492346 256.80439 
C 171.218635 256.80439 171.915275 256.515832 172.428838 256.002268 
C 172.942402 255.488705 173.230959 254.792065 173.230959 254.065777 
C 173.230959 253.339488 172.942402 252.642849 172.428838 252.129285 
C 171.915275 251.615722 171.218635 251.327164 170.492346 251.327164 
C 169.766058 251.327164 169.069418 251.615722 168.555855 252.129285 
C 168.042291 252.642849 167.753734 253.339488 167.753734 254.065777 
C 167.753734 254.792065 168.042291 255.488705 168.555855 256.002268 
C 169.069418 256.515832 169.766058 256.80439 170.492346 256.80439 
z
" clip-path="url(#p4a15d76896)" style="fill: #add8e6; stroke: #add8e6"/>
    <path d="M 200.845096 28.501145 
C 201.571385 28.501145 202.268025 28.212588 202.781588 27.699024 
C 203.295152 27.185461 203.583709 26.488821 203.583709 25.762533 
C 203.583709 25.036244 203.295152 24.339605 202.781588 23.826041 
C 202.268025 23.312477 201.571385 23.02392 200.845096 23.02392 
C 200.118808 23.02392 199.422168 23.312477 198.908605 23.826041 
C 198.395041 24.339605 198.106484 25.036244 198.106484 25.762533 
C 198.106484 26.488821 198.395041 27.185461 198.908605 27.699024 
C 199.422168 28.212588 200.118808 28.501145 200.845096 28.501145 
z
" clip-path="url(#p4a15d76896)" style="fill: #add8e6; stroke: #add8e6"/>
    <path d="M 174.76046 239.883544 
C 175.486749 239.883544 176.183389 239.594987 176.696952 239.081423 
C 177.210516 238.56786 177.499073 237.87122 177.499073 237.144932 
C 177.499073 236.418643 177.210516 235.722004 176.696952 235.20844 
C 176.183389 234.694876 175.486749 234.406319 174.76046 234.406319 
C 174.034172 234.406319 173.337532 234.694876 172.823969 235.20844 
C 172.310405 235.722004 172.021848 236.418643 172.021848 237.144932 
C 172.021848 237.87122 172.310405 238.56786 172.823969 239.081423 
C 173.337532 239.594987 174.034172 239.883544 174.76046 239.883544 
z
" clip-path="url(#p4a15d76896)" style="fill: #add8e6; stroke: #add8e6"/>
    <path d="M 88.355801 257.605582 
C 89.382929 257.605582 90.368126 257.1975 91.094414 256.471211 
C 91.820703 255.744923 92.228785 254.759726 92.228785 253.732599 
C 92.228785 252.705471 91.820703 251.720274 91.094414 250.993986 
C 90.368126 250.267697 89.382929 249.859615 88.355801 249.859615 
C 87.328674 249.859615 86.343477 250.267697 85.617189 250.993986 
C 84.8909 251.720274 84.482818 252.705471 84.482818 253.732599 
C 84.482818 254.759726 84.8909 255.744923 85.617189 256.471211 
C 86.343477 257.1975 87.328674 257.605582 88.355801 257.605582 
z
" clip-path="url(#p4a15d76896)" style="fill: #add8e6; stroke: #add8e6"/>
    <path d="M 202.89961 178.198754 
C 203.625898 178.198754 204.322538 177.910197 204.836101 177.396633 
C 205.349665 176.88307 205.638223 176.18643 205.638223 175.460142 
C 205.638223 174.733853 205.349665 174.037214 204.836101 173.52365 
C 204.322538 173.010086 203.625898 172.721529 202.89961 172.721529 
C 202.173321 172.721529 201.476682 173.010086 200.963118 173.52365 
C 200.449555 174.037214 200.160997 174.733853 200.160997 175.460142 
C 200.160997 176.18643 200.449555 176.88307 200.963118 177.396633 
C 201.476682 177.910197 202.173321 178.198754 202.89961 178.198754 
z
" clip-path="url(#p4a15d76896)" style="fill: #add8e6; stroke: #add8e6"/>
    <path d="M 122.330953 135.173819 
C 123.35808 135.173819 124.343277 134.765737 125.069566 134.039449 
C 125.795855 133.31316 126.203937 132.327963 126.203937 131.300836 
C 126.203937 130.273709 125.795855 129.288512 125.069566 128.562223 
C 124.343277 127.835934 123.35808 127.427853 122.330953 127.427853 
C 121.303826 127.427853 120.318629 127.835934 119.59234 128.562223 
C 118.866052 129.288512 118.45797 130.273709 118.45797 131.300836 
C 118.45797 132.327963 118.866052 133.31316 119.59234 134.039449 
C 120.318629 134.765737 121.303826 135.173819 122.330953 135.173819 
z
" clip-path="url(#p4a15d76896)" style="fill: #add8e6; stroke: #add8e6"/>
    <path d="M 326.492223 167.732637 
C 327.218512 167.732637 327.915151 167.444079 328.428715 166.930516 
C 328.942278 166.416952 329.230836 165.720312 329.230836 164.994024 
C 329.230836 164.267735 328.942278 163.571096 328.428715 163.057532 
C 327.915151 162.543969 327.218512 162.255411 326.492223 162.255411 
C 325.765934 162.255411 325.069295 162.543969 324.555731 163.057532 
C 324.042168 163.571096 323.75361 164.267735 323.75361 164.994024 
C 323.75361 165.720312 324.042168 166.416952 324.555731 166.930516 
C 325.069295 167.444079 325.765934 167.732637 326.492223 167.732637 
z
" clip-path="url(#p4a15d76896)" style="fill: #add8e6; stroke: #add8e6"/>
    <path d="M 328.479089 151.894337 
C 329.205377 151.894337 329.902017 151.605779 330.41558 151.092216 
C 330.929144 150.578652 331.217701 149.882013 331.217701 149.155724 
C 331.217701 148.429436 330.929144 147.732796 330.41558 147.219232 
C 329.902017 146.705669 329.205377 146.417111 328.479089 146.417111 
C 327.7528 146.417111 327.056161 146.705669 326.542597 147.219232 
C 326.029033 147.732796 325.740476 148.429436 325.740476 149.155724 
C 325.740476 149.882013 326.029033 150.578652 326.542597 151.092216 
C 327.056161 151.605779 327.7528 151.894337 328.479089 151.894337 
z
" clip-path="url(#p4a15d76896)" style="fill: #add8e6; stroke: #add8e6"/>
    <path d="M 316.720163 137.76243 
C 317.446452 137.76243 318.143091 137.473873 318.656655 136.960309 
C 319.170219 136.446746 319.458776 135.750106 319.458776 135.023818 
C 319.458776 134.297529 319.170219 133.600889 318.656655 133.087326 
C 318.143091 132.573762 317.446452 132.285205 316.720163 132.285205 
C 315.993875 132.285205 315.297235 132.573762 314.783672 133.087326 
C 314.270108 133.600889 313.981551 134.297529 313.981551 135.023818 
C 313.981551 135.750106 314.270108 136.446746 314.783672 136.960309 
C 315.297235 137.473873 315.993875 137.76243 316.720163 137.76243 
z
" clip-path="url(#p4a15d76896)" style="fill: #add8e6; stroke: #add8e6"/>
    <path d="M 244.302876 128.818202 
C 245.926907 128.818202 247.48464 128.172968 248.633003 127.024605 
C 249.781366 125.876241 250.4266 124.318508 250.4266 122.694478 
C 250.4266 121.070447 249.781366 119.512714 248.633003 118.364351 
C 247.48464 117.215987 245.926907 116.570753 244.302876 116.570753 
C 242.678845 116.570753 241.121112 117.215987 239.972749 118.364351 
C 238.824386 119.512714 238.179152 121.070447 238.179152 122.694478 
C 238.179152 124.318508 238.824386 125.876241 239.972749 127.024605 
C 241.121112 128.172968 242.678845 128.818202 244.302876 128.818202 
z
" clip-path="url(#p4a15d76896)" style="fill: #add8e6; stroke: #add8e6"/>
    <path d="M 402.168249 174.841508 
C 403.195376 174.841508 404.180573 174.433426 404.906862 173.707137 
C 405.63315 172.980849 406.041232 171.995652 406.041232 170.968525 
C 406.041232 169.941397 405.63315 168.9562 404.906862 168.229912 
C 404.180573 167.503623 403.195376 167.095541 402.168249 167.095541 
C 401.141122 167.095541 400.155925 167.503623 399.429636 168.229912 
C 398.703348 168.9562 398.295266 169.941397 398.295266 170.968525 
C 398.295266 171.995652 398.703348 172.980849 399.429636 173.707137 
C 400.155925 174.433426 401.141122 174.841508 402.168249 174.841508 
z
" clip-path="url(#p4a15d76896)" style="fill: #add8e6; stroke: #add8e6"/>
    <path d="M 208.318384 249.733092 
C 209.044672 249.733092 209.741312 249.444534 210.254876 248.930971 
C 210.768439 248.417407 211.056997 247.720768 211.056997 246.994479 
C 211.056997 246.26819 210.768439 245.571551 210.254876 245.057987 
C 209.741312 244.544424 209.044672 244.255866 208.318384 244.255866 
C 207.592095 244.255866 206.895456 244.544424 206.381892 245.057987 
C 205.868329 245.571551 205.579771 246.26819 205.579771 246.994479 
C 205.579771 247.720768 205.868329 248.417407 206.381892 248.930971 
C 206.895456 249.444534 207.592095 249.733092 208.318384 249.733092 
z
" clip-path="url(#p4a15d76896)" style="fill: #add8e6; stroke: #add8e6"/>
    <path d="M 396.043192 213.156257 
C 397.30116 213.156257 398.507775 212.65646 399.397294 211.766942 
C 400.286812 210.877424 400.786608 209.670809 400.786608 208.41284 
C 400.786608 207.154871 400.286812 205.948256 399.397294 205.058738 
C 398.507775 204.16922 397.30116 203.669424 396.043192 203.669424 
C 394.785223 203.669424 393.578608 204.16922 392.68909 205.058738 
C 391.799571 205.948256 391.299775 207.154871 391.299775 208.41284 
C 391.299775 209.670809 391.799571 210.877424 392.68909 211.766942 
C 393.578608 212.65646 394.785223 213.156257 396.043192 213.156257 
z
" clip-path="url(#p4a15d76896)" style="fill: #add8e6; stroke: #add8e6"/>
    <path d="M 142.119 124.105733 
C 142.845288 124.105733 143.541928 123.817175 144.055491 123.303611 
C 144.569055 122.790048 144.857612 122.093408 144.857612 121.36712 
C 144.857612 120.640831 144.569055 119.944192 144.055491 119.430628 
C 143.541928 118.917065 142.845288 118.628507 142.119 118.628507 
C 141.392711 118.628507 140.696071 118.917065 140.182508 119.430628 
C 139.668944 119.944192 139.380387 120.640831 139.380387 121.36712 
C 139.380387 122.093408 139.668944 122.790048 140.182508 123.303611 
C 140.696071 123.817175 141.392711 124.105733 142.119 124.105733 
z
" clip-path="url(#p4a15d76896)" style="fill: #add8e6; stroke: #add8e6"/>
    <path d="M 257.120194 304.882028 
C 258.147321 304.882028 259.132518 304.473946 259.858807 303.747657 
C 260.585096 303.021369 260.993178 302.036172 260.993178 301.009045 
C 260.993178 299.981918 260.585096 298.996721 259.858807 298.270432 
C 259.132518 297.544143 258.147321 297.136061 257.120194 297.136061 
C 256.093067 297.136061 255.10787 297.544143 254.381581 298.270432 
C 253.655293 298.996721 253.247211 299.981918 253.247211 301.009045 
C 253.247211 302.036172 253.655293 303.021369 254.381581 303.747657 
C 255.10787 304.473946 256.093067 304.882028 257.120194 304.882028 
z
" clip-path="url(#p4a15d76896)" style="fill: #add8e6; stroke: #add8e6"/>
    <path d="M 165.530496 228.140618 
C 166.256785 228.140618 166.953424 227.852061 167.466988 227.338497 
C 167.980552 226.824934 168.269109 226.128294 168.269109 225.402006 
C 168.269109 224.675717 167.980552 223.979077 167.466988 223.465514 
C 166.953424 222.95195 166.256785 222.663393 165.530496 222.663393 
C 164.804208 222.663393 164.107568 222.95195 163.594005 223.465514 
C 163.080441 223.979077 162.791884 224.675717 162.791884 225.402006 
C 162.791884 226.128294 163.080441 226.824934 163.594005 227.338497 
C 164.107568 227.852061 164.804208 228.140618 165.530496 228.140618 
z
" clip-path="url(#p4a15d76896)" style="fill: #add8e6; stroke: #add8e6"/>
    <path d="M 179.426002 137.055 
C 180.15229 137.055 180.84893 136.766442 181.362493 136.252879 
C 181.876057 135.739315 182.164614 135.042675 182.164614 134.316387 
C 182.164614 133.590098 181.876057 132.893459 181.362493 132.379895 
C 180.84893 131.866332 180.15229 131.577774 179.426002 131.577774 
C 178.699713 131.577774 178.003073 131.866332 177.48951 132.379895 
C 176.975946 132.893459 176.687389 133.590098 176.687389 134.316387 
C 176.687389 135.042675 176.975946 135.739315 177.48951 136.252879 
C 178.003073 136.766442 178.699713 137.055 179.426002 137.055 
z
" clip-path="url(#p4a15d76896)" style="fill: #add8e6; stroke: #add8e6"/>
    <path d="M 163.530656 245.461593 
C 164.256944 245.461593 164.953584 245.173035 165.467148 244.659472 
C 165.980711 244.145908 166.269269 243.449269 166.269269 242.72298 
C 166.269269 241.996692 165.980711 241.300052 165.467148 240.786489 
C 164.953584 240.272925 164.256944 239.984367 163.530656 239.984367 
C 162.804367 239.984367 162.107728 240.272925 161.594164 240.786489 
C 161.080601 241.300052 160.792043 241.996692 160.792043 242.72298 
C 160.792043 243.449269 161.080601 244.145908 161.594164 244.659472 
C 162.107728 245.173035 162.804367 245.461593 163.530656 245.461593 
z
" clip-path="url(#p4a15d76896)" style="fill: #add8e6; stroke: #add8e6"/>
    <path d="M 185.940648 31.703336 
C 186.666937 31.703336 187.363577 31.414779 187.87714 30.901215 
C 188.390704 30.387651 188.679261 29.691012 188.679261 28.964723 
C 188.679261 28.238435 188.390704 27.541795 187.87714 27.028232 
C 187.363577 26.514668 186.666937 26.226111 185.940648 26.226111 
C 185.21436 26.226111 184.51772 26.514668 184.004157 27.028232 
C 183.490593 27.541795 183.202036 28.238435 183.202036 28.964723 
C 183.202036 29.691012 183.490593 30.387651 184.004157 30.901215 
C 184.51772 31.414779 185.21436 31.703336 185.940648 31.703336 
z
" clip-path="url(#p4a15d76896)" style="fill: #add8e6; stroke: #add8e6"/>
    <path d="M 251.402482 95.897335 
C 252.12877 95.897335 252.82541 95.608777 253.338973 95.095214 
C 253.852537 94.58165 254.141094 93.885011 254.141094 93.158722 
C 254.141094 92.432433 253.852537 91.735794 253.338973 91.22223 
C 252.82541 90.708667 252.12877 90.420109 251.402482 90.420109 
C 250.676193 90.420109 249.979554 90.708667 249.46599 91.22223 
C 248.952426 91.735794 248.663869 92.432433 248.663869 93.158722 
C 248.663869 93.885011 248.952426 94.58165 249.46599 95.095214 
C 249.979554 95.608777 250.676193 95.897335 251.402482 95.897335 
z
" clip-path="url(#p4a15d76896)" style="fill: #add8e6; stroke: #add8e6"/>
    <path d="M 262.877804 100.202663 
C 263.604093 100.202663 264.300732 99.914105 264.814296 99.400542 
C 265.327859 98.886978 265.616417 98.190338 265.616417 97.46405 
C 265.616417 96.737761 265.327859 96.041122 264.814296 95.527558 
C 264.300732 95.013995 263.604093 94.725437 262.877804 94.725437 
C 262.151515 94.725437 261.454876 95.013995 260.941312 95.527558 
C 260.427749 96.041122 260.139191 96.737761 260.139191 97.46405 
C 260.139191 98.190338 260.427749 98.886978 260.941312 99.400542 
C 261.454876 99.914105 262.151515 100.202663 262.877804 100.202663 
z
" clip-path="url(#p4a15d76896)" style="fill: #add8e6; stroke: #add8e6"/>
    <path d="M 179.547878 265.157429 
C 180.274167 265.157429 180.970806 264.868871 181.48437 264.355308 
C 181.997934 263.841744 182.286491 263.145105 182.286491 262.418816 
C 182.286491 261.692527 181.997934 260.995888 181.48437 260.482324 
C 180.970806 259.968761 180.274167 259.680203 179.547878 259.680203 
C 178.82159 259.680203 178.12495 259.968761 177.611387 260.482324 
C 177.097823 260.995888 176.809266 261.692527 176.809266 262.418816 
C 176.809266 263.145105 177.097823 263.841744 177.611387 264.355308 
C 178.12495 264.868871 178.82159 265.157429 179.547878 265.157429 
z
" clip-path="url(#p4a15d76896)" style="fill: #add8e6; stroke: #add8e6"/>
    <path d="M 239.652811 99.051744 
C 240.3791 99.051744 241.075739 98.763187 241.589303 98.249623 
C 242.102866 97.73606 242.391424 97.03942 242.391424 96.313132 
C 242.391424 95.586843 242.102866 94.890204 241.589303 94.37664 
C 241.075739 93.863076 240.3791 93.574519 239.652811 93.574519 
C 238.926523 93.574519 238.229883 93.863076 237.716319 94.37664 
C 237.202756 94.890204 236.914198 95.586843 236.914198 96.313132 
C 236.914198 97.03942 237.202756 97.73606 237.716319 98.249623 
C 238.229883 98.763187 238.926523 99.051744 239.652811 99.051744 
z
" clip-path="url(#p4a15d76896)" style="fill: #add8e6; stroke: #add8e6"/>
    <path d="M 266.637381 112.703441 
C 267.363669 112.703441 268.060309 112.414884 268.573872 111.90132 
C 269.087436 111.387757 269.375993 110.691117 269.375993 109.964829 
C 269.375993 109.23854 269.087436 108.541901 268.573872 108.028337 
C 268.060309 107.514773 267.363669 107.226216 266.637381 107.226216 
C 265.911092 107.226216 265.214453 107.514773 264.700889 108.028337 
C 264.187325 108.541901 263.898768 109.23854 263.898768 109.964829 
C 263.898768 110.691117 264.187325 111.387757 264.700889 111.90132 
C 265.214453 112.414884 265.911092 112.703441 266.637381 112.703441 
z
" clip-path="url(#p4a15d76896)" style="fill: #add8e6; stroke: #add8e6"/>
    <path d="M 413.020397 233.262354 
C 413.746685 233.262354 414.443325 232.973797 414.956888 232.460233 
C 415.470452 231.946669 415.759009 231.25003 415.759009 230.523741 
C 415.759009 229.797453 415.470452 229.100813 414.956888 228.58725 
C 414.443325 228.073686 413.746685 227.785128 413.020397 227.785128 
C 412.294108 227.785128 411.597469 228.073686 411.083905 228.58725 
C 410.570341 229.100813 410.281784 229.797453 410.281784 230.523741 
C 410.281784 231.25003 410.570341 231.946669 411.083905 232.460233 
C 411.597469 232.973797 412.294108 233.262354 413.020397 233.262354 
z
" clip-path="url(#p4a15d76896)" style="fill: #add8e6; stroke: #add8e6"/>
    <path d="M 249.442943 184.887635 
C 250.47007 184.887635 251.455267 184.479553 252.181556 183.753264 
C 252.907844 183.026975 253.315926 182.041779 253.315926 181.014651 
C 253.315926 179.987524 252.907844 179.002327 252.181556 178.276039 
C 251.455267 177.54975 250.47007 177.141668 249.442943 177.141668 
C 248.415816 177.141668 247.430619 177.54975 246.70433 178.276039 
C 245.978041 179.002327 245.569959 179.987524 245.569959 181.014651 
C 245.569959 182.041779 245.978041 183.026975 246.70433 183.753264 
C 247.430619 184.479553 248.415816 184.887635 249.442943 184.887635 
z
" clip-path="url(#p4a15d76896)" style="fill: #add8e6; stroke: #add8e6"/>
    <path d="M 90.947317 129.869669 
C 91.673606 129.869669 92.370245 129.581112 92.883809 129.067548 
C 93.397372 128.553985 93.68593 127.857345 93.68593 127.131057 
C 93.68593 126.404768 93.397372 125.708128 92.883809 125.194565 
C 92.370245 124.681001 91.673606 124.392444 90.947317 124.392444 
C 90.221029 124.392444 89.524389 124.681001 89.010825 125.194565 
C 88.497262 125.708128 88.208704 126.404768 88.208704 127.131057 
C 88.208704 127.857345 88.497262 128.553985 89.010825 129.067548 
C 89.524389 129.581112 90.221029 129.869669 90.947317 129.869669 
z
" clip-path="url(#p4a15d76896)" style="fill: #add8e6; stroke: #add8e6"/>
    <path d="M 55.227332 274.632552 
C 56.254459 274.632552 57.239656 274.22447 57.965945 273.498181 
C 58.692233 272.771892 59.100315 271.786695 59.100315 270.759568 
C 59.100315 269.732441 58.692233 268.747244 57.965945 268.020955 
C 57.239656 267.294667 56.254459 266.886585 55.227332 266.886585 
C 54.200205 266.886585 53.215008 267.294667 52.488719 268.020955 
C 51.762431 268.747244 51.354349 269.732441 51.354349 270.759568 
C 51.354349 271.786695 51.762431 272.771892 52.488719 273.498181 
C 53.215008 274.22447 54.200205 274.632552 55.227332 274.632552 
z
" clip-path="url(#p4a15d76896)" style="fill: #add8e6; stroke: #add8e6"/>
    <path d="M 422.480686 221.061802 
C 423.206975 221.061802 423.903614 220.773245 424.417178 220.259681 
C 424.930741 219.746118 425.219299 219.049478 425.219299 218.323189 
C 425.219299 217.596901 424.930741 216.900261 424.417178 216.386698 
C 423.903614 215.873134 423.206975 215.584577 422.480686 215.584577 
C 421.754398 215.584577 421.057758 215.873134 420.544194 216.386698 
C 420.030631 216.900261 419.742073 217.596901 419.742073 218.323189 
C 419.742073 219.049478 420.030631 219.746118 420.544194 220.259681 
C 421.057758 220.773245 421.754398 221.061802 422.480686 221.061802 
z
" clip-path="url(#p4a15d76896)" style="fill: #add8e6; stroke: #add8e6"/>
    <path d="M 429.717456 170.4349 
C 430.443744 170.4349 431.140384 170.146342 431.653947 169.632778 
C 432.167511 169.119215 432.456068 168.422575 432.456068 167.696287 
C 432.456068 166.969998 432.167511 166.273359 431.653947 165.759795 
C 431.140384 165.246231 430.443744 164.957674 429.717456 164.957674 
C 428.991167 164.957674 428.294528 165.246231 427.780964 165.759795 
C 427.2674 166.273359 426.978843 166.969998 426.978843 167.696287 
C 426.978843 168.422575 427.2674 169.119215 427.780964 169.632778 
C 428.294528 170.146342 428.991167 170.4349 429.717456 170.4349 
z
" clip-path="url(#p4a15d76896)" style="fill: #add8e6; stroke: #add8e6"/>
    <path d="M 272.37042 190.751176 
C 273.096709 190.751176 273.793348 190.462618 274.306912 189.949055 
C 274.820475 189.435491 275.109033 188.738852 275.109033 188.012563 
C 275.109033 187.286275 274.820475 186.589635 274.306912 186.076072 
C 273.793348 185.562508 273.096709 185.27395 272.37042 185.27395 
C 271.644132 185.27395 270.947492 185.562508 270.433928 186.076072 
C 269.920365 186.589635 269.631807 187.286275 269.631807 188.012563 
C 269.631807 188.738852 269.920365 189.435491 270.433928 189.949055 
C 270.947492 190.462618 271.644132 190.751176 272.37042 190.751176 
z
" clip-path="url(#p4a15d76896)" style="fill: #add8e6; stroke: #add8e6"/>
    <path d="M 192.0409 267.407562 
C 192.767189 267.407562 193.463828 267.119005 193.977392 266.605441 
C 194.490956 266.091878 194.779513 265.395238 194.779513 264.66895 
C 194.779513 263.942661 194.490956 263.246022 193.977392 262.732458 
C 193.463828 262.218894 192.767189 261.930337 192.0409 261.930337 
C 191.314612 261.930337 190.617972 262.218894 190.104409 262.732458 
C 189.590845 263.246022 189.302287 263.942661 189.302287 264.66895 
C 189.302287 265.395238 189.590845 266.091878 190.104409 266.605441 
C 190.617972 267.119005 191.314612 267.407562 192.0409 267.407562 
z
" clip-path="url(#p4a15d76896)" style="fill: #add8e6; stroke: #add8e6"/>
    <path d="M 31.082544 285.02611 
C 31.808833 285.02611 32.505472 284.737552 33.019036 284.223989 
C 33.5326 283.710425 33.821157 283.013786 33.821157 282.287497 
C 33.821157 281.561208 33.5326 280.864569 33.019036 280.351005 
C 32.505472 279.837442 31.808833 279.548884 31.082544 279.548884 
C 30.356256 279.548884 29.659616 279.837442 29.146053 280.351005 
C 28.632489 280.864569 28.343932 281.561208 28.343932 282.287497 
C 28.343932 283.013786 28.632489 283.710425 29.146053 284.223989 
C 29.659616 284.737552 30.356256 285.02611 31.082544 285.02611 
z
" clip-path="url(#p4a15d76896)" style="fill: #add8e6; stroke: #add8e6"/>
    <path d="M 281.463074 322.57608 
C 282.189363 322.57608 282.886003 322.287523 283.399566 321.773959 
C 283.91313 321.260395 284.201687 320.563756 284.201687 319.837467 
C 284.201687 319.111179 283.91313 318.414539 283.399566 317.900976 
C 282.886003 317.387412 282.189363 317.098855 281.463074 317.098855 
C 280.736786 317.098855 280.040146 317.387412 279.526583 317.900976 
C 279.013019 318.414539 278.724462 319.111179 278.724462 319.837467 
C 278.724462 320.563756 279.013019 321.260395 279.526583 321.773959 
C 280.040146 322.287523 280.736786 322.57608 281.463074 322.57608 
z
" clip-path="url(#p4a15d76896)" style="fill: #add8e6; stroke: #add8e6"/>
    <path d="M 185.392657 101.505251 
C 186.118946 101.505251 186.815585 101.216694 187.329149 100.70313 
C 187.842713 100.189566 188.13127 99.492927 188.13127 98.766638 
C 188.13127 98.04035 187.842713 97.34371 187.329149 96.830147 
C 186.815585 96.316583 186.118946 96.028026 185.392657 96.028026 
C 184.666369 96.028026 183.969729 96.316583 183.456166 96.830147 
C 182.942602 97.34371 182.654045 98.04035 182.654045 98.766638 
C 182.654045 99.492927 182.942602 100.189566 183.456166 100.70313 
C 183.969729 101.216694 184.666369 101.505251 185.392657 101.505251 
z
" clip-path="url(#p4a15d76896)" style="fill: #add8e6; stroke: #add8e6"/>
    <path d="M 177.587427 217.478058 
C 178.313716 217.478058 179.010355 217.1895 179.523919 216.675937 
C 180.037482 216.162373 180.32604 215.465734 180.32604 214.739445 
C 180.32604 214.013156 180.037482 213.316517 179.523919 212.802953 
C 179.010355 212.28939 178.313716 212.000832 177.587427 212.000832 
C 176.861138 212.000832 176.164499 212.28939 175.650935 212.802953 
C 175.137372 213.316517 174.848814 214.013156 174.848814 214.739445 
C 174.848814 215.465734 175.137372 216.162373 175.650935 216.675937 
C 176.164499 217.1895 176.861138 217.478058 177.587427 217.478058 
z
" clip-path="url(#p4a15d76896)" style="fill: #add8e6; stroke: #add8e6"/>
   </g>
  </g>
 </g>
 <defs>
  <clipPath id="p4a15d76896">
   <rect x="10.8" y="10.8" width="439.2" height="324"/>
  </clipPath>
 </defs>
</svg>
