<?xml version="1.0" encoding="utf-8" standalone="no"?>
<!DOCTYPE svg PUBLIC "-//W3C//DTD SVG 1.1//EN"
  "http://www.w3.org/Graphics/SVG/1.1/DTD/svg11.dtd">
<svg xmlns:xlink="http://www.w3.org/1999/xlink" width="460.8pt" height="345.6pt" viewBox="0 0 460.8 345.6" xmlns="http://www.w3.org/2000/svg" version="1.1">
 <metadata>
  <rdf:RDF xmlns:dc="http://purl.org/dc/elements/1.1/" xmlns:cc="http://creativecommons.org/ns#" xmlns:rdf="http://www.w3.org/1999/02/22-rdf-syntax-ns#">
   <cc:Work>
    <dc:type rdf:resource="http://purl.org/dc/dcmitype/StillImage"/>
    <dc:date>2022-12-31T16:15:49.105224</dc:date>
    <dc:format>image/svg+xml</dc:format>
    <dc:creator>
     <cc:Agent>
      <dc:title>Matplotlib v3.6.2, https://matplotlib.org/</dc:title>
     </cc:Agent>
    </dc:creator>
   </cc:Work>
  </rdf:RDF>
 </metadata>
 <defs>
  <style type="text/css">*{stroke-linejoin: round; stroke-linecap: butt}</style>
 </defs>
 <g id="figure_1">
  <g id="patch_1">
   <path d="M 0 345.6 
L 460.8 345.6 
L 460.8 0 
L 0 0 
z
" style="fill: #ffffff"/>
  </g>
  <g id="axes_1">
   <g id="LineCollection_1">
    <path d="M 199.15466 219.273814 
L 287.857756 224.141861 
" clip-path="url(#pd623c71e2a)" style="fill: none; stroke: #000000"/>
    <path d="M 199.15466 219.273814 
L 129.523395 221.002923 
" clip-path="url(#pd623c71e2a)" style="fill: none; stroke: #000000"/>
    <path d="M 199.15466 219.273814 
L 211.711923 156.838489 
" clip-path="url(#pd623c71e2a)" style="fill: none; stroke: #000000"/>
    <path d="M 199.15466 219.273814 
L 229.611591 224.943644 
" clip-path="url(#pd623c71e2a)" style="fill: none; stroke: #000000"/>
    <path d="M 199.15466 219.273814 
L 140.110347 205.224264 
" clip-path="url(#pd623c71e2a)" style="fill: none; stroke: #000000"/>
    <path d="M 199.15466 219.273814 
L 224.427407 272.757966 
" clip-path="url(#pd623c71e2a)" style="fill: none; stroke: #000000"/>
    <path d="M 199.15466 219.273814 
L 214.707368 206.617193 
" clip-path="url(#pd623c71e2a)" style="fill: none; stroke: #000000"/>
    <path d="M 199.15466 219.273814 
L 186.849608 236.480722 
" clip-path="url(#pd623c71e2a)" style="fill: none; stroke: #000000"/>
    <path d="M 199.15466 219.273814 
L 204.15479 236.759369 
" clip-path="url(#pd623c71e2a)" style="fill: none; stroke: #000000"/>
    <path d="M 199.15466 219.273814 
L 174.733981 230.254333 
" clip-path="url(#pd623c71e2a)" style="fill: none; stroke: #000000"/>
    <path d="M 199.15466 219.273814 
L 166.884073 221.682854 
" clip-path="url(#pd623c71e2a)" style="fill: none; stroke: #000000"/>
    <path d="M 199.15466 219.273814 
L 191.80891 204.580969 
" clip-path="url(#pd623c71e2a)" style="fill: none; stroke: #000000"/>
    <path d="M 199.15466 219.273814 
L 174.100288 211.183468 
" clip-path="url(#pd623c71e2a)" style="fill: none; stroke: #000000"/>
    <path d="M 199.15466 219.273814 
L 220.025874 232.843253 
" clip-path="url(#pd623c71e2a)" style="fill: none; stroke: #000000"/>
    <path d="M 199.15466 219.273814 
L 145.562937 240.56352 
" clip-path="url(#pd623c71e2a)" style="fill: none; stroke: #000000"/>
    <path d="M 199.15466 219.273814 
L 229.10471 214.817197 
" clip-path="url(#pd623c71e2a)" style="fill: none; stroke: #000000"/>
    <path d="M 287.857756 224.141861 
L 348.214427 221.682995 
" clip-path="url(#pd623c71e2a)" style="fill: none; stroke: #000000"/>
    <path d="M 287.857756 224.141861 
L 344.281531 234.709405 
" clip-path="url(#pd623c71e2a)" style="fill: none; stroke: #000000"/>
    <path d="M 129.523395 221.002923 
L 71.85355 222.399341 
" clip-path="url(#pd623c71e2a)" style="fill: none; stroke: #000000"/>
    <path d="M 211.711923 156.838489 
L 185.742964 128.094565 
" clip-path="url(#pd623c71e2a)" style="fill: none; stroke: #000000"/>
    <path d="M 211.711923 156.838489 
L 279.828907 114.360148 
" clip-path="url(#pd623c71e2a)" style="fill: none; stroke: #000000"/>
    <path d="M 211.711923 156.838489 
L 146.301416 139.86537 
" clip-path="url(#pd623c71e2a)" style="fill: none; stroke: #000000"/>
    <path d="M 211.711923 156.838489 
L 240.916284 152.868014 
" clip-path="url(#pd623c71e2a)" style="fill: none; stroke: #000000"/>
    <path d="M 185.742964 128.094565 
L 161.554117 101.74646 
" clip-path="url(#pd623c71e2a)" style="fill: none; stroke: #000000"/>
    <path d="M 140.110347 205.224264 
L 100.430934 202.404667 
" clip-path="url(#pd623c71e2a)" style="fill: none; stroke: #000000"/>
    <path d="M 140.110347 205.224264 
L 108.89255 194.011934 
" clip-path="url(#pd623c71e2a)" style="fill: none; stroke: #000000"/>
    <path d="M 161.554117 101.74646 
L 136.653434 87.888224 
" clip-path="url(#pd623c71e2a)" style="fill: none; stroke: #000000"/>
    <path d="M 161.554117 101.74646 
L 154.078838 83.841099 
" clip-path="url(#pd623c71e2a)" style="fill: none; stroke: #000000"/>
    <path d="M 279.828907 114.360148 
L 284.397276 75.056414 
" clip-path="url(#pd623c71e2a)" style="fill: none; stroke: #000000"/>
    <path d="M 279.828907 114.360148 
L 325.880107 122.859841 
" clip-path="url(#pd623c71e2a)" style="fill: none; stroke: #000000"/>
    <path d="M 279.828907 114.360148 
L 302.873888 112.687999 
" clip-path="url(#pd623c71e2a)" style="fill: none; stroke: #000000"/>
    <path d="M 279.828907 114.360148 
L 286.135104 99.636902 
" clip-path="url(#pd623c71e2a)" style="fill: none; stroke: #000000"/>
    <path d="M 279.828907 114.360148 
L 330.799424 109.090242 
" clip-path="url(#pd623c71e2a)" style="fill: none; stroke: #000000"/>
    <path d="M 279.828907 114.360148 
L 263.246432 102.961117 
" clip-path="url(#pd623c71e2a)" style="fill: none; stroke: #000000"/>
    <path d="M 279.828907 114.360148 
L 316.934769 96.915328 
" clip-path="url(#pd623c71e2a)" style="fill: none; stroke: #000000"/>
    <path d="M 284.397276 75.056414 
L 263.600998 69.89411 
" clip-path="url(#pd623c71e2a)" style="fill: none; stroke: #000000"/>
    <path d="M 284.397276 75.056414 
L 242.155058 64.387167 
" clip-path="url(#pd623c71e2a)" style="fill: none; stroke: #000000"/>
    <path d="M 284.397276 75.056414 
L 320.933786 45.396587 
" clip-path="url(#pd623c71e2a)" style="fill: none; stroke: #000000"/>
    <path d="M 224.427407 272.757966 
L 224.180582 299.529184 
" clip-path="url(#pd623c71e2a)" style="fill: none; stroke: #000000"/>
    <path d="M 224.427407 272.757966 
L 241.061901 285.777132 
" clip-path="url(#pd623c71e2a)" style="fill: none; stroke: #000000"/>
    <path d="M 224.427407 272.757966 
L 277.763357 300.182476 
" clip-path="url(#pd623c71e2a)" style="fill: none; stroke: #000000"/>
    <path d="M 224.427407 272.757966 
L 196.945041 297.064671 
" clip-path="url(#pd623c71e2a)" style="fill: none; stroke: #000000"/>
    <path d="M 224.427407 272.757966 
L 211.162015 286.360166 
" clip-path="url(#pd623c71e2a)" style="fill: none; stroke: #000000"/>
    <path d="M 325.880107 122.859841 
L 362.276769 126.970812 
" clip-path="url(#pd623c71e2a)" style="fill: none; stroke: #000000"/>
    <path d="M 348.214427 221.682995 
L 385.285996 225.668446 
" clip-path="url(#pd623c71e2a)" style="fill: none; stroke: #000000"/>
    <path d="M 348.214427 221.682995 
L 383.777779 216.436142 
" clip-path="url(#pd623c71e2a)" style="fill: none; stroke: #000000"/>
    <path d="M 146.301416 139.86537 
L 91.614395 125.403935 
" clip-path="url(#pd623c71e2a)" style="fill: none; stroke: #000000"/>
    <path d="M 146.301416 139.86537 
L 117.745832 133.644451 
" clip-path="url(#pd623c71e2a)" style="fill: none; stroke: #000000"/>
    <path d="M 224.180582 299.529184 
L 221.994706 319.316142 
" clip-path="url(#pd623c71e2a)" style="fill: none; stroke: #000000"/>
    <path d="M 240.916284 152.868014 
L 267.020592 151.911805 
" clip-path="url(#pd623c71e2a)" style="fill: none; stroke: #000000"/>
    <path d="M 344.281531 234.709405 
L 393.529685 243.699055 
" clip-path="url(#pd623c71e2a)" style="fill: none; stroke: #000000"/>
    <path d="M 91.614395 125.403935 
L 54.383554 121.068444 
" clip-path="url(#pd623c71e2a)" style="fill: none; stroke: #000000"/>
    <path d="M 91.614395 125.403935 
L 63.767033 112.3759 
" clip-path="url(#pd623c71e2a)" style="fill: none; stroke: #000000"/>
    <path d="M 330.799424 109.090242 
L 368.961945 104.183381 
" clip-path="url(#pd623c71e2a)" style="fill: none; stroke: #000000"/>
    <path d="M 277.763357 300.182476 
L 296.996213 318.599434 
" clip-path="url(#pd623c71e2a)" style="fill: none; stroke: #000000"/>
    <path d="M 277.763357 300.182476 
L 313.469232 305.274061 
" clip-path="url(#pd623c71e2a)" style="fill: none; stroke: #000000"/>
    <path d="M 277.763357 300.182476 
L 279.534557 319.837467 
" clip-path="url(#pd623c71e2a)" style="fill: none; stroke: #000000"/>
    <path d="M 277.763357 300.182476 
L 307.09185 312.256454 
" clip-path="url(#pd623c71e2a)" style="fill: none; stroke: #000000"/>
    <path d="M 242.155058 64.387167 
L 209.945745 56.744428 
" clip-path="url(#pd623c71e2a)" style="fill: none; stroke: #000000"/>
    <path d="M 320.933786 45.396587 
L 352.333627 46.304602 
" clip-path="url(#pd623c71e2a)" style="fill: none; stroke: #000000"/>
    <path d="M 320.933786 45.396587 
L 336.924373 26.379881 
" clip-path="url(#pd623c71e2a)" style="fill: none; stroke: #000000"/>
    <path d="M 320.933786 45.396587 
L 317.683197 25.762533 
" clip-path="url(#pd623c71e2a)" style="fill: none; stroke: #000000"/>
    <path d="M 320.933786 45.396587 
L 348.333553 36.141787 
" clip-path="url(#pd623c71e2a)" style="fill: none; stroke: #000000"/>
    <path d="M 71.85355 222.399341 
L 31.082544 224.381367 
" clip-path="url(#pd623c71e2a)" style="fill: none; stroke: #000000"/>
    <path d="M 196.945041 297.064671 
L 178.337693 315.309208 
" clip-path="url(#pd623c71e2a)" style="fill: none; stroke: #000000"/>
    <path d="M 393.529685 243.699055 
L 429.717456 250.236491 
" clip-path="url(#pd623c71e2a)" style="fill: none; stroke: #000000"/>
    <path d="M 145.562937 240.56352 
L 120.7624 256.907379 
" clip-path="url(#pd623c71e2a)" style="fill: none; stroke: #000000"/>
    <path d="M 145.562937 240.56352 
L 108.401489 249.498405 
" clip-path="url(#pd623c71e2a)" style="fill: none; stroke: #000000"/>
    <path d="M 316.934769 96.915328 
L 346.289492 84.719421 
" clip-path="url(#pd623c71e2a)" style="fill: none; stroke: #000000"/>
   </g>
   <g id="PathCollection_1">
    <path d="M 199.15466 230.228265 
C 202.059814 230.228265 204.846372 229.074035 206.900626 227.019781 
C 208.954881 224.965527 210.109111 222.178969 210.109111 219.273814 
C 210.109111 216.36866 208.954881 213.582102 206.900626 211.527848 
C 204.846372 209.473593 202.059814 208.319363 199.15466 208.319363 
C 196.249505 208.319363 193.462947 209.473593 191.408693 211.527848 
C 189.354439 213.582102 188.200208 216.36866 188.200208 219.273814 
C 188.200208 222.178969 189.354439 224.965527 191.408693 227.019781 
C 193.462947 229.074035 196.249505 230.228265 199.15466 230.228265 
z
" clip-path="url(#pd623c71e2a)" style="fill: #add8e6; stroke: #add8e6"/>
    <path d="M 287.857756 228.885278 
C 289.115725 228.885278 290.32234 228.385482 291.211858 227.495963 
C 292.101376 226.606445 292.601173 225.39983 292.601173 224.141861 
C 292.601173 222.883893 292.101376 221.677278 291.211858 220.78776 
C 290.32234 219.898241 289.115725 219.398445 287.857756 219.398445 
C 286.599788 219.398445 285.393173 219.898241 284.503654 220.78776 
C 283.614136 221.677278 283.11434 222.883893 283.11434 224.141861 
C 283.11434 225.39983 283.614136 226.606445 284.503654 227.495963 
C 285.393173 228.385482 286.599788 228.885278 287.857756 228.885278 
z
" clip-path="url(#pd623c71e2a)" style="fill: #add8e6; stroke: #add8e6"/>
    <path d="M 129.523395 224.875906 
C 130.550522 224.875906 131.535719 224.467824 132.262007 223.741536 
C 132.988296 223.015247 133.396378 222.03005 133.396378 221.002923 
C 133.396378 219.975796 132.988296 218.990599 132.262007 218.26431 
C 131.535719 217.538021 130.550522 217.12994 129.523395 217.12994 
C 128.496267 217.12994 127.51107 217.538021 126.784782 218.26431 
C 126.058493 218.990599 125.650411 219.975796 125.650411 221.002923 
C 125.650411 222.03005 126.058493 223.015247 126.784782 223.741536 
C 127.51107 224.467824 128.496267 224.875906 129.523395 224.875906 
z
" clip-path="url(#pd623c71e2a)" style="fill: #add8e6; stroke: #add8e6"/>
    <path d="M 211.711923 162.962213 
C 213.335954 162.962213 214.893687 162.316979 216.04205 161.168616 
C 217.190413 160.020253 217.835648 158.46252 217.835648 156.838489 
C 217.835648 155.214458 217.190413 153.656725 216.04205 152.508362 
C 214.893687 151.359999 213.335954 150.714765 211.711923 150.714765 
C 210.087892 150.714765 208.530159 151.359999 207.381796 152.508362 
C 206.233433 153.656725 205.588199 155.214458 205.588199 156.838489 
C 205.588199 158.46252 206.233433 160.020253 207.381796 161.168616 
C 208.530159 162.316979 210.087892 162.962213 211.711923 162.962213 
z
" clip-path="url(#pd623c71e2a)" style="fill: #add8e6; stroke: #add8e6"/>
    <path d="M 229.611591 227.682257 
C 230.33788 227.682257 231.034519 227.393699 231.548083 226.880136 
C 232.061646 226.366572 232.350204 225.669933 232.350204 224.943644 
C 232.350204 224.217355 232.061646 223.520716 231.548083 223.007152 
C 231.034519 222.493589 230.33788 222.205031 229.611591 222.205031 
C 228.885303 222.205031 228.188663 222.493589 227.675099 223.007152 
C 227.161536 223.520716 226.872978 224.217355 226.872978 224.943644 
C 226.872978 225.669933 227.161536 226.366572 227.675099 226.880136 
C 228.188663 227.393699 228.885303 227.682257 229.611591 227.682257 
z
" clip-path="url(#pd623c71e2a)" style="fill: #add8e6; stroke: #add8e6"/>
    <path d="M 185.742964 131.967549 
C 186.770091 131.967549 187.755288 131.559467 188.481576 130.833178 
C 189.207865 130.106889 189.615947 129.121692 189.615947 128.094565 
C 189.615947 127.067438 189.207865 126.082241 188.481576 125.355953 
C 187.755288 124.629664 186.770091 124.221582 185.742964 124.221582 
C 184.715837 124.221582 183.73064 124.629664 183.004351 125.355953 
C 182.278062 126.082241 181.86998 127.067438 181.86998 128.094565 
C 181.86998 129.121692 182.278062 130.106889 183.004351 130.833178 
C 183.73064 131.559467 184.715837 131.967549 185.742964 131.967549 
z
" clip-path="url(#pd623c71e2a)" style="fill: #add8e6; stroke: #add8e6"/>
    <path d="M 140.110347 209.96768 
C 141.368316 209.96768 142.574931 209.467884 143.464449 208.578366 
C 144.353967 207.688848 144.853764 206.482233 144.853764 205.224264 
C 144.853764 203.966295 144.353967 202.75968 143.464449 201.870162 
C 142.574931 200.980644 141.368316 200.480847 140.110347 200.480847 
C 138.852378 200.480847 137.645763 200.980644 136.756245 201.870162 
C 135.866727 202.75968 135.366931 203.966295 135.366931 205.224264 
C 135.366931 206.482233 135.866727 207.688848 136.756245 208.578366 
C 137.645763 209.467884 138.852378 209.96768 140.110347 209.96768 
z
" clip-path="url(#pd623c71e2a)" style="fill: #add8e6; stroke: #add8e6"/>
    <path d="M 100.430934 205.14328 
C 101.157223 205.14328 101.853862 204.854722 102.367426 204.341159 
C 102.880989 203.827595 103.169547 203.130955 103.169547 202.404667 
C 103.169547 201.678378 102.880989 200.981739 102.367426 200.468175 
C 101.853862 199.954612 101.157223 199.666054 100.430934 199.666054 
C 99.704645 199.666054 99.008006 199.954612 98.494442 200.468175 
C 97.980879 200.981739 97.692321 201.678378 97.692321 202.404667 
C 97.692321 203.130955 97.980879 203.827595 98.494442 204.341159 
C 99.008006 204.854722 99.704645 205.14328 100.430934 205.14328 
z
" clip-path="url(#pd623c71e2a)" style="fill: #add8e6; stroke: #add8e6"/>
    <path d="M 108.89255 196.750546 
C 109.618838 196.750546 110.315478 196.461989 110.829041 195.948425 
C 111.342605 195.434862 111.631163 194.738222 111.631163 194.011934 
C 111.631163 193.285645 111.342605 192.589006 110.829041 192.075442 
C 110.315478 191.561878 109.618838 191.273321 108.89255 191.273321 
C 108.166261 191.273321 107.469622 191.561878 106.956058 192.075442 
C 106.442494 192.589006 106.153937 193.285645 106.153937 194.011934 
C 106.153937 194.738222 106.442494 195.434862 106.956058 195.948425 
C 107.469622 196.461989 108.166261 196.750546 108.89255 196.750546 
z
" clip-path="url(#pd623c71e2a)" style="fill: #add8e6; stroke: #add8e6"/>
    <path d="M 161.554117 106.489877 
C 162.812086 106.489877 164.018701 105.99008 164.908219 105.100562 
C 165.797737 104.211044 166.297534 103.004429 166.297534 101.74646 
C 166.297534 100.488491 165.797737 99.281876 164.908219 98.392358 
C 164.018701 97.50284 162.812086 97.003044 161.554117 97.003044 
C 160.296148 97.003044 159.089533 97.50284 158.200015 98.392358 
C 157.310497 99.281876 156.810701 100.488491 156.810701 101.74646 
C 156.810701 103.004429 157.310497 104.211044 158.200015 105.100562 
C 159.089533 105.99008 160.296148 106.489877 161.554117 106.489877 
z
" clip-path="url(#pd623c71e2a)" style="fill: #add8e6; stroke: #add8e6"/>
    <path d="M 279.828907 122.106115 
C 281.883161 122.106115 283.853555 121.289951 285.306133 119.837374 
C 286.75871 118.384797 287.574874 116.414403 287.574874 114.360148 
C 287.574874 112.305894 286.75871 110.3355 285.306133 108.882923 
C 283.853555 107.430345 281.883161 106.614181 279.828907 106.614181 
C 277.774653 106.614181 275.804259 107.430345 274.351681 108.882923 
C 272.899104 110.3355 272.08294 112.305894 272.08294 114.360148 
C 272.08294 116.414403 272.899104 118.384797 274.351681 119.837374 
C 275.804259 121.289951 277.774653 122.106115 279.828907 122.106115 
z
" clip-path="url(#pd623c71e2a)" style="fill: #add8e6; stroke: #add8e6"/>
    <path d="M 284.397276 80.533639 
C 285.849854 80.533639 287.243133 79.956524 288.27026 78.929397 
C 289.297387 77.90227 289.874502 76.508991 289.874502 75.056414 
C 289.874502 73.603837 289.297387 72.210558 288.27026 71.18343 
C 287.243133 70.156303 285.849854 69.579188 284.397276 69.579188 
C 282.944699 69.579188 281.55142 70.156303 280.524293 71.18343 
C 279.497166 72.210558 278.920051 73.603837 278.920051 75.056414 
C 278.920051 76.508991 279.497166 77.90227 280.524293 78.929397 
C 281.55142 79.956524 282.944699 80.533639 284.397276 80.533639 
z
" clip-path="url(#pd623c71e2a)" style="fill: #add8e6; stroke: #add8e6"/>
    <path d="M 224.427407 279.46617 
C 226.206443 279.46617 227.912854 278.759351 229.170823 277.501383 
C 230.428792 276.243414 231.135611 274.537003 231.135611 272.757966 
C 231.135611 270.97893 230.428792 269.272518 229.170823 268.01455 
C 227.912854 266.756581 226.206443 266.049762 224.427407 266.049762 
C 222.64837 266.049762 220.941959 266.756581 219.68399 268.01455 
C 218.426021 269.272518 217.719203 270.97893 217.719203 272.757966 
C 217.719203 274.537003 218.426021 276.243414 219.68399 277.501383 
C 220.941959 278.759351 222.64837 279.46617 224.427407 279.46617 
z
" clip-path="url(#pd623c71e2a)" style="fill: #add8e6; stroke: #add8e6"/>
    <path d="M 325.880107 126.732824 
C 326.907235 126.732824 327.892432 126.324742 328.61872 125.598453 
C 329.345009 124.872165 329.753091 123.886968 329.753091 122.859841 
C 329.753091 121.832713 329.345009 120.847516 328.61872 120.121228 
C 327.892432 119.394939 326.907235 118.986857 325.880107 118.986857 
C 324.85298 118.986857 323.867783 119.394939 323.141495 120.121228 
C 322.415206 120.847516 322.007124 121.832713 322.007124 122.859841 
C 322.007124 123.886968 322.415206 124.872165 323.141495 125.598453 
C 323.867783 126.324742 324.85298 126.732824 325.880107 126.732824 
z
" clip-path="url(#pd623c71e2a)" style="fill: #add8e6; stroke: #add8e6"/>
    <path d="M 348.214427 226.426411 
C 349.472396 226.426411 350.679011 225.926615 351.568529 225.037097 
C 352.458047 224.147578 352.957843 222.940963 352.957843 221.682995 
C 352.957843 220.425026 352.458047 219.218411 351.568529 218.328893 
C 350.679011 217.439374 349.472396 216.939578 348.214427 216.939578 
C 346.956458 216.939578 345.749843 217.439374 344.860325 218.328893 
C 343.970807 219.218411 343.47101 220.425026 343.47101 221.682995 
C 343.47101 222.940963 343.970807 224.147578 344.860325 225.037097 
C 345.749843 225.926615 346.956458 226.426411 348.214427 226.426411 
z
" clip-path="url(#pd623c71e2a)" style="fill: #add8e6; stroke: #add8e6"/>
    <path d="M 146.301416 144.608787 
C 147.559385 144.608787 148.765999 144.10899 149.655518 143.219472 
C 150.545036 142.329954 151.044832 141.123339 151.044832 139.86537 
C 151.044832 138.607401 150.545036 137.400786 149.655518 136.511268 
C 148.765999 135.62175 147.559385 135.121954 146.301416 135.121954 
C 145.043447 135.121954 143.836832 135.62175 142.947314 136.511268 
C 142.057796 137.400786 141.557999 138.607401 141.557999 139.86537 
C 141.557999 141.123339 142.057796 142.329954 142.947314 143.219472 
C 143.836832 144.10899 145.043447 144.608787 146.301416 144.608787 
z
" clip-path="url(#pd623c71e2a)" style="fill: #add8e6; stroke: #add8e6"/>
    <path d="M 263.600998 72.632723 
C 264.327286 72.632723 265.023926 72.344165 265.537489 71.830602 
C 266.051053 71.317038 266.33961 70.620399 266.33961 69.89411 
C 266.33961 69.167822 266.051053 68.471182 265.537489 67.957618 
C 265.023926 67.444055 264.327286 67.155497 263.600998 67.155497 
C 262.874709 67.155497 262.17807 67.444055 261.664506 67.957618 
C 261.150942 68.471182 260.862385 69.167822 260.862385 69.89411 
C 260.862385 70.620399 261.150942 71.317038 261.664506 71.830602 
C 262.17807 72.344165 262.874709 72.632723 263.600998 72.632723 
z
" clip-path="url(#pd623c71e2a)" style="fill: #add8e6; stroke: #add8e6"/>
    <path d="M 214.707368 209.355806 
C 215.433657 209.355806 216.130296 209.067248 216.64386 208.553685 
C 217.157423 208.040121 217.445981 207.343482 217.445981 206.617193 
C 217.445981 205.890904 217.157423 205.194265 216.64386 204.680701 
C 216.130296 204.167138 215.433657 203.87858 214.707368 203.87858 
C 213.98108 203.87858 213.28444 204.167138 212.770877 204.680701 
C 212.257313 205.194265 211.968755 205.890904 211.968755 206.617193 
C 211.968755 207.343482 212.257313 208.040121 212.770877 208.553685 
C 213.28444 209.067248 213.98108 209.355806 214.707368 209.355806 
z
" clip-path="url(#pd623c71e2a)" style="fill: #add8e6; stroke: #add8e6"/>
    <path d="M 385.285996 228.407059 
C 386.012285 228.407059 386.708924 228.118501 387.222488 227.604937 
C 387.736051 227.091374 388.024609 226.394734 388.024609 225.668446 
C 388.024609 224.942157 387.736051 224.245518 387.222488 223.731954 
C 386.708924 223.21839 386.012285 222.929833 385.285996 222.929833 
C 384.559707 222.929833 383.863068 223.21839 383.349504 223.731954 
C 382.835941 224.245518 382.547383 224.942157 382.547383 225.668446 
C 382.547383 226.394734 382.835941 227.091374 383.349504 227.604937 
C 383.863068 228.118501 384.559707 228.407059 385.285996 228.407059 
z
" clip-path="url(#pd623c71e2a)" style="fill: #add8e6; stroke: #add8e6"/>
    <path d="M 362.276769 129.709424 
C 363.003058 129.709424 363.699697 129.420867 364.213261 128.907303 
C 364.726824 128.39374 365.015382 127.6971 365.015382 126.970812 
C 365.015382 126.244523 364.726824 125.547884 364.213261 125.03432 
C 363.699697 124.520756 363.003058 124.232199 362.276769 124.232199 
C 361.550481 124.232199 360.853841 124.520756 360.340278 125.03432 
C 359.826714 125.547884 359.538156 126.244523 359.538156 126.970812 
C 359.538156 127.6971 359.826714 128.39374 360.340278 128.907303 
C 360.853841 129.420867 361.550481 129.709424 362.276769 129.709424 
z
" clip-path="url(#pd623c71e2a)" style="fill: #add8e6; stroke: #add8e6"/>
    <path d="M 186.849608 239.219335 
C 187.575896 239.219335 188.272536 238.930778 188.7861 238.417214 
C 189.299663 237.90365 189.588221 237.207011 189.588221 236.480722 
C 189.588221 235.754434 189.299663 235.057794 188.7861 234.544231 
C 188.272536 234.030667 187.575896 233.74211 186.849608 233.74211 
C 186.123319 233.74211 185.42668 234.030667 184.913116 234.544231 
C 184.399553 235.057794 184.110995 235.754434 184.110995 236.480722 
C 184.110995 237.207011 184.399553 237.90365 184.913116 238.417214 
C 185.42668 238.930778 186.123319 239.219335 186.849608 239.219335 
z
" clip-path="url(#pd623c71e2a)" style="fill: #add8e6; stroke: #add8e6"/>
    <path d="M 224.180582 303.402167 
C 225.20771 303.402167 226.192907 302.994085 226.919195 302.267796 
C 227.645484 301.541508 228.053566 300.556311 228.053566 299.529184 
C 228.053566 298.502057 227.645484 297.51686 226.919195 296.790571 
C 226.192907 296.064282 225.20771 295.6562 224.180582 295.6562 
C 223.153455 295.6562 222.168258 296.064282 221.44197 296.790571 
C 220.715681 297.51686 220.307599 298.502057 220.307599 299.529184 
C 220.307599 300.556311 220.715681 301.541508 221.44197 302.267796 
C 222.168258 302.994085 223.153455 303.402167 224.180582 303.402167 
z
" clip-path="url(#pd623c71e2a)" style="fill: #add8e6; stroke: #add8e6"/>
    <path d="M 383.777779 219.174755 
C 384.504067 219.174755 385.200707 218.886197 385.714271 218.372634 
C 386.227834 217.85907 386.516392 217.162431 386.516392 216.436142 
C 386.516392 215.709853 386.227834 215.013214 385.714271 214.49965 
C 385.200707 213.986087 384.504067 213.697529 383.777779 213.697529 
C 383.05149 213.697529 382.354851 213.986087 381.841287 214.49965 
C 381.327724 215.013214 381.039166 215.709853 381.039166 216.436142 
C 381.039166 217.162431 381.327724 217.85907 381.841287 218.372634 
C 382.354851 218.886197 383.05149 219.174755 383.777779 219.174755 
z
" clip-path="url(#pd623c71e2a)" style="fill: #add8e6; stroke: #add8e6"/>
    <path d="M 240.916284 156.740998 
C 241.943411 156.740998 242.928608 156.332916 243.654897 155.606627 
C 244.381185 154.880338 244.789267 153.895141 244.789267 152.868014 
C 244.789267 151.840887 244.381185 150.85569 243.654897 150.129401 
C 242.928608 149.403113 241.943411 148.995031 240.916284 148.995031 
C 239.889157 148.995031 238.90396 149.403113 238.177671 150.129401 
C 237.451383 150.85569 237.043301 151.840887 237.043301 152.868014 
C 237.043301 153.895141 237.451383 154.880338 238.177671 155.606627 
C 238.90396 156.332916 239.889157 156.740998 240.916284 156.740998 
z
" clip-path="url(#pd623c71e2a)" style="fill: #add8e6; stroke: #add8e6"/>
    <path d="M 204.15479 239.497982 
C 204.881079 239.497982 205.577718 239.209424 206.091282 238.695861 
C 206.604846 238.182297 206.893403 237.485657 206.893403 236.759369 
C 206.893403 236.03308 206.604846 235.336441 206.091282 234.822877 
C 205.577718 234.309314 204.881079 234.020756 204.15479 234.020756 
C 203.428502 234.020756 202.731862 234.309314 202.218299 234.822877 
C 201.704735 235.336441 201.416178 236.03308 201.416178 236.759369 
C 201.416178 237.485657 201.704735 238.182297 202.218299 238.695861 
C 202.731862 239.209424 203.428502 239.497982 204.15479 239.497982 
z
" clip-path="url(#pd623c71e2a)" style="fill: #add8e6; stroke: #add8e6"/>
    <path d="M 136.653434 90.626837 
C 137.379723 90.626837 138.076362 90.338279 138.589926 89.824716 
C 139.103489 89.311152 139.392047 88.614513 139.392047 87.888224 
C 139.392047 87.161935 139.103489 86.465296 138.589926 85.951732 
C 138.076362 85.438169 137.379723 85.149611 136.653434 85.149611 
C 135.927145 85.149611 135.230506 85.438169 134.716942 85.951732 
C 134.203379 86.465296 133.914821 87.161935 133.914821 87.888224 
C 133.914821 88.614513 134.203379 89.311152 134.716942 89.824716 
C 135.230506 90.338279 135.927145 90.626837 136.653434 90.626837 
z
" clip-path="url(#pd623c71e2a)" style="fill: #add8e6; stroke: #add8e6"/>
    <path d="M 174.733981 232.992945 
C 175.46027 232.992945 176.156909 232.704388 176.670473 232.190824 
C 177.184036 231.677261 177.472594 230.980621 177.472594 230.254333 
C 177.472594 229.528044 177.184036 228.831405 176.670473 228.317841 
C 176.156909 227.804277 175.46027 227.51572 174.733981 227.51572 
C 174.007693 227.51572 173.311053 227.804277 172.79749 228.317841 
C 172.283926 228.831405 171.995368 229.528044 171.995368 230.254333 
C 171.995368 230.980621 172.283926 231.677261 172.79749 232.190824 
C 173.311053 232.704388 174.007693 232.992945 174.733981 232.992945 
z
" clip-path="url(#pd623c71e2a)" style="fill: #add8e6; stroke: #add8e6"/>
    <path d="M 344.281531 238.582389 
C 345.308658 238.582389 346.293855 238.174307 347.020143 237.448018 
C 347.746432 236.721729 348.154514 235.736532 348.154514 234.709405 
C 348.154514 233.682278 347.746432 232.697081 347.020143 231.970792 
C 346.293855 231.244504 345.308658 230.836422 344.281531 230.836422 
C 343.254403 230.836422 342.269206 231.244504 341.542918 231.970792 
C 340.816629 232.697081 340.408547 233.682278 340.408547 234.709405 
C 340.408547 235.736532 340.816629 236.721729 341.542918 237.448018 
C 342.269206 238.174307 343.254403 238.582389 344.281531 238.582389 
z
" clip-path="url(#pd623c71e2a)" style="fill: #add8e6; stroke: #add8e6"/>
    <path d="M 241.061901 288.515745 
C 241.78819 288.515745 242.484829 288.227187 242.998393 287.713624 
C 243.511957 287.20006 243.800514 286.503421 243.800514 285.777132 
C 243.800514 285.050843 243.511957 284.354204 242.998393 283.84064 
C 242.484829 283.327077 241.78819 283.038519 241.061901 283.038519 
C 240.335613 283.038519 239.638973 283.327077 239.12541 283.84064 
C 238.611846 284.354204 238.323289 285.050843 238.323289 285.777132 
C 238.323289 286.503421 238.611846 287.20006 239.12541 287.713624 
C 239.638973 288.227187 240.335613 288.515745 241.061901 288.515745 
z
" clip-path="url(#pd623c71e2a)" style="fill: #add8e6; stroke: #add8e6"/>
    <path d="M 91.614395 130.147352 
C 92.872363 130.147352 94.078978 129.647555 94.968497 128.758037 
C 95.858015 127.868519 96.357811 126.661904 96.357811 125.403935 
C 96.357811 124.145967 95.858015 122.939352 94.968497 122.049833 
C 94.078978 121.160315 92.872363 120.660519 91.614395 120.660519 
C 90.356426 120.660519 89.149811 121.160315 88.260293 122.049833 
C 87.370774 122.939352 86.870978 124.145967 86.870978 125.403935 
C 86.870978 126.661904 87.370774 127.868519 88.260293 128.758037 
C 89.149811 129.647555 90.356426 130.147352 91.614395 130.147352 
z
" clip-path="url(#pd623c71e2a)" style="fill: #add8e6; stroke: #add8e6"/>
    <path d="M 302.873888 115.426612 
C 303.600177 115.426612 304.296816 115.138055 304.81038 114.624491 
C 305.323944 114.110927 305.612501 113.414288 305.612501 112.687999 
C 305.612501 111.961711 305.323944 111.265071 304.81038 110.751508 
C 304.296816 110.237944 303.600177 109.949387 302.873888 109.949387 
C 302.1476 109.949387 301.45096 110.237944 300.937397 110.751508 
C 300.423833 111.265071 300.135276 111.961711 300.135276 112.687999 
C 300.135276 113.414288 300.423833 114.110927 300.937397 114.624491 
C 301.45096 115.138055 302.1476 115.426612 302.873888 115.426612 
z
" clip-path="url(#pd623c71e2a)" style="fill: #add8e6; stroke: #add8e6"/>
    <path d="M 286.135104 102.375515 
C 286.861392 102.375515 287.558032 102.086957 288.071596 101.573394 
C 288.585159 101.05983 288.873717 100.363191 288.873717 99.636902 
C 288.873717 98.910614 288.585159 98.213974 288.071596 97.70041 
C 287.558032 97.186847 286.861392 96.898289 286.135104 96.898289 
C 285.408815 96.898289 284.712176 97.186847 284.198612 97.70041 
C 283.685049 98.213974 283.396491 98.910614 283.396491 99.636902 
C 283.396491 100.363191 283.685049 101.05983 284.198612 101.573394 
C 284.712176 102.086957 285.408815 102.375515 286.135104 102.375515 
z
" clip-path="url(#pd623c71e2a)" style="fill: #add8e6; stroke: #add8e6"/>
    <path d="M 330.799424 112.963226 
C 331.826551 112.963226 332.811748 112.555144 333.538036 111.828855 
C 334.264325 111.102566 334.672407 110.117369 334.672407 109.090242 
C 334.672407 108.063115 334.264325 107.077918 333.538036 106.351629 
C 332.811748 105.625341 331.826551 105.217259 330.799424 105.217259 
C 329.772296 105.217259 328.787099 105.625341 328.060811 106.351629 
C 327.334522 107.077918 326.92644 108.063115 326.92644 109.090242 
C 326.92644 110.117369 327.334522 111.102566 328.060811 111.828855 
C 328.787099 112.555144 329.772296 112.963226 330.799424 112.963226 
z
" clip-path="url(#pd623c71e2a)" style="fill: #add8e6; stroke: #add8e6"/>
    <path d="M 277.763357 306.3062 
C 279.387388 306.3062 280.945121 305.660966 282.093484 304.512603 
C 283.241847 303.36424 283.887081 301.806506 283.887081 300.182476 
C 283.887081 298.558445 283.241847 297.000712 282.093484 295.852349 
C 280.945121 294.703986 279.387388 294.058751 277.763357 294.058751 
C 276.139326 294.058751 274.581593 294.703986 273.43323 295.852349 
C 272.284867 297.000712 271.639632 298.558445 271.639632 300.182476 
C 271.639632 301.806506 272.284867 303.36424 273.43323 304.512603 
C 274.581593 305.660966 276.139326 306.3062 277.763357 306.3062 
z
" clip-path="url(#pd623c71e2a)" style="fill: #add8e6; stroke: #add8e6"/>
    <path d="M 242.155058 68.26015 
C 243.182185 68.26015 244.167382 67.852068 244.89367 67.12578 
C 245.619959 66.399491 246.028041 65.414294 246.028041 64.387167 
C 246.028041 63.36004 245.619959 62.374843 244.89367 61.648554 
C 244.167382 60.922265 243.182185 60.514184 242.155058 60.514184 
C 241.12793 60.514184 240.142733 60.922265 239.416445 61.648554 
C 238.690156 62.374843 238.282074 63.36004 238.282074 64.387167 
C 238.282074 65.414294 238.690156 66.399491 239.416445 67.12578 
C 240.142733 67.852068 241.12793 68.26015 242.155058 68.26015 
z
" clip-path="url(#pd623c71e2a)" style="fill: #add8e6; stroke: #add8e6"/>
    <path d="M 166.884073 224.421467 
C 167.610361 224.421467 168.307001 224.132909 168.820564 223.619346 
C 169.334128 223.105782 169.622686 222.409143 169.622686 221.682854 
C 169.622686 220.956566 169.334128 220.259926 168.820564 219.746362 
C 168.307001 219.232799 167.610361 218.944241 166.884073 218.944241 
C 166.157784 218.944241 165.461145 219.232799 164.947581 219.746362 
C 164.434018 220.259926 164.14546 220.956566 164.14546 221.682854 
C 164.14546 222.409143 164.434018 223.105782 164.947581 223.619346 
C 165.461145 224.132909 166.157784 224.421467 166.884073 224.421467 
z
" clip-path="url(#pd623c71e2a)" style="fill: #add8e6; stroke: #add8e6"/>
    <path d="M 320.933786 51.520311 
C 322.557816 51.520311 324.115549 50.875077 325.263913 49.726714 
C 326.412276 48.578351 327.05751 47.020617 327.05751 45.396587 
C 327.05751 43.772556 326.412276 42.214823 325.263913 41.06646 
C 324.115549 39.918097 322.557816 39.272862 320.933786 39.272862 
C 319.309755 39.272862 317.752022 39.918097 316.603659 41.06646 
C 315.455295 42.214823 314.810061 43.772556 314.810061 45.396587 
C 314.810061 47.020617 315.455295 48.578351 316.603659 49.726714 
C 317.752022 50.875077 319.309755 51.520311 320.933786 51.520311 
z
" clip-path="url(#pd623c71e2a)" style="fill: #add8e6; stroke: #add8e6"/>
    <path d="M 117.745832 136.383064 
C 118.47212 136.383064 119.16876 136.094506 119.682323 135.580943 
C 120.195887 135.067379 120.484444 134.370739 120.484444 133.644451 
C 120.484444 132.918162 120.195887 132.221523 119.682323 131.707959 
C 119.16876 131.194396 118.47212 130.905838 117.745832 130.905838 
C 117.019543 130.905838 116.322904 131.194396 115.80934 131.707959 
C 115.295776 132.221523 115.007219 132.918162 115.007219 133.644451 
C 115.007219 134.370739 115.295776 135.067379 115.80934 135.580943 
C 116.322904 136.094506 117.019543 136.383064 117.745832 136.383064 
z
" clip-path="url(#pd623c71e2a)" style="fill: #add8e6; stroke: #add8e6"/>
    <path d="M 71.85355 226.272324 
C 72.880677 226.272324 73.865874 225.864242 74.592163 225.137954 
C 75.318451 224.411665 75.726533 223.426468 75.726533 222.399341 
C 75.726533 221.372214 75.318451 220.387017 74.592163 219.660728 
C 73.865874 218.934439 72.880677 218.526358 71.85355 218.526358 
C 70.826423 218.526358 69.841226 218.934439 69.114937 219.660728 
C 68.388649 220.387017 67.980567 221.372214 67.980567 222.399341 
C 67.980567 223.426468 68.388649 224.411665 69.114937 225.137954 
C 69.841226 225.864242 70.826423 226.272324 71.85355 226.272324 
z
" clip-path="url(#pd623c71e2a)" style="fill: #add8e6; stroke: #add8e6"/>
    <path d="M 191.80891 207.319582 
C 192.535198 207.319582 193.231838 207.031024 193.745402 206.517461 
C 194.258965 206.003897 194.547523 205.307258 194.547523 204.580969 
C 194.547523 203.85468 194.258965 203.158041 193.745402 202.644477 
C 193.231838 202.130914 192.535198 201.842356 191.80891 201.842356 
C 191.082621 201.842356 190.385982 202.130914 189.872418 202.644477 
C 189.358855 203.158041 189.070297 203.85468 189.070297 204.580969 
C 189.070297 205.307258 189.358855 206.003897 189.872418 206.517461 
C 190.385982 207.031024 191.082621 207.319582 191.80891 207.319582 
z
" clip-path="url(#pd623c71e2a)" style="fill: #add8e6; stroke: #add8e6"/>
    <path d="M 221.994706 322.054755 
C 222.720994 322.054755 223.417634 321.766197 223.931197 321.252634 
C 224.444761 320.73907 224.733318 320.042431 224.733318 319.316142 
C 224.733318 318.589854 224.444761 317.893214 223.931197 317.37965 
C 223.417634 316.866087 222.720994 316.577529 221.994706 316.577529 
C 221.268417 316.577529 220.571777 316.866087 220.058214 317.37965 
C 219.54465 317.893214 219.256093 318.589854 219.256093 319.316142 
C 219.256093 320.042431 219.54465 320.73907 220.058214 321.252634 
C 220.571777 321.766197 221.268417 322.054755 221.994706 322.054755 
z
" clip-path="url(#pd623c71e2a)" style="fill: #add8e6; stroke: #add8e6"/>
    <path d="M 174.100288 213.922081 
C 174.826576 213.922081 175.523216 213.633524 176.036779 213.11996 
C 176.550343 212.606396 176.8389 211.909757 176.8389 211.183468 
C 176.8389 210.45718 176.550343 209.76054 176.036779 209.246977 
C 175.523216 208.733413 174.826576 208.444856 174.100288 208.444856 
C 173.373999 208.444856 172.67736 208.733413 172.163796 209.246977 
C 171.650232 209.76054 171.361675 210.45718 171.361675 211.183468 
C 171.361675 211.909757 171.650232 212.606396 172.163796 213.11996 
C 172.67736 213.633524 173.373999 213.922081 174.100288 213.922081 
z
" clip-path="url(#pd623c71e2a)" style="fill: #add8e6; stroke: #add8e6"/>
    <path d="M 154.078838 86.579712 
C 154.805126 86.579712 155.501766 86.291154 156.015329 85.777591 
C 156.528893 85.264027 156.81745 84.567388 156.81745 83.841099 
C 156.81745 83.11481 156.528893 82.418171 156.015329 81.904607 
C 155.501766 81.391044 154.805126 81.102486 154.078838 81.102486 
C 153.352549 81.102486 152.65591 81.391044 152.142346 81.904607 
C 151.628782 82.418171 151.340225 83.11481 151.340225 83.841099 
C 151.340225 84.567388 151.628782 85.264027 152.142346 85.777591 
C 152.65591 86.291154 153.352549 86.579712 154.078838 86.579712 
z
" clip-path="url(#pd623c71e2a)" style="fill: #add8e6; stroke: #add8e6"/>
    <path d="M 296.996213 321.338047 
C 297.722502 321.338047 298.419142 321.04949 298.932705 320.535926 
C 299.446269 320.022362 299.734826 319.325723 299.734826 318.599434 
C 299.734826 317.873146 299.446269 317.176506 298.932705 316.662943 
C 298.419142 316.149379 297.722502 315.860822 296.996213 315.860822 
C 296.269925 315.860822 295.573285 316.149379 295.059722 316.662943 
C 294.546158 317.176506 294.257601 317.873146 294.257601 318.599434 
C 294.257601 319.325723 294.546158 320.022362 295.059722 320.535926 
C 295.573285 321.04949 296.269925 321.338047 296.996213 321.338047 
z
" clip-path="url(#pd623c71e2a)" style="fill: #add8e6; stroke: #add8e6"/>
    <path d="M 313.469232 308.012673 
C 314.195521 308.012673 314.892161 307.724116 315.405724 307.210552 
C 315.919288 306.696989 316.207845 306.000349 316.207845 305.274061 
C 316.207845 304.547772 315.919288 303.851133 315.405724 303.337569 
C 314.892161 302.824005 314.195521 302.535448 313.469232 302.535448 
C 312.742944 302.535448 312.046304 302.824005 311.532741 303.337569 
C 311.019177 303.851133 310.73062 304.547772 310.73062 305.274061 
C 310.73062 306.000349 311.019177 306.696989 311.532741 307.210552 
C 312.046304 307.724116 312.742944 308.012673 313.469232 308.012673 
z
" clip-path="url(#pd623c71e2a)" style="fill: #add8e6; stroke: #add8e6"/>
    <path d="M 220.025874 235.581866 
C 220.752163 235.581866 221.448803 235.293308 221.962366 234.779745 
C 222.47593 234.266181 222.764487 233.569542 222.764487 232.843253 
C 222.764487 232.116964 222.47593 231.420325 221.962366 230.906761 
C 221.448803 230.393198 220.752163 230.10464 220.025874 230.10464 
C 219.299586 230.10464 218.602946 230.393198 218.089383 230.906761 
C 217.575819 231.420325 217.287262 232.116964 217.287262 232.843253 
C 217.287262 233.569542 217.575819 234.266181 218.089383 234.779745 
C 218.602946 235.293308 219.299586 235.581866 220.025874 235.581866 
z
" clip-path="url(#pd623c71e2a)" style="fill: #add8e6; stroke: #add8e6"/>
    <path d="M 279.534557 322.57608 
C 280.260846 322.57608 280.957485 322.287523 281.471049 321.773959 
C 281.984613 321.260395 282.27317 320.563756 282.27317 319.837467 
C 282.27317 319.111179 281.984613 318.414539 281.471049 317.900976 
C 280.957485 317.387412 280.260846 317.098855 279.534557 317.098855 
C 278.808269 317.098855 278.111629 317.387412 277.598066 317.900976 
C 277.084502 318.414539 276.795944 319.111179 276.795944 319.837467 
C 276.795944 320.563756 277.084502 321.260395 277.598066 321.773959 
C 278.111629 322.287523 278.808269 322.57608 279.534557 322.57608 
z
" clip-path="url(#pd623c71e2a)" style="fill: #add8e6; stroke: #add8e6"/>
    <path d="M 307.09185 314.995067 
C 307.818138 314.995067 308.514778 314.706509 309.028341 314.192946 
C 309.541905 313.679382 309.830462 312.982743 309.830462 312.256454 
C 309.830462 311.530166 309.541905 310.833526 309.028341 310.319962 
C 308.514778 309.806399 307.818138 309.517841 307.09185 309.517841 
C 306.365561 309.517841 305.668922 309.806399 305.155358 310.319962 
C 304.641794 310.833526 304.353237 311.530166 304.353237 312.256454 
C 304.353237 312.982743 304.641794 313.679382 305.155358 314.192946 
C 305.668922 314.706509 306.365561 314.995067 307.09185 314.995067 
z
" clip-path="url(#pd623c71e2a)" style="fill: #add8e6; stroke: #add8e6"/>
    <path d="M 352.333627 49.043214 
C 353.059916 49.043214 353.756555 48.754657 354.270119 48.241093 
C 354.783682 47.72753 355.07224 47.03089 355.07224 46.304602 
C 355.07224 45.578313 354.783682 44.881674 354.270119 44.36811 
C 353.756555 43.854546 353.059916 43.565989 352.333627 43.565989 
C 351.607338 43.565989 350.910699 43.854546 350.397135 44.36811 
C 349.883572 44.881674 349.595014 45.578313 349.595014 46.304602 
C 349.595014 47.03089 349.883572 47.72753 350.397135 48.241093 
C 350.910699 48.754657 351.607338 49.043214 352.333627 49.043214 
z
" clip-path="url(#pd623c71e2a)" style="fill: #add8e6; stroke: #add8e6"/>
    <path d="M 196.945041 300.937654 
C 197.972169 300.937654 198.957366 300.529573 199.683654 299.803284 
C 200.409943 299.076995 200.818025 298.091798 200.818025 297.064671 
C 200.818025 296.037544 200.409943 295.052347 199.683654 294.326058 
C 198.957366 293.59977 197.972169 293.191688 196.945041 293.191688 
C 195.917914 293.191688 194.932717 293.59977 194.206429 294.326058 
C 193.48014 295.052347 193.072058 296.037544 193.072058 297.064671 
C 193.072058 298.091798 193.48014 299.076995 194.206429 299.803284 
C 194.932717 300.529573 195.917914 300.937654 196.945041 300.937654 
z
" clip-path="url(#pd623c71e2a)" style="fill: #add8e6; stroke: #add8e6"/>
    <path d="M 54.383554 123.807057 
C 55.109843 123.807057 55.806482 123.5185 56.320046 123.004936 
C 56.833609 122.491372 57.122167 121.794733 57.122167 121.068444 
C 57.122167 120.342156 56.833609 119.645516 56.320046 119.131953 
C 55.806482 118.618389 55.109843 118.329831 54.383554 118.329831 
C 53.657265 118.329831 52.960626 118.618389 52.447062 119.131953 
C 51.933499 119.645516 51.644941 120.342156 51.644941 121.068444 
C 51.644941 121.794733 51.933499 122.491372 52.447062 123.004936 
C 52.960626 123.5185 53.657265 123.807057 54.383554 123.807057 
z
" clip-path="url(#pd623c71e2a)" style="fill: #add8e6; stroke: #add8e6"/>
    <path d="M 393.529685 247.572038 
C 394.556812 247.572038 395.542009 247.163956 396.268298 246.437668 
C 396.994587 245.711379 397.402669 244.726182 397.402669 243.699055 
C 397.402669 242.671928 396.994587 241.686731 396.268298 240.960442 
C 395.542009 240.234153 394.556812 239.826071 393.529685 239.826071 
C 392.502558 239.826071 391.517361 240.234153 390.791072 240.960442 
C 390.064784 241.686731 389.656702 242.671928 389.656702 243.699055 
C 389.656702 244.726182 390.064784 245.711379 390.791072 246.437668 
C 391.517361 247.163956 392.502558 247.572038 393.529685 247.572038 
z
" clip-path="url(#pd623c71e2a)" style="fill: #add8e6; stroke: #add8e6"/>
    <path d="M 336.924373 29.118494 
C 337.650662 29.118494 338.347301 28.829937 338.860865 28.316373 
C 339.374428 27.802809 339.662986 27.10617 339.662986 26.379881 
C 339.662986 25.653593 339.374428 24.956953 338.860865 24.44339 
C 338.347301 23.929826 337.650662 23.641269 336.924373 23.641269 
C 336.198085 23.641269 335.501445 23.929826 334.987882 24.44339 
C 334.474318 24.956953 334.18576 25.653593 334.18576 26.379881 
C 334.18576 27.10617 334.474318 27.802809 334.987882 28.316373 
C 335.501445 28.829937 336.198085 29.118494 336.924373 29.118494 
z
" clip-path="url(#pd623c71e2a)" style="fill: #add8e6; stroke: #add8e6"/>
    <path d="M 209.945745 59.483041 
C 210.672034 59.483041 211.368673 59.194483 211.882237 58.68092 
C 212.3958 58.167356 212.684358 57.470716 212.684358 56.744428 
C 212.684358 56.018139 212.3958 55.3215 211.882237 54.807936 
C 211.368673 54.294373 210.672034 54.005815 209.945745 54.005815 
C 209.219457 54.005815 208.522817 54.294373 208.009253 54.807936 
C 207.49569 55.3215 207.207132 56.018139 207.207132 56.744428 
C 207.207132 57.470716 207.49569 58.167356 208.009253 58.68092 
C 208.522817 59.194483 209.219457 59.483041 209.945745 59.483041 
z
" clip-path="url(#pd623c71e2a)" style="fill: #add8e6; stroke: #add8e6"/>
    <path d="M 178.337693 318.047821 
C 179.063982 318.047821 179.760622 317.759264 180.274185 317.2457 
C 180.787749 316.732136 181.076306 316.035497 181.076306 315.309208 
C 181.076306 314.58292 180.787749 313.88628 180.274185 313.372717 
C 179.760622 312.859153 179.063982 312.570596 178.337693 312.570596 
C 177.611405 312.570596 176.914765 312.859153 176.401202 313.372717 
C 175.887638 313.88628 175.599081 314.58292 175.599081 315.309208 
C 175.599081 316.035497 175.887638 316.732136 176.401202 317.2457 
C 176.914765 317.759264 177.611405 318.047821 178.337693 318.047821 
z
" clip-path="url(#pd623c71e2a)" style="fill: #add8e6; stroke: #add8e6"/>
    <path d="M 145.562937 245.306936 
C 146.820906 245.306936 148.027521 244.80714 148.917039 243.917622 
C 149.806557 243.028104 150.306353 241.821489 150.306353 240.56352 
C 150.306353 239.305551 149.806557 238.098936 148.917039 237.209418 
C 148.027521 236.3199 146.820906 235.820103 145.562937 235.820103 
C 144.304968 235.820103 143.098353 236.3199 142.208835 237.209418 
C 141.319317 238.098936 140.81952 239.305551 140.81952 240.56352 
C 140.81952 241.821489 141.319317 243.028104 142.208835 243.917622 
C 143.098353 244.80714 144.304968 245.306936 145.562937 245.306936 
z
" clip-path="url(#pd623c71e2a)" style="fill: #add8e6; stroke: #add8e6"/>
    <path d="M 429.717456 252.975104 
C 430.443744 252.975104 431.140384 252.686547 431.653947 252.172983 
C 432.167511 251.65942 432.456068 250.96278 432.456068 250.236491 
C 432.456068 249.510203 432.167511 248.813563 431.653947 248.3 
C 431.140384 247.786436 430.443744 247.497879 429.717456 247.497879 
C 428.991167 247.497879 428.294528 247.786436 427.780964 248.3 
C 427.2674 248.813563 426.978843 249.510203 426.978843 250.236491 
C 426.978843 250.96278 427.2674 251.65942 427.780964 252.172983 
C 428.294528 252.686547 428.991167 252.975104 429.717456 252.975104 
z
" clip-path="url(#pd623c71e2a)" style="fill: #add8e6; stroke: #add8e6"/>
    <path d="M 31.082544 227.11998 
C 31.808833 227.11998 32.505472 226.831423 33.019036 226.317859 
C 33.5326 225.804295 33.821157 225.107656 33.821157 224.381367 
C 33.821157 223.655079 33.5326 222.958439 33.019036 222.444876 
C 32.505472 221.931312 31.808833 221.642754 31.082544 221.642754 
C 30.356256 221.642754 29.659616 221.931312 29.146053 222.444876 
C 28.632489 222.958439 28.343932 223.655079 28.343932 224.381367 
C 28.343932 225.107656 28.632489 225.804295 29.146053 226.317859 
C 29.659616 226.831423 30.356256 227.11998 31.082544 227.11998 
z
" clip-path="url(#pd623c71e2a)" style="fill: #add8e6; stroke: #add8e6"/>
    <path d="M 267.020592 154.650418 
C 267.746881 154.650418 268.443521 154.361861 268.957084 153.848297 
C 269.470648 153.334733 269.759205 152.638094 269.759205 151.911805 
C 269.759205 151.185517 269.470648 150.488877 268.957084 149.975314 
C 268.443521 149.46175 267.746881 149.173193 267.020592 149.173193 
C 266.294304 149.173193 265.597664 149.46175 265.084101 149.975314 
C 264.570537 150.488877 264.28198 151.185517 264.28198 151.911805 
C 264.28198 152.638094 264.570537 153.334733 265.084101 153.848297 
C 265.597664 154.361861 266.294304 154.650418 267.020592 154.650418 
z
" clip-path="url(#pd623c71e2a)" style="fill: #add8e6; stroke: #add8e6"/>
    <path d="M 229.10471 217.555809 
C 229.830999 217.555809 230.527638 217.267252 231.041202 216.753688 
C 231.554766 216.240125 231.843323 215.543485 231.843323 214.817197 
C 231.843323 214.090908 231.554766 213.394269 231.041202 212.880705 
C 230.527638 212.367141 229.830999 212.078584 229.10471 212.078584 
C 228.378422 212.078584 227.681782 212.367141 227.168219 212.880705 
C 226.654655 213.394269 226.366098 214.090908 226.366098 214.817197 
C 226.366098 215.543485 226.654655 216.240125 227.168219 216.753688 
C 227.681782 217.267252 228.378422 217.555809 229.10471 217.555809 
z
" clip-path="url(#pd623c71e2a)" style="fill: #add8e6; stroke: #add8e6"/>
    <path d="M 120.7624 259.645992 
C 121.488689 259.645992 122.185328 259.357435 122.698892 258.843871 
C 123.212455 258.330308 123.501013 257.633668 123.501013 256.907379 
C 123.501013 256.181091 123.212455 255.484451 122.698892 254.970888 
C 122.185328 254.457324 121.488689 254.168767 120.7624 254.168767 
C 120.036112 254.168767 119.339472 254.457324 118.825908 254.970888 
C 118.312345 255.484451 118.023787 256.181091 118.023787 256.907379 
C 118.023787 257.633668 118.312345 258.330308 118.825908 258.843871 
C 119.339472 259.357435 120.036112 259.645992 120.7624 259.645992 
z
" clip-path="url(#pd623c71e2a)" style="fill: #add8e6; stroke: #add8e6"/>
    <path d="M 63.767033 115.114513 
C 64.493322 115.114513 65.189962 114.825956 65.703525 114.312392 
C 66.217089 113.798828 66.505646 113.102189 66.505646 112.3759 
C 66.505646 111.649612 66.217089 110.952972 65.703525 110.439409 
C 65.189962 109.925845 64.493322 109.637288 63.767033 109.637288 
C 63.040745 109.637288 62.344105 109.925845 61.830542 110.439409 
C 61.316978 110.952972 61.028421 111.649612 61.028421 112.3759 
C 61.028421 113.102189 61.316978 113.798828 61.830542 114.312392 
C 62.344105 114.825956 63.040745 115.114513 63.767033 115.114513 
z
" clip-path="url(#pd623c71e2a)" style="fill: #add8e6; stroke: #add8e6"/>
    <path d="M 263.246432 105.69973 
C 263.97272 105.69973 264.66936 105.411172 265.182923 104.897609 
C 265.696487 104.384045 265.985044 103.687406 265.985044 102.961117 
C 265.985044 102.234829 265.696487 101.538189 265.182923 101.024626 
C 264.66936 100.511062 263.97272 100.222504 263.246432 100.222504 
C 262.520143 100.222504 261.823504 100.511062 261.30994 101.024626 
C 260.796376 101.538189 260.507819 102.234829 260.507819 102.961117 
C 260.507819 103.687406 260.796376 104.384045 261.30994 104.897609 
C 261.823504 105.411172 262.520143 105.69973 263.246432 105.69973 
z
" clip-path="url(#pd623c71e2a)" style="fill: #add8e6; stroke: #add8e6"/>
    <path d="M 316.934769 100.788311 
C 317.961897 100.788311 318.947094 100.380229 319.673382 99.653941 
C 320.399671 98.927652 320.807753 97.942455 320.807753 96.915328 
C 320.807753 95.888201 320.399671 94.903004 319.673382 94.176715 
C 318.947094 93.450426 317.961897 93.042344 316.934769 93.042344 
C 315.907642 93.042344 314.922445 93.450426 314.196157 94.176715 
C 313.469868 94.903004 313.061786 95.888201 313.061786 96.915328 
C 313.061786 97.942455 313.469868 98.927652 314.196157 99.653941 
C 314.922445 100.380229 315.907642 100.788311 316.934769 100.788311 
z
" clip-path="url(#pd623c71e2a)" style="fill: #add8e6; stroke: #add8e6"/>
    <path d="M 211.162015 289.098779 
C 211.888304 289.098779 212.584944 288.810221 213.098507 288.296658 
C 213.612071 287.783094 213.900628 287.086455 213.900628 286.360166 
C 213.900628 285.633877 213.612071 284.937238 213.098507 284.423674 
C 212.584944 283.910111 211.888304 283.621553 211.162015 283.621553 
C 210.435727 283.621553 209.739087 283.910111 209.225524 284.423674 
C 208.71196 284.937238 208.423403 285.633877 208.423403 286.360166 
C 208.423403 287.086455 208.71196 287.783094 209.225524 288.296658 
C 209.739087 288.810221 210.435727 289.098779 211.162015 289.098779 
z
" clip-path="url(#pd623c71e2a)" style="fill: #add8e6; stroke: #add8e6"/>
    <path d="M 317.683197 28.501145 
C 318.409485 28.501145 319.106125 28.212588 319.619688 27.699024 
C 320.133252 27.185461 320.421809 26.488821 320.421809 25.762533 
C 320.421809 25.036244 320.133252 24.339605 319.619688 23.826041 
C 319.106125 23.312477 318.409485 23.02392 317.683197 23.02392 
C 316.956908 23.02392 316.260269 23.312477 315.746705 23.826041 
C 315.233141 24.339605 314.944584 25.036244 314.944584 25.762533 
C 314.944584 26.488821 315.233141 27.185461 315.746705 27.699024 
C 316.260269 28.212588 316.956908 28.501145 317.683197 28.501145 
z
" clip-path="url(#pd623c71e2a)" style="fill: #add8e6; stroke: #add8e6"/>
    <path d="M 108.401489 252.237018 
C 109.127777 252.237018 109.824417 251.948461 110.337981 251.434897 
C 110.851544 250.921333 111.140102 250.224694 111.140102 249.498405 
C 111.140102 248.772117 110.851544 248.075477 110.337981 247.561914 
C 109.824417 247.04835 109.127777 246.759793 108.401489 246.759793 
C 107.6752 246.759793 106.978561 247.04835 106.464997 247.561914 
C 105.951434 248.075477 105.662876 248.772117 105.662876 249.498405 
C 105.662876 250.224694 105.951434 250.921333 106.464997 251.434897 
C 106.978561 251.948461 107.6752 252.237018 108.401489 252.237018 
z
" clip-path="url(#pd623c71e2a)" style="fill: #add8e6; stroke: #add8e6"/>
    <path d="M 368.961945 106.921994 
C 369.688234 106.921994 370.384874 106.633436 370.898437 106.119873 
C 371.412001 105.606309 371.700558 104.90967 371.700558 104.183381 
C 371.700558 103.457093 371.412001 102.760453 370.898437 102.246889 
C 370.384874 101.733326 369.688234 101.444768 368.961945 101.444768 
C 368.235657 101.444768 367.539017 101.733326 367.025454 102.246889 
C 366.51189 102.760453 366.223333 103.457093 366.223333 104.183381 
C 366.223333 104.90967 366.51189 105.606309 367.025454 106.119873 
C 367.539017 106.633436 368.235657 106.921994 368.961945 106.921994 
z
" clip-path="url(#pd623c71e2a)" style="fill: #add8e6; stroke: #add8e6"/>
    <path d="M 346.289492 87.458033 
C 347.015781 87.458033 347.71242 87.169476 348.225984 86.655912 
C 348.739547 86.142349 349.028105 85.445709 349.028105 84.719421 
C 349.028105 83.993132 348.739547 83.296492 348.225984 82.782929 
C 347.71242 82.269365 347.015781 81.980808 346.289492 81.980808 
C 345.563203 81.980808 344.866564 82.269365 344.353 82.782929 
C 343.839437 83.296492 343.550879 83.993132 343.550879 84.719421 
C 343.550879 85.445709 343.839437 86.142349 344.353 86.655912 
C 344.866564 87.169476 345.563203 87.458033 346.289492 87.458033 
z
" clip-path="url(#pd623c71e2a)" style="fill: #add8e6; stroke: #add8e6"/>
    <path d="M 348.333553 38.8804 
C 349.059842 38.8804 349.756481 38.591842 350.270045 38.078279 
C 350.783608 37.564715 351.072166 36.868076 351.072166 36.141787 
C 351.072166 35.415499 350.783608 34.718859 350.270045 34.205296 
C 349.756481 33.691732 349.059842 33.403174 348.333553 33.403174 
C 347.607265 33.403174 346.910625 33.691732 346.397062 34.205296 
C 345.883498 34.718859 345.59494 35.415499 345.59494 36.141787 
C 345.59494 36.868076 345.883498 37.564715 346.397062 38.078279 
C 346.910625 38.591842 347.607265 38.8804 348.333553 38.8804 
z
" clip-path="url(#pd623c71e2a)" style="fill: #add8e6; stroke: #add8e6"/>
   </g>
  </g>
 </g>
 <defs>
  <clipPath id="pd623c71e2a">
   <rect x="10.8" y="10.8" width="439.2" height="324"/>
  </clipPath>
 </defs>
</svg>
