<?xml version="1.0" encoding="utf-8" standalone="no"?>
<!DOCTYPE svg PUBLIC "-//W3C//DTD SVG 1.1//EN"
  "http://www.w3.org/Graphics/SVG/1.1/DTD/svg11.dtd">
<svg xmlns:xlink="http://www.w3.org/1999/xlink" width="460.8pt" height="345.6pt" viewBox="0 0 460.8 345.6" xmlns="http://www.w3.org/2000/svg" version="1.1">
 <metadata>
  <rdf:RDF xmlns:dc="http://purl.org/dc/elements/1.1/" xmlns:cc="http://creativecommons.org/ns#" xmlns:rdf="http://www.w3.org/1999/02/22-rdf-syntax-ns#">
   <cc:Work>
    <dc:type rdf:resource="http://purl.org/dc/dcmitype/StillImage"/>
    <dc:date>2022-12-31T16:17:55.230587</dc:date>
    <dc:format>image/svg+xml</dc:format>
    <dc:creator>
     <cc:Agent>
      <dc:title>Matplotlib v3.6.2, https://matplotlib.org/</dc:title>
     </cc:Agent>
    </dc:creator>
   </cc:Work>
  </rdf:RDF>
 </metadata>
 <defs>
  <style type="text/css">*{stroke-linejoin: round; stroke-linecap: butt}</style>
 </defs>
 <g id="figure_1">
  <g id="patch_1">
   <path d="M 0 345.6 
L 460.8 345.6 
L 460.8 0 
L 0 0 
z
" style="fill: #ffffff"/>
  </g>
  <g id="axes_1">
   <g id="LineCollection_1">
    <path d="M 261.102083 113.969314 
L 205.242067 143.173293 
" clip-path="url(#p6be8613911)" style="fill: none; stroke: #000000"/>
    <path d="M 261.102083 113.969314 
L 332.241241 99.961725 
" clip-path="url(#p6be8613911)" style="fill: none; stroke: #000000"/>
    <path d="M 261.102083 113.969314 
L 257.676617 152.187077 
" clip-path="url(#p6be8613911)" style="fill: none; stroke: #000000"/>
    <path d="M 261.102083 113.969314 
L 271.963717 125.589156 
" clip-path="url(#p6be8613911)" style="fill: none; stroke: #000000"/>
    <path d="M 261.102083 113.969314 
L 339.139383 115.042803 
" clip-path="url(#p6be8613911)" style="fill: none; stroke: #000000"/>
    <path d="M 261.102083 113.969314 
L 200.098593 153.374806 
" clip-path="url(#p6be8613911)" style="fill: none; stroke: #000000"/>
    <path d="M 261.102083 113.969314 
L 256.243352 92.572536 
" clip-path="url(#p6be8613911)" style="fill: none; stroke: #000000"/>
    <path d="M 261.102083 113.969314 
L 229.381102 111.55017 
" clip-path="url(#p6be8613911)" style="fill: none; stroke: #000000"/>
    <path d="M 261.102083 113.969314 
L 287.720229 115.279079 
" clip-path="url(#p6be8613911)" style="fill: none; stroke: #000000"/>
    <path d="M 261.102083 113.969314 
L 226.746224 102.40818 
" clip-path="url(#p6be8613911)" style="fill: none; stroke: #000000"/>
    <path d="M 261.102083 113.969314 
L 271.885956 95.066296 
" clip-path="url(#p6be8613911)" style="fill: none; stroke: #000000"/>
    <path d="M 261.102083 113.969314 
L 238.436293 94.719138 
" clip-path="url(#p6be8613911)" style="fill: none; stroke: #000000"/>
    <path d="M 261.102083 113.969314 
L 294.380883 102.163878 
" clip-path="url(#p6be8613911)" style="fill: none; stroke: #000000"/>
    <path d="M 261.102083 113.969314 
L 306.198057 91.882479 
" clip-path="url(#p6be8613911)" style="fill: none; stroke: #000000"/>
    <path d="M 261.102083 113.969314 
L 212.611638 72.90193 
" clip-path="url(#p6be8613911)" style="fill: none; stroke: #000000"/>
    <path d="M 261.102083 113.969314 
L 247.488778 101.817725 
" clip-path="url(#p6be8613911)" style="fill: none; stroke: #000000"/>
    <path d="M 261.102083 113.969314 
L 295.97312 123.810094 
" clip-path="url(#p6be8613911)" style="fill: none; stroke: #000000"/>
    <path d="M 261.102083 113.969314 
L 304.146536 113.712875 
" clip-path="url(#p6be8613911)" style="fill: none; stroke: #000000"/>
    <path d="M 205.242067 143.173293 
L 221.066291 169.593515 
" clip-path="url(#p6be8613911)" style="fill: none; stroke: #000000"/>
    <path d="M 205.242067 143.173293 
L 134.602917 156.491892 
" clip-path="url(#p6be8613911)" style="fill: none; stroke: #000000"/>
    <path d="M 332.241241 99.961725 
L 389.343537 88.237417 
" clip-path="url(#p6be8613911)" style="fill: none; stroke: #000000"/>
    <path d="M 257.676617 152.187077 
L 181.388075 142.347941 
" clip-path="url(#p6be8613911)" style="fill: none; stroke: #000000"/>
    <path d="M 257.676617 152.187077 
L 249.726339 213.438108 
" clip-path="url(#p6be8613911)" style="fill: none; stroke: #000000"/>
    <path d="M 257.676617 152.187077 
L 282.664928 107.086845 
" clip-path="url(#p6be8613911)" style="fill: none; stroke: #000000"/>
    <path d="M 257.676617 152.187077 
L 315.649016 159.322685 
" clip-path="url(#p6be8613911)" style="fill: none; stroke: #000000"/>
    <path d="M 181.388075 142.347941 
L 109.112994 134.391268 
" clip-path="url(#p6be8613911)" style="fill: none; stroke: #000000"/>
    <path d="M 339.139383 115.042803 
L 383.497961 110.024196 
" clip-path="url(#p6be8613911)" style="fill: none; stroke: #000000"/>
    <path d="M 339.139383 115.042803 
L 384.45188 118.677591 
" clip-path="url(#p6be8613911)" style="fill: none; stroke: #000000"/>
    <path d="M 109.112994 134.391268 
L 69.182561 125.222413 
" clip-path="url(#p6be8613911)" style="fill: none; stroke: #000000"/>
    <path d="M 109.112994 134.391268 
L 64.799331 134.301652 
" clip-path="url(#p6be8613911)" style="fill: none; stroke: #000000"/>
    <path d="M 249.726339 213.438108 
L 206.826292 259.918942 
" clip-path="url(#p6be8613911)" style="fill: none; stroke: #000000"/>
    <path d="M 249.726339 213.438108 
L 207.997165 216.295132 
" clip-path="url(#p6be8613911)" style="fill: none; stroke: #000000"/>
    <path d="M 249.726339 213.438108 
L 273.701532 231.661066 
" clip-path="url(#p6be8613911)" style="fill: none; stroke: #000000"/>
    <path d="M 249.726339 213.438108 
L 256.520415 232.75883 
" clip-path="url(#p6be8613911)" style="fill: none; stroke: #000000"/>
    <path d="M 249.726339 213.438108 
L 304.473034 223.795709 
" clip-path="url(#p6be8613911)" style="fill: none; stroke: #000000"/>
    <path d="M 249.726339 213.438108 
L 280.774214 223.911109 
" clip-path="url(#p6be8613911)" style="fill: none; stroke: #000000"/>
    <path d="M 249.726339 213.438108 
L 219.783367 207.008683 
" clip-path="url(#p6be8613911)" style="fill: none; stroke: #000000"/>
    <path d="M 206.826292 259.918942 
L 215.861497 277.553159 
" clip-path="url(#p6be8613911)" style="fill: none; stroke: #000000"/>
    <path d="M 206.826292 259.918942 
L 158.590543 269.98957 
" clip-path="url(#p6be8613911)" style="fill: none; stroke: #000000"/>
    <path d="M 206.826292 259.918942 
L 181.438519 299.267684 
" clip-path="url(#p6be8613911)" style="fill: none; stroke: #000000"/>
    <path d="M 200.098593 153.374806 
L 249.535937 165.800485 
" clip-path="url(#p6be8613911)" style="fill: none; stroke: #000000"/>
    <path d="M 200.098593 153.374806 
L 214.700909 160.521888 
" clip-path="url(#p6be8613911)" style="fill: none; stroke: #000000"/>
    <path d="M 200.098593 153.374806 
L 151.652772 194.490008 
" clip-path="url(#p6be8613911)" style="fill: none; stroke: #000000"/>
    <path d="M 200.098593 153.374806 
L 160.194977 136.058406 
" clip-path="url(#p6be8613911)" style="fill: none; stroke: #000000"/>
    <path d="M 200.098593 153.374806 
L 153.202255 150.316916 
" clip-path="url(#p6be8613911)" style="fill: none; stroke: #000000"/>
    <path d="M 207.997165 216.295132 
L 171.339449 212.192009 
" clip-path="url(#p6be8613911)" style="fill: none; stroke: #000000"/>
    <path d="M 221.066291 169.593515 
L 243.801789 184.608503 
" clip-path="url(#p6be8613911)" style="fill: none; stroke: #000000"/>
    <path d="M 221.066291 169.593515 
L 223.239023 186.061681 
" clip-path="url(#p6be8613911)" style="fill: none; stroke: #000000"/>
    <path d="M 282.664928 107.086845 
L 300.175614 69.574604 
" clip-path="url(#p6be8613911)" style="fill: none; stroke: #000000"/>
    <path d="M 282.664928 107.086845 
L 298.865413 85.334362 
" clip-path="url(#p6be8613911)" style="fill: none; stroke: #000000"/>
    <path d="M 249.535937 165.800485 
L 288.004039 175.341562 
" clip-path="url(#p6be8613911)" style="fill: none; stroke: #000000"/>
    <path d="M 315.649016 159.322685 
L 358.699849 164.700614 
" clip-path="url(#p6be8613911)" style="fill: none; stroke: #000000"/>
    <path d="M 134.602917 156.491892 
L 74.493029 166.620923 
" clip-path="url(#p6be8613911)" style="fill: none; stroke: #000000"/>
    <path d="M 300.175614 69.574604 
L 302.496592 47.340671 
" clip-path="url(#p6be8613911)" style="fill: none; stroke: #000000"/>
    <path d="M 300.175614 69.574604 
L 321.339316 49.584521 
" clip-path="url(#p6be8613911)" style="fill: none; stroke: #000000"/>
    <path d="M 304.473034 223.795709 
L 342.885071 231.437868 
" clip-path="url(#p6be8613911)" style="fill: none; stroke: #000000"/>
    <path d="M 151.652772 194.490008 
L 135.948604 212.912259 
" clip-path="url(#p6be8613911)" style="fill: none; stroke: #000000"/>
    <path d="M 151.652772 194.490008 
L 120.323826 210.229001 
" clip-path="url(#p6be8613911)" style="fill: none; stroke: #000000"/>
    <path d="M 151.652772 194.490008 
L 113.274545 203.754497 
" clip-path="url(#p6be8613911)" style="fill: none; stroke: #000000"/>
    <path d="M 151.652772 194.490008 
L 110.121638 195.972035 
" clip-path="url(#p6be8613911)" style="fill: none; stroke: #000000"/>
    <path d="M 151.652772 194.490008 
L 162.577775 222.502092 
" clip-path="url(#p6be8613911)" style="fill: none; stroke: #000000"/>
    <path d="M 158.590543 269.98957 
L 120.903729 276.83129 
" clip-path="url(#p6be8613911)" style="fill: none; stroke: #000000"/>
    <path d="M 181.438519 299.267684 
L 201.321843 315.478038 
" clip-path="url(#p6be8613911)" style="fill: none; stroke: #000000"/>
    <path d="M 181.438519 299.267684 
L 150.156631 309.372295 
" clip-path="url(#p6be8613911)" style="fill: none; stroke: #000000"/>
    <path d="M 181.438519 299.267684 
L 187.054781 319.837467 
" clip-path="url(#p6be8613911)" style="fill: none; stroke: #000000"/>
    <path d="M 181.438519 299.267684 
L 171.9821 318.411088 
" clip-path="url(#p6be8613911)" style="fill: none; stroke: #000000"/>
    <path d="M 181.438519 299.267684 
L 157.09161 316.18305 
" clip-path="url(#p6be8613911)" style="fill: none; stroke: #000000"/>
    <path d="M 389.343537 88.237417 
L 429.717456 79.633459 
" clip-path="url(#p6be8613911)" style="fill: none; stroke: #000000"/>
    <path d="M 306.198057 91.882479 
L 338.241924 75.253837 
" clip-path="url(#p6be8613911)" style="fill: none; stroke: #000000"/>
    <path d="M 160.194977 136.058406 
L 130.643702 122.472781 
" clip-path="url(#p6be8613911)" style="fill: none; stroke: #000000"/>
    <path d="M 74.493029 166.620923 
L 31.082544 173.02114 
" clip-path="url(#p6be8613911)" style="fill: none; stroke: #000000"/>
    <path d="M 212.611638 72.90193 
L 189.000703 57.436302 
" clip-path="url(#p6be8613911)" style="fill: none; stroke: #000000"/>
    <path d="M 212.611638 72.90193 
L 171.662371 45.231843 
" clip-path="url(#p6be8613911)" style="fill: none; stroke: #000000"/>
    <path d="M 212.611638 72.90193 
L 208.950547 52.311619 
" clip-path="url(#p6be8613911)" style="fill: none; stroke: #000000"/>
    <path d="M 219.783367 207.008683 
L 191.635315 199.879694 
" clip-path="url(#p6be8613911)" style="fill: none; stroke: #000000"/>
    <path d="M 153.202255 150.316916 
L 119.041489 145.85673 
" clip-path="url(#p6be8613911)" style="fill: none; stroke: #000000"/>
    <path d="M 171.662371 45.231843 
L 158.437457 25.762533 
" clip-path="url(#p6be8613911)" style="fill: none; stroke: #000000"/>
    <path d="M 171.662371 45.231843 
L 141.116224 31.468943 
" clip-path="url(#p6be8613911)" style="fill: none; stroke: #000000"/>
    <path d="M 162.577775 222.502092 
L 177.594619 241.164796 
" clip-path="url(#p6be8613911)" style="fill: none; stroke: #000000"/>
   </g>
   <g id="PathCollection_1">
    <path d="M 261.102083 125.588264 
C 264.183464 125.588264 267.139055 124.364018 269.317921 122.185152 
C 271.496787 120.006287 272.721033 117.050696 272.721033 113.969314 
C 272.721033 110.887932 271.496787 107.932341 269.317921 105.753476 
C 267.139055 103.57461 264.183464 102.350364 261.102083 102.350364 
C 258.020701 102.350364 255.06511 103.57461 252.886244 105.753476 
C 250.707378 107.932341 249.483132 110.887932 249.483132 113.969314 
C 249.483132 117.050696 250.707378 120.006287 252.886244 122.185152 
C 255.06511 124.364018 258.020701 125.588264 261.102083 125.588264 
z
" clip-path="url(#p6be8613911)" style="fill: #add8e6; stroke: #add8e6"/>
    <path d="M 205.242067 147.916709 
C 206.500035 147.916709 207.70665 147.416913 208.596168 146.527395 
C 209.485687 145.637876 209.985483 144.431261 209.985483 143.173293 
C 209.985483 141.915324 209.485687 140.708709 208.596168 139.819191 
C 207.70665 138.929673 206.500035 138.429876 205.242067 138.429876 
C 203.984098 138.429876 202.777483 138.929673 201.887965 139.819191 
C 200.998446 140.708709 200.49865 141.915324 200.49865 143.173293 
C 200.49865 144.431261 200.998446 145.637876 201.887965 146.527395 
C 202.777483 147.416913 203.984098 147.916709 205.242067 147.916709 
z
" clip-path="url(#p6be8613911)" style="fill: #add8e6; stroke: #add8e6"/>
    <path d="M 332.241241 103.834708 
C 333.268368 103.834708 334.253565 103.426626 334.979853 102.700338 
C 335.706142 101.974049 336.114224 100.988852 336.114224 99.961725 
C 336.114224 98.934598 335.706142 97.949401 334.979853 97.223112 
C 334.253565 96.496824 333.268368 96.088742 332.241241 96.088742 
C 331.214113 96.088742 330.228916 96.496824 329.502628 97.223112 
C 328.776339 97.949401 328.368257 98.934598 328.368257 99.961725 
C 328.368257 100.988852 328.776339 101.974049 329.502628 102.700338 
C 330.228916 103.426626 331.214113 103.834708 332.241241 103.834708 
z
" clip-path="url(#p6be8613911)" style="fill: #add8e6; stroke: #add8e6"/>
    <path d="M 257.676617 158.310801 
C 259.300647 158.310801 260.858381 157.665567 262.006744 156.517204 
C 263.155107 155.368841 263.800341 153.811107 263.800341 152.187077 
C 263.800341 150.563046 263.155107 149.005313 262.006744 147.85695 
C 260.858381 146.708587 259.300647 146.063352 257.676617 146.063352 
C 256.052586 146.063352 254.494853 146.708587 253.34649 147.85695 
C 252.198127 149.005313 251.552892 150.563046 251.552892 152.187077 
C 251.552892 153.811107 252.198127 155.368841 253.34649 156.517204 
C 254.494853 157.665567 256.052586 158.310801 257.676617 158.310801 
z
" clip-path="url(#p6be8613911)" style="fill: #add8e6; stroke: #add8e6"/>
    <path d="M 271.963717 128.327768 
C 272.690006 128.327768 273.386645 128.039211 273.900209 127.525647 
C 274.413772 127.012084 274.70233 126.315444 274.70233 125.589156 
C 274.70233 124.862867 274.413772 124.166227 273.900209 123.652664 
C 273.386645 123.1391 272.690006 122.850543 271.963717 122.850543 
C 271.237428 122.850543 270.540789 123.1391 270.027225 123.652664 
C 269.513662 124.166227 269.225104 124.862867 269.225104 125.589156 
C 269.225104 126.315444 269.513662 127.012084 270.027225 127.525647 
C 270.540789 128.039211 271.237428 128.327768 271.963717 128.327768 
z
" clip-path="url(#p6be8613911)" style="fill: #add8e6; stroke: #add8e6"/>
    <path d="M 181.388075 146.220924 
C 182.415203 146.220924 183.4004 145.812842 184.126688 145.086553 
C 184.852977 144.360265 185.261059 143.375068 185.261059 142.347941 
C 185.261059 141.320813 184.852977 140.335616 184.126688 139.609328 
C 183.4004 138.883039 182.415203 138.474957 181.388075 138.474957 
C 180.360948 138.474957 179.375751 138.883039 178.649463 139.609328 
C 177.923174 140.335616 177.515092 141.320813 177.515092 142.347941 
C 177.515092 143.375068 177.923174 144.360265 178.649463 145.086553 
C 179.375751 145.812842 180.360948 146.220924 181.388075 146.220924 
z
" clip-path="url(#p6be8613911)" style="fill: #add8e6; stroke: #add8e6"/>
    <path d="M 339.139383 119.786219 
C 340.397352 119.786219 341.603967 119.286423 342.493485 118.396905 
C 343.383004 117.507386 343.8828 116.300771 343.8828 115.042803 
C 343.8828 113.784834 343.383004 112.578219 342.493485 111.688701 
C 341.603967 110.799182 340.397352 110.299386 339.139383 110.299386 
C 337.881415 110.299386 336.6748 110.799182 335.785281 111.688701 
C 334.895763 112.578219 334.395967 113.784834 334.395967 115.042803 
C 334.395967 116.300771 334.895763 117.507386 335.785281 118.396905 
C 336.6748 119.286423 337.881415 119.786219 339.139383 119.786219 
z
" clip-path="url(#p6be8613911)" style="fill: #add8e6; stroke: #add8e6"/>
    <path d="M 383.497961 112.762809 
C 384.224249 112.762809 384.920889 112.474251 385.434452 111.960688 
C 385.948016 111.447124 386.236573 110.750485 386.236573 110.024196 
C 386.236573 109.297907 385.948016 108.601268 385.434452 108.087704 
C 384.920889 107.574141 384.224249 107.285583 383.497961 107.285583 
C 382.771672 107.285583 382.075033 107.574141 381.561469 108.087704 
C 381.047905 108.601268 380.759348 109.297907 380.759348 110.024196 
C 380.759348 110.750485 381.047905 111.447124 381.561469 111.960688 
C 382.075033 112.474251 382.771672 112.762809 383.497961 112.762809 
z
" clip-path="url(#p6be8613911)" style="fill: #add8e6; stroke: #add8e6"/>
    <path d="M 384.45188 121.416203 
C 385.178169 121.416203 385.874808 121.127646 386.388372 120.614082 
C 386.901935 120.100519 387.190493 119.403879 387.190493 118.677591 
C 387.190493 117.951302 386.901935 117.254662 386.388372 116.741099 
C 385.874808 116.227535 385.178169 115.938978 384.45188 115.938978 
C 383.725591 115.938978 383.028952 116.227535 382.515388 116.741099 
C 382.001825 117.254662 381.713267 117.951302 381.713267 118.677591 
C 381.713267 119.403879 382.001825 120.100519 382.515388 120.614082 
C 383.028952 121.127646 383.725591 121.416203 384.45188 121.416203 
z
" clip-path="url(#p6be8613911)" style="fill: #add8e6; stroke: #add8e6"/>
    <path d="M 109.112994 139.134684 
C 110.370962 139.134684 111.577577 138.634888 112.467095 137.74537 
C 113.356614 136.855852 113.85641 135.649237 113.85641 134.391268 
C 113.85641 133.133299 113.356614 131.926684 112.467095 131.037166 
C 111.577577 130.147648 110.370962 129.647851 109.112994 129.647851 
C 107.855025 129.647851 106.64841 130.147648 105.758892 131.037166 
C 104.869373 131.926684 104.369577 133.133299 104.369577 134.391268 
C 104.369577 135.649237 104.869373 136.855852 105.758892 137.74537 
C 106.64841 138.634888 107.855025 139.134684 109.112994 139.134684 
z
" clip-path="url(#p6be8613911)" style="fill: #add8e6; stroke: #add8e6"/>
    <path d="M 249.726339 221.184075 
C 251.780594 221.184075 253.750988 220.367911 255.203565 218.915334 
C 256.656142 217.462757 257.472306 215.492363 257.472306 213.438108 
C 257.472306 211.383854 256.656142 209.41346 255.203565 207.960883 
C 253.750988 206.508306 251.780594 205.692142 249.726339 205.692142 
C 247.672085 205.692142 245.701691 206.508306 244.249114 207.960883 
C 242.796536 209.41346 241.980373 211.383854 241.980373 213.438108 
C 241.980373 215.492363 242.796536 217.462757 244.249114 218.915334 
C 245.701691 220.367911 247.672085 221.184075 249.726339 221.184075 
z
" clip-path="url(#p6be8613911)" style="fill: #add8e6; stroke: #add8e6"/>
    <path d="M 206.826292 265.396167 
C 208.278869 265.396167 209.672148 264.819052 210.699275 263.791925 
C 211.726402 262.764798 212.303517 261.371519 212.303517 259.918942 
C 212.303517 258.466365 211.726402 257.073086 210.699275 256.045959 
C 209.672148 255.018831 208.278869 254.441716 206.826292 254.441716 
C 205.373714 254.441716 203.980435 255.018831 202.953308 256.045959 
C 201.926181 257.073086 201.349066 258.466365 201.349066 259.918942 
C 201.349066 261.371519 201.926181 262.764798 202.953308 263.791925 
C 203.980435 264.819052 205.373714 265.396167 206.826292 265.396167 
z
" clip-path="url(#p6be8613911)" style="fill: #add8e6; stroke: #add8e6"/>
    <path d="M 200.098593 160.08301 
C 201.877629 160.08301 203.584041 159.376191 204.842009 158.118222 
C 206.099978 156.860254 206.806797 155.153842 206.806797 153.374806 
C 206.806797 151.595769 206.099978 149.889358 204.842009 148.631389 
C 203.584041 147.373421 201.877629 146.666602 200.098593 146.666602 
C 198.319556 146.666602 196.613145 147.373421 195.355176 148.631389 
C 194.097208 149.889358 193.390389 151.595769 193.390389 153.374806 
C 193.390389 155.153842 194.097208 156.860254 195.355176 158.118222 
C 196.613145 159.376191 198.319556 160.08301 200.098593 160.08301 
z
" clip-path="url(#p6be8613911)" style="fill: #add8e6; stroke: #add8e6"/>
    <path d="M 207.997165 220.168116 
C 209.024292 220.168116 210.009489 219.760034 210.735778 219.033745 
C 211.462066 218.307456 211.870148 217.322259 211.870148 216.295132 
C 211.870148 215.268005 211.462066 214.282808 210.735778 213.55652 
C 210.009489 212.830231 209.024292 212.422149 207.997165 212.422149 
C 206.970038 212.422149 205.984841 212.830231 205.258552 213.55652 
C 204.532264 214.282808 204.124182 215.268005 204.124182 216.295132 
C 204.124182 217.322259 204.532264 218.307456 205.258552 219.033745 
C 205.984841 219.760034 206.970038 220.168116 207.997165 220.168116 
z
" clip-path="url(#p6be8613911)" style="fill: #add8e6; stroke: #add8e6"/>
    <path d="M 221.066291 174.336932 
C 222.32426 174.336932 223.530875 173.837135 224.420393 172.947617 
C 225.309911 172.058099 225.809707 170.851484 225.809707 169.593515 
C 225.809707 168.335546 225.309911 167.128931 224.420393 166.239413 
C 223.530875 165.349895 222.32426 164.850099 221.066291 164.850099 
C 219.808322 164.850099 218.601707 165.349895 217.712189 166.239413 
C 216.822671 167.128931 216.322874 168.335546 216.322874 169.593515 
C 216.322874 170.851484 216.822671 172.058099 217.712189 172.947617 
C 218.601707 173.837135 219.808322 174.336932 221.066291 174.336932 
z
" clip-path="url(#p6be8613911)" style="fill: #add8e6; stroke: #add8e6"/>
    <path d="M 282.664928 111.830261 
C 283.922897 111.830261 285.129512 111.330465 286.01903 110.440947 
C 286.908548 109.551429 287.408344 108.344814 287.408344 107.086845 
C 287.408344 105.828876 286.908548 104.622261 286.01903 103.732743 
C 285.129512 102.843225 283.922897 102.343428 282.664928 102.343428 
C 281.406959 102.343428 280.200344 102.843225 279.310826 103.732743 
C 278.421308 104.622261 277.921511 105.828876 277.921511 107.086845 
C 277.921511 108.344814 278.421308 109.551429 279.310826 110.440947 
C 280.200344 111.330465 281.406959 111.830261 282.664928 111.830261 
z
" clip-path="url(#p6be8613911)" style="fill: #add8e6; stroke: #add8e6"/>
    <path d="M 215.861497 280.291772 
C 216.587786 280.291772 217.284425 280.003214 217.797989 279.489651 
C 218.311552 278.976087 218.60011 278.279448 218.60011 277.553159 
C 218.60011 276.826871 218.311552 276.130231 217.797989 275.616668 
C 217.284425 275.103104 216.587786 274.814546 215.861497 274.814546 
C 215.135208 274.814546 214.438569 275.103104 213.925005 275.616668 
C 213.411442 276.130231 213.122884 276.826871 213.122884 277.553159 
C 213.122884 278.279448 213.411442 278.976087 213.925005 279.489651 
C 214.438569 280.003214 215.135208 280.291772 215.861497 280.291772 
z
" clip-path="url(#p6be8613911)" style="fill: #add8e6; stroke: #add8e6"/>
    <path d="M 256.243352 95.311149 
C 256.969641 95.311149 257.66628 95.022591 258.179844 94.509028 
C 258.693408 93.995464 258.981965 93.298825 258.981965 92.572536 
C 258.981965 91.846247 258.693408 91.149608 258.179844 90.636044 
C 257.66628 90.122481 256.969641 89.833923 256.243352 89.833923 
C 255.517064 89.833923 254.820424 90.122481 254.306861 90.636044 
C 253.793297 91.149608 253.50474 91.846247 253.50474 92.572536 
C 253.50474 93.298825 253.793297 93.995464 254.306861 94.509028 
C 254.820424 95.022591 255.517064 95.311149 256.243352 95.311149 
z
" clip-path="url(#p6be8613911)" style="fill: #add8e6; stroke: #add8e6"/>
    <path d="M 243.801789 187.347116 
C 244.528078 187.347116 245.224718 187.058558 245.738281 186.544995 
C 246.251845 186.031431 246.540402 185.334792 246.540402 184.608503 
C 246.540402 183.882214 246.251845 183.185575 245.738281 182.672011 
C 245.224718 182.158448 244.528078 181.86989 243.801789 181.86989 
C 243.075501 181.86989 242.378861 182.158448 241.865298 182.672011 
C 241.351734 183.185575 241.063177 183.882214 241.063177 184.608503 
C 241.063177 185.334792 241.351734 186.031431 241.865298 186.544995 
C 242.378861 187.058558 243.075501 187.347116 243.801789 187.347116 
z
" clip-path="url(#p6be8613911)" style="fill: #add8e6; stroke: #add8e6"/>
    <path d="M 171.339449 214.930622 
C 172.065738 214.930622 172.762377 214.642064 173.275941 214.128501 
C 173.789505 213.614937 174.078062 212.918297 174.078062 212.192009 
C 174.078062 211.46572 173.789505 210.769081 173.275941 210.255517 
C 172.762377 209.741954 172.065738 209.453396 171.339449 209.453396 
C 170.613161 209.453396 169.916521 209.741954 169.402958 210.255517 
C 168.889394 210.769081 168.600837 211.46572 168.600837 212.192009 
C 168.600837 212.918297 168.889394 213.614937 169.402958 214.128501 
C 169.916521 214.642064 170.613161 214.930622 171.339449 214.930622 
z
" clip-path="url(#p6be8613911)" style="fill: #add8e6; stroke: #add8e6"/>
    <path d="M 229.381102 114.288783 
C 230.107391 114.288783 230.804031 114.000225 231.317594 113.486662 
C 231.831158 112.973098 232.119715 112.276458 232.119715 111.55017 
C 232.119715 110.823881 231.831158 110.127242 231.317594 109.613678 
C 230.804031 109.100115 230.107391 108.811557 229.381102 108.811557 
C 228.654814 108.811557 227.958174 109.100115 227.444611 109.613678 
C 226.931047 110.127242 226.64249 110.823881 226.64249 111.55017 
C 226.64249 112.276458 226.931047 112.973098 227.444611 113.486662 
C 227.958174 114.000225 228.654814 114.288783 229.381102 114.288783 
z
" clip-path="url(#p6be8613911)" style="fill: #add8e6; stroke: #add8e6"/>
    <path d="M 249.535937 169.673469 
C 250.563064 169.673469 251.548261 169.265387 252.27455 168.539098 
C 253.000838 167.81281 253.40892 166.827613 253.40892 165.800485 
C 253.40892 164.773358 253.000838 163.788161 252.27455 163.061873 
C 251.548261 162.335584 250.563064 161.927502 249.535937 161.927502 
C 248.50881 161.927502 247.523613 162.335584 246.797324 163.061873 
C 246.071036 163.788161 245.662954 164.773358 245.662954 165.800485 
C 245.662954 166.827613 246.071036 167.81281 246.797324 168.539098 
C 247.523613 169.265387 248.50881 169.673469 249.535937 169.673469 
z
" clip-path="url(#p6be8613911)" style="fill: #add8e6; stroke: #add8e6"/>
    <path d="M 223.239023 188.800294 
C 223.965311 188.800294 224.661951 188.511737 225.175515 187.998173 
C 225.689078 187.484609 225.977636 186.78797 225.977636 186.061681 
C 225.977636 185.335393 225.689078 184.638753 225.175515 184.12519 
C 224.661951 183.611626 223.965311 183.323069 223.239023 183.323069 
C 222.512734 183.323069 221.816095 183.611626 221.302531 184.12519 
C 220.788968 184.638753 220.50041 185.335393 220.50041 186.061681 
C 220.50041 186.78797 220.788968 187.484609 221.302531 187.998173 
C 221.816095 188.511737 222.512734 188.800294 223.239023 188.800294 
z
" clip-path="url(#p6be8613911)" style="fill: #add8e6; stroke: #add8e6"/>
    <path d="M 315.649016 163.195668 
C 316.676143 163.195668 317.66134 162.787586 318.387628 162.061298 
C 319.113917 161.335009 319.521999 160.349812 319.521999 159.322685 
C 319.521999 158.295558 319.113917 157.310361 318.387628 156.584072 
C 317.66134 155.857783 316.676143 155.449702 315.649016 155.449702 
C 314.621889 155.449702 313.636692 155.857783 312.910403 156.584072 
C 312.184114 157.310361 311.776032 158.295558 311.776032 159.322685 
C 311.776032 160.349812 312.184114 161.335009 312.910403 162.061298 
C 313.636692 162.787586 314.621889 163.195668 315.649016 163.195668 
z
" clip-path="url(#p6be8613911)" style="fill: #add8e6; stroke: #add8e6"/>
    <path d="M 287.720229 118.017692 
C 288.446518 118.017692 289.143157 117.729134 289.656721 117.215571 
C 290.170284 116.702007 290.458842 116.005368 290.458842 115.279079 
C 290.458842 114.552791 290.170284 113.856151 289.656721 113.342588 
C 289.143157 112.829024 288.446518 112.540466 287.720229 112.540466 
C 286.99394 112.540466 286.297301 112.829024 285.783737 113.342588 
C 285.270174 113.856151 284.981616 114.552791 284.981616 115.279079 
C 284.981616 116.005368 285.270174 116.702007 285.783737 117.215571 
C 286.297301 117.729134 286.99394 118.017692 287.720229 118.017692 
z
" clip-path="url(#p6be8613911)" style="fill: #add8e6; stroke: #add8e6"/>
    <path d="M 69.182561 127.961026 
C 69.90885 127.961026 70.605489 127.672468 71.119053 127.158905 
C 71.632616 126.645341 71.921174 125.948702 71.921174 125.222413 
C 71.921174 124.496125 71.632616 123.799485 71.119053 123.285921 
C 70.605489 122.772358 69.90885 122.4838 69.182561 122.4838 
C 68.456272 122.4838 67.759633 122.772358 67.246069 123.285921 
C 66.732506 123.799485 66.443948 124.496125 66.443948 125.222413 
C 66.443948 125.948702 66.732506 126.645341 67.246069 127.158905 
C 67.759633 127.672468 68.456272 127.961026 69.182561 127.961026 
z
" clip-path="url(#p6be8613911)" style="fill: #add8e6; stroke: #add8e6"/>
    <path d="M 226.746224 105.146793 
C 227.472513 105.146793 228.169152 104.858235 228.682716 104.344672 
C 229.196279 103.831108 229.484837 103.134469 229.484837 102.40818 
C 229.484837 101.681891 229.196279 100.985252 228.682716 100.471688 
C 228.169152 99.958125 227.472513 99.669567 226.746224 99.669567 
C 226.019936 99.669567 225.323296 99.958125 224.809733 100.471688 
C 224.296169 100.985252 224.007611 101.681891 224.007611 102.40818 
C 224.007611 103.134469 224.296169 103.831108 224.809733 104.344672 
C 225.323296 104.858235 226.019936 105.146793 226.746224 105.146793 
z
" clip-path="url(#p6be8613911)" style="fill: #add8e6; stroke: #add8e6"/>
    <path d="M 134.602917 160.364876 
C 135.630044 160.364876 136.615241 159.956794 137.34153 159.230505 
C 138.067819 158.504217 138.4759 157.51902 138.4759 156.491892 
C 138.4759 155.464765 138.067819 154.479568 137.34153 153.75328 
C 136.615241 153.026991 135.630044 152.618909 134.602917 152.618909 
C 133.57579 152.618909 132.590593 153.026991 131.864304 153.75328 
C 131.138016 154.479568 130.729934 155.464765 130.729934 156.491892 
C 130.729934 157.51902 131.138016 158.504217 131.864304 159.230505 
C 132.590593 159.956794 133.57579 160.364876 134.602917 160.364876 
z
" clip-path="url(#p6be8613911)" style="fill: #add8e6; stroke: #add8e6"/>
    <path d="M 214.700909 163.260501 
C 215.427197 163.260501 216.123837 162.971943 216.6374 162.45838 
C 217.150964 161.944816 217.439521 161.248177 217.439521 160.521888 
C 217.439521 159.795599 217.150964 159.09896 216.6374 158.585396 
C 216.123837 158.071833 215.427197 157.783275 214.700909 157.783275 
C 213.97462 157.783275 213.27798 158.071833 212.764417 158.585396 
C 212.250853 159.09896 211.962296 159.795599 211.962296 160.521888 
C 211.962296 161.248177 212.250853 161.944816 212.764417 162.45838 
C 213.27798 162.971943 213.97462 163.260501 214.700909 163.260501 
z
" clip-path="url(#p6be8613911)" style="fill: #add8e6; stroke: #add8e6"/>
    <path d="M 300.175614 74.318021 
C 301.433583 74.318021 302.640198 73.818224 303.529716 72.928706 
C 304.419235 72.039188 304.919031 70.832573 304.919031 69.574604 
C 304.919031 68.316635 304.419235 67.11002 303.529716 66.220502 
C 302.640198 65.330984 301.433583 64.831188 300.175614 64.831188 
C 298.917646 64.831188 297.711031 65.330984 296.821512 66.220502 
C 295.931994 67.11002 295.432198 68.316635 295.432198 69.574604 
C 295.432198 70.832573 295.931994 72.039188 296.821512 72.928706 
C 297.711031 73.818224 298.917646 74.318021 300.175614 74.318021 
z
" clip-path="url(#p6be8613911)" style="fill: #add8e6; stroke: #add8e6"/>
    <path d="M 273.701532 234.399678 
C 274.427821 234.399678 275.124461 234.111121 275.638024 233.597557 
C 276.151588 233.083994 276.440145 232.387354 276.440145 231.661066 
C 276.440145 230.934777 276.151588 230.238138 275.638024 229.724574 
C 275.124461 229.21101 274.427821 228.922453 273.701532 228.922453 
C 272.975244 228.922453 272.278604 229.21101 271.765041 229.724574 
C 271.251477 230.238138 270.96292 230.934777 270.96292 231.661066 
C 270.96292 232.387354 271.251477 233.083994 271.765041 233.597557 
C 272.278604 234.111121 272.975244 234.399678 273.701532 234.399678 
z
" clip-path="url(#p6be8613911)" style="fill: #add8e6; stroke: #add8e6"/>
    <path d="M 256.520415 235.497443 
C 257.246704 235.497443 257.943343 235.208885 258.456907 234.695321 
C 258.97047 234.181758 259.259028 233.485118 259.259028 232.75883 
C 259.259028 232.032541 258.97047 231.335902 258.456907 230.822338 
C 257.943343 230.308774 257.246704 230.020217 256.520415 230.020217 
C 255.794127 230.020217 255.097487 230.308774 254.583924 230.822338 
C 254.07036 231.335902 253.781802 232.032541 253.781802 232.75883 
C 253.781802 233.485118 254.07036 234.181758 254.583924 234.695321 
C 255.097487 235.208885 255.794127 235.497443 256.520415 235.497443 
z
" clip-path="url(#p6be8613911)" style="fill: #add8e6; stroke: #add8e6"/>
    <path d="M 304.473034 227.668692 
C 305.500161 227.668692 306.485358 227.26061 307.211647 226.534322 
C 307.937935 225.808033 308.346017 224.822836 308.346017 223.795709 
C 308.346017 222.768582 307.937935 221.783385 307.211647 221.057096 
C 306.485358 220.330808 305.500161 219.922726 304.473034 219.922726 
C 303.445907 219.922726 302.46071 220.330808 301.734421 221.057096 
C 301.008133 221.783385 300.600051 222.768582 300.600051 223.795709 
C 300.600051 224.822836 301.008133 225.808033 301.734421 226.534322 
C 302.46071 227.26061 303.445907 227.668692 304.473034 227.668692 
z
" clip-path="url(#p6be8613911)" style="fill: #add8e6; stroke: #add8e6"/>
    <path d="M 151.652772 201.198212 
C 153.431809 201.198212 155.13822 200.491393 156.396189 199.233424 
C 157.654157 197.975455 158.360976 196.269044 158.360976 194.490008 
C 158.360976 192.710971 157.654157 191.00456 156.396189 189.746591 
C 155.13822 188.488623 153.431809 187.781804 151.652772 187.781804 
C 149.873736 187.781804 148.167324 188.488623 146.909356 189.746591 
C 145.651387 191.00456 144.944568 192.710971 144.944568 194.490008 
C 144.944568 196.269044 145.651387 197.975455 146.909356 199.233424 
C 148.167324 200.491393 149.873736 201.198212 151.652772 201.198212 
z
" clip-path="url(#p6be8613911)" style="fill: #add8e6; stroke: #add8e6"/>
    <path d="M 158.590543 273.862553 
C 159.61767 273.862553 160.602867 273.454471 161.329156 272.728183 
C 162.055444 272.001894 162.463526 271.016697 162.463526 269.98957 
C 162.463526 268.962443 162.055444 267.977246 161.329156 267.250957 
C 160.602867 266.524668 159.61767 266.116586 158.590543 266.116586 
C 157.563416 266.116586 156.578219 266.524668 155.85193 267.250957 
C 155.125642 267.977246 154.71756 268.962443 154.71756 269.98957 
C 154.71756 271.016697 155.125642 272.001894 155.85193 272.728183 
C 156.578219 273.454471 157.563416 273.862553 158.590543 273.862553 
z
" clip-path="url(#p6be8613911)" style="fill: #add8e6; stroke: #add8e6"/>
    <path d="M 271.885956 97.804909 
C 272.612244 97.804909 273.308884 97.516351 273.822448 97.002788 
C 274.336011 96.489224 274.624569 95.792585 274.624569 95.066296 
C 274.624569 94.340008 274.336011 93.643368 273.822448 93.129804 
C 273.308884 92.616241 272.612244 92.327683 271.885956 92.327683 
C 271.159667 92.327683 270.463028 92.616241 269.949464 93.129804 
C 269.435901 93.643368 269.147343 94.340008 269.147343 95.066296 
C 269.147343 95.792585 269.435901 96.489224 269.949464 97.002788 
C 270.463028 97.516351 271.159667 97.804909 271.885956 97.804909 
z
" clip-path="url(#p6be8613911)" style="fill: #add8e6; stroke: #add8e6"/>
    <path d="M 181.438519 305.975888 
C 183.217556 305.975888 184.923967 305.26907 186.181936 304.011101 
C 187.439905 302.753132 188.146723 301.046721 188.146723 299.267684 
C 188.146723 297.488648 187.439905 295.782237 186.181936 294.524268 
C 184.923967 293.266299 183.217556 292.55948 181.438519 292.55948 
C 179.659483 292.55948 177.953072 293.266299 176.695103 294.524268 
C 175.437134 295.782237 174.730315 297.488648 174.730315 299.267684 
C 174.730315 301.046721 175.437134 302.753132 176.695103 304.011101 
C 177.953072 305.26907 179.659483 305.975888 181.438519 305.975888 
z
" clip-path="url(#p6be8613911)" style="fill: #add8e6; stroke: #add8e6"/>
    <path d="M 298.865413 88.072975 
C 299.591702 88.072975 300.288341 87.784417 300.801905 87.270854 
C 301.315468 86.75729 301.604026 86.060651 301.604026 85.334362 
C 301.604026 84.608074 301.315468 83.911434 300.801905 83.39787 
C 300.288341 82.884307 299.591702 82.595749 298.865413 82.595749 
C 298.139124 82.595749 297.442485 82.884307 296.928921 83.39787 
C 296.415358 83.911434 296.1268 84.608074 296.1268 85.334362 
C 296.1268 86.060651 296.415358 86.75729 296.928921 87.270854 
C 297.442485 87.784417 298.139124 88.072975 298.865413 88.072975 
z
" clip-path="url(#p6be8613911)" style="fill: #add8e6; stroke: #add8e6"/>
    <path d="M 389.343537 92.110401 
C 390.370664 92.110401 391.355861 91.702319 392.08215 90.97603 
C 392.808438 90.249741 393.21652 89.264544 393.21652 88.237417 
C 393.21652 87.21029 392.808438 86.225093 392.08215 85.498804 
C 391.355861 84.772516 390.370664 84.364434 389.343537 84.364434 
C 388.31641 84.364434 387.331213 84.772516 386.604924 85.498804 
C 385.878636 86.225093 385.470554 87.21029 385.470554 88.237417 
C 385.470554 89.264544 385.878636 90.249741 386.604924 90.97603 
C 387.331213 91.702319 388.31641 92.110401 389.343537 92.110401 
z
" clip-path="url(#p6be8613911)" style="fill: #add8e6; stroke: #add8e6"/>
    <path d="M 238.436293 97.457751 
C 239.162581 97.457751 239.859221 97.169193 240.372784 96.655629 
C 240.886348 96.142066 241.174905 95.445426 241.174905 94.719138 
C 241.174905 93.992849 240.886348 93.29621 240.372784 92.782646 
C 239.859221 92.269083 239.162581 91.980525 238.436293 91.980525 
C 237.710004 91.980525 237.013365 92.269083 236.499801 92.782646 
C 235.986237 93.29621 235.69768 93.992849 235.69768 94.719138 
C 235.69768 95.445426 235.986237 96.142066 236.499801 96.655629 
C 237.013365 97.169193 237.710004 97.457751 238.436293 97.457751 
z
" clip-path="url(#p6be8613911)" style="fill: #add8e6; stroke: #add8e6"/>
    <path d="M 288.004039 178.080175 
C 288.730328 178.080175 289.426967 177.791617 289.940531 177.278053 
C 290.454095 176.76449 290.742652 176.06785 290.742652 175.341562 
C 290.742652 174.615273 290.454095 173.918634 289.940531 173.40507 
C 289.426967 172.891507 288.730328 172.602949 288.004039 172.602949 
C 287.277751 172.602949 286.581111 172.891507 286.067548 173.40507 
C 285.553984 173.918634 285.265426 174.615273 285.265426 175.341562 
C 285.265426 176.06785 285.553984 176.76449 286.067548 177.278053 
C 286.581111 177.791617 287.277751 178.080175 288.004039 178.080175 
z
" clip-path="url(#p6be8613911)" style="fill: #add8e6; stroke: #add8e6"/>
    <path d="M 294.380883 104.902491 
C 295.107172 104.902491 295.803811 104.613933 296.317375 104.10037 
C 296.830938 103.586806 297.119496 102.890167 297.119496 102.163878 
C 297.119496 101.43759 296.830938 100.74095 296.317375 100.227386 
C 295.803811 99.713823 295.107172 99.425265 294.380883 99.425265 
C 293.654594 99.425265 292.957955 99.713823 292.444391 100.227386 
C 291.930828 100.74095 291.64227 101.43759 291.64227 102.163878 
C 291.64227 102.890167 291.930828 103.586806 292.444391 104.10037 
C 292.957955 104.613933 293.654594 104.902491 294.380883 104.902491 
z
" clip-path="url(#p6be8613911)" style="fill: #add8e6; stroke: #add8e6"/>
    <path d="M 64.799331 137.040265 
C 65.52562 137.040265 66.222259 136.751707 66.735823 136.238143 
C 67.249386 135.72458 67.537944 135.02794 67.537944 134.301652 
C 67.537944 133.575363 67.249386 132.878724 66.735823 132.36516 
C 66.222259 131.851596 65.52562 131.563039 64.799331 131.563039 
C 64.073042 131.563039 63.376403 131.851596 62.862839 132.36516 
C 62.349276 132.878724 62.060718 133.575363 62.060718 134.301652 
C 62.060718 135.02794 62.349276 135.72458 62.862839 136.238143 
C 63.376403 136.751707 64.073042 137.040265 64.799331 137.040265 
z
" clip-path="url(#p6be8613911)" style="fill: #add8e6; stroke: #add8e6"/>
    <path d="M 135.948604 215.650872 
C 136.674893 215.650872 137.371532 215.362314 137.885096 214.848751 
C 138.39866 214.335187 138.687217 213.638548 138.687217 212.912259 
C 138.687217 212.18597 138.39866 211.489331 137.885096 210.975767 
C 137.371532 210.462204 136.674893 210.173646 135.948604 210.173646 
C 135.222316 210.173646 134.525676 210.462204 134.012113 210.975767 
C 133.498549 211.489331 133.209992 212.18597 133.209992 212.912259 
C 133.209992 213.638548 133.498549 214.335187 134.012113 214.848751 
C 134.525676 215.362314 135.222316 215.650872 135.948604 215.650872 
z
" clip-path="url(#p6be8613911)" style="fill: #add8e6; stroke: #add8e6"/>
    <path d="M 120.323826 212.967614 
C 121.050115 212.967614 121.746754 212.679056 122.260318 212.165493 
C 122.773881 211.651929 123.062439 210.95529 123.062439 210.229001 
C 123.062439 209.502712 122.773881 208.806073 122.260318 208.292509 
C 121.746754 207.778946 121.050115 207.490388 120.323826 207.490388 
C 119.597537 207.490388 118.900898 207.778946 118.387334 208.292509 
C 117.873771 208.806073 117.585213 209.502712 117.585213 210.229001 
C 117.585213 210.95529 117.873771 211.651929 118.387334 212.165493 
C 118.900898 212.679056 119.597537 212.967614 120.323826 212.967614 
z
" clip-path="url(#p6be8613911)" style="fill: #add8e6; stroke: #add8e6"/>
    <path d="M 306.198057 95.755463 
C 307.225184 95.755463 308.210381 95.347381 308.93667 94.621092 
C 309.662958 93.894803 310.07104 92.909606 310.07104 91.882479 
C 310.07104 90.855352 309.662958 89.870155 308.93667 89.143866 
C 308.210381 88.417578 307.225184 88.009496 306.198057 88.009496 
C 305.17093 88.009496 304.185733 88.417578 303.459444 89.143866 
C 302.733155 89.870155 302.325073 90.855352 302.325073 91.882479 
C 302.325073 92.909606 302.733155 93.894803 303.459444 94.621092 
C 304.185733 95.347381 305.17093 95.755463 306.198057 95.755463 
z
" clip-path="url(#p6be8613911)" style="fill: #add8e6; stroke: #add8e6"/>
    <path d="M 113.274545 206.49311 
C 114.000834 206.49311 114.697473 206.204552 115.211037 205.690989 
C 115.7246 205.177425 116.013158 204.480786 116.013158 203.754497 
C 116.013158 203.028208 115.7246 202.331569 115.211037 201.818005 
C 114.697473 201.304442 114.000834 201.015884 113.274545 201.015884 
C 112.548257 201.015884 111.851617 201.304442 111.338054 201.818005 
C 110.82449 202.331569 110.535932 203.028208 110.535932 203.754497 
C 110.535932 204.480786 110.82449 205.177425 111.338054 205.690989 
C 111.851617 206.204552 112.548257 206.49311 113.274545 206.49311 
z
" clip-path="url(#p6be8613911)" style="fill: #add8e6; stroke: #add8e6"/>
    <path d="M 110.121638 198.710648 
C 110.847927 198.710648 111.544567 198.422091 112.05813 197.908527 
C 112.571694 197.394963 112.860251 196.698324 112.860251 195.972035 
C 112.860251 195.245747 112.571694 194.549107 112.05813 194.035544 
C 111.544567 193.52198 110.847927 193.233422 110.121638 193.233422 
C 109.39535 193.233422 108.69871 193.52198 108.185147 194.035544 
C 107.671583 194.549107 107.383026 195.245747 107.383026 195.972035 
C 107.383026 196.698324 107.671583 197.394963 108.185147 197.908527 
C 108.69871 198.422091 109.39535 198.710648 110.121638 198.710648 
z
" clip-path="url(#p6be8613911)" style="fill: #add8e6; stroke: #add8e6"/>
    <path d="M 201.321843 318.21665 
C 202.048132 318.21665 202.744771 317.928093 203.258335 317.414529 
C 203.771898 316.900966 204.060456 316.204326 204.060456 315.478038 
C 204.060456 314.751749 203.771898 314.055109 203.258335 313.541546 
C 202.744771 313.027982 202.048132 312.739425 201.321843 312.739425 
C 200.595555 312.739425 199.898915 313.027982 199.385351 313.541546 
C 198.871788 314.055109 198.58323 314.751749 198.58323 315.478038 
C 198.58323 316.204326 198.871788 316.900966 199.385351 317.414529 
C 199.898915 317.928093 200.595555 318.21665 201.321843 318.21665 
z
" clip-path="url(#p6be8613911)" style="fill: #add8e6; stroke: #add8e6"/>
    <path d="M 160.194977 139.931389 
C 161.222105 139.931389 162.207302 139.523307 162.93359 138.797019 
C 163.659879 138.07073 164.067961 137.085533 164.067961 136.058406 
C 164.067961 135.031279 163.659879 134.046082 162.93359 133.319793 
C 162.207302 132.593505 161.222105 132.185423 160.194977 132.185423 
C 159.16785 132.185423 158.182653 132.593505 157.456365 133.319793 
C 156.730076 134.046082 156.321994 135.031279 156.321994 136.058406 
C 156.321994 137.085533 156.730076 138.07073 157.456365 138.797019 
C 158.182653 139.523307 159.16785 139.931389 160.194977 139.931389 
z
" clip-path="url(#p6be8613911)" style="fill: #add8e6; stroke: #add8e6"/>
    <path d="M 302.496592 50.079284 
C 303.222881 50.079284 303.91952 49.790726 304.433084 49.277163 
C 304.946648 48.763599 305.235205 48.066959 305.235205 47.340671 
C 305.235205 46.614382 304.946648 45.917743 304.433084 45.404179 
C 303.91952 44.890616 303.222881 44.602058 302.496592 44.602058 
C 301.770304 44.602058 301.073664 44.890616 300.560101 45.404179 
C 300.046537 45.917743 299.757979 46.614382 299.757979 47.340671 
C 299.757979 48.066959 300.046537 48.763599 300.560101 49.277163 
C 301.073664 49.790726 301.770304 50.079284 302.496592 50.079284 
z
" clip-path="url(#p6be8613911)" style="fill: #add8e6; stroke: #add8e6"/>
    <path d="M 74.493029 170.493906 
C 75.520156 170.493906 76.505353 170.085824 77.231642 169.359535 
C 77.95793 168.633247 78.366012 167.64805 78.366012 166.620923 
C 78.366012 165.593795 77.95793 164.608598 77.231642 163.88231 
C 76.505353 163.156021 75.520156 162.747939 74.493029 162.747939 
C 73.465902 162.747939 72.480705 163.156021 71.754416 163.88231 
C 71.028128 164.608598 70.620046 165.593795 70.620046 166.620923 
C 70.620046 167.64805 71.028128 168.633247 71.754416 169.359535 
C 72.480705 170.085824 73.465902 170.493906 74.493029 170.493906 
z
" clip-path="url(#p6be8613911)" style="fill: #add8e6; stroke: #add8e6"/>
    <path d="M 150.156631 312.110908 
C 150.88292 312.110908 151.57956 311.822351 152.093123 311.308787 
C 152.606687 310.795223 152.895244 310.098584 152.895244 309.372295 
C 152.895244 308.646007 152.606687 307.949367 152.093123 307.435804 
C 151.57956 306.92224 150.88292 306.633683 150.156631 306.633683 
C 149.430343 306.633683 148.733703 306.92224 148.22014 307.435804 
C 147.706576 307.949367 147.418019 308.646007 147.418019 309.372295 
C 147.418019 310.098584 147.706576 310.795223 148.22014 311.308787 
C 148.733703 311.822351 149.430343 312.110908 150.156631 312.110908 
z
" clip-path="url(#p6be8613911)" style="fill: #add8e6; stroke: #add8e6"/>
    <path d="M 120.903729 279.569903 
C 121.630018 279.569903 122.326657 279.281345 122.840221 278.767782 
C 123.353785 278.254218 123.642342 277.557578 123.642342 276.83129 
C 123.642342 276.105001 123.353785 275.408362 122.840221 274.894798 
C 122.326657 274.381235 121.630018 274.092677 120.903729 274.092677 
C 120.177441 274.092677 119.480801 274.381235 118.967238 274.894798 
C 118.453674 275.408362 118.165116 276.105001 118.165116 276.83129 
C 118.165116 277.557578 118.453674 278.254218 118.967238 278.767782 
C 119.480801 279.281345 120.177441 279.569903 120.903729 279.569903 
z
" clip-path="url(#p6be8613911)" style="fill: #add8e6; stroke: #add8e6"/>
    <path d="M 130.643702 125.211394 
C 131.36999 125.211394 132.06663 124.922836 132.580193 124.409273 
C 133.093757 123.895709 133.382315 123.19907 133.382315 122.472781 
C 133.382315 121.746493 133.093757 121.049853 132.580193 120.536289 
C 132.06663 120.022726 131.36999 119.734168 130.643702 119.734168 
C 129.917413 119.734168 129.220774 120.022726 128.70721 120.536289 
C 128.193646 121.049853 127.905089 121.746493 127.905089 122.472781 
C 127.905089 123.19907 128.193646 123.895709 128.70721 124.409273 
C 129.220774 124.922836 129.917413 125.211394 130.643702 125.211394 
z
" clip-path="url(#p6be8613911)" style="fill: #add8e6; stroke: #add8e6"/>
    <path d="M 212.611638 78.379155 
C 214.064215 78.379155 215.457494 77.80204 216.484621 76.774913 
C 217.511748 75.747786 218.088863 74.354507 218.088863 72.90193 
C 218.088863 71.449353 217.511748 70.056074 216.484621 69.028947 
C 215.457494 68.001819 214.064215 67.424704 212.611638 67.424704 
C 211.159061 67.424704 209.765782 68.001819 208.738654 69.028947 
C 207.711527 70.056074 207.134412 71.449353 207.134412 72.90193 
C 207.134412 74.354507 207.711527 75.747786 208.738654 76.774913 
C 209.765782 77.80204 211.159061 78.379155 212.611638 78.379155 
z
" clip-path="url(#p6be8613911)" style="fill: #add8e6; stroke: #add8e6"/>
    <path d="M 31.082544 175.759753 
C 31.808833 175.759753 32.505472 175.471196 33.019036 174.957632 
C 33.5326 174.444068 33.821157 173.747429 33.821157 173.02114 
C 33.821157 172.294852 33.5326 171.598212 33.019036 171.084649 
C 32.505472 170.571085 31.808833 170.282528 31.082544 170.282528 
C 30.356256 170.282528 29.659616 170.571085 29.146053 171.084649 
C 28.632489 171.598212 28.343932 172.294852 28.343932 173.02114 
C 28.343932 173.747429 28.632489 174.444068 29.146053 174.957632 
C 29.659616 175.471196 30.356256 175.759753 31.082544 175.759753 
z
" clip-path="url(#p6be8613911)" style="fill: #add8e6; stroke: #add8e6"/>
    <path d="M 429.717456 82.372071 
C 430.443744 82.372071 431.140384 82.083514 431.653947 81.56995 
C 432.167511 81.056387 432.456068 80.359747 432.456068 79.633459 
C 432.456068 78.90717 432.167511 78.21053 431.653947 77.696967 
C 431.140384 77.183403 430.443744 76.894846 429.717456 76.894846 
C 428.991167 76.894846 428.294528 77.183403 427.780964 77.696967 
C 427.2674 78.21053 426.978843 78.90717 426.978843 79.633459 
C 426.978843 80.359747 427.2674 81.056387 427.780964 81.56995 
C 428.294528 82.083514 428.991167 82.372071 429.717456 82.372071 
z
" clip-path="url(#p6be8613911)" style="fill: #add8e6; stroke: #add8e6"/>
    <path d="M 358.699849 167.439227 
C 359.426137 167.439227 360.122777 167.15067 360.636341 166.637106 
C 361.149904 166.123542 361.438462 165.426903 361.438462 164.700614 
C 361.438462 163.974326 361.149904 163.277686 360.636341 162.764123 
C 360.122777 162.250559 359.426137 161.962001 358.699849 161.962001 
C 357.97356 161.962001 357.276921 162.250559 356.763357 162.764123 
C 356.249794 163.277686 355.961236 163.974326 355.961236 164.700614 
C 355.961236 165.426903 356.249794 166.123542 356.763357 166.637106 
C 357.276921 167.15067 357.97356 167.439227 358.699849 167.439227 
z
" clip-path="url(#p6be8613911)" style="fill: #add8e6; stroke: #add8e6"/>
    <path d="M 247.488778 104.556338 
C 248.215067 104.556338 248.911706 104.26778 249.42527 103.754217 
C 249.938833 103.240653 250.227391 102.544014 250.227391 101.817725 
C 250.227391 101.091437 249.938833 100.394797 249.42527 99.881234 
C 248.911706 99.36767 248.215067 99.079112 247.488778 99.079112 
C 246.76249 99.079112 246.06585 99.36767 245.552287 99.881234 
C 245.038723 100.394797 244.750165 101.091437 244.750165 101.817725 
C 244.750165 102.544014 245.038723 103.240653 245.552287 103.754217 
C 246.06585 104.26778 246.76249 104.556338 247.488778 104.556338 
z
" clip-path="url(#p6be8613911)" style="fill: #add8e6; stroke: #add8e6"/>
    <path d="M 189.000703 60.174915 
C 189.726991 60.174915 190.423631 59.886358 190.937194 59.372794 
C 191.450758 58.859231 191.739315 58.162591 191.739315 57.436302 
C 191.739315 56.710014 191.450758 56.013374 190.937194 55.499811 
C 190.423631 54.986247 189.726991 54.69769 189.000703 54.69769 
C 188.274414 54.69769 187.577775 54.986247 187.064211 55.499811 
C 186.550647 56.013374 186.26209 56.710014 186.26209 57.436302 
C 186.26209 58.162591 186.550647 58.859231 187.064211 59.372794 
C 187.577775 59.886358 188.274414 60.174915 189.000703 60.174915 
z
" clip-path="url(#p6be8613911)" style="fill: #add8e6; stroke: #add8e6"/>
    <path d="M 321.339316 52.323134 
C 322.065604 52.323134 322.762244 52.034576 323.275807 51.521013 
C 323.789371 51.007449 324.077928 50.31081 324.077928 49.584521 
C 324.077928 48.858233 323.789371 48.161593 323.275807 47.648029 
C 322.762244 47.134466 322.065604 46.845908 321.339316 46.845908 
C 320.613027 46.845908 319.916388 47.134466 319.402824 47.648029 
C 318.88926 48.161593 318.600703 48.858233 318.600703 49.584521 
C 318.600703 50.31081 318.88926 51.007449 319.402824 51.521013 
C 319.916388 52.034576 320.613027 52.323134 321.339316 52.323134 
z
" clip-path="url(#p6be8613911)" style="fill: #add8e6; stroke: #add8e6"/>
    <path d="M 280.774214 226.649722 
C 281.500502 226.649722 282.197142 226.361165 282.710705 225.847601 
C 283.224269 225.334038 283.512826 224.637398 283.512826 223.911109 
C 283.512826 223.184821 283.224269 222.488181 282.710705 221.974618 
C 282.197142 221.461054 281.500502 221.172497 280.774214 221.172497 
C 280.047925 221.172497 279.351285 221.461054 278.837722 221.974618 
C 278.324158 222.488181 278.035601 223.184821 278.035601 223.911109 
C 278.035601 224.637398 278.324158 225.334038 278.837722 225.847601 
C 279.351285 226.361165 280.047925 226.649722 280.774214 226.649722 
z
" clip-path="url(#p6be8613911)" style="fill: #add8e6; stroke: #add8e6"/>
    <path d="M 219.783367 210.881666 
C 220.810494 210.881666 221.795691 210.473584 222.52198 209.747296 
C 223.248268 209.021007 223.65635 208.03581 223.65635 207.008683 
C 223.65635 205.981556 223.248268 204.996359 222.52198 204.27007 
C 221.795691 203.543782 220.810494 203.1357 219.783367 203.1357 
C 218.75624 203.1357 217.771043 203.543782 217.044754 204.27007 
C 216.318466 204.996359 215.910384 205.981556 215.910384 207.008683 
C 215.910384 208.03581 216.318466 209.021007 217.044754 209.747296 
C 217.771043 210.473584 218.75624 210.881666 219.783367 210.881666 
z
" clip-path="url(#p6be8613911)" style="fill: #add8e6; stroke: #add8e6"/>
    <path d="M 153.202255 154.1899 
C 154.229382 154.1899 155.214579 153.781818 155.940868 153.055529 
C 156.667156 152.329241 157.075238 151.344044 157.075238 150.316916 
C 157.075238 149.289789 156.667156 148.304592 155.940868 147.578304 
C 155.214579 146.852015 154.229382 146.443933 153.202255 146.443933 
C 152.175128 146.443933 151.189931 146.852015 150.463642 147.578304 
C 149.737354 148.304592 149.329272 149.289789 149.329272 150.316916 
C 149.329272 151.344044 149.737354 152.329241 150.463642 153.055529 
C 151.189931 153.781818 152.175128 154.1899 153.202255 154.1899 
z
" clip-path="url(#p6be8613911)" style="fill: #add8e6; stroke: #add8e6"/>
    <path d="M 187.054781 322.57608 
C 187.781069 322.57608 188.477709 322.287523 188.991272 321.773959 
C 189.504836 321.260395 189.793394 320.563756 189.793394 319.837467 
C 189.793394 319.111179 189.504836 318.414539 188.991272 317.900976 
C 188.477709 317.387412 187.781069 317.098855 187.054781 317.098855 
C 186.328492 317.098855 185.631853 317.387412 185.118289 317.900976 
C 184.604726 318.414539 184.316168 319.111179 184.316168 319.837467 
C 184.316168 320.563756 184.604726 321.260395 185.118289 321.773959 
C 185.631853 322.287523 186.328492 322.57608 187.054781 322.57608 
z
" clip-path="url(#p6be8613911)" style="fill: #add8e6; stroke: #add8e6"/>
    <path d="M 171.662371 49.97526 
C 172.92034 49.97526 174.126955 49.475463 175.016473 48.585945 
C 175.905991 47.696427 176.405787 46.489812 176.405787 45.231843 
C 176.405787 43.973874 175.905991 42.767259 175.016473 41.877741 
C 174.126955 40.988223 172.92034 40.488427 171.662371 40.488427 
C 170.404402 40.488427 169.197787 40.988223 168.308269 41.877741 
C 167.418751 42.767259 166.918955 43.973874 166.918955 45.231843 
C 166.918955 46.489812 167.418751 47.696427 168.308269 48.585945 
C 169.197787 49.475463 170.404402 49.97526 171.662371 49.97526 
z
" clip-path="url(#p6be8613911)" style="fill: #add8e6; stroke: #add8e6"/>
    <path d="M 342.885071 234.17648 
C 343.61136 234.17648 344.307999 233.887923 344.821563 233.374359 
C 345.335126 232.860796 345.623684 232.164156 345.623684 231.437868 
C 345.623684 230.711579 345.335126 230.01494 344.821563 229.501376 
C 344.307999 228.987812 343.61136 228.699255 342.885071 228.699255 
C 342.158782 228.699255 341.462143 228.987812 340.948579 229.501376 
C 340.435016 230.01494 340.146458 230.711579 340.146458 231.437868 
C 340.146458 232.164156 340.435016 232.860796 340.948579 233.374359 
C 341.462143 233.887923 342.158782 234.17648 342.885071 234.17648 
z
" clip-path="url(#p6be8613911)" style="fill: #add8e6; stroke: #add8e6"/>
    <path d="M 191.635315 202.618307 
C 192.361603 202.618307 193.058243 202.32975 193.571806 201.816186 
C 194.08537 201.302622 194.373928 200.605983 194.373928 199.879694 
C 194.373928 199.153406 194.08537 198.456766 193.571806 197.943203 
C 193.058243 197.429639 192.361603 197.141082 191.635315 197.141082 
C 190.909026 197.141082 190.212387 197.429639 189.698823 197.943203 
C 189.185259 198.456766 188.896702 199.153406 188.896702 199.879694 
C 188.896702 200.605983 189.185259 201.302622 189.698823 201.816186 
C 190.212387 202.32975 190.909026 202.618307 191.635315 202.618307 
z
" clip-path="url(#p6be8613911)" style="fill: #add8e6; stroke: #add8e6"/>
    <path d="M 171.9821 321.149701 
C 172.708388 321.149701 173.405028 320.861143 173.918591 320.34758 
C 174.432155 319.834016 174.720713 319.137377 174.720713 318.411088 
C 174.720713 317.684799 174.432155 316.98816 173.918591 316.474596 
C 173.405028 315.961033 172.708388 315.672475 171.9821 315.672475 
C 171.255811 315.672475 170.559172 315.961033 170.045608 316.474596 
C 169.532045 316.98816 169.243487 317.684799 169.243487 318.411088 
C 169.243487 319.137377 169.532045 319.834016 170.045608 320.34758 
C 170.559172 320.861143 171.255811 321.149701 171.9821 321.149701 
z
" clip-path="url(#p6be8613911)" style="fill: #add8e6; stroke: #add8e6"/>
    <path d="M 119.041489 148.595343 
C 119.767778 148.595343 120.464417 148.306785 120.977981 147.793222 
C 121.491544 147.279658 121.780102 146.583019 121.780102 145.85673 
C 121.780102 145.130442 121.491544 144.433802 120.977981 143.920239 
C 120.464417 143.406675 119.767778 143.118117 119.041489 143.118117 
C 118.315201 143.118117 117.618561 143.406675 117.104997 143.920239 
C 116.591434 144.433802 116.302876 145.130442 116.302876 145.85673 
C 116.302876 146.583019 116.591434 147.279658 117.104997 147.793222 
C 117.618561 148.306785 118.315201 148.595343 119.041489 148.595343 
z
" clip-path="url(#p6be8613911)" style="fill: #add8e6; stroke: #add8e6"/>
    <path d="M 157.09161 318.921663 
C 157.817899 318.921663 158.514538 318.633106 159.028102 318.119542 
C 159.541665 317.605978 159.830223 316.909339 159.830223 316.18305 
C 159.830223 315.456762 159.541665 314.760122 159.028102 314.246559 
C 158.514538 313.732995 157.817899 313.444437 157.09161 313.444437 
C 156.365321 313.444437 155.668682 313.732995 155.155118 314.246559 
C 154.641555 314.760122 154.352997 315.456762 154.352997 316.18305 
C 154.352997 316.909339 154.641555 317.605978 155.155118 318.119542 
C 155.668682 318.633106 156.365321 318.921663 157.09161 318.921663 
z
" clip-path="url(#p6be8613911)" style="fill: #add8e6; stroke: #add8e6"/>
    <path d="M 158.437457 28.501145 
C 159.163746 28.501145 159.860385 28.212588 160.373949 27.699024 
C 160.887512 27.185461 161.17607 26.488821 161.17607 25.762533 
C 161.17607 25.036244 160.887512 24.339605 160.373949 23.826041 
C 159.860385 23.312477 159.163746 23.02392 158.437457 23.02392 
C 157.711168 23.02392 157.014529 23.312477 156.500965 23.826041 
C 155.987402 24.339605 155.698844 25.036244 155.698844 25.762533 
C 155.698844 26.488821 155.987402 27.185461 156.500965 27.699024 
C 157.014529 28.212588 157.711168 28.501145 158.437457 28.501145 
z
" clip-path="url(#p6be8613911)" style="fill: #add8e6; stroke: #add8e6"/>
    <path d="M 162.577775 226.375075 
C 163.604902 226.375075 164.590099 225.966993 165.316388 225.240705 
C 166.042676 224.514416 166.450758 223.529219 166.450758 222.502092 
C 166.450758 221.474965 166.042676 220.489768 165.316388 219.763479 
C 164.590099 219.03719 163.604902 218.629108 162.577775 218.629108 
C 161.550648 218.629108 160.565451 219.03719 159.839162 219.763479 
C 159.112874 220.489768 158.704792 221.474965 158.704792 222.502092 
C 158.704792 223.529219 159.112874 224.514416 159.839162 225.240705 
C 160.565451 225.966993 161.550648 226.375075 162.577775 226.375075 
z
" clip-path="url(#p6be8613911)" style="fill: #add8e6; stroke: #add8e6"/>
    <path d="M 295.97312 126.548707 
C 296.699408 126.548707 297.396048 126.26015 297.909611 125.746586 
C 298.423175 125.233022 298.711733 124.536383 298.711733 123.810094 
C 298.711733 123.083806 298.423175 122.387166 297.909611 121.873603 
C 297.396048 121.360039 296.699408 121.071481 295.97312 121.071481 
C 295.246831 121.071481 294.550192 121.360039 294.036628 121.873603 
C 293.523064 122.387166 293.234507 123.083806 293.234507 123.810094 
C 293.234507 124.536383 293.523064 125.233022 294.036628 125.746586 
C 294.550192 126.26015 295.246831 126.548707 295.97312 126.548707 
z
" clip-path="url(#p6be8613911)" style="fill: #add8e6; stroke: #add8e6"/>
    <path d="M 208.950547 55.050232 
C 209.676835 55.050232 210.373475 54.761675 210.887038 54.248111 
C 211.400602 53.734548 211.68916 53.037908 211.68916 52.311619 
C 211.68916 51.585331 211.400602 50.888691 210.887038 50.375128 
C 210.373475 49.861564 209.676835 49.573007 208.950547 49.573007 
C 208.224258 49.573007 207.527619 49.861564 207.014055 50.375128 
C 206.500492 50.888691 206.211934 51.585331 206.211934 52.311619 
C 206.211934 53.037908 206.500492 53.734548 207.014055 54.248111 
C 207.527619 54.761675 208.224258 55.050232 208.950547 55.050232 
z
" clip-path="url(#p6be8613911)" style="fill: #add8e6; stroke: #add8e6"/>
    <path d="M 338.241924 77.99245 
C 338.968212 77.99245 339.664852 77.703892 340.178415 77.190329 
C 340.691979 76.676765 340.980536 75.980125 340.980536 75.253837 
C 340.980536 74.527548 340.691979 73.830909 340.178415 73.317345 
C 339.664852 72.803782 338.968212 72.515224 338.241924 72.515224 
C 337.515635 72.515224 336.818996 72.803782 336.305432 73.317345 
C 335.791868 73.830909 335.503311 74.527548 335.503311 75.253837 
C 335.503311 75.980125 335.791868 76.676765 336.305432 77.190329 
C 336.818996 77.703892 337.515635 77.99245 338.241924 77.99245 
z
" clip-path="url(#p6be8613911)" style="fill: #add8e6; stroke: #add8e6"/>
    <path d="M 177.594619 243.903408 
C 178.320907 243.903408 179.017547 243.614851 179.53111 243.101287 
C 180.044674 242.587724 180.333231 241.891084 180.333231 241.164796 
C 180.333231 240.438507 180.044674 239.741868 179.53111 239.228304 
C 179.017547 238.71474 178.320907 238.426183 177.594619 238.426183 
C 176.86833 238.426183 176.17169 238.71474 175.658127 239.228304 
C 175.144563 239.741868 174.856006 240.438507 174.856006 241.164796 
C 174.856006 241.891084 175.144563 242.587724 175.658127 243.101287 
C 176.17169 243.614851 176.86833 243.903408 177.594619 243.903408 
z
" clip-path="url(#p6be8613911)" style="fill: #add8e6; stroke: #add8e6"/>
    <path d="M 141.116224 34.207555 
C 141.842513 34.207555 142.539152 33.918998 143.052716 33.405434 
C 143.566279 32.891871 143.854837 32.195231 143.854837 31.468943 
C 143.854837 30.742654 143.566279 30.046015 143.052716 29.532451 
C 142.539152 29.018887 141.842513 28.73033 141.116224 28.73033 
C 140.389936 28.73033 139.693296 29.018887 139.179732 29.532451 
C 138.666169 30.046015 138.377611 30.742654 138.377611 31.468943 
C 138.377611 32.195231 138.666169 32.891871 139.179732 33.405434 
C 139.693296 33.918998 140.389936 34.207555 141.116224 34.207555 
z
" clip-path="url(#p6be8613911)" style="fill: #add8e6; stroke: #add8e6"/>
    <path d="M 304.146536 116.451488 
C 304.872824 116.451488 305.569464 116.16293 306.083027 115.649366 
C 306.596591 115.135803 306.885149 114.439163 306.885149 113.712875 
C 306.885149 112.986586 306.596591 112.289947 306.083027 111.776383 
C 305.569464 111.262819 304.872824 110.974262 304.146536 110.974262 
C 303.420247 110.974262 302.723608 111.262819 302.210044 111.776383 
C 301.69648 112.289947 301.407923 112.986586 301.407923 113.712875 
C 301.407923 114.439163 301.69648 115.135803 302.210044 115.649366 
C 302.723608 116.16293 303.420247 116.451488 304.146536 116.451488 
z
" clip-path="url(#p6be8613911)" style="fill: #add8e6; stroke: #add8e6"/>
   </g>
  </g>
 </g>
 <defs>
  <clipPath id="p6be8613911">
   <rect x="10.8" y="10.8" width="439.2" height="324"/>
  </clipPath>
 </defs>
</svg>
