<?xml version="1.0" encoding="utf-8" standalone="no"?>
<!DOCTYPE svg PUBLIC "-//W3C//DTD SVG 1.1//EN"
  "http://www.w3.org/Graphics/SVG/1.1/DTD/svg11.dtd">
<svg xmlns:xlink="http://www.w3.org/1999/xlink" width="1296pt" height="1296pt" viewBox="0 0 1296 1296" xmlns="http://www.w3.org/2000/svg" version="1.1">
 <metadata>
  <rdf:RDF xmlns:dc="http://purl.org/dc/elements/1.1/" xmlns:cc="http://creativecommons.org/ns#" xmlns:rdf="http://www.w3.org/1999/02/22-rdf-syntax-ns#">
   <cc:Work>
    <dc:type rdf:resource="http://purl.org/dc/dcmitype/StillImage"/>
    <dc:date>2023-01-02T20:43:49.073058</dc:date>
    <dc:format>image/svg+xml</dc:format>
    <dc:creator>
     <cc:Agent>
      <dc:title>Matplotlib v3.6.2, https://matplotlib.org/</dc:title>
     </cc:Agent>
    </dc:creator>
   </cc:Work>
  </rdf:RDF>
 </metadata>
 <defs>
  <style type="text/css">*{stroke-linejoin: round; stroke-linecap: butt}</style>
 </defs>
 <g id="figure_1">
  <g id="patch_1">
   <path d="M 0 1296 
L 1296 1296 
L 1296 0 
L 0 0 
z
" style="fill: #ffffff"/>
  </g>
  <g id="axes_1">
   <g id="patch_2">
    <path d="M 65.45 1254.04 
L 1285.2 1254.04 
L 1285.2 26.88 
L 65.45 26.88 
z
" style="fill: #ffffff"/>
   </g>
   <g id="LineCollection_1">
    <path d="M 731.71157 630.204613 
L 696.403551 603.213921 
" clip-path="url(#p71a764e980)" style="fill: none; stroke: #000000"/>
    <path d="M 696.403551 603.213921 
L 834.321902 704.071047 
" clip-path="url(#p71a764e980)" style="fill: none; stroke: #000000"/>
    <path d="M 696.403551 603.213921 
L 603.204662 606.933204 
" clip-path="url(#p71a764e980)" style="fill: none; stroke: #000000"/>
    <path d="M 696.403551 603.213921 
L 552.951943 518.66288 
" clip-path="url(#p71a764e980)" style="fill: none; stroke: #000000"/>
    <path d="M 696.403551 603.213921 
L 752.865315 550.0612 
" clip-path="url(#p71a764e980)" style="fill: none; stroke: #000000"/>
    <path d="M 696.403551 603.213921 
L 740.823468 589.821618 
" clip-path="url(#p71a764e980)" style="fill: none; stroke: #000000"/>
    <path d="M 834.321902 704.071047 
L 858.309423 828.075603 
" clip-path="url(#p71a764e980)" style="fill: none; stroke: #000000"/>
    <path d="M 834.321902 704.071047 
L 853.866588 737.236851 
" clip-path="url(#p71a764e980)" style="fill: none; stroke: #000000"/>
    <path d="M 834.321902 704.071047 
L 943.353124 740.470069 
" clip-path="url(#p71a764e980)" style="fill: none; stroke: #000000"/>
    <path d="M 834.321902 704.071047 
L 909.3123 661.483081 
" clip-path="url(#p71a764e980)" style="fill: none; stroke: #000000"/>
    <path d="M 834.321902 704.071047 
L 870.42198 692.742073 
" clip-path="url(#p71a764e980)" style="fill: none; stroke: #000000"/>
    <path d="M 858.309423 828.075603 
L 863.9593 887.861874 
" clip-path="url(#p71a764e980)" style="fill: none; stroke: #000000"/>
    <path d="M 858.309423 828.075603 
L 893.867535 857.560656 
" clip-path="url(#p71a764e980)" style="fill: none; stroke: #000000"/>
    <path d="M 858.309423 828.075603 
L 849.12749 869.257937 
" clip-path="url(#p71a764e980)" style="fill: none; stroke: #000000"/>
    <path d="M 858.309423 828.075603 
L 825.39728 873.438861 
" clip-path="url(#p71a764e980)" style="fill: none; stroke: #000000"/>
    <path d="M 858.309423 828.075603 
L 898.956159 899.790929 
" clip-path="url(#p71a764e980)" style="fill: none; stroke: #000000"/>
    <path d="M 603.204662 606.933204 
L 534.918803 671.662771 
" clip-path="url(#p71a764e980)" style="fill: none; stroke: #000000"/>
    <path d="M 603.204662 606.933204 
L 633.45962 579.009183 
" clip-path="url(#p71a764e980)" style="fill: none; stroke: #000000"/>
    <path d="M 603.204662 606.933204 
L 542.633007 700.327226 
" clip-path="url(#p71a764e980)" style="fill: none; stroke: #000000"/>
    <path d="M 603.204662 606.933204 
L 602.480199 520.948545 
" clip-path="url(#p71a764e980)" style="fill: none; stroke: #000000"/>
    <path d="M 603.204662 606.933204 
L 611.391218 650.423228 
" clip-path="url(#p71a764e980)" style="fill: none; stroke: #000000"/>
    <path d="M 603.204662 606.933204 
L 646.333422 603.864681 
" clip-path="url(#p71a764e980)" style="fill: none; stroke: #000000"/>
    <path d="M 603.204662 606.933204 
L 561.332907 623.087982 
" clip-path="url(#p71a764e980)" style="fill: none; stroke: #000000"/>
    <path d="M 603.204662 606.933204 
L 612.486069 557.362448 
" clip-path="url(#p71a764e980)" style="fill: none; stroke: #000000"/>
    <path d="M 603.204662 606.933204 
L 573.955542 578.349144 
" clip-path="url(#p71a764e980)" style="fill: none; stroke: #000000"/>
    <path d="M 603.204662 606.933204 
L 647.61111 528.305086 
" clip-path="url(#p71a764e980)" style="fill: none; stroke: #000000"/>
    <path d="M 552.951943 518.66288 
L 500.904643 436.248593 
" clip-path="url(#p71a764e980)" style="fill: none; stroke: #000000"/>
    <path d="M 552.951943 518.66288 
L 488.967545 521.421433 
" clip-path="url(#p71a764e980)" style="fill: none; stroke: #000000"/>
    <path d="M 552.951943 518.66288 
L 507.50784 494.125732 
" clip-path="url(#p71a764e980)" style="fill: none; stroke: #000000"/>
    <path d="M 552.951943 518.66288 
L 470.108494 486.264254 
" clip-path="url(#p71a764e980)" style="fill: none; stroke: #000000"/>
    <path d="M 552.951943 518.66288 
L 533.523705 468.828877 
" clip-path="url(#p71a764e980)" style="fill: none; stroke: #000000"/>
    <path d="M 552.951943 518.66288 
L 506.885381 534.99615 
" clip-path="url(#p71a764e980)" style="fill: none; stroke: #000000"/>
    <path d="M 534.918803 671.662771 
L 475.10724 739.650573 
" clip-path="url(#p71a764e980)" style="fill: none; stroke: #000000"/>
    <path d="M 500.904643 436.248593 
L 457.548424 372.786428 
" clip-path="url(#p71a764e980)" style="fill: none; stroke: #000000"/>
    <path d="M 457.548424 372.786428 
L 425.69088 326.046494 
" clip-path="url(#p71a764e980)" style="fill: none; stroke: #000000"/>
    <path d="M 542.633007 700.327226 
L 466.044841 710.101654 
" clip-path="url(#p71a764e980)" style="fill: none; stroke: #000000"/>
    <path d="M 542.633007 700.327226 
L 538.299149 745.013244 
" clip-path="url(#p71a764e980)" style="fill: none; stroke: #000000"/>
    <path d="M 542.633007 700.327226 
L 534.162932 779.111275 
" clip-path="url(#p71a764e980)" style="fill: none; stroke: #000000"/>
    <path d="M 943.353124 740.470069 
L 997.705327 723.14416 
" clip-path="url(#p71a764e980)" style="fill: none; stroke: #000000"/>
    <path d="M 943.353124 740.470069 
L 986.82435 763.799006 
" clip-path="url(#p71a764e980)" style="fill: none; stroke: #000000"/>
    <path d="M 943.353124 740.470069 
L 1006.928476 750.929751 
" clip-path="url(#p71a764e980)" style="fill: none; stroke: #000000"/>
    <path d="M 943.353124 740.470069 
L 981.303292 786.589774 
" clip-path="url(#p71a764e980)" style="fill: none; stroke: #000000"/>
    <path d="M 909.3123 661.483081 
L 962.773181 648.640986 
" clip-path="url(#p71a764e980)" style="fill: none; stroke: #000000"/>
    <path d="M 909.3123 661.483081 
L 948.611385 622.287768 
" clip-path="url(#p71a764e980)" style="fill: none; stroke: #000000"/>
    <path d="M 602.480199 520.948545 
L 603.960073 456.202572 
" clip-path="url(#p71a764e980)" style="fill: none; stroke: #000000"/>
    <path d="M 466.044841 710.101654 
L 407.779986 719.925257 
" clip-path="url(#p71a764e980)" style="fill: none; stroke: #000000"/>
    <path d="M 470.108494 486.264254 
L 412.447726 463.95035 
" clip-path="url(#p71a764e980)" style="fill: none; stroke: #000000"/>
    <path d="M 849.12749 869.257937 
L 493.138958 82.66 
" clip-path="url(#p71a764e980)" style="fill: none; stroke: #000000"/>
    <path d="M 646.333422 603.864681 
L 493.138958 82.66 
" clip-path="url(#p71a764e980)" style="fill: none; stroke: #000000"/>
    <path d="M 475.10724 739.650573 
L 424.047174 770.164075 
" clip-path="url(#p71a764e980)" style="fill: none; stroke: #000000"/>
    <path d="M 475.10724 739.650573 
L 447.620012 790.239528 
" clip-path="url(#p71a764e980)" style="fill: none; stroke: #000000"/>
    <path d="M 573.955542 578.349144 
L 493.138958 82.66 
" clip-path="url(#p71a764e980)" style="fill: none; stroke: #000000"/>
    <path d="M 752.865315 550.0612 
L 793.434383 510.277797 
" clip-path="url(#p71a764e980)" style="fill: none; stroke: #000000"/>
    <path d="M 898.956159 899.790929 
L 927.37485 951.226476 
" clip-path="url(#p71a764e980)" style="fill: none; stroke: #000000"/>
    <path d="M 740.823468 589.821618 
L 493.138958 82.66 
" clip-path="url(#p71a764e980)" style="fill: none; stroke: #000000"/>
    <path d="M 647.61111 528.305086 
L 676.228436 470.437091 
" clip-path="url(#p71a764e980)" style="fill: none; stroke: #000000"/>
    <path d="M 534.162932 779.111275 
L 522.490824 836.003993 
" clip-path="url(#p71a764e980)" style="fill: none; stroke: #000000"/>
   </g>
   <g id="matplotlib.axis_1">
    <g id="xtick_1">
     <g id="line2d_1">
      <defs>
       <path id="m95d0ac309a" d="M 0 0 
L 0 3.5 
" style="stroke: #000000; stroke-width: 0.8"/>
      </defs>
      <g>
       <use xlink:href="#m95d0ac309a" x="231.779545" y="1254.04" style="stroke: #000000; stroke-width: 0.8"/>
      </g>
     </g>
     <g id="text_1">
      <!-- −4000 -->
      <g transform="translate(214.864702 1268.638438) scale(0.1 -0.1)">
       <defs>
        <path id="DejaVuSans-2212" d="M 678 2272 
L 4684 2272 
L 4684 1741 
L 678 1741 
L 678 2272 
z
" transform="scale(0.015625)"/>
        <path id="DejaVuSans-34" d="M 2419 4116 
L 825 1625 
L 2419 1625 
L 2419 4116 
z
M 2253 4666 
L 3047 4666 
L 3047 1625 
L 3713 1625 
L 3713 1100 
L 3047 1100 
L 3047 0 
L 2419 0 
L 2419 1100 
L 313 1100 
L 313 1709 
L 2253 4666 
z
" transform="scale(0.015625)"/>
        <path id="DejaVuSans-30" d="M 2034 4250 
Q 1547 4250 1301 3770 
Q 1056 3291 1056 2328 
Q 1056 1369 1301 889 
Q 1547 409 2034 409 
Q 2525 409 2770 889 
Q 3016 1369 3016 2328 
Q 3016 3291 2770 3770 
Q 2525 4250 2034 4250 
z
M 2034 4750 
Q 2819 4750 3233 4129 
Q 3647 3509 3647 2328 
Q 3647 1150 3233 529 
Q 2819 -91 2034 -91 
Q 1250 -91 836 529 
Q 422 1150 422 2328 
Q 422 3509 836 4129 
Q 1250 4750 2034 4750 
z
" transform="scale(0.015625)"/>
       </defs>
       <use xlink:href="#DejaVuSans-2212"/>
       <use xlink:href="#DejaVuSans-34" x="83.789062"/>
       <use xlink:href="#DejaVuSans-30" x="147.412109"/>
       <use xlink:href="#DejaVuSans-30" x="211.035156"/>
       <use xlink:href="#DejaVuSans-30" x="274.658203"/>
      </g>
     </g>
    </g>
    <g id="xtick_2">
     <g id="line2d_2">
      <g>
       <use xlink:href="#m95d0ac309a" x="453.552273" y="1254.04" style="stroke: #000000; stroke-width: 0.8"/>
      </g>
     </g>
     <g id="text_2">
      <!-- −2000 -->
      <g transform="translate(436.637429 1268.638438) scale(0.1 -0.1)">
       <defs>
        <path id="DejaVuSans-32" d="M 1228 531 
L 3431 531 
L 3431 0 
L 469 0 
L 469 531 
Q 828 903 1448 1529 
Q 2069 2156 2228 2338 
Q 2531 2678 2651 2914 
Q 2772 3150 2772 3378 
Q 2772 3750 2511 3984 
Q 2250 4219 1831 4219 
Q 1534 4219 1204 4116 
Q 875 4013 500 3803 
L 500 4441 
Q 881 4594 1212 4672 
Q 1544 4750 1819 4750 
Q 2544 4750 2975 4387 
Q 3406 4025 3406 3419 
Q 3406 3131 3298 2873 
Q 3191 2616 2906 2266 
Q 2828 2175 2409 1742 
Q 1991 1309 1228 531 
z
" transform="scale(0.015625)"/>
       </defs>
       <use xlink:href="#DejaVuSans-2212"/>
       <use xlink:href="#DejaVuSans-32" x="83.789062"/>
       <use xlink:href="#DejaVuSans-30" x="147.412109"/>
       <use xlink:href="#DejaVuSans-30" x="211.035156"/>
       <use xlink:href="#DejaVuSans-30" x="274.658203"/>
      </g>
     </g>
    </g>
    <g id="xtick_3">
     <g id="line2d_3">
      <g>
       <use xlink:href="#m95d0ac309a" x="675.325" y="1254.04" style="stroke: #000000; stroke-width: 0.8"/>
      </g>
     </g>
     <g id="text_3">
      <!-- 0 -->
      <g transform="translate(672.14375 1268.638438) scale(0.1 -0.1)">
       <use xlink:href="#DejaVuSans-30"/>
      </g>
     </g>
    </g>
    <g id="xtick_4">
     <g id="line2d_4">
      <g>
       <use xlink:href="#m95d0ac309a" x="897.097727" y="1254.04" style="stroke: #000000; stroke-width: 0.8"/>
      </g>
     </g>
     <g id="text_4">
      <!-- 2000 -->
      <g transform="translate(884.372727 1268.638438) scale(0.1 -0.1)">
       <use xlink:href="#DejaVuSans-32"/>
       <use xlink:href="#DejaVuSans-30" x="63.623047"/>
       <use xlink:href="#DejaVuSans-30" x="127.246094"/>
       <use xlink:href="#DejaVuSans-30" x="190.869141"/>
      </g>
     </g>
    </g>
    <g id="xtick_5">
     <g id="line2d_5">
      <g>
       <use xlink:href="#m95d0ac309a" x="1118.870455" y="1254.04" style="stroke: #000000; stroke-width: 0.8"/>
      </g>
     </g>
     <g id="text_5">
      <!-- 4000 -->
      <g transform="translate(1106.145455 1268.638438) scale(0.1 -0.1)">
       <use xlink:href="#DejaVuSans-34"/>
       <use xlink:href="#DejaVuSans-30" x="63.623047"/>
       <use xlink:href="#DejaVuSans-30" x="127.246094"/>
       <use xlink:href="#DejaVuSans-30" x="190.869141"/>
      </g>
     </g>
    </g>
    <g id="text_6">
     <!-- x -->
     <g transform="translate(672.365625 1282.316563) scale(0.1 -0.1)">
      <defs>
       <path id="DejaVuSans-78" d="M 3513 3500 
L 2247 1797 
L 3578 0 
L 2900 0 
L 1881 1375 
L 863 0 
L 184 0 
L 1544 1831 
L 300 3500 
L 978 3500 
L 1906 2253 
L 2834 3500 
L 3513 3500 
z
" transform="scale(0.015625)"/>
      </defs>
      <use xlink:href="#DejaVuSans-78"/>
     </g>
    </g>
   </g>
   <g id="matplotlib.axis_2">
    <g id="ytick_1">
     <g id="line2d_6">
      <defs>
       <path id="mca7a71d102" d="M 0 0 
L -3.5 0 
" style="stroke: #000000; stroke-width: 0.8"/>
      </defs>
      <g>
       <use xlink:href="#mca7a71d102" x="65.45" y="1086.7" style="stroke: #000000; stroke-width: 0.8"/>
      </g>
     </g>
     <g id="text_7">
      <!-- −4000 -->
      <g transform="translate(24.620313 1090.499219) scale(0.1 -0.1)">
       <use xlink:href="#DejaVuSans-2212"/>
       <use xlink:href="#DejaVuSans-34" x="83.789062"/>
       <use xlink:href="#DejaVuSans-30" x="147.412109"/>
       <use xlink:href="#DejaVuSans-30" x="211.035156"/>
       <use xlink:href="#DejaVuSans-30" x="274.658203"/>
      </g>
     </g>
    </g>
    <g id="ytick_2">
     <g id="line2d_7">
      <g>
       <use xlink:href="#mca7a71d102" x="65.45" y="863.58" style="stroke: #000000; stroke-width: 0.8"/>
      </g>
     </g>
     <g id="text_8">
      <!-- −2000 -->
      <g transform="translate(24.620313 867.379219) scale(0.1 -0.1)">
       <use xlink:href="#DejaVuSans-2212"/>
       <use xlink:href="#DejaVuSans-32" x="83.789062"/>
       <use xlink:href="#DejaVuSans-30" x="147.412109"/>
       <use xlink:href="#DejaVuSans-30" x="211.035156"/>
       <use xlink:href="#DejaVuSans-30" x="274.658203"/>
      </g>
     </g>
    </g>
    <g id="ytick_3">
     <g id="line2d_8">
      <g>
       <use xlink:href="#mca7a71d102" x="65.45" y="640.46" style="stroke: #000000; stroke-width: 0.8"/>
      </g>
     </g>
     <g id="text_9">
      <!-- 0 -->
      <g transform="translate(52.0875 644.259219) scale(0.1 -0.1)">
       <use xlink:href="#DejaVuSans-30"/>
      </g>
     </g>
    </g>
    <g id="ytick_4">
     <g id="line2d_9">
      <g>
       <use xlink:href="#mca7a71d102" x="65.45" y="417.34" style="stroke: #000000; stroke-width: 0.8"/>
      </g>
     </g>
     <g id="text_10">
      <!-- 2000 -->
      <g transform="translate(33 421.139219) scale(0.1 -0.1)">
       <use xlink:href="#DejaVuSans-32"/>
       <use xlink:href="#DejaVuSans-30" x="63.623047"/>
       <use xlink:href="#DejaVuSans-30" x="127.246094"/>
       <use xlink:href="#DejaVuSans-30" x="190.869141"/>
      </g>
     </g>
    </g>
    <g id="ytick_5">
     <g id="line2d_10">
      <g>
       <use xlink:href="#mca7a71d102" x="65.45" y="194.22" style="stroke: #000000; stroke-width: 0.8"/>
      </g>
     </g>
     <g id="text_11">
      <!-- 4000 -->
      <g transform="translate(33 198.019219) scale(0.1 -0.1)">
       <use xlink:href="#DejaVuSans-34"/>
       <use xlink:href="#DejaVuSans-30" x="63.623047"/>
       <use xlink:href="#DejaVuSans-30" x="127.246094"/>
       <use xlink:href="#DejaVuSans-30" x="190.869141"/>
      </g>
     </g>
    </g>
    <g id="text_12">
     <!-- y -->
     <g transform="translate(18.540625 643.419375) rotate(-90) scale(0.1 -0.1)">
      <defs>
       <path id="DejaVuSans-79" d="M 2059 -325 
Q 1816 -950 1584 -1140 
Q 1353 -1331 966 -1331 
L 506 -1331 
L 506 -850 
L 844 -850 
Q 1081 -850 1212 -737 
Q 1344 -625 1503 -206 
L 1606 56 
L 191 3500 
L 800 3500 
L 1894 763 
L 2988 3500 
L 3597 3500 
L 2059 -325 
z
" transform="scale(0.015625)"/>
      </defs>
      <use xlink:href="#DejaVuSans-79"/>
     </g>
    </g>
   </g>
   <g id="PathCollection_1">
    <path d="M 731.71157 643.433369 
C 735.219877 643.433369 738.584965 642.039504 741.065713 639.558756 
C 743.546461 637.078008 744.940326 633.71292 744.940326 630.204613 
C 744.940326 626.696305 743.546461 623.331217 741.065713 620.850469 
C 738.584965 618.369721 735.219877 616.975856 731.71157 616.975856 
C 728.203263 616.975856 724.838174 618.369721 722.357426 620.850469 
C 719.876679 623.331217 718.482813 626.696305 718.482813 630.204613 
C 718.482813 633.71292 719.876679 637.078008 722.357426 639.558756 
C 724.838174 642.039504 728.203263 643.433369 731.71157 643.433369 
z
" clip-path="url(#p71a764e980)" style="fill: #9b2242; stroke: #9b2242"/>
    <path d="M 696.403551 616.442678 
C 699.911858 616.442678 703.276946 615.048812 705.757694 612.568065 
C 708.238442 610.087317 709.632307 606.722228 709.632307 603.213921 
C 709.632307 599.705614 708.238442 596.340526 705.757694 593.859778 
C 703.276946 591.37903 699.911858 589.985165 696.403551 589.985165 
C 692.895243 589.985165 689.530155 591.37903 687.049407 593.859778 
C 684.568659 596.340526 683.174794 599.705614 683.174794 603.213921 
C 683.174794 606.722228 684.568659 610.087317 687.049407 612.568065 
C 689.530155 615.048812 692.895243 616.442678 696.403551 616.442678 
z
" clip-path="url(#p71a764e980)" style="fill: #9b2242; stroke: #9b2242"/>
    <path d="M 834.321902 717.299804 
C 837.83021 717.299804 841.195298 715.905938 843.676046 713.42519 
C 846.156794 710.944443 847.550659 707.579354 847.550659 704.071047 
C 847.550659 700.56274 846.156794 697.197651 843.676046 694.716904 
C 841.195298 692.236156 837.83021 690.84229 834.321902 690.84229 
C 830.813595 690.84229 827.448507 692.236156 824.967759 694.716904 
C 822.487011 697.197651 821.093146 700.56274 821.093146 704.071047 
C 821.093146 707.579354 822.487011 710.944443 824.967759 713.42519 
C 827.448507 715.905938 830.813595 717.299804 834.321902 717.299804 
z
" clip-path="url(#p71a764e980)" style="fill: #9b2242; stroke: #9b2242"/>
    <path d="M 858.309423 841.30436 
C 861.81773 841.30436 865.182819 839.910495 867.663566 837.429747 
C 870.144314 834.948999 871.53818 831.583911 871.53818 828.075603 
C 871.53818 824.567296 870.144314 821.202208 867.663566 818.72146 
C 865.182819 816.240712 861.81773 814.846847 858.309423 814.846847 
C 854.801116 814.846847 851.436027 816.240712 848.95528 818.72146 
C 846.474532 821.202208 845.080666 824.567296 845.080666 828.075603 
C 845.080666 831.583911 846.474532 834.948999 848.95528 837.429747 
C 851.436027 839.910495 854.801116 841.30436 858.309423 841.30436 
z
" clip-path="url(#p71a764e980)" style="fill: #9b2242; stroke: #9b2242"/>
    <path d="M 603.204662 620.161961 
C 606.71297 620.161961 610.078058 618.768095 612.558806 616.287348 
C 615.039554 613.8066 616.433419 610.441511 616.433419 606.933204 
C 616.433419 603.424897 615.039554 600.059808 612.558806 597.579061 
C 610.078058 595.098313 606.71297 593.704447 603.204662 593.704447 
C 599.696355 593.704447 596.331267 595.098313 593.850519 597.579061 
C 591.369771 600.059808 589.975906 603.424897 589.975906 606.933204 
C 589.975906 610.441511 591.369771 613.8066 593.850519 616.287348 
C 596.331267 618.768095 599.696355 620.161961 603.204662 620.161961 
z
" clip-path="url(#p71a764e980)" style="fill: #9b2242; stroke: #9b2242"/>
    <path d="M 552.951943 531.891636 
C 556.460251 531.891636 559.825339 530.497771 562.306087 528.017023 
C 564.786835 525.536275 566.1807 522.171187 566.1807 518.66288 
C 566.1807 515.154572 564.786835 511.789484 562.306087 509.308736 
C 559.825339 506.827988 556.460251 505.434123 552.951943 505.434123 
C 549.443636 505.434123 546.078548 506.827988 543.5978 509.308736 
C 541.117052 511.789484 539.723187 515.154572 539.723187 518.66288 
C 539.723187 522.171187 541.117052 525.536275 543.5978 528.017023 
C 546.078548 530.497771 549.443636 531.891636 552.951943 531.891636 
z
" clip-path="url(#p71a764e980)" style="fill: #9b2242; stroke: #9b2242"/>
    <path d="M 534.918803 684.891527 
C 538.42711 684.891527 541.792198 683.497662 544.272946 681.016914 
C 546.753694 678.536166 548.147559 675.171078 548.147559 671.662771 
C 548.147559 668.154464 546.753694 664.789375 544.272946 662.308627 
C 541.792198 659.827879 538.42711 658.434014 534.918803 658.434014 
C 531.410495 658.434014 528.045407 659.827879 525.564659 662.308627 
C 523.083911 664.789375 521.690046 668.154464 521.690046 671.662771 
C 521.690046 675.171078 523.083911 678.536166 525.564659 681.016914 
C 528.045407 683.497662 531.410495 684.891527 534.918803 684.891527 
z
" clip-path="url(#p71a764e980)" style="fill: #9b2242; stroke: #9b2242"/>
    <path d="M 863.9593 901.090631 
C 867.467607 901.090631 870.832696 899.696765 873.313444 897.216018 
C 875.794191 894.73527 877.188057 891.370181 877.188057 887.861874 
C 877.188057 884.353567 875.794191 880.988478 873.313444 878.507731 
C 870.832696 876.026983 867.467607 874.633118 863.9593 874.633118 
C 860.450993 874.633118 857.085905 876.026983 854.605157 878.507731 
C 852.124409 880.988478 850.730544 884.353567 850.730544 887.861874 
C 850.730544 891.370181 852.124409 894.73527 854.605157 897.216018 
C 857.085905 899.696765 860.450993 901.090631 863.9593 901.090631 
z
" clip-path="url(#p71a764e980)" style="fill: #9b2242; stroke: #9b2242"/>
    <path d="M 500.904643 449.477349 
C 504.41295 449.477349 507.778039 448.083484 510.258786 445.602736 
C 512.739534 443.121988 514.1334 439.7569 514.1334 436.248593 
C 514.1334 432.740285 512.739534 429.375197 510.258786 426.894449 
C 507.778039 424.413701 504.41295 423.019836 500.904643 423.019836 
C 497.396336 423.019836 494.031247 424.413701 491.5505 426.894449 
C 489.069752 429.375197 487.675886 432.740285 487.675886 436.248593 
C 487.675886 439.7569 489.069752 443.121988 491.5505 445.602736 
C 494.031247 448.083484 497.396336 449.477349 500.904643 449.477349 
z
" clip-path="url(#p71a764e980)" style="fill: #9b2242; stroke: #9b2242"/>
    <path d="M 488.967545 534.65019 
C 492.475852 534.65019 495.84094 533.256324 498.321688 530.775577 
C 500.802436 528.294829 502.196301 524.92974 502.196301 521.421433 
C 502.196301 517.913126 500.802436 514.548037 498.321688 512.06729 
C 495.84094 509.586542 492.475852 508.192677 488.967545 508.192677 
C 485.459238 508.192677 482.094149 509.586542 479.613401 512.06729 
C 477.132653 514.548037 475.738788 517.913126 475.738788 521.421433 
C 475.738788 524.92974 477.132653 528.294829 479.613401 530.775577 
C 482.094149 533.256324 485.459238 534.65019 488.967545 534.65019 
z
" clip-path="url(#p71a764e980)" style="fill: #9b2242; stroke: #9b2242"/>
    <path d="M 893.867535 870.789413 
C 897.375842 870.789413 900.74093 869.395548 903.221678 866.9148 
C 905.702426 864.434052 907.096291 861.068964 907.096291 857.560656 
C 907.096291 854.052349 905.702426 850.687261 903.221678 848.206513 
C 900.74093 845.725765 897.375842 844.3319 893.867535 844.3319 
C 890.359228 844.3319 886.994139 845.725765 884.513391 848.206513 
C 882.032643 850.687261 880.638778 854.052349 880.638778 857.560656 
C 880.638778 861.068964 882.032643 864.434052 884.513391 866.9148 
C 886.994139 869.395548 890.359228 870.789413 893.867535 870.789413 
z
" clip-path="url(#p71a764e980)" style="fill: #9b2242; stroke: #9b2242"/>
    <path d="M 457.548424 386.015185 
C 461.056732 386.015185 464.42182 384.621319 466.902568 382.140571 
C 469.383316 379.659824 470.777181 376.294735 470.777181 372.786428 
C 470.777181 369.278121 469.383316 365.913032 466.902568 363.432285 
C 464.42182 360.951537 461.056732 359.557671 457.548424 359.557671 
C 454.040117 359.557671 450.675029 360.951537 448.194281 363.432285 
C 445.713533 365.913032 444.319668 369.278121 444.319668 372.786428 
C 444.319668 376.294735 445.713533 379.659824 448.194281 382.140571 
C 450.675029 384.621319 454.040117 386.015185 457.548424 386.015185 
z
" clip-path="url(#p71a764e980)" style="fill: #9b2242; stroke: #9b2242"/>
    <path d="M 853.866588 750.465607 
C 857.374895 750.465607 860.739984 749.071742 863.220731 746.590994 
C 865.701479 744.110246 867.095345 740.745158 867.095345 737.236851 
C 867.095345 733.728544 865.701479 730.363455 863.220731 727.882707 
C 860.739984 725.401959 857.374895 724.008094 853.866588 724.008094 
C 850.358281 724.008094 846.993192 725.401959 844.512445 727.882707 
C 842.031697 730.363455 840.637831 733.728544 840.637831 737.236851 
C 840.637831 740.745158 842.031697 744.110246 844.512445 746.590994 
C 846.993192 749.071742 850.358281 750.465607 853.866588 750.465607 
z
" clip-path="url(#p71a764e980)" style="fill: #9b2242; stroke: #9b2242"/>
    <path d="M 633.45962 592.23794 
C 636.967927 592.23794 640.333015 590.844074 642.813763 588.363326 
C 645.294511 585.882579 646.688376 582.51749 646.688376 579.009183 
C 646.688376 575.500876 645.294511 572.135787 642.813763 569.655039 
C 640.333015 567.174292 636.967927 565.780426 633.45962 565.780426 
C 629.951312 565.780426 626.586224 567.174292 624.105476 569.655039 
C 621.624728 572.135787 620.230863 575.500876 620.230863 579.009183 
C 620.230863 582.51749 621.624728 585.882579 624.105476 588.363326 
C 626.586224 590.844074 629.951312 592.23794 633.45962 592.23794 
z
" clip-path="url(#p71a764e980)" style="fill: #9b2242; stroke: #9b2242"/>
    <path d="M 507.50784 507.354489 
C 511.016148 507.354489 514.381236 505.960623 516.861984 503.479875 
C 519.342732 500.999128 520.736597 497.634039 520.736597 494.125732 
C 520.736597 490.617425 519.342732 487.252336 516.861984 484.771589 
C 514.381236 482.290841 511.016148 480.896975 507.50784 480.896975 
C 503.999533 480.896975 500.634445 482.290841 498.153697 484.771589 
C 495.672949 487.252336 494.279084 490.617425 494.279084 494.125732 
C 494.279084 497.634039 495.672949 500.999128 498.153697 503.479875 
C 500.634445 505.960623 503.999533 507.354489 507.50784 507.354489 
z
" clip-path="url(#p71a764e980)" style="fill: #9b2242; stroke: #9b2242"/>
    <path d="M 542.633007 713.555982 
C 546.141315 713.555982 549.506403 712.162117 551.987151 709.681369 
C 554.467899 707.200621 555.861764 703.835533 555.861764 700.327226 
C 555.861764 696.818918 554.467899 693.45383 551.987151 690.973082 
C 549.506403 688.492334 546.141315 687.098469 542.633007 687.098469 
C 539.1247 687.098469 535.759612 688.492334 533.278864 690.973082 
C 530.798116 693.45383 529.404251 696.818918 529.404251 700.327226 
C 529.404251 703.835533 530.798116 707.200621 533.278864 709.681369 
C 535.759612 712.162117 539.1247 713.555982 542.633007 713.555982 
z
" clip-path="url(#p71a764e980)" style="fill: #9b2242; stroke: #9b2242"/>
    <path d="M 943.353124 753.698826 
C 946.861432 753.698826 950.22652 752.304961 952.707268 749.824213 
C 955.188016 747.343465 956.581881 743.978377 956.581881 740.470069 
C 956.581881 736.961762 955.188016 733.596674 952.707268 731.115926 
C 950.22652 728.635178 946.861432 727.241313 943.353124 727.241313 
C 939.844817 727.241313 936.479729 728.635178 933.998981 731.115926 
C 931.518233 733.596674 930.124368 736.961762 930.124368 740.470069 
C 930.124368 743.978377 931.518233 747.343465 933.998981 749.824213 
C 936.479729 752.304961 939.844817 753.698826 943.353124 753.698826 
z
" clip-path="url(#p71a764e980)" style="fill: #9b2242; stroke: #9b2242"/>
    <path d="M 909.3123 674.711837 
C 912.820607 674.711837 916.185696 673.317972 918.666443 670.837224 
C 921.147191 668.356477 922.541057 664.991388 922.541057 661.483081 
C 922.541057 657.974774 921.147191 654.609685 918.666443 652.128937 
C 916.185696 649.64819 912.820607 648.254324 909.3123 648.254324 
C 905.803993 648.254324 902.438904 649.64819 899.958157 652.128937 
C 897.477409 654.609685 896.083543 657.974774 896.083543 661.483081 
C 896.083543 664.991388 897.477409 668.356477 899.958157 670.837224 
C 902.438904 673.317972 905.803993 674.711837 909.3123 674.711837 
z
" clip-path="url(#p71a764e980)" style="fill: #9b2242; stroke: #9b2242"/>
    <path d="M 602.480199 534.177301 
C 605.988506 534.177301 609.353595 532.783436 611.834343 530.302688 
C 614.31509 527.82194 615.708956 524.456852 615.708956 520.948545 
C 615.708956 517.440237 614.31509 514.075149 611.834343 511.594401 
C 609.353595 509.113653 605.988506 507.719788 602.480199 507.719788 
C 598.971892 507.719788 595.606803 509.113653 593.126056 511.594401 
C 590.645308 514.075149 589.251442 517.440237 589.251442 520.948545 
C 589.251442 524.456852 590.645308 527.82194 593.126056 530.302688 
C 595.606803 532.783436 598.971892 534.177301 602.480199 534.177301 
z
" clip-path="url(#p71a764e980)" style="fill: #9b2242; stroke: #9b2242"/>
    <path d="M 466.044841 723.33041 
C 469.553149 723.33041 472.918237 721.936545 475.398985 719.455797 
C 477.879733 716.975049 479.273598 713.609961 479.273598 710.101654 
C 479.273598 706.593346 477.879733 703.228258 475.398985 700.74751 
C 472.918237 698.266762 469.553149 696.872897 466.044841 696.872897 
C 462.536534 696.872897 459.171446 698.266762 456.690698 700.74751 
C 454.20995 703.228258 452.816085 706.593346 452.816085 710.101654 
C 452.816085 713.609961 454.20995 716.975049 456.690698 719.455797 
C 459.171446 721.936545 462.536534 723.33041 466.044841 723.33041 
z
" clip-path="url(#p71a764e980)" style="fill: #9b2242; stroke: #9b2242"/>
    <path d="M 470.108494 499.49301 
C 473.616801 499.49301 476.981889 498.099145 479.462637 495.618397 
C 481.943385 493.137649 483.33725 489.772561 483.33725 486.264254 
C 483.33725 482.755947 481.943385 479.390858 479.462637 476.91011 
C 476.981889 474.429363 473.616801 473.035497 470.108494 473.035497 
C 466.600186 473.035497 463.235098 474.429363 460.75435 476.91011 
C 458.273602 479.390858 456.879737 482.755947 456.879737 486.264254 
C 456.879737 489.772561 458.273602 493.137649 460.75435 495.618397 
C 463.235098 498.099145 466.600186 499.49301 470.108494 499.49301 
z
" clip-path="url(#p71a764e980)" style="fill: #9b2242; stroke: #9b2242"/>
    <path d="M 533.523705 482.057633 
C 537.032012 482.057633 540.397101 480.663768 542.877849 478.18302 
C 545.358596 475.702272 546.752462 472.337184 546.752462 468.828877 
C 546.752462 465.32057 545.358596 461.955481 542.877849 459.474733 
C 540.397101 456.993985 537.032012 455.60012 533.523705 455.60012 
C 530.015398 455.60012 526.65031 456.993985 524.169562 459.474733 
C 521.688814 461.955481 520.294949 465.32057 520.294949 468.828877 
C 520.294949 472.337184 521.688814 475.702272 524.169562 478.18302 
C 526.65031 480.663768 530.015398 482.057633 533.523705 482.057633 
z
" clip-path="url(#p71a764e980)" style="fill: #9b2242; stroke: #9b2242"/>
    <path d="M 611.391218 663.651984 
C 614.899526 663.651984 618.264614 662.258119 620.745362 659.777371 
C 623.22611 657.296623 624.619975 653.931535 624.619975 650.423228 
C 624.619975 646.91492 623.22611 643.549832 620.745362 641.069084 
C 618.264614 638.588336 614.899526 637.194471 611.391218 637.194471 
C 607.882911 637.194471 604.517823 638.588336 602.037075 641.069084 
C 599.556327 643.549832 598.162462 646.91492 598.162462 650.423228 
C 598.162462 653.931535 599.556327 657.296623 602.037075 659.777371 
C 604.517823 662.258119 607.882911 663.651984 611.391218 663.651984 
z
" clip-path="url(#p71a764e980)" style="fill: #9b2242; stroke: #9b2242"/>
    <path d="M 849.12749 882.486694 
C 852.635797 882.486694 856.000885 881.092828 858.481633 878.612081 
C 860.962381 876.131333 862.356246 872.766244 862.356246 869.257937 
C 862.356246 865.74963 860.962381 862.384541 858.481633 859.903794 
C 856.000885 857.423046 852.635797 856.029181 849.12749 856.029181 
C 845.619183 856.029181 842.254094 857.423046 839.773346 859.903794 
C 837.292598 862.384541 835.898733 865.74963 835.898733 869.257937 
C 835.898733 872.766244 837.292598 876.131333 839.773346 878.612081 
C 842.254094 881.092828 845.619183 882.486694 849.12749 882.486694 
z
" clip-path="url(#p71a764e980)" style="fill: #9b2242; stroke: #9b2242"/>
    <path d="M 646.333422 617.093437 
C 649.84173 617.093437 653.206818 615.699572 655.687566 613.218824 
C 658.168314 610.738076 659.562179 607.372988 659.562179 603.864681 
C 659.562179 600.356373 658.168314 596.991285 655.687566 594.510537 
C 653.206818 592.029789 649.84173 590.635924 646.333422 590.635924 
C 642.825115 590.635924 639.460027 592.029789 636.979279 594.510537 
C 634.498531 596.991285 633.104666 600.356373 633.104666 603.864681 
C 633.104666 607.372988 634.498531 610.738076 636.979279 613.218824 
C 639.460027 615.699572 642.825115 617.093437 646.333422 617.093437 
z
" clip-path="url(#p71a764e980)" style="fill: #9b2242; stroke: #9b2242"/>
    <path d="M 561.332907 636.316738 
C 564.841214 636.316738 568.206303 634.922873 570.68705 632.442125 
C 573.167798 629.961377 574.561664 626.596289 574.561664 623.087982 
C 574.561664 619.579674 573.167798 616.214586 570.68705 613.733838 
C 568.206303 611.25309 564.841214 609.859225 561.332907 609.859225 
C 557.8246 609.859225 554.459511 611.25309 551.978763 613.733838 
C 549.498016 616.214586 548.10415 619.579674 548.10415 623.087982 
C 548.10415 626.596289 549.498016 629.961377 551.978763 632.442125 
C 554.459511 634.922873 557.8246 636.316738 561.332907 636.316738 
z
" clip-path="url(#p71a764e980)" style="fill: #9b2242; stroke: #9b2242"/>
    <path d="M 962.773181 661.869743 
C 966.281488 661.869743 969.646577 660.475877 972.127324 657.995129 
C 974.608072 655.514382 976.001937 652.149293 976.001937 648.640986 
C 976.001937 645.132679 974.608072 641.76759 972.127324 639.286843 
C 969.646577 636.806095 966.281488 635.412229 962.773181 635.412229 
C 959.264874 635.412229 955.899785 636.806095 953.419037 639.286843 
C 950.93829 641.76759 949.544424 645.132679 949.544424 648.640986 
C 949.544424 652.149293 950.93829 655.514382 953.419037 657.995129 
C 955.899785 660.475877 959.264874 661.869743 962.773181 661.869743 
z
" clip-path="url(#p71a764e980)" style="fill: #9b2242; stroke: #9b2242"/>
    <path d="M 612.486069 570.591205 
C 615.994376 570.591205 619.359464 569.197339 621.840212 566.716591 
C 624.32096 564.235844 625.714825 560.870755 625.714825 557.362448 
C 625.714825 553.854141 624.32096 550.489052 621.840212 548.008304 
C 619.359464 545.527557 615.994376 544.133691 612.486069 544.133691 
C 608.977762 544.133691 605.612673 545.527557 603.131925 548.008304 
C 600.651177 550.489052 599.257312 553.854141 599.257312 557.362448 
C 599.257312 560.870755 600.651177 564.235844 603.131925 566.716591 
C 605.612673 569.197339 608.977762 570.591205 612.486069 570.591205 
z
" clip-path="url(#p71a764e980)" style="fill: #9b2242; stroke: #9b2242"/>
    <path d="M 997.705327 736.372917 
C 1001.213634 736.372917 1004.578722 734.979051 1007.05947 732.498303 
C 1009.540218 730.017556 1010.934083 726.652467 1010.934083 723.14416 
C 1010.934083 719.635853 1009.540218 716.270764 1007.05947 713.790017 
C 1004.578722 711.309269 1001.213634 709.915403 997.705327 709.915403 
C 994.19702 709.915403 990.831931 711.309269 988.351183 713.790017 
C 985.870436 716.270764 984.47657 719.635853 984.47657 723.14416 
C 984.47657 726.652467 985.870436 730.017556 988.351183 732.498303 
C 990.831931 734.979051 994.19702 736.372917 997.705327 736.372917 
z
" clip-path="url(#p71a764e980)" style="fill: #9b2242; stroke: #9b2242"/>
    <path d="M 475.10724 752.87933 
C 478.615548 752.87933 481.980636 751.485464 484.461384 749.004717 
C 486.942132 746.523969 488.335997 743.15888 488.335997 739.650573 
C 488.335997 736.142266 486.942132 732.777178 484.461384 730.29643 
C 481.980636 727.815682 478.615548 726.421817 475.10724 726.421817 
C 471.598933 726.421817 468.233845 727.815682 465.753097 730.29643 
C 463.272349 732.777178 461.878484 736.142266 461.878484 739.650573 
C 461.878484 743.15888 463.272349 746.523969 465.753097 749.004717 
C 468.233845 751.485464 471.598933 752.87933 475.10724 752.87933 
z
" clip-path="url(#p71a764e980)" style="fill: #9b2242; stroke: #9b2242"/>
    <path d="M 573.955542 591.577901 
C 577.46385 591.577901 580.828938 590.184036 583.309686 587.703288 
C 585.790434 585.22254 587.184299 581.857452 587.184299 578.349144 
C 587.184299 574.840837 585.790434 571.475749 583.309686 568.995001 
C 580.828938 566.514253 577.46385 565.120388 573.955542 565.120388 
C 570.447235 565.120388 567.082147 566.514253 564.601399 568.995001 
C 562.120651 571.475749 560.726786 574.840837 560.726786 578.349144 
C 560.726786 581.857452 562.120651 585.22254 564.601399 587.703288 
C 567.082147 590.184036 570.447235 591.577901 573.955542 591.577901 
z
" clip-path="url(#p71a764e980)" style="fill: #9b2242; stroke: #9b2242"/>
    <path d="M 538.299149 758.242 
C 541.807456 758.242 545.172544 756.848135 547.653292 754.367387 
C 550.13404 751.88664 551.527905 748.521551 551.527905 745.013244 
C 551.527905 741.504937 550.13404 738.139848 547.653292 735.6591 
C 545.172544 733.178353 541.807456 731.784487 538.299149 731.784487 
C 534.790842 731.784487 531.425753 733.178353 528.945005 735.6591 
C 526.464257 738.139848 525.070392 741.504937 525.070392 745.013244 
C 525.070392 748.521551 526.464257 751.88664 528.945005 754.367387 
C 531.425753 756.848135 534.790842 758.242 538.299149 758.242 
z
" clip-path="url(#p71a764e980)" style="fill: #9b2242; stroke: #9b2242"/>
    <path d="M 752.865315 563.289957 
C 756.373622 563.289957 759.738711 561.896092 762.219459 559.415344 
C 764.700207 556.934596 766.094072 553.569508 766.094072 550.0612 
C 766.094072 546.552893 764.700207 543.187805 762.219459 540.707057 
C 759.738711 538.226309 756.373622 536.832444 752.865315 536.832444 
C 749.357008 536.832444 745.99192 538.226309 743.511172 540.707057 
C 741.030424 543.187805 739.636559 546.552893 739.636559 550.0612 
C 739.636559 553.569508 741.030424 556.934596 743.511172 559.415344 
C 745.99192 561.896092 749.357008 563.289957 752.865315 563.289957 
z
" clip-path="url(#p71a764e980)" style="fill: #9b2242; stroke: #9b2242"/>
    <path d="M 424.047174 783.392832 
C 427.555482 783.392832 430.92057 781.998967 433.401318 779.518219 
C 435.882066 777.037471 437.275931 773.672383 437.275931 770.164075 
C 437.275931 766.655768 435.882066 763.29068 433.401318 760.809932 
C 430.92057 758.329184 427.555482 756.935319 424.047174 756.935319 
C 420.538867 756.935319 417.173779 758.329184 414.693031 760.809932 
C 412.212283 763.29068 410.818418 766.655768 410.818418 770.164075 
C 410.818418 773.672383 412.212283 777.037471 414.693031 779.518219 
C 417.173779 781.998967 420.538867 783.392832 424.047174 783.392832 
z
" clip-path="url(#p71a764e980)" style="fill: #9b2242; stroke: #9b2242"/>
    <path d="M 425.69088 339.275251 
C 429.199187 339.275251 432.564275 337.881386 435.045023 335.400638 
C 437.525771 332.91989 438.919636 329.554802 438.919636 326.046494 
C 438.919636 322.538187 437.525771 319.173099 435.045023 316.692351 
C 432.564275 314.211603 429.199187 312.817738 425.69088 312.817738 
C 422.182572 312.817738 418.817484 314.211603 416.336736 316.692351 
C 413.855988 319.173099 412.462123 322.538187 412.462123 326.046494 
C 412.462123 329.554802 413.855988 332.91989 416.336736 335.400638 
C 418.817484 337.881386 422.182572 339.275251 425.69088 339.275251 
z
" clip-path="url(#p71a764e980)" style="fill: #026c7c; stroke: #026c7c"/>
    <path d="M 825.39728 886.667618 
C 828.905587 886.667618 832.270676 885.273752 834.751423 882.793005 
C 837.232171 880.312257 838.626037 876.947168 838.626037 873.438861 
C 838.626037 869.930554 837.232171 866.565466 834.751423 864.084718 
C 832.270676 861.60397 828.905587 860.210105 825.39728 860.210105 
C 821.888973 860.210105 818.523884 861.60397 816.043137 864.084718 
C 813.562389 866.565466 812.168523 869.930554 812.168523 873.438861 
C 812.168523 876.947168 813.562389 880.312257 816.043137 882.793005 
C 818.523884 885.273752 821.888973 886.667618 825.39728 886.667618 
z
" clip-path="url(#p71a764e980)" style="fill: #9b2242; stroke: #9b2242"/>
    <path d="M 986.82435 777.027762 
C 990.332657 777.027762 993.697746 775.633897 996.178494 773.153149 
C 998.659241 770.672401 1000.053107 767.307313 1000.053107 763.799006 
C 1000.053107 760.290699 998.659241 756.92561 996.178494 754.444862 
C 993.697746 751.964115 990.332657 750.570249 986.82435 750.570249 
C 983.316043 750.570249 979.950954 751.964115 977.470207 754.444862 
C 974.989459 756.92561 973.595594 760.290699 973.595594 763.799006 
C 973.595594 767.307313 974.989459 770.672401 977.470207 773.153149 
C 979.950954 775.633897 983.316043 777.027762 986.82435 777.027762 
z
" clip-path="url(#p71a764e980)" style="fill: #9b2242; stroke: #9b2242"/>
    <path d="M 948.611385 635.516525 
C 952.119693 635.516525 955.484781 634.12266 957.965529 631.641912 
C 960.446277 629.161164 961.840142 625.796075 961.840142 622.287768 
C 961.840142 618.779461 960.446277 615.414373 957.965529 612.933625 
C 955.484781 610.452877 952.119693 609.059012 948.611385 609.059012 
C 945.103078 609.059012 941.73799 610.452877 939.257242 612.933625 
C 936.776494 615.414373 935.382629 618.779461 935.382629 622.287768 
C 935.382629 625.796075 936.776494 629.161164 939.257242 631.641912 
C 941.73799 634.12266 945.103078 635.516525 948.611385 635.516525 
z
" clip-path="url(#p71a764e980)" style="fill: #026c7c; stroke: #026c7c"/>
    <path d="M 898.956159 913.019685 
C 902.464467 913.019685 905.829555 911.62582 908.310303 909.145072 
C 910.791051 906.664324 912.184916 903.299236 912.184916 899.790929 
C 912.184916 896.282621 910.791051 892.917533 908.310303 890.436785 
C 905.829555 887.956037 902.464467 886.562172 898.956159 886.562172 
C 895.447852 886.562172 892.082764 887.956037 889.602016 890.436785 
C 887.121268 892.917533 885.727403 896.282621 885.727403 899.790929 
C 885.727403 903.299236 887.121268 906.664324 889.602016 909.145072 
C 892.082764 911.62582 895.447852 913.019685 898.956159 913.019685 
z
" clip-path="url(#p71a764e980)" style="fill: #9b2242; stroke: #9b2242"/>
    <path d="M 740.823468 603.050375 
C 744.331776 603.050375 747.696864 601.656509 750.177612 599.175762 
C 752.65836 596.695014 754.052225 593.329925 754.052225 589.821618 
C 754.052225 586.313311 752.65836 582.948223 750.177612 580.467475 
C 747.696864 577.986727 744.331776 576.592862 740.823468 576.592862 
C 737.315161 576.592862 733.950073 577.986727 731.469325 580.467475 
C 728.988577 582.948223 727.594712 586.313311 727.594712 589.821618 
C 727.594712 593.329925 728.988577 596.695014 731.469325 599.175762 
C 733.950073 601.656509 737.315161 603.050375 740.823468 603.050375 
z
" clip-path="url(#p71a764e980)" style="fill: #9b2242; stroke: #9b2242"/>
    <path d="M 1006.928476 764.158507 
C 1010.436784 764.158507 1013.801872 762.764642 1016.28262 760.283894 
C 1018.763368 757.803146 1020.157233 754.438058 1020.157233 750.929751 
C 1020.157233 747.421444 1018.763368 744.056355 1016.28262 741.575607 
C 1013.801872 739.09486 1010.436784 737.700994 1006.928476 737.700994 
C 1003.420169 737.700994 1000.055081 739.09486 997.574333 741.575607 
C 995.093585 744.056355 993.69972 747.421444 993.69972 750.929751 
C 993.69972 754.438058 995.093585 757.803146 997.574333 760.283894 
C 1000.055081 762.764642 1003.420169 764.158507 1006.928476 764.158507 
z
" clip-path="url(#p71a764e980)" style="fill: #9b2242; stroke: #9b2242"/>
    <path d="M 647.61111 541.533842 
C 651.119417 541.533842 654.484506 540.139977 656.965254 537.659229 
C 659.446001 535.178481 660.839867 531.813393 660.839867 528.305086 
C 660.839867 524.796778 659.446001 521.43169 656.965254 518.950942 
C 654.484506 516.470194 651.119417 515.076329 647.61111 515.076329 
C 644.102803 515.076329 640.737715 516.470194 638.256967 518.950942 
C 635.776219 521.43169 634.382354 524.796778 634.382354 528.305086 
C 634.382354 531.813393 635.776219 535.178481 638.256967 537.659229 
C 640.737715 540.139977 644.102803 541.533842 647.61111 541.533842 
z
" clip-path="url(#p71a764e980)" style="fill: #9b2242; stroke: #9b2242"/>
    <path d="M 407.779986 733.154013 
C 411.288294 733.154013 414.653382 731.760148 417.13413 729.2794 
C 419.614878 726.798652 421.008743 723.433564 421.008743 719.925257 
C 421.008743 716.416949 419.614878 713.051861 417.13413 710.571113 
C 414.653382 708.090365 411.288294 706.6965 407.779986 706.6965 
C 404.271679 706.6965 400.906591 708.090365 398.425843 710.571113 
C 395.945095 713.051861 394.55123 716.416949 394.55123 719.925257 
C 394.55123 723.433564 395.945095 726.798652 398.425843 729.2794 
C 400.906591 731.760148 404.271679 733.154013 407.779986 733.154013 
z
" clip-path="url(#p71a764e980)" style="fill: #9b2242; stroke: #9b2242"/>
    <path d="M 447.620012 803.468285 
C 451.128319 803.468285 454.493408 802.074419 456.974156 799.593671 
C 459.454903 797.112924 460.848769 793.747835 460.848769 790.239528 
C 460.848769 786.731221 459.454903 783.366132 456.974156 780.885385 
C 454.493408 778.404637 451.128319 777.010771 447.620012 777.010771 
C 444.111705 777.010771 440.746617 778.404637 438.265869 780.885385 
C 435.785121 783.366132 434.391256 786.731221 434.391256 790.239528 
C 434.391256 793.747835 435.785121 797.112924 438.265869 799.593671 
C 440.746617 802.074419 444.111705 803.468285 447.620012 803.468285 
z
" clip-path="url(#p71a764e980)" style="fill: #9b2242; stroke: #9b2242"/>
    <path d="M 506.885381 548.224906 
C 510.393688 548.224906 513.758777 546.831041 516.239524 544.350293 
C 518.720272 541.869546 520.114138 538.504457 520.114138 534.99615 
C 520.114138 531.487843 518.720272 528.122754 516.239524 525.642006 
C 513.758777 523.161259 510.393688 521.767393 506.885381 521.767393 
C 503.377074 521.767393 500.011985 523.161259 497.531238 525.642006 
C 495.05049 528.122754 493.656624 531.487843 493.656624 534.99615 
C 493.656624 538.504457 495.05049 541.869546 497.531238 544.350293 
C 500.011985 546.831041 503.377074 548.224906 506.885381 548.224906 
z
" clip-path="url(#p71a764e980)" style="fill: #9b2242; stroke: #9b2242"/>
    <path d="M 603.960073 469.431329 
C 607.468381 469.431329 610.833469 468.037464 613.314217 465.556716 
C 615.794965 463.075968 617.18883 459.710879 617.18883 456.202572 
C 617.18883 452.694265 615.794965 449.329177 613.314217 446.848429 
C 610.833469 444.367681 607.468381 442.973816 603.960073 442.973816 
C 600.451766 442.973816 597.086678 444.367681 594.60593 446.848429 
C 592.125182 449.329177 590.731317 452.694265 590.731317 456.202572 
C 590.731317 459.710879 592.125182 463.075968 594.60593 465.556716 
C 597.086678 468.037464 600.451766 469.431329 603.960073 469.431329 
z
" clip-path="url(#p71a764e980)" style="fill: #026c7c; stroke: #026c7c"/>
    <path d="M 534.162932 792.340032 
C 537.671239 792.340032 541.036328 790.946167 543.517076 788.465419 
C 545.997824 785.984671 547.391689 782.619583 547.391689 779.111275 
C 547.391689 775.602968 545.997824 772.23788 543.517076 769.757132 
C 541.036328 767.276384 537.671239 765.882519 534.162932 765.882519 
C 530.654625 765.882519 527.289537 767.276384 524.808789 769.757132 
C 522.328041 772.23788 520.934176 775.602968 520.934176 779.111275 
C 520.934176 782.619583 522.328041 785.984671 524.808789 788.465419 
C 527.289537 790.946167 530.654625 792.340032 534.162932 792.340032 
z
" clip-path="url(#p71a764e980)" style="fill: #9b2242; stroke: #9b2242"/>
    <path d="M 522.490824 849.23275 
C 525.999132 849.23275 529.36422 847.838885 531.844968 845.358137 
C 534.325716 842.877389 535.719581 839.512301 535.719581 836.003993 
C 535.719581 832.495686 534.325716 829.130598 531.844968 826.64985 
C 529.36422 824.169102 525.999132 822.775237 522.490824 822.775237 
C 518.982517 822.775237 515.617429 824.169102 513.136681 826.64985 
C 510.655933 829.130598 509.262068 832.495686 509.262068 836.003993 
C 509.262068 839.512301 510.655933 842.877389 513.136681 845.358137 
C 515.617429 847.838885 518.982517 849.23275 522.490824 849.23275 
z
" clip-path="url(#p71a764e980)" style="fill: #026c7c; stroke: #026c7c"/>
    <path d="M 981.303292 799.81853 
C 984.8116 799.81853 988.176688 798.424665 990.657436 795.943917 
C 993.138184 793.463169 994.532049 790.098081 994.532049 786.589774 
C 994.532049 783.081466 993.138184 779.716378 990.657436 777.23563 
C 988.176688 774.754882 984.8116 773.361017 981.303292 773.361017 
C 977.794985 773.361017 974.429897 774.754882 971.949149 777.23563 
C 969.468401 779.716378 968.074536 783.081466 968.074536 786.589774 
C 968.074536 790.098081 969.468401 793.463169 971.949149 795.943917 
C 974.429897 798.424665 977.794985 799.81853 981.303292 799.81853 
z
" clip-path="url(#p71a764e980)" style="fill: #9b2242; stroke: #9b2242"/>
    <path d="M 927.37485 964.455233 
C 930.883157 964.455233 934.248245 963.061367 936.728993 960.580619 
C 939.209741 958.099872 940.603606 954.734783 940.603606 951.226476 
C 940.603606 947.718169 939.209741 944.35308 936.728993 941.872333 
C 934.248245 939.391585 930.883157 937.997719 927.37485 937.997719 
C 923.866542 937.997719 920.501454 939.391585 918.020706 941.872333 
C 915.539958 944.35308 914.146093 947.718169 914.146093 951.226476 
C 914.146093 954.734783 915.539958 958.099872 918.020706 960.580619 
C 920.501454 963.061367 923.866542 964.455233 927.37485 964.455233 
z
" clip-path="url(#p71a764e980)" style="fill: #9b2242; stroke: #9b2242"/>
    <path d="M 412.447726 477.179106 
C 415.956033 477.179106 419.321121 475.785241 421.801869 473.304493 
C 424.282617 470.823745 425.676482 467.458657 425.676482 463.95035 
C 425.676482 460.442042 424.282617 457.076954 421.801869 454.596206 
C 419.321121 452.115458 415.956033 450.721593 412.447726 450.721593 
C 408.939418 450.721593 405.57433 452.115458 403.093582 454.596206 
C 400.612834 457.076954 399.218969 460.442042 399.218969 463.95035 
C 399.218969 467.458657 400.612834 470.823745 403.093582 473.304493 
C 405.57433 475.785241 408.939418 477.179106 412.447726 477.179106 
z
" clip-path="url(#p71a764e980)" style="fill: #9b2242; stroke: #9b2242"/>
    <path d="M 676.228436 483.665848 
C 679.736743 483.665848 683.101831 482.271982 685.582579 479.791235 
C 688.063327 477.310487 689.457192 473.945398 689.457192 470.437091 
C 689.457192 466.928784 688.063327 463.563695 685.582579 461.082948 
C 683.101831 458.6022 679.736743 457.208335 676.228436 457.208335 
C 672.720129 457.208335 669.35504 458.6022 666.874292 461.082948 
C 664.393545 463.563695 662.999679 466.928784 662.999679 470.437091 
C 662.999679 473.945398 664.393545 477.310487 666.874292 479.791235 
C 669.35504 482.271982 672.720129 483.665848 676.228436 483.665848 
z
" clip-path="url(#p71a764e980)" style="fill: #9b2242; stroke: #9b2242"/>
    <path d="M 870.42198 705.970829 
C 873.930287 705.970829 877.295376 704.576964 879.776124 702.096216 
C 882.256871 699.615468 883.650737 696.25038 883.650737 692.742073 
C 883.650737 689.233765 882.256871 685.868677 879.776124 683.387929 
C 877.295376 680.907181 873.930287 679.513316 870.42198 679.513316 
C 866.913673 679.513316 863.548585 680.907181 861.067837 683.387929 
C 858.587089 685.868677 857.193224 689.233765 857.193224 692.742073 
C 857.193224 696.25038 858.587089 699.615468 861.067837 702.096216 
C 863.548585 704.576964 866.913673 705.970829 870.42198 705.970829 
z
" clip-path="url(#p71a764e980)" style="fill: #9b2242; stroke: #9b2242"/>
    <path d="M 793.434383 523.506554 
C 796.942691 523.506554 800.307779 522.112688 802.788527 519.631941 
C 805.269275 517.151193 806.66314 513.786104 806.66314 510.277797 
C 806.66314 506.76949 805.269275 503.404402 802.788527 500.923654 
C 800.307779 498.442906 796.942691 497.049041 793.434383 497.049041 
C 789.926076 497.049041 786.560988 498.442906 784.08024 500.923654 
C 781.599492 503.404402 780.205627 506.76949 780.205627 510.277797 
C 780.205627 513.786104 781.599492 517.151193 784.08024 519.631941 
C 786.560988 522.112688 789.926076 523.506554 793.434383 523.506554 
z
" clip-path="url(#p71a764e980)" style="fill: #9b2242; stroke: #9b2242"/>
    <path d="M 493.138958 105.02068 
C 499.06908 105.02068 504.757117 102.664617 508.950346 98.471388 
C 513.143576 94.278159 515.499638 88.590122 515.499638 82.66 
C 515.499638 76.729878 513.143576 71.041841 508.950346 66.848612 
C 504.757117 62.655383 499.06908 60.29932 493.138958 60.29932 
C 487.208837 60.29932 481.520799 62.655383 477.32757 66.848612 
C 473.134341 71.041841 470.778278 76.729878 470.778278 82.66 
C 470.778278 88.590122 473.134341 94.278159 477.32757 98.471388 
C 481.520799 102.664617 487.208837 105.02068 493.138958 105.02068 
z
" clip-path="url(#p71a764e980)" style="fill: #01172f; stroke: #01172f"/>
   </g>
   <g id="patch_3">
    <path d="M 65.45 1254.04 
L 65.45 26.88 
" style="fill: none; stroke: #000000; stroke-width: 0.8; stroke-linejoin: miter; stroke-linecap: square"/>
   </g>
   <g id="patch_4">
    <path d="M 1285.2 1254.04 
L 1285.2 26.88 
" style="fill: none; stroke: #000000; stroke-width: 0.8; stroke-linejoin: miter; stroke-linecap: square"/>
   </g>
   <g id="patch_5">
    <path d="M 65.45 1254.04 
L 1285.2 1254.04 
" style="fill: none; stroke: #000000; stroke-width: 0.8; stroke-linejoin: miter; stroke-linecap: square"/>
   </g>
   <g id="patch_6">
    <path d="M 65.45 26.88 
L 1285.2 26.88 
" style="fill: none; stroke: #000000; stroke-width: 0.8; stroke-linejoin: miter; stroke-linecap: square"/>
   </g>
   <g id="text_13">
    <g clip-path="url(#p71a764e980)">
     <!-- 0 -->
     <g style="fill: #f5f5f5" transform="translate(727.89407 633.515863) scale(0.12 -0.12)">
      <use xlink:href="#DejaVuSans-30"/>
     </g>
    </g>
   </g>
   <g id="text_14">
    <g clip-path="url(#p71a764e980)">
     <!-- 1 -->
     <g style="fill: #f5f5f5" transform="translate(692.586051 606.525171) scale(0.12 -0.12)">
      <defs>
       <path id="DejaVuSans-31" d="M 794 531 
L 1825 531 
L 1825 4091 
L 703 3866 
L 703 4441 
L 1819 4666 
L 2450 4666 
L 2450 531 
L 3481 531 
L 3481 0 
L 794 0 
L 794 531 
z
" transform="scale(0.015625)"/>
      </defs>
      <use xlink:href="#DejaVuSans-31"/>
     </g>
    </g>
   </g>
   <g id="text_15">
    <g clip-path="url(#p71a764e980)">
     <!-- 2 -->
     <g style="fill: #f5f5f5" transform="translate(830.504402 707.382297) scale(0.12 -0.12)">
      <use xlink:href="#DejaVuSans-32"/>
     </g>
    </g>
   </g>
   <g id="text_16">
    <g clip-path="url(#p71a764e980)">
     <!-- 3 -->
     <g style="fill: #f5f5f5" transform="translate(854.491923 831.386853) scale(0.12 -0.12)">
      <defs>
       <path id="DejaVuSans-33" d="M 2597 2516 
Q 3050 2419 3304 2112 
Q 3559 1806 3559 1356 
Q 3559 666 3084 287 
Q 2609 -91 1734 -91 
Q 1441 -91 1130 -33 
Q 819 25 488 141 
L 488 750 
Q 750 597 1062 519 
Q 1375 441 1716 441 
Q 2309 441 2620 675 
Q 2931 909 2931 1356 
Q 2931 1769 2642 2001 
Q 2353 2234 1838 2234 
L 1294 2234 
L 1294 2753 
L 1863 2753 
Q 2328 2753 2575 2939 
Q 2822 3125 2822 3475 
Q 2822 3834 2567 4026 
Q 2313 4219 1838 4219 
Q 1578 4219 1281 4162 
Q 984 4106 628 3988 
L 628 4550 
Q 988 4650 1302 4700 
Q 1616 4750 1894 4750 
Q 2613 4750 3031 4423 
Q 3450 4097 3450 3541 
Q 3450 3153 3228 2886 
Q 3006 2619 2597 2516 
z
" transform="scale(0.015625)"/>
      </defs>
      <use xlink:href="#DejaVuSans-33"/>
     </g>
    </g>
   </g>
   <g id="text_17">
    <g clip-path="url(#p71a764e980)">
     <!-- 4 -->
     <g style="fill: #f5f5f5" transform="translate(599.387162 610.244454) scale(0.12 -0.12)">
      <use xlink:href="#DejaVuSans-34"/>
     </g>
    </g>
   </g>
   <g id="text_18">
    <g clip-path="url(#p71a764e980)">
     <!-- 5 -->
     <g style="fill: #f5f5f5" transform="translate(549.134443 521.97413) scale(0.12 -0.12)">
      <defs>
       <path id="DejaVuSans-35" d="M 691 4666 
L 3169 4666 
L 3169 4134 
L 1269 4134 
L 1269 2991 
Q 1406 3038 1543 3061 
Q 1681 3084 1819 3084 
Q 2600 3084 3056 2656 
Q 3513 2228 3513 1497 
Q 3513 744 3044 326 
Q 2575 -91 1722 -91 
Q 1428 -91 1123 -41 
Q 819 9 494 109 
L 494 744 
Q 775 591 1075 516 
Q 1375 441 1709 441 
Q 2250 441 2565 725 
Q 2881 1009 2881 1497 
Q 2881 1984 2565 2268 
Q 2250 2553 1709 2553 
Q 1456 2553 1204 2497 
Q 953 2441 691 2322 
L 691 4666 
z
" transform="scale(0.015625)"/>
      </defs>
      <use xlink:href="#DejaVuSans-35"/>
     </g>
    </g>
   </g>
   <g id="text_19">
    <g clip-path="url(#p71a764e980)">
     <!-- 6 -->
     <g style="fill: #f5f5f5" transform="translate(531.101303 674.974021) scale(0.12 -0.12)">
      <defs>
       <path id="DejaVuSans-36" d="M 2113 2584 
Q 1688 2584 1439 2293 
Q 1191 2003 1191 1497 
Q 1191 994 1439 701 
Q 1688 409 2113 409 
Q 2538 409 2786 701 
Q 3034 994 3034 1497 
Q 3034 2003 2786 2293 
Q 2538 2584 2113 2584 
z
M 3366 4563 
L 3366 3988 
Q 3128 4100 2886 4159 
Q 2644 4219 2406 4219 
Q 1781 4219 1451 3797 
Q 1122 3375 1075 2522 
Q 1259 2794 1537 2939 
Q 1816 3084 2150 3084 
Q 2853 3084 3261 2657 
Q 3669 2231 3669 1497 
Q 3669 778 3244 343 
Q 2819 -91 2113 -91 
Q 1303 -91 875 529 
Q 447 1150 447 2328 
Q 447 3434 972 4092 
Q 1497 4750 2381 4750 
Q 2619 4750 2861 4703 
Q 3103 4656 3366 4563 
z
" transform="scale(0.015625)"/>
      </defs>
      <use xlink:href="#DejaVuSans-36"/>
     </g>
    </g>
   </g>
   <g id="text_20">
    <g clip-path="url(#p71a764e980)">
     <!-- 7 -->
     <g style="fill: #f5f5f5" transform="translate(860.1418 891.173124) scale(0.12 -0.12)">
      <defs>
       <path id="DejaVuSans-37" d="M 525 4666 
L 3525 4666 
L 3525 4397 
L 1831 0 
L 1172 0 
L 2766 4134 
L 525 4134 
L 525 4666 
z
" transform="scale(0.015625)"/>
      </defs>
      <use xlink:href="#DejaVuSans-37"/>
     </g>
    </g>
   </g>
   <g id="text_21">
    <g clip-path="url(#p71a764e980)">
     <!-- 8 -->
     <g style="fill: #f5f5f5" transform="translate(497.087143 439.559843) scale(0.12 -0.12)">
      <defs>
       <path id="DejaVuSans-38" d="M 2034 2216 
Q 1584 2216 1326 1975 
Q 1069 1734 1069 1313 
Q 1069 891 1326 650 
Q 1584 409 2034 409 
Q 2484 409 2743 651 
Q 3003 894 3003 1313 
Q 3003 1734 2745 1975 
Q 2488 2216 2034 2216 
z
M 1403 2484 
Q 997 2584 770 2862 
Q 544 3141 544 3541 
Q 544 4100 942 4425 
Q 1341 4750 2034 4750 
Q 2731 4750 3128 4425 
Q 3525 4100 3525 3541 
Q 3525 3141 3298 2862 
Q 3072 2584 2669 2484 
Q 3125 2378 3379 2068 
Q 3634 1759 3634 1313 
Q 3634 634 3220 271 
Q 2806 -91 2034 -91 
Q 1263 -91 848 271 
Q 434 634 434 1313 
Q 434 1759 690 2068 
Q 947 2378 1403 2484 
z
M 1172 3481 
Q 1172 3119 1398 2916 
Q 1625 2713 2034 2713 
Q 2441 2713 2670 2916 
Q 2900 3119 2900 3481 
Q 2900 3844 2670 4047 
Q 2441 4250 2034 4250 
Q 1625 4250 1398 4047 
Q 1172 3844 1172 3481 
z
" transform="scale(0.015625)"/>
      </defs>
      <use xlink:href="#DejaVuSans-38"/>
     </g>
    </g>
   </g>
   <g id="text_22">
    <g clip-path="url(#p71a764e980)">
     <!-- 9 -->
     <g style="fill: #f5f5f5" transform="translate(485.150045 524.732683) scale(0.12 -0.12)">
      <defs>
       <path id="DejaVuSans-39" d="M 703 97 
L 703 672 
Q 941 559 1184 500 
Q 1428 441 1663 441 
Q 2288 441 2617 861 
Q 2947 1281 2994 2138 
Q 2813 1869 2534 1725 
Q 2256 1581 1919 1581 
Q 1219 1581 811 2004 
Q 403 2428 403 3163 
Q 403 3881 828 4315 
Q 1253 4750 1959 4750 
Q 2769 4750 3195 4129 
Q 3622 3509 3622 2328 
Q 3622 1225 3098 567 
Q 2575 -91 1691 -91 
Q 1453 -91 1209 -44 
Q 966 3 703 97 
z
M 1959 2075 
Q 2384 2075 2632 2365 
Q 2881 2656 2881 3163 
Q 2881 3666 2632 3958 
Q 2384 4250 1959 4250 
Q 1534 4250 1286 3958 
Q 1038 3666 1038 3163 
Q 1038 2656 1286 2365 
Q 1534 2075 1959 2075 
z
" transform="scale(0.015625)"/>
      </defs>
      <use xlink:href="#DejaVuSans-39"/>
     </g>
    </g>
   </g>
   <g id="text_23">
    <g clip-path="url(#p71a764e980)">
     <!-- 10 -->
     <g style="fill: #f5f5f5" transform="translate(886.232535 860.871906) scale(0.12 -0.12)">
      <use xlink:href="#DejaVuSans-31"/>
      <use xlink:href="#DejaVuSans-30" x="63.623047"/>
     </g>
    </g>
   </g>
   <g id="text_24">
    <g clip-path="url(#p71a764e980)">
     <!-- 11 -->
     <g style="fill: #f5f5f5" transform="translate(449.913424 376.097678) scale(0.12 -0.12)">
      <use xlink:href="#DejaVuSans-31"/>
      <use xlink:href="#DejaVuSans-31" x="63.623047"/>
     </g>
    </g>
   </g>
   <g id="text_25">
    <g clip-path="url(#p71a764e980)">
     <!-- 12 -->
     <g style="fill: #f5f5f5" transform="translate(846.231588 740.548101) scale(0.12 -0.12)">
      <use xlink:href="#DejaVuSans-31"/>
      <use xlink:href="#DejaVuSans-32" x="63.623047"/>
     </g>
    </g>
   </g>
   <g id="text_26">
    <g clip-path="url(#p71a764e980)">
     <!-- 13 -->
     <g style="fill: #f5f5f5" transform="translate(625.82462 582.320433) scale(0.12 -0.12)">
      <use xlink:href="#DejaVuSans-31"/>
      <use xlink:href="#DejaVuSans-33" x="63.623047"/>
     </g>
    </g>
   </g>
   <g id="text_27">
    <g clip-path="url(#p71a764e980)">
     <!-- 14 -->
     <g style="fill: #f5f5f5" transform="translate(499.87284 497.436982) scale(0.12 -0.12)">
      <use xlink:href="#DejaVuSans-31"/>
      <use xlink:href="#DejaVuSans-34" x="63.623047"/>
     </g>
    </g>
   </g>
   <g id="text_28">
    <g clip-path="url(#p71a764e980)">
     <!-- 15 -->
     <g style="fill: #f5f5f5" transform="translate(534.998007 703.638476) scale(0.12 -0.12)">
      <use xlink:href="#DejaVuSans-31"/>
      <use xlink:href="#DejaVuSans-35" x="63.623047"/>
     </g>
    </g>
   </g>
   <g id="text_29">
    <g clip-path="url(#p71a764e980)">
     <!-- 16 -->
     <g style="fill: #f5f5f5" transform="translate(935.718124 743.781319) scale(0.12 -0.12)">
      <use xlink:href="#DejaVuSans-31"/>
      <use xlink:href="#DejaVuSans-36" x="63.623047"/>
     </g>
    </g>
   </g>
   <g id="text_30">
    <g clip-path="url(#p71a764e980)">
     <!-- 17 -->
     <g style="fill: #f5f5f5" transform="translate(901.6773 664.794331) scale(0.12 -0.12)">
      <use xlink:href="#DejaVuSans-31"/>
      <use xlink:href="#DejaVuSans-37" x="63.623047"/>
     </g>
    </g>
   </g>
   <g id="text_31">
    <g clip-path="url(#p71a764e980)">
     <!-- 18 -->
     <g style="fill: #f5f5f5" transform="translate(594.845199 524.259795) scale(0.12 -0.12)">
      <use xlink:href="#DejaVuSans-31"/>
      <use xlink:href="#DejaVuSans-38" x="63.623047"/>
     </g>
    </g>
   </g>
   <g id="text_32">
    <g clip-path="url(#p71a764e980)">
     <!-- 19 -->
     <g style="fill: #f5f5f5" transform="translate(458.409841 713.412904) scale(0.12 -0.12)">
      <use xlink:href="#DejaVuSans-31"/>
      <use xlink:href="#DejaVuSans-39" x="63.623047"/>
     </g>
    </g>
   </g>
   <g id="text_33">
    <g clip-path="url(#p71a764e980)">
     <!-- 20 -->
     <g style="fill: #f5f5f5" transform="translate(462.473494 489.575504) scale(0.12 -0.12)">
      <use xlink:href="#DejaVuSans-32"/>
      <use xlink:href="#DejaVuSans-30" x="63.623047"/>
     </g>
    </g>
   </g>
   <g id="text_34">
    <g clip-path="url(#p71a764e980)">
     <!-- 21 -->
     <g style="fill: #f5f5f5" transform="translate(525.888705 472.140127) scale(0.12 -0.12)">
      <use xlink:href="#DejaVuSans-32"/>
      <use xlink:href="#DejaVuSans-31" x="63.623047"/>
     </g>
    </g>
   </g>
   <g id="text_35">
    <g clip-path="url(#p71a764e980)">
     <!-- 22 -->
     <g style="fill: #f5f5f5" transform="translate(603.756218 653.734478) scale(0.12 -0.12)">
      <use xlink:href="#DejaVuSans-32"/>
      <use xlink:href="#DejaVuSans-32" x="63.623047"/>
     </g>
    </g>
   </g>
   <g id="text_36">
    <g clip-path="url(#p71a764e980)">
     <!-- 23 -->
     <g style="fill: #f5f5f5" transform="translate(841.49249 872.569187) scale(0.12 -0.12)">
      <use xlink:href="#DejaVuSans-32"/>
      <use xlink:href="#DejaVuSans-33" x="63.623047"/>
     </g>
    </g>
   </g>
   <g id="text_37">
    <g clip-path="url(#p71a764e980)">
     <!-- 24 -->
     <g style="fill: #f5f5f5" transform="translate(638.698422 607.175931) scale(0.12 -0.12)">
      <use xlink:href="#DejaVuSans-32"/>
      <use xlink:href="#DejaVuSans-34" x="63.623047"/>
     </g>
    </g>
   </g>
   <g id="text_38">
    <g clip-path="url(#p71a764e980)">
     <!-- 25 -->
     <g style="fill: #f5f5f5" transform="translate(553.697907 626.399232) scale(0.12 -0.12)">
      <use xlink:href="#DejaVuSans-32"/>
      <use xlink:href="#DejaVuSans-35" x="63.623047"/>
     </g>
    </g>
   </g>
   <g id="text_39">
    <g clip-path="url(#p71a764e980)">
     <!-- 26 -->
     <g style="fill: #f5f5f5" transform="translate(955.138181 651.952236) scale(0.12 -0.12)">
      <use xlink:href="#DejaVuSans-32"/>
      <use xlink:href="#DejaVuSans-36" x="63.623047"/>
     </g>
    </g>
   </g>
   <g id="text_40">
    <g clip-path="url(#p71a764e980)">
     <!-- 27 -->
     <g style="fill: #f5f5f5" transform="translate(604.851069 560.673698) scale(0.12 -0.12)">
      <use xlink:href="#DejaVuSans-32"/>
      <use xlink:href="#DejaVuSans-37" x="63.623047"/>
     </g>
    </g>
   </g>
   <g id="text_41">
    <g clip-path="url(#p71a764e980)">
     <!-- 28 -->
     <g style="fill: #f5f5f5" transform="translate(990.070327 726.45541) scale(0.12 -0.12)">
      <use xlink:href="#DejaVuSans-32"/>
      <use xlink:href="#DejaVuSans-38" x="63.623047"/>
     </g>
    </g>
   </g>
   <g id="text_42">
    <g clip-path="url(#p71a764e980)">
     <!-- 29 -->
     <g style="fill: #f5f5f5" transform="translate(467.47224 742.961823) scale(0.12 -0.12)">
      <use xlink:href="#DejaVuSans-32"/>
      <use xlink:href="#DejaVuSans-39" x="63.623047"/>
     </g>
    </g>
   </g>
   <g id="text_43">
    <g clip-path="url(#p71a764e980)">
     <!-- 30 -->
     <g style="fill: #f5f5f5" transform="translate(566.320542 581.660394) scale(0.12 -0.12)">
      <use xlink:href="#DejaVuSans-33"/>
      <use xlink:href="#DejaVuSans-30" x="63.623047"/>
     </g>
    </g>
   </g>
   <g id="text_44">
    <g clip-path="url(#p71a764e980)">
     <!-- 31 -->
     <g style="fill: #f5f5f5" transform="translate(530.664149 748.324494) scale(0.12 -0.12)">
      <use xlink:href="#DejaVuSans-33"/>
      <use xlink:href="#DejaVuSans-31" x="63.623047"/>
     </g>
    </g>
   </g>
   <g id="text_45">
    <g clip-path="url(#p71a764e980)">
     <!-- 32 -->
     <g style="fill: #f5f5f5" transform="translate(745.230315 553.37245) scale(0.12 -0.12)">
      <use xlink:href="#DejaVuSans-33"/>
      <use xlink:href="#DejaVuSans-32" x="63.623047"/>
     </g>
    </g>
   </g>
   <g id="text_46">
    <g clip-path="url(#p71a764e980)">
     <!-- 33 -->
     <g style="fill: #f5f5f5" transform="translate(416.412174 773.475325) scale(0.12 -0.12)">
      <use xlink:href="#DejaVuSans-33"/>
      <use xlink:href="#DejaVuSans-33" x="63.623047"/>
     </g>
    </g>
   </g>
   <g id="text_47">
    <g clip-path="url(#p71a764e980)">
     <!-- 34 -->
     <g style="fill: #f5f5f5" transform="translate(418.05588 329.357744) scale(0.12 -0.12)">
      <use xlink:href="#DejaVuSans-33"/>
      <use xlink:href="#DejaVuSans-34" x="63.623047"/>
     </g>
    </g>
   </g>
   <g id="text_48">
    <g clip-path="url(#p71a764e980)">
     <!-- 35 -->
     <g style="fill: #f5f5f5" transform="translate(817.76228 876.750111) scale(0.12 -0.12)">
      <use xlink:href="#DejaVuSans-33"/>
      <use xlink:href="#DejaVuSans-35" x="63.623047"/>
     </g>
    </g>
   </g>
   <g id="text_49">
    <g clip-path="url(#p71a764e980)">
     <!-- 36 -->
     <g style="fill: #f5f5f5" transform="translate(979.18935 767.110256) scale(0.12 -0.12)">
      <use xlink:href="#DejaVuSans-33"/>
      <use xlink:href="#DejaVuSans-36" x="63.623047"/>
     </g>
    </g>
   </g>
   <g id="text_50">
    <g clip-path="url(#p71a764e980)">
     <!-- 37 -->
     <g style="fill: #f5f5f5" transform="translate(940.976385 625.599018) scale(0.12 -0.12)">
      <use xlink:href="#DejaVuSans-33"/>
      <use xlink:href="#DejaVuSans-37" x="63.623047"/>
     </g>
    </g>
   </g>
   <g id="text_51">
    <g clip-path="url(#p71a764e980)">
     <!-- 38 -->
     <g style="fill: #f5f5f5" transform="translate(891.321159 903.102179) scale(0.12 -0.12)">
      <use xlink:href="#DejaVuSans-33"/>
      <use xlink:href="#DejaVuSans-38" x="63.623047"/>
     </g>
    </g>
   </g>
   <g id="text_52">
    <g clip-path="url(#p71a764e980)">
     <!-- 39 -->
     <g style="fill: #f5f5f5" transform="translate(733.188468 593.132868) scale(0.12 -0.12)">
      <use xlink:href="#DejaVuSans-33"/>
      <use xlink:href="#DejaVuSans-39" x="63.623047"/>
     </g>
    </g>
   </g>
   <g id="text_53">
    <g clip-path="url(#p71a764e980)">
     <!-- 40 -->
     <g style="fill: #f5f5f5" transform="translate(999.293476 754.241001) scale(0.12 -0.12)">
      <use xlink:href="#DejaVuSans-34"/>
      <use xlink:href="#DejaVuSans-30" x="63.623047"/>
     </g>
    </g>
   </g>
   <g id="text_54">
    <g clip-path="url(#p71a764e980)">
     <!-- 41 -->
     <g style="fill: #f5f5f5" transform="translate(639.97611 531.616336) scale(0.12 -0.12)">
      <use xlink:href="#DejaVuSans-34"/>
      <use xlink:href="#DejaVuSans-31" x="63.623047"/>
     </g>
    </g>
   </g>
   <g id="text_55">
    <g clip-path="url(#p71a764e980)">
     <!-- 42 -->
     <g style="fill: #f5f5f5" transform="translate(400.144986 723.236507) scale(0.12 -0.12)">
      <use xlink:href="#DejaVuSans-34"/>
      <use xlink:href="#DejaVuSans-32" x="63.623047"/>
     </g>
    </g>
   </g>
   <g id="text_56">
    <g clip-path="url(#p71a764e980)">
     <!-- 43 -->
     <g style="fill: #f5f5f5" transform="translate(439.985012 793.550778) scale(0.12 -0.12)">
      <use xlink:href="#DejaVuSans-34"/>
      <use xlink:href="#DejaVuSans-33" x="63.623047"/>
     </g>
    </g>
   </g>
   <g id="text_57">
    <g clip-path="url(#p71a764e980)">
     <!-- 44 -->
     <g style="fill: #f5f5f5" transform="translate(499.250381 538.3074) scale(0.12 -0.12)">
      <use xlink:href="#DejaVuSans-34"/>
      <use xlink:href="#DejaVuSans-34" x="63.623047"/>
     </g>
    </g>
   </g>
   <g id="text_58">
    <g clip-path="url(#p71a764e980)">
     <!-- 45 -->
     <g style="fill: #f5f5f5" transform="translate(596.325073 459.513822) scale(0.12 -0.12)">
      <use xlink:href="#DejaVuSans-34"/>
      <use xlink:href="#DejaVuSans-35" x="63.623047"/>
     </g>
    </g>
   </g>
   <g id="text_59">
    <g clip-path="url(#p71a764e980)">
     <!-- 46 -->
     <g style="fill: #f5f5f5" transform="translate(526.527932 782.422525) scale(0.12 -0.12)">
      <use xlink:href="#DejaVuSans-34"/>
      <use xlink:href="#DejaVuSans-36" x="63.623047"/>
     </g>
    </g>
   </g>
   <g id="text_60">
    <g clip-path="url(#p71a764e980)">
     <!-- 47 -->
     <g style="fill: #f5f5f5" transform="translate(514.855824 839.315243) scale(0.12 -0.12)">
      <use xlink:href="#DejaVuSans-34"/>
      <use xlink:href="#DejaVuSans-37" x="63.623047"/>
     </g>
    </g>
   </g>
   <g id="text_61">
    <g clip-path="url(#p71a764e980)">
     <!-- 48 -->
     <g style="fill: #f5f5f5" transform="translate(973.668292 789.901024) scale(0.12 -0.12)">
      <use xlink:href="#DejaVuSans-34"/>
      <use xlink:href="#DejaVuSans-38" x="63.623047"/>
     </g>
    </g>
   </g>
   <g id="text_62">
    <g clip-path="url(#p71a764e980)">
     <!-- 49 -->
     <g style="fill: #f5f5f5" transform="translate(919.73985 954.537726) scale(0.12 -0.12)">
      <use xlink:href="#DejaVuSans-34"/>
      <use xlink:href="#DejaVuSans-39" x="63.623047"/>
     </g>
    </g>
   </g>
   <g id="text_63">
    <g clip-path="url(#p71a764e980)">
     <!-- 50 -->
     <g style="fill: #f5f5f5" transform="translate(404.812726 467.2616) scale(0.12 -0.12)">
      <use xlink:href="#DejaVuSans-35"/>
      <use xlink:href="#DejaVuSans-30" x="63.623047"/>
     </g>
    </g>
   </g>
   <g id="text_64">
    <g clip-path="url(#p71a764e980)">
     <!-- 51 -->
     <g style="fill: #f5f5f5" transform="translate(668.593436 473.748341) scale(0.12 -0.12)">
      <use xlink:href="#DejaVuSans-35"/>
      <use xlink:href="#DejaVuSans-31" x="63.623047"/>
     </g>
    </g>
   </g>
   <g id="text_65">
    <g clip-path="url(#p71a764e980)">
     <!-- 52 -->
     <g style="fill: #f5f5f5" transform="translate(862.78698 696.053323) scale(0.12 -0.12)">
      <use xlink:href="#DejaVuSans-35"/>
      <use xlink:href="#DejaVuSans-32" x="63.623047"/>
     </g>
    </g>
   </g>
   <g id="text_66">
    <g clip-path="url(#p71a764e980)">
     <!-- 53 -->
     <g style="fill: #f5f5f5" transform="translate(785.799383 513.589047) scale(0.12 -0.12)">
      <use xlink:href="#DejaVuSans-35"/>
      <use xlink:href="#DejaVuSans-33" x="63.623047"/>
     </g>
    </g>
   </g>
   <g id="text_67">
    <g clip-path="url(#p71a764e980)">
     <!-- CLOUD -->
     <g style="fill: #f5f5f5" transform="translate(472.089271 85.97125) scale(0.12 -0.12)">
      <defs>
       <path id="DejaVuSans-43" d="M 4122 4306 
L 4122 3641 
Q 3803 3938 3442 4084 
Q 3081 4231 2675 4231 
Q 1875 4231 1450 3742 
Q 1025 3253 1025 2328 
Q 1025 1406 1450 917 
Q 1875 428 2675 428 
Q 3081 428 3442 575 
Q 3803 722 4122 1019 
L 4122 359 
Q 3791 134 3420 21 
Q 3050 -91 2638 -91 
Q 1578 -91 968 557 
Q 359 1206 359 2328 
Q 359 3453 968 4101 
Q 1578 4750 2638 4750 
Q 3056 4750 3426 4639 
Q 3797 4528 4122 4306 
z
" transform="scale(0.015625)"/>
       <path id="DejaVuSans-4c" d="M 628 4666 
L 1259 4666 
L 1259 531 
L 3531 531 
L 3531 0 
L 628 0 
L 628 4666 
z
" transform="scale(0.015625)"/>
       <path id="DejaVuSans-4f" d="M 2522 4238 
Q 1834 4238 1429 3725 
Q 1025 3213 1025 2328 
Q 1025 1447 1429 934 
Q 1834 422 2522 422 
Q 3209 422 3611 934 
Q 4013 1447 4013 2328 
Q 4013 3213 3611 3725 
Q 3209 4238 2522 4238 
z
M 2522 4750 
Q 3503 4750 4090 4092 
Q 4678 3434 4678 2328 
Q 4678 1225 4090 567 
Q 3503 -91 2522 -91 
Q 1538 -91 948 565 
Q 359 1222 359 2328 
Q 359 3434 948 4092 
Q 1538 4750 2522 4750 
z
" transform="scale(0.015625)"/>
       <path id="DejaVuSans-55" d="M 556 4666 
L 1191 4666 
L 1191 1831 
Q 1191 1081 1462 751 
Q 1734 422 2344 422 
Q 2950 422 3222 751 
Q 3494 1081 3494 1831 
L 3494 4666 
L 4128 4666 
L 4128 1753 
Q 4128 841 3676 375 
Q 3225 -91 2344 -91 
Q 1459 -91 1007 375 
Q 556 841 556 1753 
L 556 4666 
z
" transform="scale(0.015625)"/>
       <path id="DejaVuSans-44" d="M 1259 4147 
L 1259 519 
L 2022 519 
Q 2988 519 3436 956 
Q 3884 1394 3884 2338 
Q 3884 3275 3436 3711 
Q 2988 4147 2022 4147 
L 1259 4147 
z
M 628 4666 
L 1925 4666 
Q 3281 4666 3915 4102 
Q 4550 3538 4550 2338 
Q 4550 1131 3912 565 
Q 3275 0 1925 0 
L 628 0 
L 628 4666 
z
" transform="scale(0.015625)"/>
      </defs>
      <use xlink:href="#DejaVuSans-43"/>
      <use xlink:href="#DejaVuSans-4c" x="69.824219"/>
      <use xlink:href="#DejaVuSans-4f" x="121.912109"/>
      <use xlink:href="#DejaVuSans-55" x="200.623047"/>
      <use xlink:href="#DejaVuSans-44" x="273.816406"/>
     </g>
    </g>
   </g>
   <g id="text_68">
    <!-- Fog node locations -->
    <g transform="translate(618.890313 20.88) scale(0.12 -0.12)">
     <defs>
      <path id="DejaVuSans-46" d="M 628 4666 
L 3309 4666 
L 3309 4134 
L 1259 4134 
L 1259 2759 
L 3109 2759 
L 3109 2228 
L 1259 2228 
L 1259 0 
L 628 0 
L 628 4666 
z
" transform="scale(0.015625)"/>
      <path id="DejaVuSans-6f" d="M 1959 3097 
Q 1497 3097 1228 2736 
Q 959 2375 959 1747 
Q 959 1119 1226 758 
Q 1494 397 1959 397 
Q 2419 397 2687 759 
Q 2956 1122 2956 1747 
Q 2956 2369 2687 2733 
Q 2419 3097 1959 3097 
z
M 1959 3584 
Q 2709 3584 3137 3096 
Q 3566 2609 3566 1747 
Q 3566 888 3137 398 
Q 2709 -91 1959 -91 
Q 1206 -91 779 398 
Q 353 888 353 1747 
Q 353 2609 779 3096 
Q 1206 3584 1959 3584 
z
" transform="scale(0.015625)"/>
      <path id="DejaVuSans-67" d="M 2906 1791 
Q 2906 2416 2648 2759 
Q 2391 3103 1925 3103 
Q 1463 3103 1205 2759 
Q 947 2416 947 1791 
Q 947 1169 1205 825 
Q 1463 481 1925 481 
Q 2391 481 2648 825 
Q 2906 1169 2906 1791 
z
M 3481 434 
Q 3481 -459 3084 -895 
Q 2688 -1331 1869 -1331 
Q 1566 -1331 1297 -1286 
Q 1028 -1241 775 -1147 
L 775 -588 
Q 1028 -725 1275 -790 
Q 1522 -856 1778 -856 
Q 2344 -856 2625 -561 
Q 2906 -266 2906 331 
L 2906 616 
Q 2728 306 2450 153 
Q 2172 0 1784 0 
Q 1141 0 747 490 
Q 353 981 353 1791 
Q 353 2603 747 3093 
Q 1141 3584 1784 3584 
Q 2172 3584 2450 3431 
Q 2728 3278 2906 2969 
L 2906 3500 
L 3481 3500 
L 3481 434 
z
" transform="scale(0.015625)"/>
      <path id="DejaVuSans-20" transform="scale(0.015625)"/>
      <path id="DejaVuSans-6e" d="M 3513 2113 
L 3513 0 
L 2938 0 
L 2938 2094 
Q 2938 2591 2744 2837 
Q 2550 3084 2163 3084 
Q 1697 3084 1428 2787 
Q 1159 2491 1159 1978 
L 1159 0 
L 581 0 
L 581 3500 
L 1159 3500 
L 1159 2956 
Q 1366 3272 1645 3428 
Q 1925 3584 2291 3584 
Q 2894 3584 3203 3211 
Q 3513 2838 3513 2113 
z
" transform="scale(0.015625)"/>
      <path id="DejaVuSans-64" d="M 2906 2969 
L 2906 4863 
L 3481 4863 
L 3481 0 
L 2906 0 
L 2906 525 
Q 2725 213 2448 61 
Q 2172 -91 1784 -91 
Q 1150 -91 751 415 
Q 353 922 353 1747 
Q 353 2572 751 3078 
Q 1150 3584 1784 3584 
Q 2172 3584 2448 3432 
Q 2725 3281 2906 2969 
z
M 947 1747 
Q 947 1113 1208 752 
Q 1469 391 1925 391 
Q 2381 391 2643 752 
Q 2906 1113 2906 1747 
Q 2906 2381 2643 2742 
Q 2381 3103 1925 3103 
Q 1469 3103 1208 2742 
Q 947 2381 947 1747 
z
" transform="scale(0.015625)"/>
      <path id="DejaVuSans-65" d="M 3597 1894 
L 3597 1613 
L 953 1613 
Q 991 1019 1311 708 
Q 1631 397 2203 397 
Q 2534 397 2845 478 
Q 3156 559 3463 722 
L 3463 178 
Q 3153 47 2828 -22 
Q 2503 -91 2169 -91 
Q 1331 -91 842 396 
Q 353 884 353 1716 
Q 353 2575 817 3079 
Q 1281 3584 2069 3584 
Q 2775 3584 3186 3129 
Q 3597 2675 3597 1894 
z
M 3022 2063 
Q 3016 2534 2758 2815 
Q 2500 3097 2075 3097 
Q 1594 3097 1305 2825 
Q 1016 2553 972 2059 
L 3022 2063 
z
" transform="scale(0.015625)"/>
      <path id="DejaVuSans-6c" d="M 603 4863 
L 1178 4863 
L 1178 0 
L 603 0 
L 603 4863 
z
" transform="scale(0.015625)"/>
      <path id="DejaVuSans-63" d="M 3122 3366 
L 3122 2828 
Q 2878 2963 2633 3030 
Q 2388 3097 2138 3097 
Q 1578 3097 1268 2742 
Q 959 2388 959 1747 
Q 959 1106 1268 751 
Q 1578 397 2138 397 
Q 2388 397 2633 464 
Q 2878 531 3122 666 
L 3122 134 
Q 2881 22 2623 -34 
Q 2366 -91 2075 -91 
Q 1284 -91 818 406 
Q 353 903 353 1747 
Q 353 2603 823 3093 
Q 1294 3584 2113 3584 
Q 2378 3584 2631 3529 
Q 2884 3475 3122 3366 
z
" transform="scale(0.015625)"/>
      <path id="DejaVuSans-61" d="M 2194 1759 
Q 1497 1759 1228 1600 
Q 959 1441 959 1056 
Q 959 750 1161 570 
Q 1363 391 1709 391 
Q 2188 391 2477 730 
Q 2766 1069 2766 1631 
L 2766 1759 
L 2194 1759 
z
M 3341 1997 
L 3341 0 
L 2766 0 
L 2766 531 
Q 2569 213 2275 61 
Q 1981 -91 1556 -91 
Q 1019 -91 701 211 
Q 384 513 384 1019 
Q 384 1609 779 1909 
Q 1175 2209 1959 2209 
L 2766 2209 
L 2766 2266 
Q 2766 2663 2505 2880 
Q 2244 3097 1772 3097 
Q 1472 3097 1187 3025 
Q 903 2953 641 2809 
L 641 3341 
Q 956 3463 1253 3523 
Q 1550 3584 1831 3584 
Q 2591 3584 2966 3190 
Q 3341 2797 3341 1997 
z
" transform="scale(0.015625)"/>
      <path id="DejaVuSans-74" d="M 1172 4494 
L 1172 3500 
L 2356 3500 
L 2356 3053 
L 1172 3053 
L 1172 1153 
Q 1172 725 1289 603 
Q 1406 481 1766 481 
L 2356 481 
L 2356 0 
L 1766 0 
Q 1100 0 847 248 
Q 594 497 594 1153 
L 594 3053 
L 172 3053 
L 172 3500 
L 594 3500 
L 594 4494 
L 1172 4494 
z
" transform="scale(0.015625)"/>
      <path id="DejaVuSans-69" d="M 603 3500 
L 1178 3500 
L 1178 0 
L 603 0 
L 603 3500 
z
M 603 4863 
L 1178 4863 
L 1178 4134 
L 603 4134 
L 603 4863 
z
" transform="scale(0.015625)"/>
      <path id="DejaVuSans-73" d="M 2834 3397 
L 2834 2853 
Q 2591 2978 2328 3040 
Q 2066 3103 1784 3103 
Q 1356 3103 1142 2972 
Q 928 2841 928 2578 
Q 928 2378 1081 2264 
Q 1234 2150 1697 2047 
L 1894 2003 
Q 2506 1872 2764 1633 
Q 3022 1394 3022 966 
Q 3022 478 2636 193 
Q 2250 -91 1575 -91 
Q 1294 -91 989 -36 
Q 684 19 347 128 
L 347 722 
Q 666 556 975 473 
Q 1284 391 1588 391 
Q 1994 391 2212 530 
Q 2431 669 2431 922 
Q 2431 1156 2273 1281 
Q 2116 1406 1581 1522 
L 1381 1569 
Q 847 1681 609 1914 
Q 372 2147 372 2553 
Q 372 3047 722 3315 
Q 1072 3584 1716 3584 
Q 2034 3584 2315 3537 
Q 2597 3491 2834 3397 
z
" transform="scale(0.015625)"/>
     </defs>
     <use xlink:href="#DejaVuSans-46"/>
     <use xlink:href="#DejaVuSans-6f" x="53.894531"/>
     <use xlink:href="#DejaVuSans-67" x="115.076172"/>
     <use xlink:href="#DejaVuSans-20" x="178.552734"/>
     <use xlink:href="#DejaVuSans-6e" x="210.339844"/>
     <use xlink:href="#DejaVuSans-6f" x="273.71875"/>
     <use xlink:href="#DejaVuSans-64" x="334.900391"/>
     <use xlink:href="#DejaVuSans-65" x="398.376953"/>
     <use xlink:href="#DejaVuSans-20" x="459.900391"/>
     <use xlink:href="#DejaVuSans-6c" x="491.6875"/>
     <use xlink:href="#DejaVuSans-6f" x="519.470703"/>
     <use xlink:href="#DejaVuSans-63" x="580.652344"/>
     <use xlink:href="#DejaVuSans-61" x="635.632812"/>
     <use xlink:href="#DejaVuSans-74" x="696.912109"/>
     <use xlink:href="#DejaVuSans-69" x="736.121094"/>
     <use xlink:href="#DejaVuSans-6f" x="763.904297"/>
     <use xlink:href="#DejaVuSans-6e" x="825.085938"/>
     <use xlink:href="#DejaVuSans-73" x="888.464844"/>
    </g>
   </g>
   <g id="legend_1">
    <g id="patch_7">
     <path d="M 1164.392188 78.914375 
L 1278.2 78.914375 
Q 1280.2 78.914375 1280.2 76.914375 
L 1280.2 33.88 
Q 1280.2 31.88 1278.2 31.88 
L 1164.392188 31.88 
Q 1162.392188 31.88 1162.392188 33.88 
L 1162.392188 76.914375 
Q 1162.392188 78.914375 1164.392188 78.914375 
z
" style="fill: #ffffff; opacity: 0.8; stroke: #cccccc; stroke-linejoin: miter"/>
    </g>
    <g id="patch_8">
     <path d="M 1166.392188 43.478437 
L 1186.392188 43.478437 
L 1186.392188 36.478437 
L 1166.392188 36.478437 
z
" style="fill: #9b2242; stroke: #9b2242; stroke-linejoin: miter"/>
    </g>
    <g id="text_69">
     <!-- COMPUTE NODE -->
     <g transform="translate(1194.392188 43.478437) scale(0.1 -0.1)">
      <defs>
       <path id="DejaVuSans-4d" d="M 628 4666 
L 1569 4666 
L 2759 1491 
L 3956 4666 
L 4897 4666 
L 4897 0 
L 4281 0 
L 4281 4097 
L 3078 897 
L 2444 897 
L 1241 4097 
L 1241 0 
L 628 0 
L 628 4666 
z
" transform="scale(0.015625)"/>
       <path id="DejaVuSans-50" d="M 1259 4147 
L 1259 2394 
L 2053 2394 
Q 2494 2394 2734 2622 
Q 2975 2850 2975 3272 
Q 2975 3691 2734 3919 
Q 2494 4147 2053 4147 
L 1259 4147 
z
M 628 4666 
L 2053 4666 
Q 2838 4666 3239 4311 
Q 3641 3956 3641 3272 
Q 3641 2581 3239 2228 
Q 2838 1875 2053 1875 
L 1259 1875 
L 1259 0 
L 628 0 
L 628 4666 
z
" transform="scale(0.015625)"/>
       <path id="DejaVuSans-54" d="M -19 4666 
L 3928 4666 
L 3928 4134 
L 2272 4134 
L 2272 0 
L 1638 0 
L 1638 4134 
L -19 4134 
L -19 4666 
z
" transform="scale(0.015625)"/>
       <path id="DejaVuSans-45" d="M 628 4666 
L 3578 4666 
L 3578 4134 
L 1259 4134 
L 1259 2753 
L 3481 2753 
L 3481 2222 
L 1259 2222 
L 1259 531 
L 3634 531 
L 3634 0 
L 628 0 
L 628 4666 
z
" transform="scale(0.015625)"/>
       <path id="DejaVuSans-4e" d="M 628 4666 
L 1478 4666 
L 3547 763 
L 3547 4666 
L 4159 4666 
L 4159 0 
L 3309 0 
L 1241 3903 
L 1241 0 
L 628 0 
L 628 4666 
z
" transform="scale(0.015625)"/>
      </defs>
      <use xlink:href="#DejaVuSans-43"/>
      <use xlink:href="#DejaVuSans-4f" x="69.824219"/>
      <use xlink:href="#DejaVuSans-4d" x="148.535156"/>
      <use xlink:href="#DejaVuSans-50" x="234.814453"/>
      <use xlink:href="#DejaVuSans-55" x="295.117188"/>
      <use xlink:href="#DejaVuSans-54" x="368.310547"/>
      <use xlink:href="#DejaVuSans-45" x="429.394531"/>
      <use xlink:href="#DejaVuSans-20" x="492.578125"/>
      <use xlink:href="#DejaVuSans-4e" x="524.365234"/>
      <use xlink:href="#DejaVuSans-4f" x="599.169922"/>
      <use xlink:href="#DejaVuSans-44" x="677.880859"/>
      <use xlink:href="#DejaVuSans-45" x="754.882812"/>
     </g>
    </g>
    <g id="patch_9">
     <path d="M 1166.392188 58.156562 
L 1186.392188 58.156562 
L 1186.392188 51.156562 
L 1166.392188 51.156562 
z
" style="fill: #026c7c; stroke: #026c7c; stroke-linejoin: miter"/>
    </g>
    <g id="text_70">
     <!-- REQUEST ZONE -->
     <g transform="translate(1194.392188 58.156562) scale(0.1 -0.1)">
      <defs>
       <path id="DejaVuSans-52" d="M 2841 2188 
Q 3044 2119 3236 1894 
Q 3428 1669 3622 1275 
L 4263 0 
L 3584 0 
L 2988 1197 
Q 2756 1666 2539 1819 
Q 2322 1972 1947 1972 
L 1259 1972 
L 1259 0 
L 628 0 
L 628 4666 
L 2053 4666 
Q 2853 4666 3247 4331 
Q 3641 3997 3641 3322 
Q 3641 2881 3436 2590 
Q 3231 2300 2841 2188 
z
M 1259 4147 
L 1259 2491 
L 2053 2491 
Q 2509 2491 2742 2702 
Q 2975 2913 2975 3322 
Q 2975 3731 2742 3939 
Q 2509 4147 2053 4147 
L 1259 4147 
z
" transform="scale(0.015625)"/>
       <path id="DejaVuSans-51" d="M 2522 4238 
Q 1834 4238 1429 3725 
Q 1025 3213 1025 2328 
Q 1025 1447 1429 934 
Q 1834 422 2522 422 
Q 3209 422 3611 934 
Q 4013 1447 4013 2328 
Q 4013 3213 3611 3725 
Q 3209 4238 2522 4238 
z
M 3406 84 
L 4238 -825 
L 3475 -825 
L 2784 -78 
Q 2681 -84 2626 -87 
Q 2572 -91 2522 -91 
Q 1538 -91 948 567 
Q 359 1225 359 2328 
Q 359 3434 948 4092 
Q 1538 4750 2522 4750 
Q 3503 4750 4090 4092 
Q 4678 3434 4678 2328 
Q 4678 1516 4351 937 
Q 4025 359 3406 84 
z
" transform="scale(0.015625)"/>
       <path id="DejaVuSans-53" d="M 3425 4513 
L 3425 3897 
Q 3066 4069 2747 4153 
Q 2428 4238 2131 4238 
Q 1616 4238 1336 4038 
Q 1056 3838 1056 3469 
Q 1056 3159 1242 3001 
Q 1428 2844 1947 2747 
L 2328 2669 
Q 3034 2534 3370 2195 
Q 3706 1856 3706 1288 
Q 3706 609 3251 259 
Q 2797 -91 1919 -91 
Q 1588 -91 1214 -16 
Q 841 59 441 206 
L 441 856 
Q 825 641 1194 531 
Q 1563 422 1919 422 
Q 2459 422 2753 634 
Q 3047 847 3047 1241 
Q 3047 1584 2836 1778 
Q 2625 1972 2144 2069 
L 1759 2144 
Q 1053 2284 737 2584 
Q 422 2884 422 3419 
Q 422 4038 858 4394 
Q 1294 4750 2059 4750 
Q 2388 4750 2728 4690 
Q 3069 4631 3425 4513 
z
" transform="scale(0.015625)"/>
       <path id="DejaVuSans-5a" d="M 359 4666 
L 4025 4666 
L 4025 4184 
L 1075 531 
L 4097 531 
L 4097 0 
L 288 0 
L 288 481 
L 3238 4134 
L 359 4134 
L 359 4666 
z
" transform="scale(0.015625)"/>
      </defs>
      <use xlink:href="#DejaVuSans-52"/>
      <use xlink:href="#DejaVuSans-45" x="69.482422"/>
      <use xlink:href="#DejaVuSans-51" x="132.666016"/>
      <use xlink:href="#DejaVuSans-55" x="211.376953"/>
      <use xlink:href="#DejaVuSans-45" x="284.570312"/>
      <use xlink:href="#DejaVuSans-53" x="347.753906"/>
      <use xlink:href="#DejaVuSans-54" x="411.230469"/>
      <use xlink:href="#DejaVuSans-20" x="472.314453"/>
      <use xlink:href="#DejaVuSans-5a" x="504.101562"/>
      <use xlink:href="#DejaVuSans-4f" x="572.607422"/>
      <use xlink:href="#DejaVuSans-4e" x="651.318359"/>
      <use xlink:href="#DejaVuSans-45" x="726.123047"/>
     </g>
    </g>
    <g id="patch_10">
     <path d="M 1166.392188 72.834687 
L 1186.392188 72.834687 
L 1186.392188 65.834687 
L 1166.392188 65.834687 
z
" style="fill: #01172f; stroke: #01172f; stroke-linejoin: miter"/>
    </g>
    <g id="text_71">
     <!-- CLOUD -->
     <g transform="translate(1194.392188 72.834687) scale(0.1 -0.1)">
      <use xlink:href="#DejaVuSans-43"/>
      <use xlink:href="#DejaVuSans-4c" x="69.824219"/>
      <use xlink:href="#DejaVuSans-4f" x="121.912109"/>
      <use xlink:href="#DejaVuSans-55" x="200.623047"/>
      <use xlink:href="#DejaVuSans-44" x="273.816406"/>
     </g>
    </g>
   </g>
  </g>
 </g>
 <defs>
  <clipPath id="p71a764e980">
   <rect x="65.45" y="26.88" width="1219.75" height="1227.16"/>
  </clipPath>
 </defs>
</svg>
